M48
; DRILL file {KiCad 8.0.4} date 2024-09-06T01:45:48+1000
; FORMAT={-:-/ absolute / metric / decimal}
; #@! TF.CreationDate,2024-09-06T01:45:48+10:00
; #@! TF.GenerationSoftware,Kicad,Pcbnew,8.0.4
; #@! TF.FileFunction,Plated,1,2,PTH
FMAT,2
METRIC
; #@! TA.AperFunction,Plated,PTH,ComponentDrill
T1C1.000
; #@! TA.AperFunction,Plated,PTH,ComponentDrill
T2C1.020
; #@! TA.AperFunction,Plated,PTH,ComponentDrill
T3C2.000
%
G90
G05
T1
X115.219Y-54.716
X115.219Y-69.216
X117.719Y-69.216
X120.219Y-54.716
X120.219Y-69.216
X155.369Y-54.716
X155.369Y-69.216
X157.869Y-69.216
X160.369Y-54.716
X160.369Y-69.216
T2
X128.904Y-45.726
X128.904Y-48.266
X128.904Y-50.806
X128.904Y-53.346
X128.904Y-55.886
X128.904Y-58.426
X128.904Y-60.966
X128.904Y-63.506
X128.904Y-66.046
X128.904Y-68.586
X128.904Y-71.126
X128.904Y-73.666
X128.904Y-76.206
X128.904Y-78.746
X128.904Y-81.286
X128.904Y-83.826
X128.904Y-86.366
X128.904Y-88.906
X128.904Y-91.446
X128.904Y-93.986
X135.254Y-93.756
X137.794Y-93.756
X140.334Y-93.756
X146.684Y-45.726
X146.684Y-48.266
X146.684Y-50.806
X146.684Y-53.346
X146.684Y-55.886
X146.684Y-58.426
X146.684Y-60.966
X146.684Y-63.506
X146.684Y-66.046
X146.684Y-68.586
X146.684Y-71.126
X146.684Y-73.666
X146.684Y-76.206
X146.684Y-78.746
X146.684Y-81.286
X146.684Y-83.826
X146.684Y-86.366
X146.684Y-88.906
X146.684Y-91.446
X146.684Y-93.986
T3
X112.119Y-61.966G85X112.119Y-61.466
G05
X123.319Y-61.966G85X123.319Y-61.466
G05
X152.269Y-61.966G85X152.269Y-61.466
G05
X163.469Y-61.966G85X163.469Y-61.466
G05
M30
