M48
; DRILL file {KiCad 8.0.4} date 2024-09-06T01:45:48+1000
; FORMAT={-:-/ absolute / metric / decimal}
; #@! TF.CreationDate,2024-09-06T01:45:48+10:00
; #@! TF.GenerationSoftware,Kicad,Pcbnew,8.0.4
; #@! TF.FileFunction,NonPlated,1,2,NPTH
FMAT,2
METRIC
; #@! TA.AperFunction,NonPlated,NPTH,ComponentDrill
T1C1.500
; #@! TA.AperFunction,NonPlated,NPTH,ComponentDrill
T2C1.750
; #@! TA.AperFunction,NonPlated,NPTH,ComponentDrill
T3C1.800
; #@! TA.AperFunction,NonPlated,NPTH,ComponentDrill
T4C2.200
; #@! TA.AperFunction,NonPlated,NPTH,ComponentDrill
T5C3.050
; #@! TA.AperFunction,NonPlated,NPTH,ComponentDrill
T6C4.000
%
G90
G05
T1
X135.369Y-48.886
X140.219Y-48.886
T2
X104.139Y-102.241
X104.139Y-121.291
X114.299Y-102.241
X114.299Y-121.291
X123.189Y-102.241
X123.189Y-121.291
X123.189Y-140.341
X133.349Y-102.241
X133.349Y-121.291
X133.349Y-140.341
X142.239Y-102.241
X142.239Y-121.291
X142.239Y-140.341
X152.399Y-102.241
X152.399Y-121.291
X152.399Y-140.341
X161.289Y-102.241
X161.289Y-121.291
X171.449Y-102.241
X171.449Y-121.291
T3
X135.069Y-45.856
X140.519Y-45.856
T4
X103.695Y-78.715
X117.72Y-47.686
X118.745Y-111.765
X137.795Y-111.765
X137.795Y-130.815
X156.845Y-111.765
X157.872Y-47.686
X171.895Y-78.715
T5
X106.679Y-107.321
X106.679Y-126.371
X113.029Y-104.781
X113.029Y-123.831
X124.459Y-137.801
X125.729Y-107.321
X125.729Y-126.371
X130.809Y-135.261
X132.079Y-104.781
X132.079Y-123.831
X143.509Y-137.801
X144.779Y-107.321
X144.779Y-126.371
X149.859Y-135.261
X151.129Y-104.781
X151.129Y-123.831
X163.829Y-107.321
X163.829Y-126.371
X170.179Y-104.781
X170.179Y-123.831
T6
X109.219Y-102.241
X109.219Y-121.291
X128.269Y-102.241
X128.269Y-121.291
X128.269Y-140.341
X147.319Y-102.241
X147.319Y-121.291
X147.319Y-140.341
X166.369Y-102.241
X166.369Y-121.291
M30
