%TF.GenerationSoftware,KiCad,Pcbnew,8.0.4*%
%TF.CreationDate,2024-09-06T01:45:46+10:00*%
%TF.ProjectId,PCB,5043422e-6b69-4636-9164-5f7063625858,rev?*%
%TF.SameCoordinates,Original*%
%TF.FileFunction,Copper,L1,Top*%
%TF.FilePolarity,Positive*%
%FSLAX46Y46*%
G04 Gerber Fmt 4.6, Leading zero omitted, Abs format (unit mm)*
G04 Created by KiCad (PCBNEW 8.0.4) date 2024-09-06 01:45:46*
%MOMM*%
%LPD*%
G01*
G04 APERTURE LIST*
%TA.AperFunction,ComponentPad*%
%ADD10R,2.000000X2.000000*%
%TD*%
%TA.AperFunction,ComponentPad*%
%ADD11C,2.000000*%
%TD*%
%TA.AperFunction,ComponentPad*%
%ADD12R,2.500000X3.000000*%
%TD*%
%TA.AperFunction,ComponentPad*%
%ADD13O,1.700000X1.700000*%
%TD*%
%TA.AperFunction,ComponentPad*%
%ADD14R,1.700000X1.700000*%
%TD*%
G04 APERTURE END LIST*
D10*
%TO.P,E1,A,A*%
%TO.N,GP9*%
X115219000Y-69216000D03*
D11*
%TO.P,E1,B,B*%
%TO.N,GP21*%
X120219000Y-69216000D03*
%TO.P,E1,C,C*%
%TO.N,GND*%
X117719000Y-69216000D03*
D12*
%TO.P,E1,MP*%
%TO.N,N/C*%
X112119000Y-61716000D03*
X123319000Y-61716000D03*
D11*
%TO.P,E1,S1,S1*%
%TO.N,GP26*%
X115219000Y-54716000D03*
%TO.P,E1,S2,S2*%
%TO.N,GND*%
X120219000Y-54716000D03*
%TD*%
D10*
%TO.P,E2,A,A*%
%TO.N,GP9*%
X155369000Y-69216000D03*
D11*
%TO.P,E2,B,B*%
%TO.N,GP10*%
X160369000Y-69216000D03*
%TO.P,E2,C,C*%
%TO.N,GND*%
X157869000Y-69216000D03*
D12*
%TO.P,E2,MP*%
%TO.N,N/C*%
X152269000Y-61716000D03*
X163469000Y-61716000D03*
D11*
%TO.P,E2,S1,S1*%
%TO.N,GP8*%
X155369000Y-54716000D03*
%TO.P,E2,S2,S2*%
%TO.N,GND*%
X160369000Y-54716000D03*
%TD*%
D13*
%TO.P,U1,1,GPIO0*%
%TO.N,unconnected-(U1-GPIO0-Pad1)*%
X146684000Y-45726000D03*
%TO.P,U1,2,GPIO1*%
%TO.N,unconnected-(U1-GPIO1-Pad2)*%
X146684000Y-48266000D03*
D14*
%TO.P,U1,3,GND*%
%TO.N,GND*%
X146684000Y-50806000D03*
D13*
%TO.P,U1,4,GPIO2*%
%TO.N,unconnected-(U1-GPIO2-Pad4)*%
X146684000Y-53346000D03*
%TO.P,U1,5,GPIO3*%
%TO.N,unconnected-(U1-GPIO3-Pad5)*%
X146684000Y-55886000D03*
%TO.P,U1,6,GPIO4*%
%TO.N,unconnected-(U1-GPIO4-Pad6)*%
X146684000Y-58426000D03*
%TO.P,U1,7,GPIO5*%
%TO.N,unconnected-(U1-GPIO5-Pad7)*%
X146684000Y-60966000D03*
D14*
%TO.P,U1,8,GND*%
%TO.N,GND*%
X146684000Y-63506000D03*
D13*
%TO.P,U1,9,GPIO6*%
%TO.N,unconnected-(U1-GPIO6-Pad9)*%
X146684000Y-66046000D03*
%TO.P,U1,10,GPIO7*%
%TO.N,unconnected-(U1-GPIO7-Pad10)*%
X146684000Y-68586000D03*
%TO.P,U1,11,GPIO8*%
%TO.N,GP8*%
X146684000Y-71126000D03*
%TO.P,U1,12,GPIO9*%
%TO.N,GP9*%
X146684000Y-73666000D03*
D14*
%TO.P,U1,13,GND*%
%TO.N,GND*%
X146684000Y-76206000D03*
D13*
%TO.P,U1,14,GPIO10*%
%TO.N,GP10*%
X146684000Y-78746000D03*
%TO.P,U1,15,GPIO11*%
%TO.N,GP11*%
X146684000Y-81286000D03*
%TO.P,U1,16,GPIO12*%
%TO.N,GP12*%
X146684000Y-83826000D03*
%TO.P,U1,17,GPIO13*%
%TO.N,GP13*%
X146684000Y-86366000D03*
D14*
%TO.P,U1,18,GND*%
%TO.N,GND*%
X146684000Y-88906000D03*
D13*
%TO.P,U1,19,GPIO14*%
%TO.N,GP14*%
X146684000Y-91446000D03*
%TO.P,U1,20,GPIO15*%
%TO.N,GP15*%
X146684000Y-93986000D03*
%TO.P,U1,21,GPIO16*%
%TO.N,GP16*%
X128904000Y-93986000D03*
%TO.P,U1,22,GPIO17*%
%TO.N,GP17*%
X128904000Y-91446000D03*
D14*
%TO.P,U1,23,GND*%
%TO.N,GND*%
X128904000Y-88906000D03*
D13*
%TO.P,U1,24,GPIO18*%
%TO.N,GP18*%
X128904000Y-86366000D03*
%TO.P,U1,25,GPIO19*%
%TO.N,GP19*%
X128904000Y-83826000D03*
%TO.P,U1,26,GPIO20*%
%TO.N,GP20*%
X128904000Y-81286000D03*
%TO.P,U1,27,GPIO21*%
%TO.N,GP21*%
X128904000Y-78746000D03*
D14*
%TO.P,U1,28,GND*%
%TO.N,GND*%
X128904000Y-76206000D03*
D13*
%TO.P,U1,29,GPIO22*%
%TO.N,GP9*%
X128904000Y-73666000D03*
%TO.P,U1,30,RUN*%
%TO.N,unconnected-(U1-RUN-Pad30)*%
X128904000Y-71126000D03*
%TO.P,U1,31,GPIO26_ADC0*%
%TO.N,GP26*%
X128904000Y-68586000D03*
%TO.P,U1,32,GPIO27_ADC1*%
%TO.N,unconnected-(U1-GPIO27_ADC1-Pad32)*%
X128904000Y-66046000D03*
D14*
%TO.P,U1,33,AGND*%
%TO.N,GND*%
X128904000Y-63506000D03*
D13*
%TO.P,U1,34,GPIO28_ADC2*%
%TO.N,unconnected-(U1-GPIO28_ADC2-Pad34)*%
X128904000Y-60966000D03*
%TO.P,U1,35,ADC_VREF*%
%TO.N,unconnected-(U1-ADC_VREF-Pad35)*%
X128904000Y-58426000D03*
%TO.P,U1,36,3V3*%
%TO.N,+3V3*%
X128904000Y-55886000D03*
%TO.P,U1,37,3V3_EN*%
%TO.N,unconnected-(U1-3V3_EN-Pad37)*%
X128904000Y-53346000D03*
D14*
%TO.P,U1,38,GND*%
%TO.N,GND*%
X128904000Y-50806000D03*
D13*
%TO.P,U1,39,VSYS*%
%TO.N,unconnected-(U1-VSYS-Pad39)*%
X128904000Y-48266000D03*
%TO.P,U1,40,VBUS*%
%TO.N,unconnected-(U1-VBUS-Pad40)*%
X128904000Y-45726000D03*
%TO.P,U1,41,SWCLK*%
%TO.N,unconnected-(U1-SWCLK-Pad41)*%
X140334000Y-93756000D03*
D14*
%TO.P,U1,42,GND*%
%TO.N,GND*%
X137794000Y-93756000D03*
D13*
%TO.P,U1,43,SWDIO*%
%TO.N,unconnected-(U1-SWDIO-Pad43)*%
X135254000Y-93756000D03*
%TD*%
%TA.AperFunction,Conductor*%
%TO.N,GND*%
G36*
X168338039Y-43834685D02*
G01*
X168383794Y-43887489D01*
X168395000Y-43939000D01*
X168395000Y-51315000D01*
X175771000Y-51315000D01*
X175838039Y-51334685D01*
X175883794Y-51387489D01*
X175895000Y-51439000D01*
X175895000Y-130691000D01*
X175875315Y-130758039D01*
X175822511Y-130803794D01*
X175771000Y-130815000D01*
X156895000Y-130815000D01*
X156895000Y-143491000D01*
X156875315Y-143558039D01*
X156822511Y-143603794D01*
X156771000Y-143615000D01*
X118819000Y-143615000D01*
X118751961Y-143595315D01*
X118706206Y-143542511D01*
X118695000Y-143491000D01*
X118695000Y-140252421D01*
X122063500Y-140252421D01*
X122063500Y-140429578D01*
X122091214Y-140604556D01*
X122145956Y-140773039D01*
X122145957Y-140773042D01*
X122226386Y-140930890D01*
X122330517Y-141074214D01*
X122455786Y-141199483D01*
X122599110Y-141303614D01*
X122667577Y-141338500D01*
X122756957Y-141384042D01*
X122756960Y-141384043D01*
X122841201Y-141411414D01*
X122925445Y-141438786D01*
X123100421Y-141466500D01*
X123100422Y-141466500D01*
X123277578Y-141466500D01*
X123277579Y-141466500D01*
X123452555Y-141438786D01*
X123621042Y-141384042D01*
X123778890Y-141303614D01*
X123922214Y-141199483D01*
X124047483Y-141074214D01*
X124151614Y-140930890D01*
X124232042Y-140773042D01*
X124286786Y-140604555D01*
X124314500Y-140429579D01*
X124314500Y-140252421D01*
X124305165Y-140193486D01*
X126018500Y-140193486D01*
X126018500Y-140488513D01*
X126033778Y-140604555D01*
X126057007Y-140780993D01*
X126133361Y-141065951D01*
X126133364Y-141065961D01*
X126246254Y-141338500D01*
X126246258Y-141338510D01*
X126393761Y-141593993D01*
X126573352Y-141828040D01*
X126573358Y-141828047D01*
X126781952Y-142036641D01*
X126781959Y-142036647D01*
X127016006Y-142216238D01*
X127271489Y-142363741D01*
X127271490Y-142363741D01*
X127271493Y-142363743D01*
X127544048Y-142476639D01*
X127829007Y-142552993D01*
X128121494Y-142591500D01*
X128121501Y-142591500D01*
X128416499Y-142591500D01*
X128416506Y-142591500D01*
X128708993Y-142552993D01*
X128993952Y-142476639D01*
X129266507Y-142363743D01*
X129521994Y-142216238D01*
X129756042Y-142036646D01*
X129964646Y-141828042D01*
X130144238Y-141593994D01*
X130291743Y-141338507D01*
X130404639Y-141065952D01*
X130480993Y-140780993D01*
X130519500Y-140488506D01*
X130519500Y-140252421D01*
X132223500Y-140252421D01*
X132223500Y-140429578D01*
X132251214Y-140604556D01*
X132305956Y-140773039D01*
X132305957Y-140773042D01*
X132386386Y-140930890D01*
X132490517Y-141074214D01*
X132615786Y-141199483D01*
X132759110Y-141303614D01*
X132827577Y-141338500D01*
X132916957Y-141384042D01*
X132916960Y-141384043D01*
X133001201Y-141411414D01*
X133085445Y-141438786D01*
X133260421Y-141466500D01*
X133260422Y-141466500D01*
X133437578Y-141466500D01*
X133437579Y-141466500D01*
X133612555Y-141438786D01*
X133781042Y-141384042D01*
X133938890Y-141303614D01*
X134082214Y-141199483D01*
X134207483Y-141074214D01*
X134311614Y-140930890D01*
X134392042Y-140773042D01*
X134446786Y-140604555D01*
X134474500Y-140429579D01*
X134474500Y-140252421D01*
X141113500Y-140252421D01*
X141113500Y-140429578D01*
X141141214Y-140604556D01*
X141195956Y-140773039D01*
X141195957Y-140773042D01*
X141276386Y-140930890D01*
X141380517Y-141074214D01*
X141505786Y-141199483D01*
X141649110Y-141303614D01*
X141717577Y-141338500D01*
X141806957Y-141384042D01*
X141806960Y-141384043D01*
X141891201Y-141411414D01*
X141975445Y-141438786D01*
X142150421Y-141466500D01*
X142150422Y-141466500D01*
X142327578Y-141466500D01*
X142327579Y-141466500D01*
X142502555Y-141438786D01*
X142671042Y-141384042D01*
X142828890Y-141303614D01*
X142972214Y-141199483D01*
X143097483Y-141074214D01*
X143201614Y-140930890D01*
X143282042Y-140773042D01*
X143336786Y-140604555D01*
X143364500Y-140429579D01*
X143364500Y-140252421D01*
X143355165Y-140193486D01*
X145068500Y-140193486D01*
X145068500Y-140488513D01*
X145083778Y-140604555D01*
X145107007Y-140780993D01*
X145183361Y-141065951D01*
X145183364Y-141065961D01*
X145296254Y-141338500D01*
X145296258Y-141338510D01*
X145443761Y-141593993D01*
X145623352Y-141828040D01*
X145623358Y-141828047D01*
X145831952Y-142036641D01*
X145831959Y-142036647D01*
X146066006Y-142216238D01*
X146321489Y-142363741D01*
X146321490Y-142363741D01*
X146321493Y-142363743D01*
X146594048Y-142476639D01*
X146879007Y-142552993D01*
X147171494Y-142591500D01*
X147171501Y-142591500D01*
X147466499Y-142591500D01*
X147466506Y-142591500D01*
X147758993Y-142552993D01*
X148043952Y-142476639D01*
X148316507Y-142363743D01*
X148571994Y-142216238D01*
X148806042Y-142036646D01*
X149014646Y-141828042D01*
X149194238Y-141593994D01*
X149341743Y-141338507D01*
X149454639Y-141065952D01*
X149530993Y-140780993D01*
X149569500Y-140488506D01*
X149569500Y-140252421D01*
X151273500Y-140252421D01*
X151273500Y-140429578D01*
X151301214Y-140604556D01*
X151355956Y-140773039D01*
X151355957Y-140773042D01*
X151436386Y-140930890D01*
X151540517Y-141074214D01*
X151665786Y-141199483D01*
X151809110Y-141303614D01*
X151877577Y-141338500D01*
X151966957Y-141384042D01*
X151966960Y-141384043D01*
X152051201Y-141411414D01*
X152135445Y-141438786D01*
X152310421Y-141466500D01*
X152310422Y-141466500D01*
X152487578Y-141466500D01*
X152487579Y-141466500D01*
X152662555Y-141438786D01*
X152831042Y-141384042D01*
X152988890Y-141303614D01*
X153132214Y-141199483D01*
X153257483Y-141074214D01*
X153361614Y-140930890D01*
X153442042Y-140773042D01*
X153496786Y-140604555D01*
X153524500Y-140429579D01*
X153524500Y-140252421D01*
X153496786Y-140077445D01*
X153442042Y-139908958D01*
X153442042Y-139908957D01*
X153361613Y-139751109D01*
X153358618Y-139746987D01*
X153257483Y-139607786D01*
X153132214Y-139482517D01*
X152988890Y-139378386D01*
X152831042Y-139297957D01*
X152831039Y-139297956D01*
X152662556Y-139243214D01*
X152575067Y-139229357D01*
X152487579Y-139215500D01*
X152310421Y-139215500D01*
X152252095Y-139224738D01*
X152135443Y-139243214D01*
X151966960Y-139297956D01*
X151966957Y-139297957D01*
X151809109Y-139378386D01*
X151727338Y-139437796D01*
X151665786Y-139482517D01*
X151665784Y-139482519D01*
X151665783Y-139482519D01*
X151540519Y-139607783D01*
X151540519Y-139607784D01*
X151540517Y-139607786D01*
X151495796Y-139669338D01*
X151436386Y-139751109D01*
X151355957Y-139908957D01*
X151355956Y-139908960D01*
X151301214Y-140077443D01*
X151273500Y-140252421D01*
X149569500Y-140252421D01*
X149569500Y-140193494D01*
X149530993Y-139901007D01*
X149454639Y-139616048D01*
X149453615Y-139613577D01*
X149399329Y-139482519D01*
X149341743Y-139343493D01*
X149315453Y-139297958D01*
X149194238Y-139088006D01*
X149014647Y-138853959D01*
X149014641Y-138853952D01*
X148806047Y-138645358D01*
X148806040Y-138645352D01*
X148571993Y-138465761D01*
X148316510Y-138318258D01*
X148316500Y-138318254D01*
X148043961Y-138205364D01*
X148043954Y-138205362D01*
X148043952Y-138205361D01*
X147758993Y-138129007D01*
X147710113Y-138122571D01*
X147466513Y-138090500D01*
X147466506Y-138090500D01*
X147171494Y-138090500D01*
X147171486Y-138090500D01*
X146893085Y-138127153D01*
X146879007Y-138129007D01*
X146594048Y-138205361D01*
X146594038Y-138205364D01*
X146321499Y-138318254D01*
X146321489Y-138318258D01*
X146066006Y-138465761D01*
X145831959Y-138645352D01*
X145831952Y-138645358D01*
X145623358Y-138853952D01*
X145623352Y-138853959D01*
X145443761Y-139088006D01*
X145296258Y-139343489D01*
X145296254Y-139343499D01*
X145183364Y-139616038D01*
X145183361Y-139616048D01*
X145147172Y-139751110D01*
X145107008Y-139901004D01*
X145107006Y-139901015D01*
X145068500Y-140193486D01*
X143355165Y-140193486D01*
X143336786Y-140077445D01*
X143282042Y-139908958D01*
X143282040Y-139908952D01*
X143199513Y-139746987D01*
X143186616Y-139678317D01*
X143212892Y-139613577D01*
X143269998Y-139573319D01*
X143326181Y-139567752D01*
X143385564Y-139575570D01*
X143392612Y-139576498D01*
X143392628Y-139576500D01*
X143392635Y-139576500D01*
X143625365Y-139576500D01*
X143625372Y-139576500D01*
X143856126Y-139546121D01*
X144080940Y-139485882D01*
X144138953Y-139461852D01*
X144295960Y-139396819D01*
X144295963Y-139396817D01*
X144295969Y-139396815D01*
X144497532Y-139280442D01*
X144682181Y-139138756D01*
X144846756Y-138974181D01*
X144988442Y-138789532D01*
X145104815Y-138587969D01*
X145193882Y-138372940D01*
X145254121Y-138148126D01*
X145284500Y-137917372D01*
X145284500Y-137684628D01*
X145254121Y-137453874D01*
X145193882Y-137229060D01*
X145193879Y-137229052D01*
X145104819Y-137014039D01*
X145104811Y-137014023D01*
X144988446Y-136812475D01*
X144988442Y-136812468D01*
X144846756Y-136627819D01*
X144846751Y-136627813D01*
X144682186Y-136463248D01*
X144682179Y-136463242D01*
X144497540Y-136321564D01*
X144497538Y-136321562D01*
X144497532Y-136321558D01*
X144497527Y-136321555D01*
X144497524Y-136321553D01*
X144295976Y-136205188D01*
X144295960Y-136205180D01*
X144080947Y-136116120D01*
X143856122Y-136055878D01*
X143625382Y-136025501D01*
X143625377Y-136025500D01*
X143625372Y-136025500D01*
X143392628Y-136025500D01*
X143392622Y-136025500D01*
X143392617Y-136025501D01*
X143161877Y-136055878D01*
X142937052Y-136116120D01*
X142722039Y-136205180D01*
X142722023Y-136205188D01*
X142520475Y-136321553D01*
X142520459Y-136321564D01*
X142335820Y-136463242D01*
X142335813Y-136463248D01*
X142171248Y-136627813D01*
X142171242Y-136627820D01*
X142029564Y-136812459D01*
X142029553Y-136812475D01*
X141913188Y-137014023D01*
X141913180Y-137014039D01*
X141824120Y-137229052D01*
X141763878Y-137453877D01*
X141733501Y-137684617D01*
X141733500Y-137684634D01*
X141733500Y-137917365D01*
X141733501Y-137917382D01*
X141763878Y-138148122D01*
X141824120Y-138372947D01*
X141913180Y-138587960D01*
X141913188Y-138587976D01*
X142029553Y-138789524D01*
X142029564Y-138789540D01*
X142171242Y-138974179D01*
X142171248Y-138974186D01*
X142204636Y-139007574D01*
X142238121Y-139068897D01*
X142233137Y-139138589D01*
X142191265Y-139194522D01*
X142136353Y-139217728D01*
X141975443Y-139243214D01*
X141806960Y-139297956D01*
X141806957Y-139297957D01*
X141649109Y-139378386D01*
X141567338Y-139437796D01*
X141505786Y-139482517D01*
X141505784Y-139482519D01*
X141505783Y-139482519D01*
X141380519Y-139607783D01*
X141380519Y-139607784D01*
X141380517Y-139607786D01*
X141335796Y-139669338D01*
X141276386Y-139751109D01*
X141195957Y-139908957D01*
X141195956Y-139908960D01*
X141141214Y-140077443D01*
X141113500Y-140252421D01*
X134474500Y-140252421D01*
X134446786Y-140077445D01*
X134392042Y-139908958D01*
X134392042Y-139908957D01*
X134311613Y-139751109D01*
X134308618Y-139746987D01*
X134207483Y-139607786D01*
X134082214Y-139482517D01*
X133938890Y-139378386D01*
X133781042Y-139297957D01*
X133781039Y-139297956D01*
X133612556Y-139243214D01*
X133525067Y-139229357D01*
X133437579Y-139215500D01*
X133260421Y-139215500D01*
X133202095Y-139224738D01*
X133085443Y-139243214D01*
X132916960Y-139297956D01*
X132916957Y-139297957D01*
X132759109Y-139378386D01*
X132677338Y-139437796D01*
X132615786Y-139482517D01*
X132615784Y-139482519D01*
X132615783Y-139482519D01*
X132490519Y-139607783D01*
X132490519Y-139607784D01*
X132490517Y-139607786D01*
X132445796Y-139669338D01*
X132386386Y-139751109D01*
X132305957Y-139908957D01*
X132305956Y-139908960D01*
X132251214Y-140077443D01*
X132223500Y-140252421D01*
X130519500Y-140252421D01*
X130519500Y-140193494D01*
X130480993Y-139901007D01*
X130404639Y-139616048D01*
X130403615Y-139613577D01*
X130349329Y-139482519D01*
X130291743Y-139343493D01*
X130265453Y-139297958D01*
X130144238Y-139088006D01*
X129964647Y-138853959D01*
X129964641Y-138853952D01*
X129756047Y-138645358D01*
X129756040Y-138645352D01*
X129521993Y-138465761D01*
X129266510Y-138318258D01*
X129266500Y-138318254D01*
X128993961Y-138205364D01*
X128993954Y-138205362D01*
X128993952Y-138205361D01*
X128708993Y-138129007D01*
X128660113Y-138122571D01*
X128416513Y-138090500D01*
X128416506Y-138090500D01*
X128121494Y-138090500D01*
X128121486Y-138090500D01*
X127843085Y-138127153D01*
X127829007Y-138129007D01*
X127544048Y-138205361D01*
X127544038Y-138205364D01*
X127271499Y-138318254D01*
X127271489Y-138318258D01*
X127016006Y-138465761D01*
X126781959Y-138645352D01*
X126781952Y-138645358D01*
X126573358Y-138853952D01*
X126573352Y-138853959D01*
X126393761Y-139088006D01*
X126246258Y-139343489D01*
X126246254Y-139343499D01*
X126133364Y-139616038D01*
X126133361Y-139616048D01*
X126097172Y-139751110D01*
X126057008Y-139901004D01*
X126057006Y-139901015D01*
X126018500Y-140193486D01*
X124305165Y-140193486D01*
X124286786Y-140077445D01*
X124232042Y-139908958D01*
X124232040Y-139908952D01*
X124149513Y-139746987D01*
X124136616Y-139678317D01*
X124162892Y-139613577D01*
X124219998Y-139573319D01*
X124276181Y-139567752D01*
X124335564Y-139575570D01*
X124342612Y-139576498D01*
X124342628Y-139576500D01*
X124342635Y-139576500D01*
X124575365Y-139576500D01*
X124575372Y-139576500D01*
X124806126Y-139546121D01*
X125030940Y-139485882D01*
X125088953Y-139461852D01*
X125245960Y-139396819D01*
X125245963Y-139396817D01*
X125245969Y-139396815D01*
X125447532Y-139280442D01*
X125632181Y-139138756D01*
X125796756Y-138974181D01*
X125938442Y-138789532D01*
X126054815Y-138587969D01*
X126143882Y-138372940D01*
X126204121Y-138148126D01*
X126234500Y-137917372D01*
X126234500Y-137684628D01*
X126204121Y-137453874D01*
X126143882Y-137229060D01*
X126143879Y-137229052D01*
X126054819Y-137014039D01*
X126054811Y-137014023D01*
X125938446Y-136812475D01*
X125938442Y-136812468D01*
X125796756Y-136627819D01*
X125796751Y-136627813D01*
X125632186Y-136463248D01*
X125632179Y-136463242D01*
X125447540Y-136321564D01*
X125447538Y-136321562D01*
X125447532Y-136321558D01*
X125447527Y-136321555D01*
X125447524Y-136321553D01*
X125245976Y-136205188D01*
X125245960Y-136205180D01*
X125030947Y-136116120D01*
X124806122Y-136055878D01*
X124575382Y-136025501D01*
X124575377Y-136025500D01*
X124575372Y-136025500D01*
X124342628Y-136025500D01*
X124342622Y-136025500D01*
X124342617Y-136025501D01*
X124111877Y-136055878D01*
X123887052Y-136116120D01*
X123672039Y-136205180D01*
X123672023Y-136205188D01*
X123470475Y-136321553D01*
X123470459Y-136321564D01*
X123285820Y-136463242D01*
X123285813Y-136463248D01*
X123121248Y-136627813D01*
X123121242Y-136627820D01*
X122979564Y-136812459D01*
X122979553Y-136812475D01*
X122863188Y-137014023D01*
X122863180Y-137014039D01*
X122774120Y-137229052D01*
X122713878Y-137453877D01*
X122683501Y-137684617D01*
X122683500Y-137684634D01*
X122683500Y-137917365D01*
X122683501Y-137917382D01*
X122713878Y-138148122D01*
X122774120Y-138372947D01*
X122863180Y-138587960D01*
X122863188Y-138587976D01*
X122979553Y-138789524D01*
X122979564Y-138789540D01*
X123121242Y-138974179D01*
X123121248Y-138974186D01*
X123154636Y-139007574D01*
X123188121Y-139068897D01*
X123183137Y-139138589D01*
X123141265Y-139194522D01*
X123086353Y-139217728D01*
X122925443Y-139243214D01*
X122756960Y-139297956D01*
X122756957Y-139297957D01*
X122599109Y-139378386D01*
X122517338Y-139437796D01*
X122455786Y-139482517D01*
X122455784Y-139482519D01*
X122455783Y-139482519D01*
X122330519Y-139607783D01*
X122330519Y-139607784D01*
X122330517Y-139607786D01*
X122285796Y-139669338D01*
X122226386Y-139751109D01*
X122145957Y-139908957D01*
X122145956Y-139908960D01*
X122091214Y-140077443D01*
X122063500Y-140252421D01*
X118695000Y-140252421D01*
X118695000Y-135144634D01*
X129033500Y-135144634D01*
X129033500Y-135377365D01*
X129033501Y-135377382D01*
X129063878Y-135608122D01*
X129124120Y-135832947D01*
X129213180Y-136047960D01*
X129213188Y-136047976D01*
X129329553Y-136249524D01*
X129329564Y-136249540D01*
X129471242Y-136434179D01*
X129471248Y-136434186D01*
X129635813Y-136598751D01*
X129635820Y-136598757D01*
X129673696Y-136627820D01*
X129820468Y-136740442D01*
X129820475Y-136740446D01*
X130022023Y-136856811D01*
X130022039Y-136856819D01*
X130237052Y-136945879D01*
X130237054Y-136945879D01*
X130237060Y-136945882D01*
X130461874Y-137006121D01*
X130692628Y-137036500D01*
X130692635Y-137036500D01*
X130925365Y-137036500D01*
X130925372Y-137036500D01*
X131156126Y-137006121D01*
X131380940Y-136945882D01*
X131438953Y-136921852D01*
X131595960Y-136856819D01*
X131595963Y-136856817D01*
X131595969Y-136856815D01*
X131797532Y-136740442D01*
X131982181Y-136598756D01*
X132146756Y-136434181D01*
X132288442Y-136249532D01*
X132404815Y-136047969D01*
X132414122Y-136025501D01*
X132493879Y-135832947D01*
X132493878Y-135832947D01*
X132493882Y-135832940D01*
X132554121Y-135608126D01*
X132584500Y-135377372D01*
X132584500Y-135144634D01*
X148083500Y-135144634D01*
X148083500Y-135377365D01*
X148083501Y-135377382D01*
X148113878Y-135608122D01*
X148174120Y-135832947D01*
X148263180Y-136047960D01*
X148263188Y-136047976D01*
X148379553Y-136249524D01*
X148379564Y-136249540D01*
X148521242Y-136434179D01*
X148521248Y-136434186D01*
X148685813Y-136598751D01*
X148685820Y-136598757D01*
X148723696Y-136627820D01*
X148870468Y-136740442D01*
X148870475Y-136740446D01*
X149072023Y-136856811D01*
X149072039Y-136856819D01*
X149287052Y-136945879D01*
X149287054Y-136945879D01*
X149287060Y-136945882D01*
X149511874Y-137006121D01*
X149742628Y-137036500D01*
X149742635Y-137036500D01*
X149975365Y-137036500D01*
X149975372Y-137036500D01*
X150206126Y-137006121D01*
X150430940Y-136945882D01*
X150488953Y-136921852D01*
X150645960Y-136856819D01*
X150645963Y-136856817D01*
X150645969Y-136856815D01*
X150847532Y-136740442D01*
X151032181Y-136598756D01*
X151196756Y-136434181D01*
X151338442Y-136249532D01*
X151454815Y-136047969D01*
X151464122Y-136025501D01*
X151543879Y-135832947D01*
X151543878Y-135832947D01*
X151543882Y-135832940D01*
X151604121Y-135608126D01*
X151634500Y-135377372D01*
X151634500Y-135144628D01*
X151604121Y-134913874D01*
X151543882Y-134689060D01*
X151543879Y-134689052D01*
X151454819Y-134474039D01*
X151454811Y-134474023D01*
X151338446Y-134272475D01*
X151338442Y-134272468D01*
X151196756Y-134087819D01*
X151196751Y-134087813D01*
X151032186Y-133923248D01*
X151032179Y-133923242D01*
X150847540Y-133781564D01*
X150847538Y-133781562D01*
X150847532Y-133781558D01*
X150847527Y-133781555D01*
X150847524Y-133781553D01*
X150645976Y-133665188D01*
X150645960Y-133665180D01*
X150430947Y-133576120D01*
X150206122Y-133515878D01*
X149975382Y-133485501D01*
X149975377Y-133485500D01*
X149975372Y-133485500D01*
X149742628Y-133485500D01*
X149742622Y-133485500D01*
X149742617Y-133485501D01*
X149511877Y-133515878D01*
X149287052Y-133576120D01*
X149072039Y-133665180D01*
X149072023Y-133665188D01*
X148870475Y-133781553D01*
X148870459Y-133781564D01*
X148685820Y-133923242D01*
X148685813Y-133923248D01*
X148521248Y-134087813D01*
X148521242Y-134087820D01*
X148379564Y-134272459D01*
X148379553Y-134272475D01*
X148263188Y-134474023D01*
X148263180Y-134474039D01*
X148174120Y-134689052D01*
X148113878Y-134913877D01*
X148083501Y-135144617D01*
X148083500Y-135144634D01*
X132584500Y-135144634D01*
X132584500Y-135144628D01*
X132554121Y-134913874D01*
X132493882Y-134689060D01*
X132493879Y-134689052D01*
X132404819Y-134474039D01*
X132404811Y-134474023D01*
X132288446Y-134272475D01*
X132288442Y-134272468D01*
X132146756Y-134087819D01*
X132146751Y-134087813D01*
X131982186Y-133923248D01*
X131982179Y-133923242D01*
X131797540Y-133781564D01*
X131797538Y-133781562D01*
X131797532Y-133781558D01*
X131797527Y-133781555D01*
X131797524Y-133781553D01*
X131595976Y-133665188D01*
X131595960Y-133665180D01*
X131380947Y-133576120D01*
X131156122Y-133515878D01*
X130925382Y-133485501D01*
X130925377Y-133485500D01*
X130925372Y-133485500D01*
X130692628Y-133485500D01*
X130692622Y-133485500D01*
X130692617Y-133485501D01*
X130461877Y-133515878D01*
X130237052Y-133576120D01*
X130022039Y-133665180D01*
X130022023Y-133665188D01*
X129820475Y-133781553D01*
X129820459Y-133781564D01*
X129635820Y-133923242D01*
X129635813Y-133923248D01*
X129471248Y-134087813D01*
X129471242Y-134087820D01*
X129329564Y-134272459D01*
X129329553Y-134272475D01*
X129213188Y-134474023D01*
X129213180Y-134474039D01*
X129124120Y-134689052D01*
X129063878Y-134913877D01*
X129033501Y-135144617D01*
X129033500Y-135144634D01*
X118695000Y-135144634D01*
X118695000Y-130815000D01*
X99819000Y-130815000D01*
X99751961Y-130795315D01*
X99706206Y-130742511D01*
X99698853Y-130708713D01*
X136444500Y-130708713D01*
X136444500Y-130921286D01*
X136477753Y-131131239D01*
X136543444Y-131333414D01*
X136639951Y-131522820D01*
X136764890Y-131694786D01*
X136915213Y-131845109D01*
X137087179Y-131970048D01*
X137087181Y-131970049D01*
X137087184Y-131970051D01*
X137276588Y-132066557D01*
X137478757Y-132132246D01*
X137688713Y-132165500D01*
X137688714Y-132165500D01*
X137901286Y-132165500D01*
X137901287Y-132165500D01*
X138111243Y-132132246D01*
X138313412Y-132066557D01*
X138502816Y-131970051D01*
X138524789Y-131954086D01*
X138674786Y-131845109D01*
X138674788Y-131845106D01*
X138674792Y-131845104D01*
X138825104Y-131694792D01*
X138825106Y-131694788D01*
X138825109Y-131694786D01*
X138950048Y-131522820D01*
X138950047Y-131522820D01*
X138950051Y-131522816D01*
X139046557Y-131333412D01*
X139112246Y-131131243D01*
X139145500Y-130921287D01*
X139145500Y-130708713D01*
X139112246Y-130498757D01*
X139046557Y-130296588D01*
X138950051Y-130107184D01*
X138950049Y-130107181D01*
X138950048Y-130107179D01*
X138825109Y-129935213D01*
X138674786Y-129784890D01*
X138502820Y-129659951D01*
X138313414Y-129563444D01*
X138313413Y-129563443D01*
X138313412Y-129563443D01*
X138111243Y-129497754D01*
X138111241Y-129497753D01*
X138111240Y-129497753D01*
X137949957Y-129472208D01*
X137901287Y-129464500D01*
X137688713Y-129464500D01*
X137640042Y-129472208D01*
X137478760Y-129497753D01*
X137276585Y-129563444D01*
X137087179Y-129659951D01*
X136915213Y-129784890D01*
X136764890Y-129935213D01*
X136639951Y-130107179D01*
X136543444Y-130296585D01*
X136477753Y-130498760D01*
X136444500Y-130708713D01*
X99698853Y-130708713D01*
X99695000Y-130691000D01*
X99695000Y-126254634D01*
X104903500Y-126254634D01*
X104903500Y-126487365D01*
X104903501Y-126487382D01*
X104933878Y-126718122D01*
X104994120Y-126942947D01*
X105083180Y-127157960D01*
X105083188Y-127157976D01*
X105199553Y-127359524D01*
X105199564Y-127359540D01*
X105341242Y-127544179D01*
X105341248Y-127544186D01*
X105505813Y-127708751D01*
X105505819Y-127708756D01*
X105690468Y-127850442D01*
X105690475Y-127850446D01*
X105892023Y-127966811D01*
X105892039Y-127966819D01*
X106107052Y-128055879D01*
X106107054Y-128055879D01*
X106107060Y-128055882D01*
X106331874Y-128116121D01*
X106562628Y-128146500D01*
X106562635Y-128146500D01*
X106795365Y-128146500D01*
X106795372Y-128146500D01*
X107026126Y-128116121D01*
X107250940Y-128055882D01*
X107308953Y-128031852D01*
X107465960Y-127966819D01*
X107465963Y-127966817D01*
X107465969Y-127966815D01*
X107667532Y-127850442D01*
X107852181Y-127708756D01*
X108016756Y-127544181D01*
X108158442Y-127359532D01*
X108274815Y-127157969D01*
X108363882Y-126942940D01*
X108424121Y-126718126D01*
X108454500Y-126487372D01*
X108454500Y-126254634D01*
X123953500Y-126254634D01*
X123953500Y-126487365D01*
X123953501Y-126487382D01*
X123983878Y-126718122D01*
X124044120Y-126942947D01*
X124133180Y-127157960D01*
X124133188Y-127157976D01*
X124249553Y-127359524D01*
X124249564Y-127359540D01*
X124391242Y-127544179D01*
X124391248Y-127544186D01*
X124555813Y-127708751D01*
X124555819Y-127708756D01*
X124740468Y-127850442D01*
X124740475Y-127850446D01*
X124942023Y-127966811D01*
X124942039Y-127966819D01*
X125157052Y-128055879D01*
X125157054Y-128055879D01*
X125157060Y-128055882D01*
X125381874Y-128116121D01*
X125612628Y-128146500D01*
X125612635Y-128146500D01*
X125845365Y-128146500D01*
X125845372Y-128146500D01*
X126076126Y-128116121D01*
X126300940Y-128055882D01*
X126358953Y-128031852D01*
X126515960Y-127966819D01*
X126515963Y-127966817D01*
X126515969Y-127966815D01*
X126717532Y-127850442D01*
X126902181Y-127708756D01*
X127066756Y-127544181D01*
X127208442Y-127359532D01*
X127324815Y-127157969D01*
X127413882Y-126942940D01*
X127474121Y-126718126D01*
X127504500Y-126487372D01*
X127504500Y-126254634D01*
X143003500Y-126254634D01*
X143003500Y-126487365D01*
X143003501Y-126487382D01*
X143033878Y-126718122D01*
X143094120Y-126942947D01*
X143183180Y-127157960D01*
X143183188Y-127157976D01*
X143299553Y-127359524D01*
X143299564Y-127359540D01*
X143441242Y-127544179D01*
X143441248Y-127544186D01*
X143605813Y-127708751D01*
X143605819Y-127708756D01*
X143790468Y-127850442D01*
X143790475Y-127850446D01*
X143992023Y-127966811D01*
X143992039Y-127966819D01*
X144207052Y-128055879D01*
X144207054Y-128055879D01*
X144207060Y-128055882D01*
X144431874Y-128116121D01*
X144662628Y-128146500D01*
X144662635Y-128146500D01*
X144895365Y-128146500D01*
X144895372Y-128146500D01*
X145126126Y-128116121D01*
X145350940Y-128055882D01*
X145408953Y-128031852D01*
X145565960Y-127966819D01*
X145565963Y-127966817D01*
X145565969Y-127966815D01*
X145767532Y-127850442D01*
X145952181Y-127708756D01*
X146116756Y-127544181D01*
X146258442Y-127359532D01*
X146374815Y-127157969D01*
X146463882Y-126942940D01*
X146524121Y-126718126D01*
X146554500Y-126487372D01*
X146554500Y-126254634D01*
X162053500Y-126254634D01*
X162053500Y-126487365D01*
X162053501Y-126487382D01*
X162083878Y-126718122D01*
X162144120Y-126942947D01*
X162233180Y-127157960D01*
X162233188Y-127157976D01*
X162349553Y-127359524D01*
X162349564Y-127359540D01*
X162491242Y-127544179D01*
X162491248Y-127544186D01*
X162655813Y-127708751D01*
X162655819Y-127708756D01*
X162840468Y-127850442D01*
X162840475Y-127850446D01*
X163042023Y-127966811D01*
X163042039Y-127966819D01*
X163257052Y-128055879D01*
X163257054Y-128055879D01*
X163257060Y-128055882D01*
X163481874Y-128116121D01*
X163712628Y-128146500D01*
X163712635Y-128146500D01*
X163945365Y-128146500D01*
X163945372Y-128146500D01*
X164176126Y-128116121D01*
X164400940Y-128055882D01*
X164458953Y-128031852D01*
X164615960Y-127966819D01*
X164615963Y-127966817D01*
X164615969Y-127966815D01*
X164817532Y-127850442D01*
X165002181Y-127708756D01*
X165166756Y-127544181D01*
X165308442Y-127359532D01*
X165424815Y-127157969D01*
X165513882Y-126942940D01*
X165574121Y-126718126D01*
X165604500Y-126487372D01*
X165604500Y-126254628D01*
X165574121Y-126023874D01*
X165513882Y-125799060D01*
X165513879Y-125799052D01*
X165424819Y-125584039D01*
X165424811Y-125584023D01*
X165308446Y-125382475D01*
X165308442Y-125382468D01*
X165166756Y-125197819D01*
X165166751Y-125197813D01*
X165002186Y-125033248D01*
X165002179Y-125033242D01*
X164817540Y-124891564D01*
X164817538Y-124891562D01*
X164817532Y-124891558D01*
X164817527Y-124891555D01*
X164817524Y-124891553D01*
X164615976Y-124775188D01*
X164615960Y-124775180D01*
X164400947Y-124686120D01*
X164176122Y-124625878D01*
X163945382Y-124595501D01*
X163945377Y-124595500D01*
X163945372Y-124595500D01*
X163712628Y-124595500D01*
X163712622Y-124595500D01*
X163712617Y-124595501D01*
X163481877Y-124625878D01*
X163257052Y-124686120D01*
X163042039Y-124775180D01*
X163042023Y-124775188D01*
X162840475Y-124891553D01*
X162840459Y-124891564D01*
X162655820Y-125033242D01*
X162655813Y-125033248D01*
X162491248Y-125197813D01*
X162491242Y-125197820D01*
X162349564Y-125382459D01*
X162349553Y-125382475D01*
X162233188Y-125584023D01*
X162233180Y-125584039D01*
X162144120Y-125799052D01*
X162083878Y-126023877D01*
X162053501Y-126254617D01*
X162053500Y-126254634D01*
X146554500Y-126254634D01*
X146554500Y-126254628D01*
X146524121Y-126023874D01*
X146463882Y-125799060D01*
X146463879Y-125799052D01*
X146374819Y-125584039D01*
X146374811Y-125584023D01*
X146258446Y-125382475D01*
X146258442Y-125382468D01*
X146116756Y-125197819D01*
X146116751Y-125197813D01*
X145952186Y-125033248D01*
X145952179Y-125033242D01*
X145767540Y-124891564D01*
X145767538Y-124891562D01*
X145767532Y-124891558D01*
X145767527Y-124891555D01*
X145767524Y-124891553D01*
X145565976Y-124775188D01*
X145565960Y-124775180D01*
X145350947Y-124686120D01*
X145126122Y-124625878D01*
X144895382Y-124595501D01*
X144895377Y-124595500D01*
X144895372Y-124595500D01*
X144662628Y-124595500D01*
X144662622Y-124595500D01*
X144662617Y-124595501D01*
X144431877Y-124625878D01*
X144207052Y-124686120D01*
X143992039Y-124775180D01*
X143992023Y-124775188D01*
X143790475Y-124891553D01*
X143790459Y-124891564D01*
X143605820Y-125033242D01*
X143605813Y-125033248D01*
X143441248Y-125197813D01*
X143441242Y-125197820D01*
X143299564Y-125382459D01*
X143299553Y-125382475D01*
X143183188Y-125584023D01*
X143183180Y-125584039D01*
X143094120Y-125799052D01*
X143033878Y-126023877D01*
X143003501Y-126254617D01*
X143003500Y-126254634D01*
X127504500Y-126254634D01*
X127504500Y-126254628D01*
X127474121Y-126023874D01*
X127413882Y-125799060D01*
X127413879Y-125799052D01*
X127324819Y-125584039D01*
X127324811Y-125584023D01*
X127208446Y-125382475D01*
X127208442Y-125382468D01*
X127066756Y-125197819D01*
X127066751Y-125197813D01*
X126902186Y-125033248D01*
X126902179Y-125033242D01*
X126717540Y-124891564D01*
X126717538Y-124891562D01*
X126717532Y-124891558D01*
X126717527Y-124891555D01*
X126717524Y-124891553D01*
X126515976Y-124775188D01*
X126515960Y-124775180D01*
X126300947Y-124686120D01*
X126076122Y-124625878D01*
X125845382Y-124595501D01*
X125845377Y-124595500D01*
X125845372Y-124595500D01*
X125612628Y-124595500D01*
X125612622Y-124595500D01*
X125612617Y-124595501D01*
X125381877Y-124625878D01*
X125157052Y-124686120D01*
X124942039Y-124775180D01*
X124942023Y-124775188D01*
X124740475Y-124891553D01*
X124740459Y-124891564D01*
X124555820Y-125033242D01*
X124555813Y-125033248D01*
X124391248Y-125197813D01*
X124391242Y-125197820D01*
X124249564Y-125382459D01*
X124249553Y-125382475D01*
X124133188Y-125584023D01*
X124133180Y-125584039D01*
X124044120Y-125799052D01*
X123983878Y-126023877D01*
X123953501Y-126254617D01*
X123953500Y-126254634D01*
X108454500Y-126254634D01*
X108454500Y-126254628D01*
X108424121Y-126023874D01*
X108363882Y-125799060D01*
X108363879Y-125799052D01*
X108274819Y-125584039D01*
X108274811Y-125584023D01*
X108158446Y-125382475D01*
X108158442Y-125382468D01*
X108016756Y-125197819D01*
X108016751Y-125197813D01*
X107852186Y-125033248D01*
X107852179Y-125033242D01*
X107667540Y-124891564D01*
X107667538Y-124891562D01*
X107667532Y-124891558D01*
X107667527Y-124891555D01*
X107667524Y-124891553D01*
X107465976Y-124775188D01*
X107465960Y-124775180D01*
X107250947Y-124686120D01*
X107026122Y-124625878D01*
X106795382Y-124595501D01*
X106795377Y-124595500D01*
X106795372Y-124595500D01*
X106562628Y-124595500D01*
X106562622Y-124595500D01*
X106562617Y-124595501D01*
X106331877Y-124625878D01*
X106107052Y-124686120D01*
X105892039Y-124775180D01*
X105892023Y-124775188D01*
X105690475Y-124891553D01*
X105690459Y-124891564D01*
X105505820Y-125033242D01*
X105505813Y-125033248D01*
X105341248Y-125197813D01*
X105341242Y-125197820D01*
X105199564Y-125382459D01*
X105199553Y-125382475D01*
X105083188Y-125584023D01*
X105083180Y-125584039D01*
X104994120Y-125799052D01*
X104933878Y-126023877D01*
X104903501Y-126254617D01*
X104903500Y-126254634D01*
X99695000Y-126254634D01*
X99695000Y-123714634D01*
X111253500Y-123714634D01*
X111253500Y-123947365D01*
X111253501Y-123947382D01*
X111283878Y-124178122D01*
X111344120Y-124402947D01*
X111433180Y-124617960D01*
X111433188Y-124617976D01*
X111549553Y-124819524D01*
X111549564Y-124819540D01*
X111691242Y-125004179D01*
X111691248Y-125004186D01*
X111855813Y-125168751D01*
X111855820Y-125168757D01*
X111893696Y-125197820D01*
X112040468Y-125310442D01*
X112040475Y-125310446D01*
X112242023Y-125426811D01*
X112242039Y-125426819D01*
X112457052Y-125515879D01*
X112457054Y-125515879D01*
X112457060Y-125515882D01*
X112681874Y-125576121D01*
X112912628Y-125606500D01*
X112912635Y-125606500D01*
X113145365Y-125606500D01*
X113145372Y-125606500D01*
X113376126Y-125576121D01*
X113600940Y-125515882D01*
X113658953Y-125491852D01*
X113815960Y-125426819D01*
X113815963Y-125426817D01*
X113815969Y-125426815D01*
X114017532Y-125310442D01*
X114202181Y-125168756D01*
X114366756Y-125004181D01*
X114508442Y-124819532D01*
X114624815Y-124617969D01*
X114634122Y-124595501D01*
X114713879Y-124402947D01*
X114713878Y-124402947D01*
X114713882Y-124402940D01*
X114774121Y-124178126D01*
X114804500Y-123947372D01*
X114804500Y-123714634D01*
X130303500Y-123714634D01*
X130303500Y-123947365D01*
X130303501Y-123947382D01*
X130333878Y-124178122D01*
X130394120Y-124402947D01*
X130483180Y-124617960D01*
X130483188Y-124617976D01*
X130599553Y-124819524D01*
X130599564Y-124819540D01*
X130741242Y-125004179D01*
X130741248Y-125004186D01*
X130905813Y-125168751D01*
X130905820Y-125168757D01*
X130943696Y-125197820D01*
X131090468Y-125310442D01*
X131090475Y-125310446D01*
X131292023Y-125426811D01*
X131292039Y-125426819D01*
X131507052Y-125515879D01*
X131507054Y-125515879D01*
X131507060Y-125515882D01*
X131731874Y-125576121D01*
X131962628Y-125606500D01*
X131962635Y-125606500D01*
X132195365Y-125606500D01*
X132195372Y-125606500D01*
X132426126Y-125576121D01*
X132650940Y-125515882D01*
X132708953Y-125491852D01*
X132865960Y-125426819D01*
X132865963Y-125426817D01*
X132865969Y-125426815D01*
X133067532Y-125310442D01*
X133252181Y-125168756D01*
X133416756Y-125004181D01*
X133558442Y-124819532D01*
X133674815Y-124617969D01*
X133684122Y-124595501D01*
X133763879Y-124402947D01*
X133763878Y-124402947D01*
X133763882Y-124402940D01*
X133824121Y-124178126D01*
X133854500Y-123947372D01*
X133854500Y-123714634D01*
X149353500Y-123714634D01*
X149353500Y-123947365D01*
X149353501Y-123947382D01*
X149383878Y-124178122D01*
X149444120Y-124402947D01*
X149533180Y-124617960D01*
X149533188Y-124617976D01*
X149649553Y-124819524D01*
X149649564Y-124819540D01*
X149791242Y-125004179D01*
X149791248Y-125004186D01*
X149955813Y-125168751D01*
X149955820Y-125168757D01*
X149993696Y-125197820D01*
X150140468Y-125310442D01*
X150140475Y-125310446D01*
X150342023Y-125426811D01*
X150342039Y-125426819D01*
X150557052Y-125515879D01*
X150557054Y-125515879D01*
X150557060Y-125515882D01*
X150781874Y-125576121D01*
X151012628Y-125606500D01*
X151012635Y-125606500D01*
X151245365Y-125606500D01*
X151245372Y-125606500D01*
X151476126Y-125576121D01*
X151700940Y-125515882D01*
X151758953Y-125491852D01*
X151915960Y-125426819D01*
X151915963Y-125426817D01*
X151915969Y-125426815D01*
X152117532Y-125310442D01*
X152302181Y-125168756D01*
X152466756Y-125004181D01*
X152608442Y-124819532D01*
X152724815Y-124617969D01*
X152734122Y-124595501D01*
X152813879Y-124402947D01*
X152813878Y-124402947D01*
X152813882Y-124402940D01*
X152874121Y-124178126D01*
X152904500Y-123947372D01*
X152904500Y-123714634D01*
X168403500Y-123714634D01*
X168403500Y-123947365D01*
X168403501Y-123947382D01*
X168433878Y-124178122D01*
X168494120Y-124402947D01*
X168583180Y-124617960D01*
X168583188Y-124617976D01*
X168699553Y-124819524D01*
X168699564Y-124819540D01*
X168841242Y-125004179D01*
X168841248Y-125004186D01*
X169005813Y-125168751D01*
X169005820Y-125168757D01*
X169043696Y-125197820D01*
X169190468Y-125310442D01*
X169190475Y-125310446D01*
X169392023Y-125426811D01*
X169392039Y-125426819D01*
X169607052Y-125515879D01*
X169607054Y-125515879D01*
X169607060Y-125515882D01*
X169831874Y-125576121D01*
X170062628Y-125606500D01*
X170062635Y-125606500D01*
X170295365Y-125606500D01*
X170295372Y-125606500D01*
X170526126Y-125576121D01*
X170750940Y-125515882D01*
X170808953Y-125491852D01*
X170965960Y-125426819D01*
X170965963Y-125426817D01*
X170965969Y-125426815D01*
X171167532Y-125310442D01*
X171352181Y-125168756D01*
X171516756Y-125004181D01*
X171658442Y-124819532D01*
X171774815Y-124617969D01*
X171784122Y-124595501D01*
X171863879Y-124402947D01*
X171863878Y-124402947D01*
X171863882Y-124402940D01*
X171924121Y-124178126D01*
X171954500Y-123947372D01*
X171954500Y-123714628D01*
X171924121Y-123483874D01*
X171863882Y-123259060D01*
X171863879Y-123259052D01*
X171774819Y-123044039D01*
X171774811Y-123044023D01*
X171658446Y-122842475D01*
X171658442Y-122842468D01*
X171516756Y-122657819D01*
X171516751Y-122657813D01*
X171483363Y-122624425D01*
X171449878Y-122563102D01*
X171454862Y-122493410D01*
X171496734Y-122437477D01*
X171551643Y-122414272D01*
X171712555Y-122388786D01*
X171881042Y-122334042D01*
X172038890Y-122253614D01*
X172182214Y-122149483D01*
X172307483Y-122024214D01*
X172411614Y-121880890D01*
X172492042Y-121723042D01*
X172546786Y-121554555D01*
X172574500Y-121379579D01*
X172574500Y-121202421D01*
X172546786Y-121027445D01*
X172492042Y-120858958D01*
X172492042Y-120858957D01*
X172411613Y-120701109D01*
X172307483Y-120557786D01*
X172182214Y-120432517D01*
X172038890Y-120328386D01*
X171881042Y-120247957D01*
X171881039Y-120247956D01*
X171712556Y-120193214D01*
X171625067Y-120179357D01*
X171537579Y-120165500D01*
X171360421Y-120165500D01*
X171302095Y-120174738D01*
X171185443Y-120193214D01*
X171016960Y-120247956D01*
X171016957Y-120247957D01*
X170859109Y-120328386D01*
X170777338Y-120387796D01*
X170715786Y-120432517D01*
X170715784Y-120432519D01*
X170715783Y-120432519D01*
X170590519Y-120557783D01*
X170590519Y-120557784D01*
X170590517Y-120557786D01*
X170545796Y-120619338D01*
X170486386Y-120701109D01*
X170405957Y-120858957D01*
X170405956Y-120858960D01*
X170351214Y-121027443D01*
X170323500Y-121202421D01*
X170323500Y-121379578D01*
X170351214Y-121554556D01*
X170405956Y-121723039D01*
X170405957Y-121723042D01*
X170488487Y-121885013D01*
X170501383Y-121953682D01*
X170475107Y-122018422D01*
X170418001Y-122058680D01*
X170361817Y-122064247D01*
X170295382Y-122055501D01*
X170295377Y-122055500D01*
X170295372Y-122055500D01*
X170062628Y-122055500D01*
X170062622Y-122055500D01*
X170062617Y-122055501D01*
X169831877Y-122085878D01*
X169607052Y-122146120D01*
X169392039Y-122235180D01*
X169392023Y-122235188D01*
X169190475Y-122351553D01*
X169190459Y-122351564D01*
X169005820Y-122493242D01*
X169005813Y-122493248D01*
X168841248Y-122657813D01*
X168841242Y-122657820D01*
X168699564Y-122842459D01*
X168699553Y-122842475D01*
X168583188Y-123044023D01*
X168583180Y-123044039D01*
X168494120Y-123259052D01*
X168433878Y-123483877D01*
X168403501Y-123714617D01*
X168403500Y-123714634D01*
X152904500Y-123714634D01*
X152904500Y-123714628D01*
X152874121Y-123483874D01*
X152813882Y-123259060D01*
X152813879Y-123259052D01*
X152724819Y-123044039D01*
X152724811Y-123044023D01*
X152608446Y-122842475D01*
X152608442Y-122842468D01*
X152466756Y-122657819D01*
X152466751Y-122657813D01*
X152433363Y-122624425D01*
X152399878Y-122563102D01*
X152404862Y-122493410D01*
X152446734Y-122437477D01*
X152501643Y-122414272D01*
X152662555Y-122388786D01*
X152831042Y-122334042D01*
X152988890Y-122253614D01*
X153132214Y-122149483D01*
X153257483Y-122024214D01*
X153361614Y-121880890D01*
X153442042Y-121723042D01*
X153496786Y-121554555D01*
X153524500Y-121379579D01*
X153524500Y-121202421D01*
X160163500Y-121202421D01*
X160163500Y-121379578D01*
X160191214Y-121554556D01*
X160245956Y-121723039D01*
X160245957Y-121723042D01*
X160326386Y-121880890D01*
X160430517Y-122024214D01*
X160555786Y-122149483D01*
X160699110Y-122253614D01*
X160767577Y-122288500D01*
X160856957Y-122334042D01*
X160856960Y-122334043D01*
X160910852Y-122351553D01*
X161025445Y-122388786D01*
X161200421Y-122416500D01*
X161200422Y-122416500D01*
X161377578Y-122416500D01*
X161377579Y-122416500D01*
X161552555Y-122388786D01*
X161721042Y-122334042D01*
X161878890Y-122253614D01*
X162022214Y-122149483D01*
X162147483Y-122024214D01*
X162251614Y-121880890D01*
X162332042Y-121723042D01*
X162386786Y-121554555D01*
X162414500Y-121379579D01*
X162414500Y-121202421D01*
X162405165Y-121143486D01*
X164118500Y-121143486D01*
X164118500Y-121438513D01*
X164133778Y-121554555D01*
X164157007Y-121730993D01*
X164216676Y-121953682D01*
X164233361Y-122015951D01*
X164233364Y-122015961D01*
X164346254Y-122288500D01*
X164346258Y-122288510D01*
X164493761Y-122543993D01*
X164673352Y-122778040D01*
X164673358Y-122778047D01*
X164881952Y-122986641D01*
X164881959Y-122986647D01*
X165116006Y-123166238D01*
X165371489Y-123313741D01*
X165371490Y-123313741D01*
X165371493Y-123313743D01*
X165644048Y-123426639D01*
X165929007Y-123502993D01*
X166221494Y-123541500D01*
X166221501Y-123541500D01*
X166516499Y-123541500D01*
X166516506Y-123541500D01*
X166808993Y-123502993D01*
X167093952Y-123426639D01*
X167366507Y-123313743D01*
X167621994Y-123166238D01*
X167856042Y-122986646D01*
X168064646Y-122778042D01*
X168244238Y-122543994D01*
X168391743Y-122288507D01*
X168504639Y-122015952D01*
X168580993Y-121730993D01*
X168619500Y-121438506D01*
X168619500Y-121143494D01*
X168580993Y-120851007D01*
X168504639Y-120566048D01*
X168391743Y-120293493D01*
X168365453Y-120247958D01*
X168244238Y-120038006D01*
X168064647Y-119803959D01*
X168064641Y-119803952D01*
X167856047Y-119595358D01*
X167856040Y-119595352D01*
X167621993Y-119415761D01*
X167366510Y-119268258D01*
X167366500Y-119268254D01*
X167093961Y-119155364D01*
X167093954Y-119155362D01*
X167093952Y-119155361D01*
X166808993Y-119079007D01*
X166760113Y-119072571D01*
X166516513Y-119040500D01*
X166516506Y-119040500D01*
X166221494Y-119040500D01*
X166221486Y-119040500D01*
X165943085Y-119077153D01*
X165929007Y-119079007D01*
X165644048Y-119155361D01*
X165644038Y-119155364D01*
X165371499Y-119268254D01*
X165371489Y-119268258D01*
X165116006Y-119415761D01*
X164881959Y-119595352D01*
X164881952Y-119595358D01*
X164673358Y-119803952D01*
X164673352Y-119803959D01*
X164493761Y-120038006D01*
X164346258Y-120293489D01*
X164346254Y-120293499D01*
X164233364Y-120566038D01*
X164233361Y-120566048D01*
X164197172Y-120701110D01*
X164157008Y-120851004D01*
X164157006Y-120851015D01*
X164118500Y-121143486D01*
X162405165Y-121143486D01*
X162386786Y-121027445D01*
X162332042Y-120858958D01*
X162332042Y-120858957D01*
X162251613Y-120701109D01*
X162147483Y-120557786D01*
X162022214Y-120432517D01*
X161878890Y-120328386D01*
X161721042Y-120247957D01*
X161721039Y-120247956D01*
X161552556Y-120193214D01*
X161465067Y-120179357D01*
X161377579Y-120165500D01*
X161200421Y-120165500D01*
X161142095Y-120174738D01*
X161025443Y-120193214D01*
X160856960Y-120247956D01*
X160856957Y-120247957D01*
X160699109Y-120328386D01*
X160617338Y-120387796D01*
X160555786Y-120432517D01*
X160555784Y-120432519D01*
X160555783Y-120432519D01*
X160430519Y-120557783D01*
X160430519Y-120557784D01*
X160430517Y-120557786D01*
X160385796Y-120619338D01*
X160326386Y-120701109D01*
X160245957Y-120858957D01*
X160245956Y-120858960D01*
X160191214Y-121027443D01*
X160163500Y-121202421D01*
X153524500Y-121202421D01*
X153496786Y-121027445D01*
X153442042Y-120858958D01*
X153442042Y-120858957D01*
X153361613Y-120701109D01*
X153257483Y-120557786D01*
X153132214Y-120432517D01*
X152988890Y-120328386D01*
X152831042Y-120247957D01*
X152831039Y-120247956D01*
X152662556Y-120193214D01*
X152575067Y-120179357D01*
X152487579Y-120165500D01*
X152310421Y-120165500D01*
X152252095Y-120174738D01*
X152135443Y-120193214D01*
X151966960Y-120247956D01*
X151966957Y-120247957D01*
X151809109Y-120328386D01*
X151727338Y-120387796D01*
X151665786Y-120432517D01*
X151665784Y-120432519D01*
X151665783Y-120432519D01*
X151540519Y-120557783D01*
X151540519Y-120557784D01*
X151540517Y-120557786D01*
X151495796Y-120619338D01*
X151436386Y-120701109D01*
X151355957Y-120858957D01*
X151355956Y-120858960D01*
X151301214Y-121027443D01*
X151273500Y-121202421D01*
X151273500Y-121379578D01*
X151301214Y-121554556D01*
X151355956Y-121723039D01*
X151355957Y-121723042D01*
X151438487Y-121885013D01*
X151451383Y-121953682D01*
X151425107Y-122018422D01*
X151368001Y-122058680D01*
X151311817Y-122064247D01*
X151245382Y-122055501D01*
X151245377Y-122055500D01*
X151245372Y-122055500D01*
X151012628Y-122055500D01*
X151012622Y-122055500D01*
X151012617Y-122055501D01*
X150781877Y-122085878D01*
X150557052Y-122146120D01*
X150342039Y-122235180D01*
X150342023Y-122235188D01*
X150140475Y-122351553D01*
X150140459Y-122351564D01*
X149955820Y-122493242D01*
X149955813Y-122493248D01*
X149791248Y-122657813D01*
X149791242Y-122657820D01*
X149649564Y-122842459D01*
X149649553Y-122842475D01*
X149533188Y-123044023D01*
X149533180Y-123044039D01*
X149444120Y-123259052D01*
X149383878Y-123483877D01*
X149353501Y-123714617D01*
X149353500Y-123714634D01*
X133854500Y-123714634D01*
X133854500Y-123714628D01*
X133824121Y-123483874D01*
X133763882Y-123259060D01*
X133763879Y-123259052D01*
X133674819Y-123044039D01*
X133674811Y-123044023D01*
X133558446Y-122842475D01*
X133558442Y-122842468D01*
X133416756Y-122657819D01*
X133416751Y-122657813D01*
X133383363Y-122624425D01*
X133349878Y-122563102D01*
X133354862Y-122493410D01*
X133396734Y-122437477D01*
X133451643Y-122414272D01*
X133612555Y-122388786D01*
X133781042Y-122334042D01*
X133938890Y-122253614D01*
X134082214Y-122149483D01*
X134207483Y-122024214D01*
X134311614Y-121880890D01*
X134392042Y-121723042D01*
X134446786Y-121554555D01*
X134474500Y-121379579D01*
X134474500Y-121202421D01*
X141113500Y-121202421D01*
X141113500Y-121379578D01*
X141141214Y-121554556D01*
X141195956Y-121723039D01*
X141195957Y-121723042D01*
X141276386Y-121880890D01*
X141380517Y-122024214D01*
X141505786Y-122149483D01*
X141649110Y-122253614D01*
X141717577Y-122288500D01*
X141806957Y-122334042D01*
X141806960Y-122334043D01*
X141860852Y-122351553D01*
X141975445Y-122388786D01*
X142150421Y-122416500D01*
X142150422Y-122416500D01*
X142327578Y-122416500D01*
X142327579Y-122416500D01*
X142502555Y-122388786D01*
X142671042Y-122334042D01*
X142828890Y-122253614D01*
X142972214Y-122149483D01*
X143097483Y-122024214D01*
X143201614Y-121880890D01*
X143282042Y-121723042D01*
X143336786Y-121554555D01*
X143364500Y-121379579D01*
X143364500Y-121202421D01*
X143355165Y-121143486D01*
X145068500Y-121143486D01*
X145068500Y-121438513D01*
X145083778Y-121554555D01*
X145107007Y-121730993D01*
X145166676Y-121953682D01*
X145183361Y-122015951D01*
X145183364Y-122015961D01*
X145296254Y-122288500D01*
X145296258Y-122288510D01*
X145443761Y-122543993D01*
X145623352Y-122778040D01*
X145623358Y-122778047D01*
X145831952Y-122986641D01*
X145831959Y-122986647D01*
X146066006Y-123166238D01*
X146321489Y-123313741D01*
X146321490Y-123313741D01*
X146321493Y-123313743D01*
X146594048Y-123426639D01*
X146879007Y-123502993D01*
X147171494Y-123541500D01*
X147171501Y-123541500D01*
X147466499Y-123541500D01*
X147466506Y-123541500D01*
X147758993Y-123502993D01*
X148043952Y-123426639D01*
X148316507Y-123313743D01*
X148571994Y-123166238D01*
X148806042Y-122986646D01*
X149014646Y-122778042D01*
X149194238Y-122543994D01*
X149341743Y-122288507D01*
X149454639Y-122015952D01*
X149530993Y-121730993D01*
X149569500Y-121438506D01*
X149569500Y-121143494D01*
X149530993Y-120851007D01*
X149454639Y-120566048D01*
X149341743Y-120293493D01*
X149315453Y-120247958D01*
X149194238Y-120038006D01*
X149014647Y-119803959D01*
X149014641Y-119803952D01*
X148806047Y-119595358D01*
X148806040Y-119595352D01*
X148571993Y-119415761D01*
X148316510Y-119268258D01*
X148316500Y-119268254D01*
X148043961Y-119155364D01*
X148043954Y-119155362D01*
X148043952Y-119155361D01*
X147758993Y-119079007D01*
X147710113Y-119072571D01*
X147466513Y-119040500D01*
X147466506Y-119040500D01*
X147171494Y-119040500D01*
X147171486Y-119040500D01*
X146893085Y-119077153D01*
X146879007Y-119079007D01*
X146594048Y-119155361D01*
X146594038Y-119155364D01*
X146321499Y-119268254D01*
X146321489Y-119268258D01*
X146066006Y-119415761D01*
X145831959Y-119595352D01*
X145831952Y-119595358D01*
X145623358Y-119803952D01*
X145623352Y-119803959D01*
X145443761Y-120038006D01*
X145296258Y-120293489D01*
X145296254Y-120293499D01*
X145183364Y-120566038D01*
X145183361Y-120566048D01*
X145147172Y-120701110D01*
X145107008Y-120851004D01*
X145107006Y-120851015D01*
X145068500Y-121143486D01*
X143355165Y-121143486D01*
X143336786Y-121027445D01*
X143282042Y-120858958D01*
X143282042Y-120858957D01*
X143201613Y-120701109D01*
X143097483Y-120557786D01*
X142972214Y-120432517D01*
X142828890Y-120328386D01*
X142671042Y-120247957D01*
X142671039Y-120247956D01*
X142502556Y-120193214D01*
X142415067Y-120179357D01*
X142327579Y-120165500D01*
X142150421Y-120165500D01*
X142092095Y-120174738D01*
X141975443Y-120193214D01*
X141806960Y-120247956D01*
X141806957Y-120247957D01*
X141649109Y-120328386D01*
X141567338Y-120387796D01*
X141505786Y-120432517D01*
X141505784Y-120432519D01*
X141505783Y-120432519D01*
X141380519Y-120557783D01*
X141380519Y-120557784D01*
X141380517Y-120557786D01*
X141335796Y-120619338D01*
X141276386Y-120701109D01*
X141195957Y-120858957D01*
X141195956Y-120858960D01*
X141141214Y-121027443D01*
X141113500Y-121202421D01*
X134474500Y-121202421D01*
X134446786Y-121027445D01*
X134392042Y-120858958D01*
X134392042Y-120858957D01*
X134311613Y-120701109D01*
X134207483Y-120557786D01*
X134082214Y-120432517D01*
X133938890Y-120328386D01*
X133781042Y-120247957D01*
X133781039Y-120247956D01*
X133612556Y-120193214D01*
X133525067Y-120179357D01*
X133437579Y-120165500D01*
X133260421Y-120165500D01*
X133202095Y-120174738D01*
X133085443Y-120193214D01*
X132916960Y-120247956D01*
X132916957Y-120247957D01*
X132759109Y-120328386D01*
X132677338Y-120387796D01*
X132615786Y-120432517D01*
X132615784Y-120432519D01*
X132615783Y-120432519D01*
X132490519Y-120557783D01*
X132490519Y-120557784D01*
X132490517Y-120557786D01*
X132445796Y-120619338D01*
X132386386Y-120701109D01*
X132305957Y-120858957D01*
X132305956Y-120858960D01*
X132251214Y-121027443D01*
X132223500Y-121202421D01*
X132223500Y-121379578D01*
X132251214Y-121554556D01*
X132305956Y-121723039D01*
X132305957Y-121723042D01*
X132388487Y-121885013D01*
X132401383Y-121953682D01*
X132375107Y-122018422D01*
X132318001Y-122058680D01*
X132261817Y-122064247D01*
X132195382Y-122055501D01*
X132195377Y-122055500D01*
X132195372Y-122055500D01*
X131962628Y-122055500D01*
X131962622Y-122055500D01*
X131962617Y-122055501D01*
X131731877Y-122085878D01*
X131507052Y-122146120D01*
X131292039Y-122235180D01*
X131292023Y-122235188D01*
X131090475Y-122351553D01*
X131090459Y-122351564D01*
X130905820Y-122493242D01*
X130905813Y-122493248D01*
X130741248Y-122657813D01*
X130741242Y-122657820D01*
X130599564Y-122842459D01*
X130599553Y-122842475D01*
X130483188Y-123044023D01*
X130483180Y-123044039D01*
X130394120Y-123259052D01*
X130333878Y-123483877D01*
X130303501Y-123714617D01*
X130303500Y-123714634D01*
X114804500Y-123714634D01*
X114804500Y-123714628D01*
X114774121Y-123483874D01*
X114713882Y-123259060D01*
X114713879Y-123259052D01*
X114624819Y-123044039D01*
X114624811Y-123044023D01*
X114508446Y-122842475D01*
X114508442Y-122842468D01*
X114366756Y-122657819D01*
X114366751Y-122657813D01*
X114333363Y-122624425D01*
X114299878Y-122563102D01*
X114304862Y-122493410D01*
X114346734Y-122437477D01*
X114401643Y-122414272D01*
X114562555Y-122388786D01*
X114731042Y-122334042D01*
X114888890Y-122253614D01*
X115032214Y-122149483D01*
X115157483Y-122024214D01*
X115261614Y-121880890D01*
X115342042Y-121723042D01*
X115396786Y-121554555D01*
X115424500Y-121379579D01*
X115424500Y-121202421D01*
X122063500Y-121202421D01*
X122063500Y-121379578D01*
X122091214Y-121554556D01*
X122145956Y-121723039D01*
X122145957Y-121723042D01*
X122226386Y-121880890D01*
X122330517Y-122024214D01*
X122455786Y-122149483D01*
X122599110Y-122253614D01*
X122667577Y-122288500D01*
X122756957Y-122334042D01*
X122756960Y-122334043D01*
X122810852Y-122351553D01*
X122925445Y-122388786D01*
X123100421Y-122416500D01*
X123100422Y-122416500D01*
X123277578Y-122416500D01*
X123277579Y-122416500D01*
X123452555Y-122388786D01*
X123621042Y-122334042D01*
X123778890Y-122253614D01*
X123922214Y-122149483D01*
X124047483Y-122024214D01*
X124151614Y-121880890D01*
X124232042Y-121723042D01*
X124286786Y-121554555D01*
X124314500Y-121379579D01*
X124314500Y-121202421D01*
X124305165Y-121143486D01*
X126018500Y-121143486D01*
X126018500Y-121438513D01*
X126033778Y-121554555D01*
X126057007Y-121730993D01*
X126116676Y-121953682D01*
X126133361Y-122015951D01*
X126133364Y-122015961D01*
X126246254Y-122288500D01*
X126246258Y-122288510D01*
X126393761Y-122543993D01*
X126573352Y-122778040D01*
X126573358Y-122778047D01*
X126781952Y-122986641D01*
X126781959Y-122986647D01*
X127016006Y-123166238D01*
X127271489Y-123313741D01*
X127271490Y-123313741D01*
X127271493Y-123313743D01*
X127544048Y-123426639D01*
X127829007Y-123502993D01*
X128121494Y-123541500D01*
X128121501Y-123541500D01*
X128416499Y-123541500D01*
X128416506Y-123541500D01*
X128708993Y-123502993D01*
X128993952Y-123426639D01*
X129266507Y-123313743D01*
X129521994Y-123166238D01*
X129756042Y-122986646D01*
X129964646Y-122778042D01*
X130144238Y-122543994D01*
X130291743Y-122288507D01*
X130404639Y-122015952D01*
X130480993Y-121730993D01*
X130519500Y-121438506D01*
X130519500Y-121143494D01*
X130480993Y-120851007D01*
X130404639Y-120566048D01*
X130291743Y-120293493D01*
X130265453Y-120247958D01*
X130144238Y-120038006D01*
X129964647Y-119803959D01*
X129964641Y-119803952D01*
X129756047Y-119595358D01*
X129756040Y-119595352D01*
X129521993Y-119415761D01*
X129266510Y-119268258D01*
X129266500Y-119268254D01*
X128993961Y-119155364D01*
X128993954Y-119155362D01*
X128993952Y-119155361D01*
X128708993Y-119079007D01*
X128660113Y-119072571D01*
X128416513Y-119040500D01*
X128416506Y-119040500D01*
X128121494Y-119040500D01*
X128121486Y-119040500D01*
X127843085Y-119077153D01*
X127829007Y-119079007D01*
X127544048Y-119155361D01*
X127544038Y-119155364D01*
X127271499Y-119268254D01*
X127271489Y-119268258D01*
X127016006Y-119415761D01*
X126781959Y-119595352D01*
X126781952Y-119595358D01*
X126573358Y-119803952D01*
X126573352Y-119803959D01*
X126393761Y-120038006D01*
X126246258Y-120293489D01*
X126246254Y-120293499D01*
X126133364Y-120566038D01*
X126133361Y-120566048D01*
X126097172Y-120701110D01*
X126057008Y-120851004D01*
X126057006Y-120851015D01*
X126018500Y-121143486D01*
X124305165Y-121143486D01*
X124286786Y-121027445D01*
X124232042Y-120858958D01*
X124232042Y-120858957D01*
X124151613Y-120701109D01*
X124047483Y-120557786D01*
X123922214Y-120432517D01*
X123778890Y-120328386D01*
X123621042Y-120247957D01*
X123621039Y-120247956D01*
X123452556Y-120193214D01*
X123365067Y-120179357D01*
X123277579Y-120165500D01*
X123100421Y-120165500D01*
X123042095Y-120174738D01*
X122925443Y-120193214D01*
X122756960Y-120247956D01*
X122756957Y-120247957D01*
X122599109Y-120328386D01*
X122517338Y-120387796D01*
X122455786Y-120432517D01*
X122455784Y-120432519D01*
X122455783Y-120432519D01*
X122330519Y-120557783D01*
X122330519Y-120557784D01*
X122330517Y-120557786D01*
X122285796Y-120619338D01*
X122226386Y-120701109D01*
X122145957Y-120858957D01*
X122145956Y-120858960D01*
X122091214Y-121027443D01*
X122063500Y-121202421D01*
X115424500Y-121202421D01*
X115396786Y-121027445D01*
X115342042Y-120858958D01*
X115342042Y-120858957D01*
X115261613Y-120701109D01*
X115157483Y-120557786D01*
X115032214Y-120432517D01*
X114888890Y-120328386D01*
X114731042Y-120247957D01*
X114731039Y-120247956D01*
X114562556Y-120193214D01*
X114475067Y-120179357D01*
X114387579Y-120165500D01*
X114210421Y-120165500D01*
X114152095Y-120174738D01*
X114035443Y-120193214D01*
X113866960Y-120247956D01*
X113866957Y-120247957D01*
X113709109Y-120328386D01*
X113627338Y-120387796D01*
X113565786Y-120432517D01*
X113565784Y-120432519D01*
X113565783Y-120432519D01*
X113440519Y-120557783D01*
X113440519Y-120557784D01*
X113440517Y-120557786D01*
X113395796Y-120619338D01*
X113336386Y-120701109D01*
X113255957Y-120858957D01*
X113255956Y-120858960D01*
X113201214Y-121027443D01*
X113173500Y-121202421D01*
X113173500Y-121379578D01*
X113201214Y-121554556D01*
X113255956Y-121723039D01*
X113255957Y-121723042D01*
X113338487Y-121885013D01*
X113351383Y-121953682D01*
X113325107Y-122018422D01*
X113268001Y-122058680D01*
X113211817Y-122064247D01*
X113145382Y-122055501D01*
X113145377Y-122055500D01*
X113145372Y-122055500D01*
X112912628Y-122055500D01*
X112912622Y-122055500D01*
X112912617Y-122055501D01*
X112681877Y-122085878D01*
X112457052Y-122146120D01*
X112242039Y-122235180D01*
X112242023Y-122235188D01*
X112040475Y-122351553D01*
X112040459Y-122351564D01*
X111855820Y-122493242D01*
X111855813Y-122493248D01*
X111691248Y-122657813D01*
X111691242Y-122657820D01*
X111549564Y-122842459D01*
X111549553Y-122842475D01*
X111433188Y-123044023D01*
X111433180Y-123044039D01*
X111344120Y-123259052D01*
X111283878Y-123483877D01*
X111253501Y-123714617D01*
X111253500Y-123714634D01*
X99695000Y-123714634D01*
X99695000Y-121202421D01*
X103013500Y-121202421D01*
X103013500Y-121379578D01*
X103041214Y-121554556D01*
X103095956Y-121723039D01*
X103095957Y-121723042D01*
X103176386Y-121880890D01*
X103280517Y-122024214D01*
X103405786Y-122149483D01*
X103549110Y-122253614D01*
X103617577Y-122288500D01*
X103706957Y-122334042D01*
X103706960Y-122334043D01*
X103760852Y-122351553D01*
X103875445Y-122388786D01*
X104050421Y-122416500D01*
X104050422Y-122416500D01*
X104227578Y-122416500D01*
X104227579Y-122416500D01*
X104402555Y-122388786D01*
X104571042Y-122334042D01*
X104728890Y-122253614D01*
X104872214Y-122149483D01*
X104997483Y-122024214D01*
X105101614Y-121880890D01*
X105182042Y-121723042D01*
X105236786Y-121554555D01*
X105264500Y-121379579D01*
X105264500Y-121202421D01*
X105255165Y-121143486D01*
X106968500Y-121143486D01*
X106968500Y-121438513D01*
X106983778Y-121554555D01*
X107007007Y-121730993D01*
X107066676Y-121953682D01*
X107083361Y-122015951D01*
X107083364Y-122015961D01*
X107196254Y-122288500D01*
X107196258Y-122288510D01*
X107343761Y-122543993D01*
X107523352Y-122778040D01*
X107523358Y-122778047D01*
X107731952Y-122986641D01*
X107731959Y-122986647D01*
X107966006Y-123166238D01*
X108221489Y-123313741D01*
X108221490Y-123313741D01*
X108221493Y-123313743D01*
X108494048Y-123426639D01*
X108779007Y-123502993D01*
X109071494Y-123541500D01*
X109071501Y-123541500D01*
X109366499Y-123541500D01*
X109366506Y-123541500D01*
X109658993Y-123502993D01*
X109943952Y-123426639D01*
X110216507Y-123313743D01*
X110471994Y-123166238D01*
X110706042Y-122986646D01*
X110914646Y-122778042D01*
X111094238Y-122543994D01*
X111241743Y-122288507D01*
X111354639Y-122015952D01*
X111430993Y-121730993D01*
X111469500Y-121438506D01*
X111469500Y-121143494D01*
X111430993Y-120851007D01*
X111354639Y-120566048D01*
X111241743Y-120293493D01*
X111215453Y-120247958D01*
X111094238Y-120038006D01*
X110914647Y-119803959D01*
X110914641Y-119803952D01*
X110706047Y-119595358D01*
X110706040Y-119595352D01*
X110471993Y-119415761D01*
X110216510Y-119268258D01*
X110216500Y-119268254D01*
X109943961Y-119155364D01*
X109943954Y-119155362D01*
X109943952Y-119155361D01*
X109658993Y-119079007D01*
X109610113Y-119072571D01*
X109366513Y-119040500D01*
X109366506Y-119040500D01*
X109071494Y-119040500D01*
X109071486Y-119040500D01*
X108793085Y-119077153D01*
X108779007Y-119079007D01*
X108494048Y-119155361D01*
X108494038Y-119155364D01*
X108221499Y-119268254D01*
X108221489Y-119268258D01*
X107966006Y-119415761D01*
X107731959Y-119595352D01*
X107731952Y-119595358D01*
X107523358Y-119803952D01*
X107523352Y-119803959D01*
X107343761Y-120038006D01*
X107196258Y-120293489D01*
X107196254Y-120293499D01*
X107083364Y-120566038D01*
X107083361Y-120566048D01*
X107047172Y-120701110D01*
X107007008Y-120851004D01*
X107007006Y-120851015D01*
X106968500Y-121143486D01*
X105255165Y-121143486D01*
X105236786Y-121027445D01*
X105182042Y-120858958D01*
X105182042Y-120858957D01*
X105101613Y-120701109D01*
X104997483Y-120557786D01*
X104872214Y-120432517D01*
X104728890Y-120328386D01*
X104571042Y-120247957D01*
X104571039Y-120247956D01*
X104402556Y-120193214D01*
X104315067Y-120179357D01*
X104227579Y-120165500D01*
X104050421Y-120165500D01*
X103992095Y-120174738D01*
X103875443Y-120193214D01*
X103706960Y-120247956D01*
X103706957Y-120247957D01*
X103549109Y-120328386D01*
X103467338Y-120387796D01*
X103405786Y-120432517D01*
X103405784Y-120432519D01*
X103405783Y-120432519D01*
X103280519Y-120557783D01*
X103280519Y-120557784D01*
X103280517Y-120557786D01*
X103235796Y-120619338D01*
X103176386Y-120701109D01*
X103095957Y-120858957D01*
X103095956Y-120858960D01*
X103041214Y-121027443D01*
X103013500Y-121202421D01*
X99695000Y-121202421D01*
X99695000Y-111658713D01*
X117394500Y-111658713D01*
X117394500Y-111871286D01*
X117427753Y-112081239D01*
X117493444Y-112283414D01*
X117589951Y-112472820D01*
X117714890Y-112644786D01*
X117865213Y-112795109D01*
X118037179Y-112920048D01*
X118037181Y-112920049D01*
X118037184Y-112920051D01*
X118226588Y-113016557D01*
X118428757Y-113082246D01*
X118638713Y-113115500D01*
X118638714Y-113115500D01*
X118851286Y-113115500D01*
X118851287Y-113115500D01*
X119061243Y-113082246D01*
X119263412Y-113016557D01*
X119452816Y-112920051D01*
X119474789Y-112904086D01*
X119624786Y-112795109D01*
X119624788Y-112795106D01*
X119624792Y-112795104D01*
X119775104Y-112644792D01*
X119775106Y-112644788D01*
X119775109Y-112644786D01*
X119900048Y-112472820D01*
X119900047Y-112472820D01*
X119900051Y-112472816D01*
X119996557Y-112283412D01*
X120062246Y-112081243D01*
X120095500Y-111871287D01*
X120095500Y-111658713D01*
X136444500Y-111658713D01*
X136444500Y-111871286D01*
X136477753Y-112081239D01*
X136543444Y-112283414D01*
X136639951Y-112472820D01*
X136764890Y-112644786D01*
X136915213Y-112795109D01*
X137087179Y-112920048D01*
X137087181Y-112920049D01*
X137087184Y-112920051D01*
X137276588Y-113016557D01*
X137478757Y-113082246D01*
X137688713Y-113115500D01*
X137688714Y-113115500D01*
X137901286Y-113115500D01*
X137901287Y-113115500D01*
X138111243Y-113082246D01*
X138313412Y-113016557D01*
X138502816Y-112920051D01*
X138524789Y-112904086D01*
X138674786Y-112795109D01*
X138674788Y-112795106D01*
X138674792Y-112795104D01*
X138825104Y-112644792D01*
X138825106Y-112644788D01*
X138825109Y-112644786D01*
X138950048Y-112472820D01*
X138950047Y-112472820D01*
X138950051Y-112472816D01*
X139046557Y-112283412D01*
X139112246Y-112081243D01*
X139145500Y-111871287D01*
X139145500Y-111658713D01*
X155494500Y-111658713D01*
X155494500Y-111871286D01*
X155527753Y-112081239D01*
X155593444Y-112283414D01*
X155689951Y-112472820D01*
X155814890Y-112644786D01*
X155965213Y-112795109D01*
X156137179Y-112920048D01*
X156137181Y-112920049D01*
X156137184Y-112920051D01*
X156326588Y-113016557D01*
X156528757Y-113082246D01*
X156738713Y-113115500D01*
X156738714Y-113115500D01*
X156951286Y-113115500D01*
X156951287Y-113115500D01*
X157161243Y-113082246D01*
X157363412Y-113016557D01*
X157552816Y-112920051D01*
X157574789Y-112904086D01*
X157724786Y-112795109D01*
X157724788Y-112795106D01*
X157724792Y-112795104D01*
X157875104Y-112644792D01*
X157875106Y-112644788D01*
X157875109Y-112644786D01*
X158000048Y-112472820D01*
X158000047Y-112472820D01*
X158000051Y-112472816D01*
X158096557Y-112283412D01*
X158162246Y-112081243D01*
X158195500Y-111871287D01*
X158195500Y-111658713D01*
X158162246Y-111448757D01*
X158096557Y-111246588D01*
X158000051Y-111057184D01*
X158000049Y-111057181D01*
X158000048Y-111057179D01*
X157875109Y-110885213D01*
X157724786Y-110734890D01*
X157552820Y-110609951D01*
X157363414Y-110513444D01*
X157363413Y-110513443D01*
X157363412Y-110513443D01*
X157161243Y-110447754D01*
X157161241Y-110447753D01*
X157161240Y-110447753D01*
X156999957Y-110422208D01*
X156951287Y-110414500D01*
X156738713Y-110414500D01*
X156690042Y-110422208D01*
X156528760Y-110447753D01*
X156326585Y-110513444D01*
X156137179Y-110609951D01*
X155965213Y-110734890D01*
X155814890Y-110885213D01*
X155689951Y-111057179D01*
X155593444Y-111246585D01*
X155527753Y-111448760D01*
X155494500Y-111658713D01*
X139145500Y-111658713D01*
X139112246Y-111448757D01*
X139046557Y-111246588D01*
X138950051Y-111057184D01*
X138950049Y-111057181D01*
X138950048Y-111057179D01*
X138825109Y-110885213D01*
X138674786Y-110734890D01*
X138502820Y-110609951D01*
X138313414Y-110513444D01*
X138313413Y-110513443D01*
X138313412Y-110513443D01*
X138111243Y-110447754D01*
X138111241Y-110447753D01*
X138111240Y-110447753D01*
X137949957Y-110422208D01*
X137901287Y-110414500D01*
X137688713Y-110414500D01*
X137640042Y-110422208D01*
X137478760Y-110447753D01*
X137276585Y-110513444D01*
X137087179Y-110609951D01*
X136915213Y-110734890D01*
X136764890Y-110885213D01*
X136639951Y-111057179D01*
X136543444Y-111246585D01*
X136477753Y-111448760D01*
X136444500Y-111658713D01*
X120095500Y-111658713D01*
X120062246Y-111448757D01*
X119996557Y-111246588D01*
X119900051Y-111057184D01*
X119900049Y-111057181D01*
X119900048Y-111057179D01*
X119775109Y-110885213D01*
X119624786Y-110734890D01*
X119452820Y-110609951D01*
X119263414Y-110513444D01*
X119263413Y-110513443D01*
X119263412Y-110513443D01*
X119061243Y-110447754D01*
X119061241Y-110447753D01*
X119061240Y-110447753D01*
X118899957Y-110422208D01*
X118851287Y-110414500D01*
X118638713Y-110414500D01*
X118590042Y-110422208D01*
X118428760Y-110447753D01*
X118226585Y-110513444D01*
X118037179Y-110609951D01*
X117865213Y-110734890D01*
X117714890Y-110885213D01*
X117589951Y-111057179D01*
X117493444Y-111246585D01*
X117427753Y-111448760D01*
X117394500Y-111658713D01*
X99695000Y-111658713D01*
X99695000Y-107204634D01*
X104903500Y-107204634D01*
X104903500Y-107437365D01*
X104903501Y-107437382D01*
X104933878Y-107668122D01*
X104994120Y-107892947D01*
X105083180Y-108107960D01*
X105083188Y-108107976D01*
X105199553Y-108309524D01*
X105199564Y-108309540D01*
X105341242Y-108494179D01*
X105341248Y-108494186D01*
X105505813Y-108658751D01*
X105505819Y-108658756D01*
X105690468Y-108800442D01*
X105690475Y-108800446D01*
X105892023Y-108916811D01*
X105892039Y-108916819D01*
X106107052Y-109005879D01*
X106107054Y-109005879D01*
X106107060Y-109005882D01*
X106331874Y-109066121D01*
X106562628Y-109096500D01*
X106562635Y-109096500D01*
X106795365Y-109096500D01*
X106795372Y-109096500D01*
X107026126Y-109066121D01*
X107250940Y-109005882D01*
X107308953Y-108981852D01*
X107465960Y-108916819D01*
X107465963Y-108916817D01*
X107465969Y-108916815D01*
X107667532Y-108800442D01*
X107852181Y-108658756D01*
X108016756Y-108494181D01*
X108158442Y-108309532D01*
X108274815Y-108107969D01*
X108363882Y-107892940D01*
X108424121Y-107668126D01*
X108454500Y-107437372D01*
X108454500Y-107204634D01*
X123953500Y-107204634D01*
X123953500Y-107437365D01*
X123953501Y-107437382D01*
X123983878Y-107668122D01*
X124044120Y-107892947D01*
X124133180Y-108107960D01*
X124133188Y-108107976D01*
X124249553Y-108309524D01*
X124249564Y-108309540D01*
X124391242Y-108494179D01*
X124391248Y-108494186D01*
X124555813Y-108658751D01*
X124555819Y-108658756D01*
X124740468Y-108800442D01*
X124740475Y-108800446D01*
X124942023Y-108916811D01*
X124942039Y-108916819D01*
X125157052Y-109005879D01*
X125157054Y-109005879D01*
X125157060Y-109005882D01*
X125381874Y-109066121D01*
X125612628Y-109096500D01*
X125612635Y-109096500D01*
X125845365Y-109096500D01*
X125845372Y-109096500D01*
X126076126Y-109066121D01*
X126300940Y-109005882D01*
X126358953Y-108981852D01*
X126515960Y-108916819D01*
X126515963Y-108916817D01*
X126515969Y-108916815D01*
X126717532Y-108800442D01*
X126902181Y-108658756D01*
X127066756Y-108494181D01*
X127208442Y-108309532D01*
X127324815Y-108107969D01*
X127413882Y-107892940D01*
X127474121Y-107668126D01*
X127504500Y-107437372D01*
X127504500Y-107204634D01*
X143003500Y-107204634D01*
X143003500Y-107437365D01*
X143003501Y-107437382D01*
X143033878Y-107668122D01*
X143094120Y-107892947D01*
X143183180Y-108107960D01*
X143183188Y-108107976D01*
X143299553Y-108309524D01*
X143299564Y-108309540D01*
X143441242Y-108494179D01*
X143441248Y-108494186D01*
X143605813Y-108658751D01*
X143605819Y-108658756D01*
X143790468Y-108800442D01*
X143790475Y-108800446D01*
X143992023Y-108916811D01*
X143992039Y-108916819D01*
X144207052Y-109005879D01*
X144207054Y-109005879D01*
X144207060Y-109005882D01*
X144431874Y-109066121D01*
X144662628Y-109096500D01*
X144662635Y-109096500D01*
X144895365Y-109096500D01*
X144895372Y-109096500D01*
X145126126Y-109066121D01*
X145350940Y-109005882D01*
X145408953Y-108981852D01*
X145565960Y-108916819D01*
X145565963Y-108916817D01*
X145565969Y-108916815D01*
X145767532Y-108800442D01*
X145952181Y-108658756D01*
X146116756Y-108494181D01*
X146258442Y-108309532D01*
X146374815Y-108107969D01*
X146463882Y-107892940D01*
X146524121Y-107668126D01*
X146554500Y-107437372D01*
X146554500Y-107204634D01*
X162053500Y-107204634D01*
X162053500Y-107437365D01*
X162053501Y-107437382D01*
X162083878Y-107668122D01*
X162144120Y-107892947D01*
X162233180Y-108107960D01*
X162233188Y-108107976D01*
X162349553Y-108309524D01*
X162349564Y-108309540D01*
X162491242Y-108494179D01*
X162491248Y-108494186D01*
X162655813Y-108658751D01*
X162655819Y-108658756D01*
X162840468Y-108800442D01*
X162840475Y-108800446D01*
X163042023Y-108916811D01*
X163042039Y-108916819D01*
X163257052Y-109005879D01*
X163257054Y-109005879D01*
X163257060Y-109005882D01*
X163481874Y-109066121D01*
X163712628Y-109096500D01*
X163712635Y-109096500D01*
X163945365Y-109096500D01*
X163945372Y-109096500D01*
X164176126Y-109066121D01*
X164400940Y-109005882D01*
X164458953Y-108981852D01*
X164615960Y-108916819D01*
X164615963Y-108916817D01*
X164615969Y-108916815D01*
X164817532Y-108800442D01*
X165002181Y-108658756D01*
X165166756Y-108494181D01*
X165308442Y-108309532D01*
X165424815Y-108107969D01*
X165513882Y-107892940D01*
X165574121Y-107668126D01*
X165604500Y-107437372D01*
X165604500Y-107204628D01*
X165574121Y-106973874D01*
X165513882Y-106749060D01*
X165513879Y-106749052D01*
X165424819Y-106534039D01*
X165424811Y-106534023D01*
X165308446Y-106332475D01*
X165308442Y-106332468D01*
X165166756Y-106147819D01*
X165166751Y-106147813D01*
X165002186Y-105983248D01*
X165002179Y-105983242D01*
X164817540Y-105841564D01*
X164817538Y-105841562D01*
X164817532Y-105841558D01*
X164817527Y-105841555D01*
X164817524Y-105841553D01*
X164615976Y-105725188D01*
X164615960Y-105725180D01*
X164400947Y-105636120D01*
X164176122Y-105575878D01*
X163945382Y-105545501D01*
X163945377Y-105545500D01*
X163945372Y-105545500D01*
X163712628Y-105545500D01*
X163712622Y-105545500D01*
X163712617Y-105545501D01*
X163481877Y-105575878D01*
X163257052Y-105636120D01*
X163042039Y-105725180D01*
X163042023Y-105725188D01*
X162840475Y-105841553D01*
X162840459Y-105841564D01*
X162655820Y-105983242D01*
X162655813Y-105983248D01*
X162491248Y-106147813D01*
X162491242Y-106147820D01*
X162349564Y-106332459D01*
X162349553Y-106332475D01*
X162233188Y-106534023D01*
X162233180Y-106534039D01*
X162144120Y-106749052D01*
X162083878Y-106973877D01*
X162053501Y-107204617D01*
X162053500Y-107204634D01*
X146554500Y-107204634D01*
X146554500Y-107204628D01*
X146524121Y-106973874D01*
X146463882Y-106749060D01*
X146463879Y-106749052D01*
X146374819Y-106534039D01*
X146374811Y-106534023D01*
X146258446Y-106332475D01*
X146258442Y-106332468D01*
X146116756Y-106147819D01*
X146116751Y-106147813D01*
X145952186Y-105983248D01*
X145952179Y-105983242D01*
X145767540Y-105841564D01*
X145767538Y-105841562D01*
X145767532Y-105841558D01*
X145767527Y-105841555D01*
X145767524Y-105841553D01*
X145565976Y-105725188D01*
X145565960Y-105725180D01*
X145350947Y-105636120D01*
X145126122Y-105575878D01*
X144895382Y-105545501D01*
X144895377Y-105545500D01*
X144895372Y-105545500D01*
X144662628Y-105545500D01*
X144662622Y-105545500D01*
X144662617Y-105545501D01*
X144431877Y-105575878D01*
X144207052Y-105636120D01*
X143992039Y-105725180D01*
X143992023Y-105725188D01*
X143790475Y-105841553D01*
X143790459Y-105841564D01*
X143605820Y-105983242D01*
X143605813Y-105983248D01*
X143441248Y-106147813D01*
X143441242Y-106147820D01*
X143299564Y-106332459D01*
X143299553Y-106332475D01*
X143183188Y-106534023D01*
X143183180Y-106534039D01*
X143094120Y-106749052D01*
X143033878Y-106973877D01*
X143003501Y-107204617D01*
X143003500Y-107204634D01*
X127504500Y-107204634D01*
X127504500Y-107204628D01*
X127474121Y-106973874D01*
X127413882Y-106749060D01*
X127413879Y-106749052D01*
X127324819Y-106534039D01*
X127324811Y-106534023D01*
X127208446Y-106332475D01*
X127208442Y-106332468D01*
X127066756Y-106147819D01*
X127066751Y-106147813D01*
X126902186Y-105983248D01*
X126902179Y-105983242D01*
X126717540Y-105841564D01*
X126717538Y-105841562D01*
X126717532Y-105841558D01*
X126717527Y-105841555D01*
X126717524Y-105841553D01*
X126515976Y-105725188D01*
X126515960Y-105725180D01*
X126300947Y-105636120D01*
X126076122Y-105575878D01*
X125845382Y-105545501D01*
X125845377Y-105545500D01*
X125845372Y-105545500D01*
X125612628Y-105545500D01*
X125612622Y-105545500D01*
X125612617Y-105545501D01*
X125381877Y-105575878D01*
X125157052Y-105636120D01*
X124942039Y-105725180D01*
X124942023Y-105725188D01*
X124740475Y-105841553D01*
X124740459Y-105841564D01*
X124555820Y-105983242D01*
X124555813Y-105983248D01*
X124391248Y-106147813D01*
X124391242Y-106147820D01*
X124249564Y-106332459D01*
X124249553Y-106332475D01*
X124133188Y-106534023D01*
X124133180Y-106534039D01*
X124044120Y-106749052D01*
X123983878Y-106973877D01*
X123953501Y-107204617D01*
X123953500Y-107204634D01*
X108454500Y-107204634D01*
X108454500Y-107204628D01*
X108424121Y-106973874D01*
X108363882Y-106749060D01*
X108363879Y-106749052D01*
X108274819Y-106534039D01*
X108274811Y-106534023D01*
X108158446Y-106332475D01*
X108158442Y-106332468D01*
X108016756Y-106147819D01*
X108016751Y-106147813D01*
X107852186Y-105983248D01*
X107852179Y-105983242D01*
X107667540Y-105841564D01*
X107667538Y-105841562D01*
X107667532Y-105841558D01*
X107667527Y-105841555D01*
X107667524Y-105841553D01*
X107465976Y-105725188D01*
X107465960Y-105725180D01*
X107250947Y-105636120D01*
X107026122Y-105575878D01*
X106795382Y-105545501D01*
X106795377Y-105545500D01*
X106795372Y-105545500D01*
X106562628Y-105545500D01*
X106562622Y-105545500D01*
X106562617Y-105545501D01*
X106331877Y-105575878D01*
X106107052Y-105636120D01*
X105892039Y-105725180D01*
X105892023Y-105725188D01*
X105690475Y-105841553D01*
X105690459Y-105841564D01*
X105505820Y-105983242D01*
X105505813Y-105983248D01*
X105341248Y-106147813D01*
X105341242Y-106147820D01*
X105199564Y-106332459D01*
X105199553Y-106332475D01*
X105083188Y-106534023D01*
X105083180Y-106534039D01*
X104994120Y-106749052D01*
X104933878Y-106973877D01*
X104903501Y-107204617D01*
X104903500Y-107204634D01*
X99695000Y-107204634D01*
X99695000Y-104664634D01*
X111253500Y-104664634D01*
X111253500Y-104897365D01*
X111253501Y-104897382D01*
X111283878Y-105128122D01*
X111344120Y-105352947D01*
X111433180Y-105567960D01*
X111433188Y-105567976D01*
X111549553Y-105769524D01*
X111549564Y-105769540D01*
X111691242Y-105954179D01*
X111691248Y-105954186D01*
X111855813Y-106118751D01*
X111855820Y-106118757D01*
X111893696Y-106147820D01*
X112040468Y-106260442D01*
X112040475Y-106260446D01*
X112242023Y-106376811D01*
X112242039Y-106376819D01*
X112457052Y-106465879D01*
X112457054Y-106465879D01*
X112457060Y-106465882D01*
X112681874Y-106526121D01*
X112912628Y-106556500D01*
X112912635Y-106556500D01*
X113145365Y-106556500D01*
X113145372Y-106556500D01*
X113376126Y-106526121D01*
X113600940Y-106465882D01*
X113658953Y-106441852D01*
X113815960Y-106376819D01*
X113815963Y-106376817D01*
X113815969Y-106376815D01*
X114017532Y-106260442D01*
X114202181Y-106118756D01*
X114366756Y-105954181D01*
X114508442Y-105769532D01*
X114624815Y-105567969D01*
X114634122Y-105545501D01*
X114713879Y-105352947D01*
X114713878Y-105352947D01*
X114713882Y-105352940D01*
X114774121Y-105128126D01*
X114804500Y-104897372D01*
X114804500Y-104664634D01*
X130303500Y-104664634D01*
X130303500Y-104897365D01*
X130303501Y-104897382D01*
X130333878Y-105128122D01*
X130394120Y-105352947D01*
X130483180Y-105567960D01*
X130483188Y-105567976D01*
X130599553Y-105769524D01*
X130599564Y-105769540D01*
X130741242Y-105954179D01*
X130741248Y-105954186D01*
X130905813Y-106118751D01*
X130905820Y-106118757D01*
X130943696Y-106147820D01*
X131090468Y-106260442D01*
X131090475Y-106260446D01*
X131292023Y-106376811D01*
X131292039Y-106376819D01*
X131507052Y-106465879D01*
X131507054Y-106465879D01*
X131507060Y-106465882D01*
X131731874Y-106526121D01*
X131962628Y-106556500D01*
X131962635Y-106556500D01*
X132195365Y-106556500D01*
X132195372Y-106556500D01*
X132426126Y-106526121D01*
X132650940Y-106465882D01*
X132708953Y-106441852D01*
X132865960Y-106376819D01*
X132865963Y-106376817D01*
X132865969Y-106376815D01*
X133067532Y-106260442D01*
X133252181Y-106118756D01*
X133416756Y-105954181D01*
X133558442Y-105769532D01*
X133674815Y-105567969D01*
X133684122Y-105545501D01*
X133763879Y-105352947D01*
X133763878Y-105352947D01*
X133763882Y-105352940D01*
X133824121Y-105128126D01*
X133854500Y-104897372D01*
X133854500Y-104664634D01*
X149353500Y-104664634D01*
X149353500Y-104897365D01*
X149353501Y-104897382D01*
X149383878Y-105128122D01*
X149444120Y-105352947D01*
X149533180Y-105567960D01*
X149533188Y-105567976D01*
X149649553Y-105769524D01*
X149649564Y-105769540D01*
X149791242Y-105954179D01*
X149791248Y-105954186D01*
X149955813Y-106118751D01*
X149955820Y-106118757D01*
X149993696Y-106147820D01*
X150140468Y-106260442D01*
X150140475Y-106260446D01*
X150342023Y-106376811D01*
X150342039Y-106376819D01*
X150557052Y-106465879D01*
X150557054Y-106465879D01*
X150557060Y-106465882D01*
X150781874Y-106526121D01*
X151012628Y-106556500D01*
X151012635Y-106556500D01*
X151245365Y-106556500D01*
X151245372Y-106556500D01*
X151476126Y-106526121D01*
X151700940Y-106465882D01*
X151758953Y-106441852D01*
X151915960Y-106376819D01*
X151915963Y-106376817D01*
X151915969Y-106376815D01*
X152117532Y-106260442D01*
X152302181Y-106118756D01*
X152466756Y-105954181D01*
X152608442Y-105769532D01*
X152724815Y-105567969D01*
X152734122Y-105545501D01*
X152813879Y-105352947D01*
X152813878Y-105352947D01*
X152813882Y-105352940D01*
X152874121Y-105128126D01*
X152904500Y-104897372D01*
X152904500Y-104664634D01*
X168403500Y-104664634D01*
X168403500Y-104897365D01*
X168403501Y-104897382D01*
X168433878Y-105128122D01*
X168494120Y-105352947D01*
X168583180Y-105567960D01*
X168583188Y-105567976D01*
X168699553Y-105769524D01*
X168699564Y-105769540D01*
X168841242Y-105954179D01*
X168841248Y-105954186D01*
X169005813Y-106118751D01*
X169005820Y-106118757D01*
X169043696Y-106147820D01*
X169190468Y-106260442D01*
X169190475Y-106260446D01*
X169392023Y-106376811D01*
X169392039Y-106376819D01*
X169607052Y-106465879D01*
X169607054Y-106465879D01*
X169607060Y-106465882D01*
X169831874Y-106526121D01*
X170062628Y-106556500D01*
X170062635Y-106556500D01*
X170295365Y-106556500D01*
X170295372Y-106556500D01*
X170526126Y-106526121D01*
X170750940Y-106465882D01*
X170808953Y-106441852D01*
X170965960Y-106376819D01*
X170965963Y-106376817D01*
X170965969Y-106376815D01*
X171167532Y-106260442D01*
X171352181Y-106118756D01*
X171516756Y-105954181D01*
X171658442Y-105769532D01*
X171774815Y-105567969D01*
X171784122Y-105545501D01*
X171863879Y-105352947D01*
X171863878Y-105352947D01*
X171863882Y-105352940D01*
X171924121Y-105128126D01*
X171954500Y-104897372D01*
X171954500Y-104664628D01*
X171924121Y-104433874D01*
X171863882Y-104209060D01*
X171863879Y-104209052D01*
X171774819Y-103994039D01*
X171774811Y-103994023D01*
X171658446Y-103792475D01*
X171658442Y-103792468D01*
X171516756Y-103607819D01*
X171516751Y-103607813D01*
X171483363Y-103574425D01*
X171449878Y-103513102D01*
X171454862Y-103443410D01*
X171496734Y-103387477D01*
X171551643Y-103364272D01*
X171712555Y-103338786D01*
X171881042Y-103284042D01*
X172038890Y-103203614D01*
X172182214Y-103099483D01*
X172307483Y-102974214D01*
X172411614Y-102830890D01*
X172492042Y-102673042D01*
X172546786Y-102504555D01*
X172574500Y-102329579D01*
X172574500Y-102152421D01*
X172546786Y-101977445D01*
X172492042Y-101808958D01*
X172492042Y-101808957D01*
X172411613Y-101651109D01*
X172307483Y-101507786D01*
X172182214Y-101382517D01*
X172038890Y-101278386D01*
X171881042Y-101197957D01*
X171881039Y-101197956D01*
X171712556Y-101143214D01*
X171625067Y-101129357D01*
X171537579Y-101115500D01*
X171360421Y-101115500D01*
X171302095Y-101124738D01*
X171185443Y-101143214D01*
X171016960Y-101197956D01*
X171016957Y-101197957D01*
X170859109Y-101278386D01*
X170777338Y-101337796D01*
X170715786Y-101382517D01*
X170715784Y-101382519D01*
X170715783Y-101382519D01*
X170590519Y-101507783D01*
X170590519Y-101507784D01*
X170590517Y-101507786D01*
X170545796Y-101569338D01*
X170486386Y-101651109D01*
X170405957Y-101808957D01*
X170405956Y-101808960D01*
X170351214Y-101977443D01*
X170323500Y-102152421D01*
X170323500Y-102329578D01*
X170351214Y-102504556D01*
X170405956Y-102673039D01*
X170405957Y-102673042D01*
X170488487Y-102835013D01*
X170501383Y-102903682D01*
X170475107Y-102968422D01*
X170418001Y-103008680D01*
X170361817Y-103014247D01*
X170295382Y-103005501D01*
X170295377Y-103005500D01*
X170295372Y-103005500D01*
X170062628Y-103005500D01*
X170062622Y-103005500D01*
X170062617Y-103005501D01*
X169831877Y-103035878D01*
X169607052Y-103096120D01*
X169392039Y-103185180D01*
X169392023Y-103185188D01*
X169190475Y-103301553D01*
X169190459Y-103301564D01*
X169005820Y-103443242D01*
X169005813Y-103443248D01*
X168841248Y-103607813D01*
X168841242Y-103607820D01*
X168699564Y-103792459D01*
X168699553Y-103792475D01*
X168583188Y-103994023D01*
X168583180Y-103994039D01*
X168494120Y-104209052D01*
X168433878Y-104433877D01*
X168403501Y-104664617D01*
X168403500Y-104664634D01*
X152904500Y-104664634D01*
X152904500Y-104664628D01*
X152874121Y-104433874D01*
X152813882Y-104209060D01*
X152813879Y-104209052D01*
X152724819Y-103994039D01*
X152724811Y-103994023D01*
X152608446Y-103792475D01*
X152608442Y-103792468D01*
X152466756Y-103607819D01*
X152466751Y-103607813D01*
X152433363Y-103574425D01*
X152399878Y-103513102D01*
X152404862Y-103443410D01*
X152446734Y-103387477D01*
X152501643Y-103364272D01*
X152662555Y-103338786D01*
X152831042Y-103284042D01*
X152988890Y-103203614D01*
X153132214Y-103099483D01*
X153257483Y-102974214D01*
X153361614Y-102830890D01*
X153442042Y-102673042D01*
X153496786Y-102504555D01*
X153524500Y-102329579D01*
X153524500Y-102152421D01*
X160163500Y-102152421D01*
X160163500Y-102329578D01*
X160191214Y-102504556D01*
X160245956Y-102673039D01*
X160245957Y-102673042D01*
X160326386Y-102830890D01*
X160430517Y-102974214D01*
X160555786Y-103099483D01*
X160699110Y-103203614D01*
X160767577Y-103238500D01*
X160856957Y-103284042D01*
X160856960Y-103284043D01*
X160910852Y-103301553D01*
X161025445Y-103338786D01*
X161200421Y-103366500D01*
X161200422Y-103366500D01*
X161377578Y-103366500D01*
X161377579Y-103366500D01*
X161552555Y-103338786D01*
X161721042Y-103284042D01*
X161878890Y-103203614D01*
X162022214Y-103099483D01*
X162147483Y-102974214D01*
X162251614Y-102830890D01*
X162332042Y-102673042D01*
X162386786Y-102504555D01*
X162414500Y-102329579D01*
X162414500Y-102152421D01*
X162405165Y-102093486D01*
X164118500Y-102093486D01*
X164118500Y-102388513D01*
X164133778Y-102504555D01*
X164157007Y-102680993D01*
X164216676Y-102903682D01*
X164233361Y-102965951D01*
X164233364Y-102965961D01*
X164346254Y-103238500D01*
X164346258Y-103238510D01*
X164493761Y-103493993D01*
X164673352Y-103728040D01*
X164673358Y-103728047D01*
X164881952Y-103936641D01*
X164881959Y-103936647D01*
X165116006Y-104116238D01*
X165371489Y-104263741D01*
X165371490Y-104263741D01*
X165371493Y-104263743D01*
X165644048Y-104376639D01*
X165929007Y-104452993D01*
X166221494Y-104491500D01*
X166221501Y-104491500D01*
X166516499Y-104491500D01*
X166516506Y-104491500D01*
X166808993Y-104452993D01*
X167093952Y-104376639D01*
X167366507Y-104263743D01*
X167621994Y-104116238D01*
X167856042Y-103936646D01*
X168064646Y-103728042D01*
X168244238Y-103493994D01*
X168391743Y-103238507D01*
X168504639Y-102965952D01*
X168580993Y-102680993D01*
X168619500Y-102388506D01*
X168619500Y-102093494D01*
X168580993Y-101801007D01*
X168504639Y-101516048D01*
X168391743Y-101243493D01*
X168365453Y-101197958D01*
X168244238Y-100988006D01*
X168064647Y-100753959D01*
X168064641Y-100753952D01*
X167856047Y-100545358D01*
X167856040Y-100545352D01*
X167621993Y-100365761D01*
X167366510Y-100218258D01*
X167366500Y-100218254D01*
X167093961Y-100105364D01*
X167093954Y-100105362D01*
X167093952Y-100105361D01*
X166808993Y-100029007D01*
X166760113Y-100022571D01*
X166516513Y-99990500D01*
X166516506Y-99990500D01*
X166221494Y-99990500D01*
X166221486Y-99990500D01*
X165943085Y-100027153D01*
X165929007Y-100029007D01*
X165644048Y-100105361D01*
X165644038Y-100105364D01*
X165371499Y-100218254D01*
X165371489Y-100218258D01*
X165116006Y-100365761D01*
X164881959Y-100545352D01*
X164881952Y-100545358D01*
X164673358Y-100753952D01*
X164673352Y-100753959D01*
X164493761Y-100988006D01*
X164346258Y-101243489D01*
X164346254Y-101243499D01*
X164233364Y-101516038D01*
X164233361Y-101516048D01*
X164197172Y-101651110D01*
X164157008Y-101801004D01*
X164157006Y-101801015D01*
X164118500Y-102093486D01*
X162405165Y-102093486D01*
X162386786Y-101977445D01*
X162332042Y-101808958D01*
X162332042Y-101808957D01*
X162251613Y-101651109D01*
X162147483Y-101507786D01*
X162022214Y-101382517D01*
X161878890Y-101278386D01*
X161721042Y-101197957D01*
X161721039Y-101197956D01*
X161552556Y-101143214D01*
X161465067Y-101129357D01*
X161377579Y-101115500D01*
X161200421Y-101115500D01*
X161142095Y-101124738D01*
X161025443Y-101143214D01*
X160856960Y-101197956D01*
X160856957Y-101197957D01*
X160699109Y-101278386D01*
X160617338Y-101337796D01*
X160555786Y-101382517D01*
X160555784Y-101382519D01*
X160555783Y-101382519D01*
X160430519Y-101507783D01*
X160430519Y-101507784D01*
X160430517Y-101507786D01*
X160385796Y-101569338D01*
X160326386Y-101651109D01*
X160245957Y-101808957D01*
X160245956Y-101808960D01*
X160191214Y-101977443D01*
X160163500Y-102152421D01*
X153524500Y-102152421D01*
X153496786Y-101977445D01*
X153442042Y-101808958D01*
X153442042Y-101808957D01*
X153361613Y-101651109D01*
X153257483Y-101507786D01*
X153132214Y-101382517D01*
X152988890Y-101278386D01*
X152831042Y-101197957D01*
X152831039Y-101197956D01*
X152662556Y-101143214D01*
X152575067Y-101129357D01*
X152487579Y-101115500D01*
X152310421Y-101115500D01*
X152252095Y-101124738D01*
X152135443Y-101143214D01*
X151966960Y-101197956D01*
X151966957Y-101197957D01*
X151809109Y-101278386D01*
X151727338Y-101337796D01*
X151665786Y-101382517D01*
X151665784Y-101382519D01*
X151665783Y-101382519D01*
X151540519Y-101507783D01*
X151540519Y-101507784D01*
X151540517Y-101507786D01*
X151495796Y-101569338D01*
X151436386Y-101651109D01*
X151355957Y-101808957D01*
X151355956Y-101808960D01*
X151301214Y-101977443D01*
X151273500Y-102152421D01*
X151273500Y-102329578D01*
X151301214Y-102504556D01*
X151355956Y-102673039D01*
X151355957Y-102673042D01*
X151438487Y-102835013D01*
X151451383Y-102903682D01*
X151425107Y-102968422D01*
X151368001Y-103008680D01*
X151311817Y-103014247D01*
X151245382Y-103005501D01*
X151245377Y-103005500D01*
X151245372Y-103005500D01*
X151012628Y-103005500D01*
X151012622Y-103005500D01*
X151012617Y-103005501D01*
X150781877Y-103035878D01*
X150557052Y-103096120D01*
X150342039Y-103185180D01*
X150342023Y-103185188D01*
X150140475Y-103301553D01*
X150140459Y-103301564D01*
X149955820Y-103443242D01*
X149955813Y-103443248D01*
X149791248Y-103607813D01*
X149791242Y-103607820D01*
X149649564Y-103792459D01*
X149649553Y-103792475D01*
X149533188Y-103994023D01*
X149533180Y-103994039D01*
X149444120Y-104209052D01*
X149383878Y-104433877D01*
X149353501Y-104664617D01*
X149353500Y-104664634D01*
X133854500Y-104664634D01*
X133854500Y-104664628D01*
X133824121Y-104433874D01*
X133763882Y-104209060D01*
X133763879Y-104209052D01*
X133674819Y-103994039D01*
X133674811Y-103994023D01*
X133558446Y-103792475D01*
X133558442Y-103792468D01*
X133416756Y-103607819D01*
X133416751Y-103607813D01*
X133383363Y-103574425D01*
X133349878Y-103513102D01*
X133354862Y-103443410D01*
X133396734Y-103387477D01*
X133451643Y-103364272D01*
X133612555Y-103338786D01*
X133781042Y-103284042D01*
X133938890Y-103203614D01*
X134082214Y-103099483D01*
X134207483Y-102974214D01*
X134311614Y-102830890D01*
X134392042Y-102673042D01*
X134446786Y-102504555D01*
X134474500Y-102329579D01*
X134474500Y-102152421D01*
X141113500Y-102152421D01*
X141113500Y-102329578D01*
X141141214Y-102504556D01*
X141195956Y-102673039D01*
X141195957Y-102673042D01*
X141276386Y-102830890D01*
X141380517Y-102974214D01*
X141505786Y-103099483D01*
X141649110Y-103203614D01*
X141717577Y-103238500D01*
X141806957Y-103284042D01*
X141806960Y-103284043D01*
X141860852Y-103301553D01*
X141975445Y-103338786D01*
X142150421Y-103366500D01*
X142150422Y-103366500D01*
X142327578Y-103366500D01*
X142327579Y-103366500D01*
X142502555Y-103338786D01*
X142671042Y-103284042D01*
X142828890Y-103203614D01*
X142972214Y-103099483D01*
X143097483Y-102974214D01*
X143201614Y-102830890D01*
X143282042Y-102673042D01*
X143336786Y-102504555D01*
X143364500Y-102329579D01*
X143364500Y-102152421D01*
X143355165Y-102093486D01*
X145068500Y-102093486D01*
X145068500Y-102388513D01*
X145083778Y-102504555D01*
X145107007Y-102680993D01*
X145166676Y-102903682D01*
X145183361Y-102965951D01*
X145183364Y-102965961D01*
X145296254Y-103238500D01*
X145296258Y-103238510D01*
X145443761Y-103493993D01*
X145623352Y-103728040D01*
X145623358Y-103728047D01*
X145831952Y-103936641D01*
X145831959Y-103936647D01*
X146066006Y-104116238D01*
X146321489Y-104263741D01*
X146321490Y-104263741D01*
X146321493Y-104263743D01*
X146594048Y-104376639D01*
X146879007Y-104452993D01*
X147171494Y-104491500D01*
X147171501Y-104491500D01*
X147466499Y-104491500D01*
X147466506Y-104491500D01*
X147758993Y-104452993D01*
X148043952Y-104376639D01*
X148316507Y-104263743D01*
X148571994Y-104116238D01*
X148806042Y-103936646D01*
X149014646Y-103728042D01*
X149194238Y-103493994D01*
X149341743Y-103238507D01*
X149454639Y-102965952D01*
X149530993Y-102680993D01*
X149569500Y-102388506D01*
X149569500Y-102093494D01*
X149530993Y-101801007D01*
X149454639Y-101516048D01*
X149341743Y-101243493D01*
X149315453Y-101197958D01*
X149194238Y-100988006D01*
X149014647Y-100753959D01*
X149014641Y-100753952D01*
X148806047Y-100545358D01*
X148806040Y-100545352D01*
X148571993Y-100365761D01*
X148316510Y-100218258D01*
X148316500Y-100218254D01*
X148043961Y-100105364D01*
X148043954Y-100105362D01*
X148043952Y-100105361D01*
X147758993Y-100029007D01*
X147710113Y-100022571D01*
X147466513Y-99990500D01*
X147466506Y-99990500D01*
X147171494Y-99990500D01*
X147171486Y-99990500D01*
X146893085Y-100027153D01*
X146879007Y-100029007D01*
X146594048Y-100105361D01*
X146594038Y-100105364D01*
X146321499Y-100218254D01*
X146321489Y-100218258D01*
X146066006Y-100365761D01*
X145831959Y-100545352D01*
X145831952Y-100545358D01*
X145623358Y-100753952D01*
X145623352Y-100753959D01*
X145443761Y-100988006D01*
X145296258Y-101243489D01*
X145296254Y-101243499D01*
X145183364Y-101516038D01*
X145183361Y-101516048D01*
X145147172Y-101651110D01*
X145107008Y-101801004D01*
X145107006Y-101801015D01*
X145068500Y-102093486D01*
X143355165Y-102093486D01*
X143336786Y-101977445D01*
X143282042Y-101808958D01*
X143282042Y-101808957D01*
X143201613Y-101651109D01*
X143097483Y-101507786D01*
X142972214Y-101382517D01*
X142828890Y-101278386D01*
X142671042Y-101197957D01*
X142671039Y-101197956D01*
X142502556Y-101143214D01*
X142415067Y-101129357D01*
X142327579Y-101115500D01*
X142150421Y-101115500D01*
X142092095Y-101124738D01*
X141975443Y-101143214D01*
X141806960Y-101197956D01*
X141806957Y-101197957D01*
X141649109Y-101278386D01*
X141567338Y-101337796D01*
X141505786Y-101382517D01*
X141505784Y-101382519D01*
X141505783Y-101382519D01*
X141380519Y-101507783D01*
X141380519Y-101507784D01*
X141380517Y-101507786D01*
X141335796Y-101569338D01*
X141276386Y-101651109D01*
X141195957Y-101808957D01*
X141195956Y-101808960D01*
X141141214Y-101977443D01*
X141113500Y-102152421D01*
X134474500Y-102152421D01*
X134446786Y-101977445D01*
X134392042Y-101808958D01*
X134392042Y-101808957D01*
X134311613Y-101651109D01*
X134207483Y-101507786D01*
X134082214Y-101382517D01*
X133938890Y-101278386D01*
X133781042Y-101197957D01*
X133781039Y-101197956D01*
X133612556Y-101143214D01*
X133525067Y-101129357D01*
X133437579Y-101115500D01*
X133260421Y-101115500D01*
X133202095Y-101124738D01*
X133085443Y-101143214D01*
X132916960Y-101197956D01*
X132916957Y-101197957D01*
X132759109Y-101278386D01*
X132677338Y-101337796D01*
X132615786Y-101382517D01*
X132615784Y-101382519D01*
X132615783Y-101382519D01*
X132490519Y-101507783D01*
X132490519Y-101507784D01*
X132490517Y-101507786D01*
X132445796Y-101569338D01*
X132386386Y-101651109D01*
X132305957Y-101808957D01*
X132305956Y-101808960D01*
X132251214Y-101977443D01*
X132223500Y-102152421D01*
X132223500Y-102329578D01*
X132251214Y-102504556D01*
X132305956Y-102673039D01*
X132305957Y-102673042D01*
X132388487Y-102835013D01*
X132401383Y-102903682D01*
X132375107Y-102968422D01*
X132318001Y-103008680D01*
X132261817Y-103014247D01*
X132195382Y-103005501D01*
X132195377Y-103005500D01*
X132195372Y-103005500D01*
X131962628Y-103005500D01*
X131962622Y-103005500D01*
X131962617Y-103005501D01*
X131731877Y-103035878D01*
X131507052Y-103096120D01*
X131292039Y-103185180D01*
X131292023Y-103185188D01*
X131090475Y-103301553D01*
X131090459Y-103301564D01*
X130905820Y-103443242D01*
X130905813Y-103443248D01*
X130741248Y-103607813D01*
X130741242Y-103607820D01*
X130599564Y-103792459D01*
X130599553Y-103792475D01*
X130483188Y-103994023D01*
X130483180Y-103994039D01*
X130394120Y-104209052D01*
X130333878Y-104433877D01*
X130303501Y-104664617D01*
X130303500Y-104664634D01*
X114804500Y-104664634D01*
X114804500Y-104664628D01*
X114774121Y-104433874D01*
X114713882Y-104209060D01*
X114713879Y-104209052D01*
X114624819Y-103994039D01*
X114624811Y-103994023D01*
X114508446Y-103792475D01*
X114508442Y-103792468D01*
X114366756Y-103607819D01*
X114366751Y-103607813D01*
X114333363Y-103574425D01*
X114299878Y-103513102D01*
X114304862Y-103443410D01*
X114346734Y-103387477D01*
X114401643Y-103364272D01*
X114562555Y-103338786D01*
X114731042Y-103284042D01*
X114888890Y-103203614D01*
X115032214Y-103099483D01*
X115157483Y-102974214D01*
X115261614Y-102830890D01*
X115342042Y-102673042D01*
X115396786Y-102504555D01*
X115424500Y-102329579D01*
X115424500Y-102152421D01*
X122063500Y-102152421D01*
X122063500Y-102329578D01*
X122091214Y-102504556D01*
X122145956Y-102673039D01*
X122145957Y-102673042D01*
X122226386Y-102830890D01*
X122330517Y-102974214D01*
X122455786Y-103099483D01*
X122599110Y-103203614D01*
X122667577Y-103238500D01*
X122756957Y-103284042D01*
X122756960Y-103284043D01*
X122810852Y-103301553D01*
X122925445Y-103338786D01*
X123100421Y-103366500D01*
X123100422Y-103366500D01*
X123277578Y-103366500D01*
X123277579Y-103366500D01*
X123452555Y-103338786D01*
X123621042Y-103284042D01*
X123778890Y-103203614D01*
X123922214Y-103099483D01*
X124047483Y-102974214D01*
X124151614Y-102830890D01*
X124232042Y-102673042D01*
X124286786Y-102504555D01*
X124314500Y-102329579D01*
X124314500Y-102152421D01*
X124305165Y-102093486D01*
X126018500Y-102093486D01*
X126018500Y-102388513D01*
X126033778Y-102504555D01*
X126057007Y-102680993D01*
X126116676Y-102903682D01*
X126133361Y-102965951D01*
X126133364Y-102965961D01*
X126246254Y-103238500D01*
X126246258Y-103238510D01*
X126393761Y-103493993D01*
X126573352Y-103728040D01*
X126573358Y-103728047D01*
X126781952Y-103936641D01*
X126781959Y-103936647D01*
X127016006Y-104116238D01*
X127271489Y-104263741D01*
X127271490Y-104263741D01*
X127271493Y-104263743D01*
X127544048Y-104376639D01*
X127829007Y-104452993D01*
X128121494Y-104491500D01*
X128121501Y-104491500D01*
X128416499Y-104491500D01*
X128416506Y-104491500D01*
X128708993Y-104452993D01*
X128993952Y-104376639D01*
X129266507Y-104263743D01*
X129521994Y-104116238D01*
X129756042Y-103936646D01*
X129964646Y-103728042D01*
X130144238Y-103493994D01*
X130291743Y-103238507D01*
X130404639Y-102965952D01*
X130480993Y-102680993D01*
X130519500Y-102388506D01*
X130519500Y-102093494D01*
X130480993Y-101801007D01*
X130404639Y-101516048D01*
X130291743Y-101243493D01*
X130265453Y-101197958D01*
X130144238Y-100988006D01*
X129964647Y-100753959D01*
X129964641Y-100753952D01*
X129756047Y-100545358D01*
X129756040Y-100545352D01*
X129521993Y-100365761D01*
X129266510Y-100218258D01*
X129266500Y-100218254D01*
X128993961Y-100105364D01*
X128993954Y-100105362D01*
X128993952Y-100105361D01*
X128708993Y-100029007D01*
X128660113Y-100022571D01*
X128416513Y-99990500D01*
X128416506Y-99990500D01*
X128121494Y-99990500D01*
X128121486Y-99990500D01*
X127843085Y-100027153D01*
X127829007Y-100029007D01*
X127544048Y-100105361D01*
X127544038Y-100105364D01*
X127271499Y-100218254D01*
X127271489Y-100218258D01*
X127016006Y-100365761D01*
X126781959Y-100545352D01*
X126781952Y-100545358D01*
X126573358Y-100753952D01*
X126573352Y-100753959D01*
X126393761Y-100988006D01*
X126246258Y-101243489D01*
X126246254Y-101243499D01*
X126133364Y-101516038D01*
X126133361Y-101516048D01*
X126097172Y-101651110D01*
X126057008Y-101801004D01*
X126057006Y-101801015D01*
X126018500Y-102093486D01*
X124305165Y-102093486D01*
X124286786Y-101977445D01*
X124232042Y-101808958D01*
X124232042Y-101808957D01*
X124151613Y-101651109D01*
X124047483Y-101507786D01*
X123922214Y-101382517D01*
X123778890Y-101278386D01*
X123621042Y-101197957D01*
X123621039Y-101197956D01*
X123452556Y-101143214D01*
X123365067Y-101129357D01*
X123277579Y-101115500D01*
X123100421Y-101115500D01*
X123042095Y-101124738D01*
X122925443Y-101143214D01*
X122756960Y-101197956D01*
X122756957Y-101197957D01*
X122599109Y-101278386D01*
X122517338Y-101337796D01*
X122455786Y-101382517D01*
X122455784Y-101382519D01*
X122455783Y-101382519D01*
X122330519Y-101507783D01*
X122330519Y-101507784D01*
X122330517Y-101507786D01*
X122285796Y-101569338D01*
X122226386Y-101651109D01*
X122145957Y-101808957D01*
X122145956Y-101808960D01*
X122091214Y-101977443D01*
X122063500Y-102152421D01*
X115424500Y-102152421D01*
X115396786Y-101977445D01*
X115342042Y-101808958D01*
X115342042Y-101808957D01*
X115261613Y-101651109D01*
X115157483Y-101507786D01*
X115032214Y-101382517D01*
X114888890Y-101278386D01*
X114731042Y-101197957D01*
X114731039Y-101197956D01*
X114562556Y-101143214D01*
X114475067Y-101129357D01*
X114387579Y-101115500D01*
X114210421Y-101115500D01*
X114152095Y-101124738D01*
X114035443Y-101143214D01*
X113866960Y-101197956D01*
X113866957Y-101197957D01*
X113709109Y-101278386D01*
X113627338Y-101337796D01*
X113565786Y-101382517D01*
X113565784Y-101382519D01*
X113565783Y-101382519D01*
X113440519Y-101507783D01*
X113440519Y-101507784D01*
X113440517Y-101507786D01*
X113395796Y-101569338D01*
X113336386Y-101651109D01*
X113255957Y-101808957D01*
X113255956Y-101808960D01*
X113201214Y-101977443D01*
X113173500Y-102152421D01*
X113173500Y-102329578D01*
X113201214Y-102504556D01*
X113255956Y-102673039D01*
X113255957Y-102673042D01*
X113338487Y-102835013D01*
X113351383Y-102903682D01*
X113325107Y-102968422D01*
X113268001Y-103008680D01*
X113211817Y-103014247D01*
X113145382Y-103005501D01*
X113145377Y-103005500D01*
X113145372Y-103005500D01*
X112912628Y-103005500D01*
X112912622Y-103005500D01*
X112912617Y-103005501D01*
X112681877Y-103035878D01*
X112457052Y-103096120D01*
X112242039Y-103185180D01*
X112242023Y-103185188D01*
X112040475Y-103301553D01*
X112040459Y-103301564D01*
X111855820Y-103443242D01*
X111855813Y-103443248D01*
X111691248Y-103607813D01*
X111691242Y-103607820D01*
X111549564Y-103792459D01*
X111549553Y-103792475D01*
X111433188Y-103994023D01*
X111433180Y-103994039D01*
X111344120Y-104209052D01*
X111283878Y-104433877D01*
X111253501Y-104664617D01*
X111253500Y-104664634D01*
X99695000Y-104664634D01*
X99695000Y-102152421D01*
X103013500Y-102152421D01*
X103013500Y-102329578D01*
X103041214Y-102504556D01*
X103095956Y-102673039D01*
X103095957Y-102673042D01*
X103176386Y-102830890D01*
X103280517Y-102974214D01*
X103405786Y-103099483D01*
X103549110Y-103203614D01*
X103617577Y-103238500D01*
X103706957Y-103284042D01*
X103706960Y-103284043D01*
X103760852Y-103301553D01*
X103875445Y-103338786D01*
X104050421Y-103366500D01*
X104050422Y-103366500D01*
X104227578Y-103366500D01*
X104227579Y-103366500D01*
X104402555Y-103338786D01*
X104571042Y-103284042D01*
X104728890Y-103203614D01*
X104872214Y-103099483D01*
X104997483Y-102974214D01*
X105101614Y-102830890D01*
X105182042Y-102673042D01*
X105236786Y-102504555D01*
X105264500Y-102329579D01*
X105264500Y-102152421D01*
X105255165Y-102093486D01*
X106968500Y-102093486D01*
X106968500Y-102388513D01*
X106983778Y-102504555D01*
X107007007Y-102680993D01*
X107066676Y-102903682D01*
X107083361Y-102965951D01*
X107083364Y-102965961D01*
X107196254Y-103238500D01*
X107196258Y-103238510D01*
X107343761Y-103493993D01*
X107523352Y-103728040D01*
X107523358Y-103728047D01*
X107731952Y-103936641D01*
X107731959Y-103936647D01*
X107966006Y-104116238D01*
X108221489Y-104263741D01*
X108221490Y-104263741D01*
X108221493Y-104263743D01*
X108494048Y-104376639D01*
X108779007Y-104452993D01*
X109071494Y-104491500D01*
X109071501Y-104491500D01*
X109366499Y-104491500D01*
X109366506Y-104491500D01*
X109658993Y-104452993D01*
X109943952Y-104376639D01*
X110216507Y-104263743D01*
X110471994Y-104116238D01*
X110706042Y-103936646D01*
X110914646Y-103728042D01*
X111094238Y-103493994D01*
X111241743Y-103238507D01*
X111354639Y-102965952D01*
X111430993Y-102680993D01*
X111469500Y-102388506D01*
X111469500Y-102093494D01*
X111430993Y-101801007D01*
X111354639Y-101516048D01*
X111241743Y-101243493D01*
X111215453Y-101197958D01*
X111094238Y-100988006D01*
X110914647Y-100753959D01*
X110914641Y-100753952D01*
X110706047Y-100545358D01*
X110706040Y-100545352D01*
X110471993Y-100365761D01*
X110216510Y-100218258D01*
X110216500Y-100218254D01*
X109943961Y-100105364D01*
X109943954Y-100105362D01*
X109943952Y-100105361D01*
X109658993Y-100029007D01*
X109610113Y-100022571D01*
X109366513Y-99990500D01*
X109366506Y-99990500D01*
X109071494Y-99990500D01*
X109071486Y-99990500D01*
X108793085Y-100027153D01*
X108779007Y-100029007D01*
X108494048Y-100105361D01*
X108494038Y-100105364D01*
X108221499Y-100218254D01*
X108221489Y-100218258D01*
X107966006Y-100365761D01*
X107731959Y-100545352D01*
X107731952Y-100545358D01*
X107523358Y-100753952D01*
X107523352Y-100753959D01*
X107343761Y-100988006D01*
X107196258Y-101243489D01*
X107196254Y-101243499D01*
X107083364Y-101516038D01*
X107083361Y-101516048D01*
X107047172Y-101651110D01*
X107007008Y-101801004D01*
X107007006Y-101801015D01*
X106968500Y-102093486D01*
X105255165Y-102093486D01*
X105236786Y-101977445D01*
X105182042Y-101808958D01*
X105182042Y-101808957D01*
X105101613Y-101651109D01*
X104997483Y-101507786D01*
X104872214Y-101382517D01*
X104728890Y-101278386D01*
X104571042Y-101197957D01*
X104571039Y-101197956D01*
X104402556Y-101143214D01*
X104315067Y-101129357D01*
X104227579Y-101115500D01*
X104050421Y-101115500D01*
X103992095Y-101124738D01*
X103875443Y-101143214D01*
X103706960Y-101197956D01*
X103706957Y-101197957D01*
X103549109Y-101278386D01*
X103467338Y-101337796D01*
X103405786Y-101382517D01*
X103405784Y-101382519D01*
X103405783Y-101382519D01*
X103280519Y-101507783D01*
X103280519Y-101507784D01*
X103280517Y-101507786D01*
X103235796Y-101569338D01*
X103176386Y-101651109D01*
X103095957Y-101808957D01*
X103095956Y-101808960D01*
X103041214Y-101977443D01*
X103013500Y-102152421D01*
X99695000Y-102152421D01*
X99695000Y-91445999D01*
X127548341Y-91445999D01*
X127548341Y-91446000D01*
X127568936Y-91681403D01*
X127568938Y-91681413D01*
X127630094Y-91909655D01*
X127630096Y-91909659D01*
X127630097Y-91909663D01*
X127729965Y-92123830D01*
X127729967Y-92123834D01*
X127865501Y-92317395D01*
X127865506Y-92317402D01*
X128032597Y-92484493D01*
X128032603Y-92484498D01*
X128218158Y-92614425D01*
X128261783Y-92669002D01*
X128268977Y-92738500D01*
X128237454Y-92800855D01*
X128218158Y-92817575D01*
X128032597Y-92947505D01*
X127865505Y-93114597D01*
X127729965Y-93308169D01*
X127729964Y-93308171D01*
X127630098Y-93522335D01*
X127630094Y-93522344D01*
X127568938Y-93750586D01*
X127568936Y-93750596D01*
X127548341Y-93985999D01*
X127548341Y-93986000D01*
X127568936Y-94221403D01*
X127568938Y-94221413D01*
X127630094Y-94449655D01*
X127630096Y-94449659D01*
X127630097Y-94449663D01*
X127712975Y-94627395D01*
X127729965Y-94663830D01*
X127729967Y-94663834D01*
X127821456Y-94794493D01*
X127865505Y-94857401D01*
X128032599Y-95024495D01*
X128127665Y-95091061D01*
X128226165Y-95160032D01*
X128226167Y-95160033D01*
X128226170Y-95160035D01*
X128440337Y-95259903D01*
X128668592Y-95321063D01*
X128856918Y-95337539D01*
X128903999Y-95341659D01*
X128904000Y-95341659D01*
X128904001Y-95341659D01*
X128943234Y-95338226D01*
X129139408Y-95321063D01*
X129367663Y-95259903D01*
X129581830Y-95160035D01*
X129775401Y-95024495D01*
X129942495Y-94857401D01*
X130078035Y-94663830D01*
X130177903Y-94449663D01*
X130239063Y-94221408D01*
X130259659Y-93986000D01*
X130239536Y-93755999D01*
X133898341Y-93755999D01*
X133898341Y-93756000D01*
X133918936Y-93991403D01*
X133918938Y-93991413D01*
X133980094Y-94219655D01*
X133980096Y-94219659D01*
X133980097Y-94219663D01*
X134079965Y-94433830D01*
X134079967Y-94433834D01*
X134188281Y-94588521D01*
X134215505Y-94627401D01*
X134382599Y-94794495D01*
X134472429Y-94857395D01*
X134576165Y-94930032D01*
X134576167Y-94930033D01*
X134576170Y-94930035D01*
X134790337Y-95029903D01*
X135018592Y-95091063D01*
X135206918Y-95107539D01*
X135253999Y-95111659D01*
X135254000Y-95111659D01*
X135254001Y-95111659D01*
X135293234Y-95108226D01*
X135489408Y-95091063D01*
X135717663Y-95029903D01*
X135931830Y-94930035D01*
X136125401Y-94794495D01*
X136292495Y-94627401D01*
X136428035Y-94433830D01*
X136527903Y-94219663D01*
X136589063Y-93991408D01*
X136609659Y-93756000D01*
X136609659Y-93755999D01*
X138978341Y-93755999D01*
X138978341Y-93756000D01*
X138998936Y-93991403D01*
X138998938Y-93991413D01*
X139060094Y-94219655D01*
X139060096Y-94219659D01*
X139060097Y-94219663D01*
X139159965Y-94433830D01*
X139159967Y-94433834D01*
X139268281Y-94588521D01*
X139295505Y-94627401D01*
X139462599Y-94794495D01*
X139552429Y-94857395D01*
X139656165Y-94930032D01*
X139656167Y-94930033D01*
X139656170Y-94930035D01*
X139870337Y-95029903D01*
X140098592Y-95091063D01*
X140286918Y-95107539D01*
X140333999Y-95111659D01*
X140334000Y-95111659D01*
X140334001Y-95111659D01*
X140373234Y-95108226D01*
X140569408Y-95091063D01*
X140797663Y-95029903D01*
X141011830Y-94930035D01*
X141205401Y-94794495D01*
X141372495Y-94627401D01*
X141508035Y-94433830D01*
X141607903Y-94219663D01*
X141669063Y-93991408D01*
X141689659Y-93756000D01*
X141669063Y-93520592D01*
X141607903Y-93292337D01*
X141508035Y-93078171D01*
X141416540Y-92947501D01*
X141372494Y-92884597D01*
X141205402Y-92717506D01*
X141205395Y-92717501D01*
X141203251Y-92716000D01*
X141136132Y-92669002D01*
X141011834Y-92581967D01*
X141011830Y-92581965D01*
X141011828Y-92581964D01*
X140797663Y-92482097D01*
X140797659Y-92482096D01*
X140797655Y-92482094D01*
X140569413Y-92420938D01*
X140569403Y-92420936D01*
X140334001Y-92400341D01*
X140333999Y-92400341D01*
X140098596Y-92420936D01*
X140098586Y-92420938D01*
X139870344Y-92482094D01*
X139870335Y-92482098D01*
X139656171Y-92581964D01*
X139656169Y-92581965D01*
X139462597Y-92717505D01*
X139295505Y-92884597D01*
X139159965Y-93078169D01*
X139159964Y-93078171D01*
X139060098Y-93292335D01*
X139060094Y-93292344D01*
X138998938Y-93520586D01*
X138998936Y-93520596D01*
X138978341Y-93755999D01*
X136609659Y-93755999D01*
X136589063Y-93520592D01*
X136527903Y-93292337D01*
X136428035Y-93078171D01*
X136336540Y-92947501D01*
X136292494Y-92884597D01*
X136125402Y-92717506D01*
X136125395Y-92717501D01*
X136123251Y-92716000D01*
X136056132Y-92669002D01*
X135931834Y-92581967D01*
X135931830Y-92581965D01*
X135931828Y-92581964D01*
X135717663Y-92482097D01*
X135717659Y-92482096D01*
X135717655Y-92482094D01*
X135489413Y-92420938D01*
X135489403Y-92420936D01*
X135254001Y-92400341D01*
X135253999Y-92400341D01*
X135018596Y-92420936D01*
X135018586Y-92420938D01*
X134790344Y-92482094D01*
X134790335Y-92482098D01*
X134576171Y-92581964D01*
X134576169Y-92581965D01*
X134382597Y-92717505D01*
X134215505Y-92884597D01*
X134079965Y-93078169D01*
X134079964Y-93078171D01*
X133980098Y-93292335D01*
X133980094Y-93292344D01*
X133918938Y-93520586D01*
X133918936Y-93520596D01*
X133898341Y-93755999D01*
X130239536Y-93755999D01*
X130239063Y-93750592D01*
X130177903Y-93522337D01*
X130078035Y-93308171D01*
X129942495Y-93114599D01*
X129942494Y-93114597D01*
X129775402Y-92947506D01*
X129775396Y-92947501D01*
X129589842Y-92817575D01*
X129546217Y-92762998D01*
X129539023Y-92693500D01*
X129570546Y-92631145D01*
X129589842Y-92614425D01*
X129636197Y-92581967D01*
X129775401Y-92484495D01*
X129942495Y-92317401D01*
X130078035Y-92123830D01*
X130177903Y-91909663D01*
X130239063Y-91681408D01*
X130259659Y-91446000D01*
X130259659Y-91445999D01*
X145328341Y-91445999D01*
X145328341Y-91446000D01*
X145348936Y-91681403D01*
X145348938Y-91681413D01*
X145410094Y-91909655D01*
X145410096Y-91909659D01*
X145410097Y-91909663D01*
X145509965Y-92123830D01*
X145509967Y-92123834D01*
X145645501Y-92317395D01*
X145645506Y-92317402D01*
X145812597Y-92484493D01*
X145812603Y-92484498D01*
X145998158Y-92614425D01*
X146041783Y-92669002D01*
X146048977Y-92738500D01*
X146017454Y-92800855D01*
X145998158Y-92817575D01*
X145812597Y-92947505D01*
X145645505Y-93114597D01*
X145509965Y-93308169D01*
X145509964Y-93308171D01*
X145410098Y-93522335D01*
X145410094Y-93522344D01*
X145348938Y-93750586D01*
X145348936Y-93750596D01*
X145328341Y-93985999D01*
X145328341Y-93986000D01*
X145348936Y-94221403D01*
X145348938Y-94221413D01*
X145410094Y-94449655D01*
X145410096Y-94449659D01*
X145410097Y-94449663D01*
X145492975Y-94627395D01*
X145509965Y-94663830D01*
X145509967Y-94663834D01*
X145601456Y-94794493D01*
X145645505Y-94857401D01*
X145812599Y-95024495D01*
X145907665Y-95091061D01*
X146006165Y-95160032D01*
X146006167Y-95160033D01*
X146006170Y-95160035D01*
X146220337Y-95259903D01*
X146448592Y-95321063D01*
X146636918Y-95337539D01*
X146683999Y-95341659D01*
X146684000Y-95341659D01*
X146684001Y-95341659D01*
X146723234Y-95338226D01*
X146919408Y-95321063D01*
X147147663Y-95259903D01*
X147361830Y-95160035D01*
X147555401Y-95024495D01*
X147722495Y-94857401D01*
X147858035Y-94663830D01*
X147957903Y-94449663D01*
X148019063Y-94221408D01*
X148039659Y-93986000D01*
X148019063Y-93750592D01*
X147957903Y-93522337D01*
X147858035Y-93308171D01*
X147722495Y-93114599D01*
X147722494Y-93114597D01*
X147555402Y-92947506D01*
X147555396Y-92947501D01*
X147369842Y-92817575D01*
X147326217Y-92762998D01*
X147319023Y-92693500D01*
X147350546Y-92631145D01*
X147369842Y-92614425D01*
X147416197Y-92581967D01*
X147555401Y-92484495D01*
X147722495Y-92317401D01*
X147858035Y-92123830D01*
X147957903Y-91909663D01*
X148019063Y-91681408D01*
X148039659Y-91446000D01*
X148019063Y-91210592D01*
X147957903Y-90982337D01*
X147858035Y-90768171D01*
X147722495Y-90574599D01*
X147722494Y-90574597D01*
X147555402Y-90407506D01*
X147555395Y-90407501D01*
X147361834Y-90271967D01*
X147361830Y-90271965D01*
X147361828Y-90271964D01*
X147147663Y-90172097D01*
X147147659Y-90172096D01*
X147147655Y-90172094D01*
X146919413Y-90110938D01*
X146919403Y-90110936D01*
X146684001Y-90090341D01*
X146683999Y-90090341D01*
X146448596Y-90110936D01*
X146448586Y-90110938D01*
X146220344Y-90172094D01*
X146220335Y-90172098D01*
X146006171Y-90271964D01*
X146006169Y-90271965D01*
X145812597Y-90407505D01*
X145645505Y-90574597D01*
X145509965Y-90768169D01*
X145509964Y-90768171D01*
X145410098Y-90982335D01*
X145410094Y-90982344D01*
X145348938Y-91210586D01*
X145348936Y-91210596D01*
X145328341Y-91445999D01*
X130259659Y-91445999D01*
X130239063Y-91210592D01*
X130177903Y-90982337D01*
X130078035Y-90768171D01*
X129942495Y-90574599D01*
X129942494Y-90574597D01*
X129775402Y-90407506D01*
X129775395Y-90407501D01*
X129581834Y-90271967D01*
X129581830Y-90271965D01*
X129581828Y-90271964D01*
X129367663Y-90172097D01*
X129367659Y-90172096D01*
X129367655Y-90172094D01*
X129139413Y-90110938D01*
X129139403Y-90110936D01*
X128904001Y-90090341D01*
X128903999Y-90090341D01*
X128668596Y-90110936D01*
X128668586Y-90110938D01*
X128440344Y-90172094D01*
X128440335Y-90172098D01*
X128226171Y-90271964D01*
X128226169Y-90271965D01*
X128032597Y-90407505D01*
X127865505Y-90574597D01*
X127729965Y-90768169D01*
X127729964Y-90768171D01*
X127630098Y-90982335D01*
X127630094Y-90982344D01*
X127568938Y-91210586D01*
X127568936Y-91210596D01*
X127548341Y-91445999D01*
X99695000Y-91445999D01*
X99695000Y-78608713D01*
X102344500Y-78608713D01*
X102344500Y-78821286D01*
X102369861Y-78981413D01*
X102377754Y-79031243D01*
X102435726Y-79209663D01*
X102443444Y-79233414D01*
X102539951Y-79422820D01*
X102664890Y-79594786D01*
X102815213Y-79745109D01*
X102987179Y-79870048D01*
X102987181Y-79870049D01*
X102987184Y-79870051D01*
X103176588Y-79966557D01*
X103378757Y-80032246D01*
X103588713Y-80065500D01*
X103588714Y-80065500D01*
X103801286Y-80065500D01*
X103801287Y-80065500D01*
X104011243Y-80032246D01*
X104213412Y-79966557D01*
X104402816Y-79870051D01*
X104424789Y-79854086D01*
X104574786Y-79745109D01*
X104574788Y-79745106D01*
X104574792Y-79745104D01*
X104725104Y-79594792D01*
X104725106Y-79594788D01*
X104725109Y-79594786D01*
X104850048Y-79422820D01*
X104850047Y-79422820D01*
X104850051Y-79422816D01*
X104946557Y-79233412D01*
X105012246Y-79031243D01*
X105045500Y-78821287D01*
X105045500Y-78745999D01*
X127548341Y-78745999D01*
X127548341Y-78746000D01*
X127568936Y-78981403D01*
X127568938Y-78981413D01*
X127630094Y-79209655D01*
X127630096Y-79209659D01*
X127630097Y-79209663D01*
X127729492Y-79422816D01*
X127729965Y-79423830D01*
X127729967Y-79423834D01*
X127865501Y-79617395D01*
X127865506Y-79617402D01*
X128032597Y-79784493D01*
X128032603Y-79784498D01*
X128218158Y-79914425D01*
X128261783Y-79969002D01*
X128268977Y-80038500D01*
X128237454Y-80100855D01*
X128218158Y-80117575D01*
X128032597Y-80247505D01*
X127865505Y-80414597D01*
X127729965Y-80608169D01*
X127729964Y-80608171D01*
X127630098Y-80822335D01*
X127630094Y-80822344D01*
X127568938Y-81050586D01*
X127568936Y-81050596D01*
X127548341Y-81285999D01*
X127548341Y-81286000D01*
X127568936Y-81521403D01*
X127568938Y-81521413D01*
X127630094Y-81749655D01*
X127630096Y-81749659D01*
X127630097Y-81749663D01*
X127729965Y-81963830D01*
X127729967Y-81963834D01*
X127865501Y-82157395D01*
X127865506Y-82157402D01*
X128032597Y-82324493D01*
X128032603Y-82324498D01*
X128218158Y-82454425D01*
X128261783Y-82509002D01*
X128268977Y-82578500D01*
X128237454Y-82640855D01*
X128218158Y-82657575D01*
X128032597Y-82787505D01*
X127865505Y-82954597D01*
X127729965Y-83148169D01*
X127729964Y-83148171D01*
X127630098Y-83362335D01*
X127630094Y-83362344D01*
X127568938Y-83590586D01*
X127568936Y-83590596D01*
X127548341Y-83825999D01*
X127548341Y-83826000D01*
X127568936Y-84061403D01*
X127568938Y-84061413D01*
X127630094Y-84289655D01*
X127630096Y-84289659D01*
X127630097Y-84289663D01*
X127729965Y-84503830D01*
X127729967Y-84503834D01*
X127865501Y-84697395D01*
X127865506Y-84697402D01*
X128032597Y-84864493D01*
X128032603Y-84864498D01*
X128218158Y-84994425D01*
X128261783Y-85049002D01*
X128268977Y-85118500D01*
X128237454Y-85180855D01*
X128218158Y-85197575D01*
X128032597Y-85327505D01*
X127865505Y-85494597D01*
X127729965Y-85688169D01*
X127729964Y-85688171D01*
X127630098Y-85902335D01*
X127630094Y-85902344D01*
X127568938Y-86130586D01*
X127568936Y-86130596D01*
X127548341Y-86365999D01*
X127548341Y-86366000D01*
X127568936Y-86601403D01*
X127568938Y-86601413D01*
X127630094Y-86829655D01*
X127630096Y-86829659D01*
X127630097Y-86829663D01*
X127729965Y-87043830D01*
X127729967Y-87043834D01*
X127838281Y-87198521D01*
X127865505Y-87237401D01*
X128032599Y-87404495D01*
X128129384Y-87472265D01*
X128226165Y-87540032D01*
X128226167Y-87540033D01*
X128226170Y-87540035D01*
X128440337Y-87639903D01*
X128668592Y-87701063D01*
X128856918Y-87717539D01*
X128903999Y-87721659D01*
X128904000Y-87721659D01*
X128904001Y-87721659D01*
X128943234Y-87718226D01*
X129139408Y-87701063D01*
X129367663Y-87639903D01*
X129581830Y-87540035D01*
X129775401Y-87404495D01*
X129942495Y-87237401D01*
X130078035Y-87043830D01*
X130177903Y-86829663D01*
X130239063Y-86601408D01*
X130259659Y-86366000D01*
X130239063Y-86130592D01*
X130177903Y-85902337D01*
X130078035Y-85688171D01*
X129942495Y-85494599D01*
X129942494Y-85494597D01*
X129775402Y-85327506D01*
X129775396Y-85327501D01*
X129589842Y-85197575D01*
X129546217Y-85142998D01*
X129539023Y-85073500D01*
X129570546Y-85011145D01*
X129589842Y-84994425D01*
X129612026Y-84978891D01*
X129775401Y-84864495D01*
X129942495Y-84697401D01*
X130078035Y-84503830D01*
X130177903Y-84289663D01*
X130239063Y-84061408D01*
X130259659Y-83826000D01*
X130239063Y-83590592D01*
X130177903Y-83362337D01*
X130078035Y-83148171D01*
X129942495Y-82954599D01*
X129942494Y-82954597D01*
X129775402Y-82787506D01*
X129775396Y-82787501D01*
X129589842Y-82657575D01*
X129546217Y-82602998D01*
X129539023Y-82533500D01*
X129570546Y-82471145D01*
X129589842Y-82454425D01*
X129612026Y-82438891D01*
X129775401Y-82324495D01*
X129942495Y-82157401D01*
X130078035Y-81963830D01*
X130177903Y-81749663D01*
X130239063Y-81521408D01*
X130259659Y-81286000D01*
X130239063Y-81050592D01*
X130177903Y-80822337D01*
X130078035Y-80608171D01*
X129942495Y-80414599D01*
X129942494Y-80414597D01*
X129775402Y-80247506D01*
X129775396Y-80247501D01*
X129589842Y-80117575D01*
X129546217Y-80062998D01*
X129539023Y-79993500D01*
X129570546Y-79931145D01*
X129589842Y-79914425D01*
X129653219Y-79870048D01*
X129775401Y-79784495D01*
X129942495Y-79617401D01*
X130078035Y-79423830D01*
X130177903Y-79209663D01*
X130239063Y-78981408D01*
X130259659Y-78746000D01*
X130259659Y-78745999D01*
X145328341Y-78745999D01*
X145328341Y-78746000D01*
X145348936Y-78981403D01*
X145348938Y-78981413D01*
X145410094Y-79209655D01*
X145410096Y-79209659D01*
X145410097Y-79209663D01*
X145509492Y-79422816D01*
X145509965Y-79423830D01*
X145509967Y-79423834D01*
X145645501Y-79617395D01*
X145645506Y-79617402D01*
X145812597Y-79784493D01*
X145812603Y-79784498D01*
X145998158Y-79914425D01*
X146041783Y-79969002D01*
X146048977Y-80038500D01*
X146017454Y-80100855D01*
X145998158Y-80117575D01*
X145812597Y-80247505D01*
X145645505Y-80414597D01*
X145509965Y-80608169D01*
X145509964Y-80608171D01*
X145410098Y-80822335D01*
X145410094Y-80822344D01*
X145348938Y-81050586D01*
X145348936Y-81050596D01*
X145328341Y-81285999D01*
X145328341Y-81286000D01*
X145348936Y-81521403D01*
X145348938Y-81521413D01*
X145410094Y-81749655D01*
X145410096Y-81749659D01*
X145410097Y-81749663D01*
X145509965Y-81963830D01*
X145509967Y-81963834D01*
X145645501Y-82157395D01*
X145645506Y-82157402D01*
X145812597Y-82324493D01*
X145812603Y-82324498D01*
X145998158Y-82454425D01*
X146041783Y-82509002D01*
X146048977Y-82578500D01*
X146017454Y-82640855D01*
X145998158Y-82657575D01*
X145812597Y-82787505D01*
X145645505Y-82954597D01*
X145509965Y-83148169D01*
X145509964Y-83148171D01*
X145410098Y-83362335D01*
X145410094Y-83362344D01*
X145348938Y-83590586D01*
X145348936Y-83590596D01*
X145328341Y-83825999D01*
X145328341Y-83826000D01*
X145348936Y-84061403D01*
X145348938Y-84061413D01*
X145410094Y-84289655D01*
X145410096Y-84289659D01*
X145410097Y-84289663D01*
X145509965Y-84503830D01*
X145509967Y-84503834D01*
X145645501Y-84697395D01*
X145645506Y-84697402D01*
X145812597Y-84864493D01*
X145812603Y-84864498D01*
X145998158Y-84994425D01*
X146041783Y-85049002D01*
X146048977Y-85118500D01*
X146017454Y-85180855D01*
X145998158Y-85197575D01*
X145812597Y-85327505D01*
X145645505Y-85494597D01*
X145509965Y-85688169D01*
X145509964Y-85688171D01*
X145410098Y-85902335D01*
X145410094Y-85902344D01*
X145348938Y-86130586D01*
X145348936Y-86130596D01*
X145328341Y-86365999D01*
X145328341Y-86366000D01*
X145348936Y-86601403D01*
X145348938Y-86601413D01*
X145410094Y-86829655D01*
X145410096Y-86829659D01*
X145410097Y-86829663D01*
X145509965Y-87043830D01*
X145509967Y-87043834D01*
X145618281Y-87198521D01*
X145645505Y-87237401D01*
X145812599Y-87404495D01*
X145909384Y-87472265D01*
X146006165Y-87540032D01*
X146006167Y-87540033D01*
X146006170Y-87540035D01*
X146220337Y-87639903D01*
X146448592Y-87701063D01*
X146636918Y-87717539D01*
X146683999Y-87721659D01*
X146684000Y-87721659D01*
X146684001Y-87721659D01*
X146723234Y-87718226D01*
X146919408Y-87701063D01*
X147147663Y-87639903D01*
X147361830Y-87540035D01*
X147555401Y-87404495D01*
X147722495Y-87237401D01*
X147858035Y-87043830D01*
X147957903Y-86829663D01*
X148019063Y-86601408D01*
X148039659Y-86366000D01*
X148019063Y-86130592D01*
X147957903Y-85902337D01*
X147858035Y-85688171D01*
X147722495Y-85494599D01*
X147722494Y-85494597D01*
X147555402Y-85327506D01*
X147555396Y-85327501D01*
X147369842Y-85197575D01*
X147326217Y-85142998D01*
X147319023Y-85073500D01*
X147350546Y-85011145D01*
X147369842Y-84994425D01*
X147392026Y-84978891D01*
X147555401Y-84864495D01*
X147722495Y-84697401D01*
X147858035Y-84503830D01*
X147957903Y-84289663D01*
X148019063Y-84061408D01*
X148039659Y-83826000D01*
X148019063Y-83590592D01*
X147957903Y-83362337D01*
X147858035Y-83148171D01*
X147722495Y-82954599D01*
X147722494Y-82954597D01*
X147555402Y-82787506D01*
X147555396Y-82787501D01*
X147369842Y-82657575D01*
X147326217Y-82602998D01*
X147319023Y-82533500D01*
X147350546Y-82471145D01*
X147369842Y-82454425D01*
X147392026Y-82438891D01*
X147555401Y-82324495D01*
X147722495Y-82157401D01*
X147858035Y-81963830D01*
X147957903Y-81749663D01*
X148019063Y-81521408D01*
X148039659Y-81286000D01*
X148019063Y-81050592D01*
X147957903Y-80822337D01*
X147858035Y-80608171D01*
X147722495Y-80414599D01*
X147722494Y-80414597D01*
X147555402Y-80247506D01*
X147555396Y-80247501D01*
X147369842Y-80117575D01*
X147326217Y-80062998D01*
X147319023Y-79993500D01*
X147350546Y-79931145D01*
X147369842Y-79914425D01*
X147433219Y-79870048D01*
X147555401Y-79784495D01*
X147722495Y-79617401D01*
X147858035Y-79423830D01*
X147957903Y-79209663D01*
X148019063Y-78981408D01*
X148039659Y-78746000D01*
X148027648Y-78608713D01*
X170544500Y-78608713D01*
X170544500Y-78821286D01*
X170569861Y-78981413D01*
X170577754Y-79031243D01*
X170635726Y-79209663D01*
X170643444Y-79233414D01*
X170739951Y-79422820D01*
X170864890Y-79594786D01*
X171015213Y-79745109D01*
X171187179Y-79870048D01*
X171187181Y-79870049D01*
X171187184Y-79870051D01*
X171376588Y-79966557D01*
X171578757Y-80032246D01*
X171788713Y-80065500D01*
X171788714Y-80065500D01*
X172001286Y-80065500D01*
X172001287Y-80065500D01*
X172211243Y-80032246D01*
X172413412Y-79966557D01*
X172602816Y-79870051D01*
X172624789Y-79854086D01*
X172774786Y-79745109D01*
X172774788Y-79745106D01*
X172774792Y-79745104D01*
X172925104Y-79594792D01*
X172925106Y-79594788D01*
X172925109Y-79594786D01*
X173050048Y-79422820D01*
X173050047Y-79422820D01*
X173050051Y-79422816D01*
X173146557Y-79233412D01*
X173212246Y-79031243D01*
X173245500Y-78821287D01*
X173245500Y-78608713D01*
X173212246Y-78398757D01*
X173146557Y-78196588D01*
X173050051Y-78007184D01*
X173050049Y-78007181D01*
X173050048Y-78007179D01*
X172925109Y-77835213D01*
X172774786Y-77684890D01*
X172602820Y-77559951D01*
X172413414Y-77463444D01*
X172413413Y-77463443D01*
X172413412Y-77463443D01*
X172211243Y-77397754D01*
X172211241Y-77397753D01*
X172211240Y-77397753D01*
X172049957Y-77372208D01*
X172001287Y-77364500D01*
X171788713Y-77364500D01*
X171740042Y-77372208D01*
X171578760Y-77397753D01*
X171376585Y-77463444D01*
X171187179Y-77559951D01*
X171015213Y-77684890D01*
X170864890Y-77835213D01*
X170739951Y-78007179D01*
X170643444Y-78196585D01*
X170577753Y-78398760D01*
X170544500Y-78608713D01*
X148027648Y-78608713D01*
X148019063Y-78510592D01*
X147957903Y-78282337D01*
X147858035Y-78068171D01*
X147815329Y-78007179D01*
X147722494Y-77874597D01*
X147555402Y-77707506D01*
X147555395Y-77707501D01*
X147361834Y-77571967D01*
X147361830Y-77571965D01*
X147336062Y-77559949D01*
X147147663Y-77472097D01*
X147147659Y-77472096D01*
X147147655Y-77472094D01*
X146919413Y-77410938D01*
X146919403Y-77410936D01*
X146684001Y-77390341D01*
X146683999Y-77390341D01*
X146448596Y-77410936D01*
X146448586Y-77410938D01*
X146220344Y-77472094D01*
X146220335Y-77472098D01*
X146006171Y-77571964D01*
X146006169Y-77571965D01*
X145812597Y-77707505D01*
X145645505Y-77874597D01*
X145509965Y-78068169D01*
X145509964Y-78068171D01*
X145410098Y-78282335D01*
X145410094Y-78282344D01*
X145348938Y-78510586D01*
X145348936Y-78510596D01*
X145328341Y-78745999D01*
X130259659Y-78745999D01*
X130239063Y-78510592D01*
X130177903Y-78282337D01*
X130078035Y-78068171D01*
X130035329Y-78007179D01*
X129942494Y-77874597D01*
X129775402Y-77707506D01*
X129775395Y-77707501D01*
X129581834Y-77571967D01*
X129581830Y-77571965D01*
X129556062Y-77559949D01*
X129367663Y-77472097D01*
X129367659Y-77472096D01*
X129367655Y-77472094D01*
X129139413Y-77410938D01*
X129139403Y-77410936D01*
X128904001Y-77390341D01*
X128903999Y-77390341D01*
X128668596Y-77410936D01*
X128668586Y-77410938D01*
X128440344Y-77472094D01*
X128440335Y-77472098D01*
X128226171Y-77571964D01*
X128226169Y-77571965D01*
X128032597Y-77707505D01*
X127865505Y-77874597D01*
X127729965Y-78068169D01*
X127729964Y-78068171D01*
X127630098Y-78282335D01*
X127630094Y-78282344D01*
X127568938Y-78510586D01*
X127568936Y-78510596D01*
X127548341Y-78745999D01*
X105045500Y-78745999D01*
X105045500Y-78608713D01*
X105012246Y-78398757D01*
X104946557Y-78196588D01*
X104850051Y-78007184D01*
X104850049Y-78007181D01*
X104850048Y-78007179D01*
X104725109Y-77835213D01*
X104574786Y-77684890D01*
X104402820Y-77559951D01*
X104213414Y-77463444D01*
X104213413Y-77463443D01*
X104213412Y-77463443D01*
X104011243Y-77397754D01*
X104011241Y-77397753D01*
X104011240Y-77397753D01*
X103849957Y-77372208D01*
X103801287Y-77364500D01*
X103588713Y-77364500D01*
X103540042Y-77372208D01*
X103378760Y-77397753D01*
X103176585Y-77463444D01*
X102987179Y-77559951D01*
X102815213Y-77684890D01*
X102664890Y-77835213D01*
X102539951Y-78007179D01*
X102443444Y-78196585D01*
X102377753Y-78398760D01*
X102344500Y-78608713D01*
X99695000Y-78608713D01*
X99695000Y-68168135D01*
X113718500Y-68168135D01*
X113718500Y-70263870D01*
X113718501Y-70263876D01*
X113724908Y-70323483D01*
X113775202Y-70458328D01*
X113775206Y-70458335D01*
X113861452Y-70573544D01*
X113861455Y-70573547D01*
X113976664Y-70659793D01*
X113976671Y-70659797D01*
X114111517Y-70710091D01*
X114111516Y-70710091D01*
X114118444Y-70710835D01*
X114171127Y-70716500D01*
X116266872Y-70716499D01*
X116326483Y-70710091D01*
X116461331Y-70659796D01*
X116576546Y-70573546D01*
X116662796Y-70458331D01*
X116713091Y-70323483D01*
X116719500Y-70263873D01*
X116719499Y-69215994D01*
X118713357Y-69215994D01*
X118713357Y-69216005D01*
X118733890Y-69463812D01*
X118733892Y-69463824D01*
X118794936Y-69704881D01*
X118894826Y-69932606D01*
X119030833Y-70140782D01*
X119030836Y-70140785D01*
X119199256Y-70323738D01*
X119395491Y-70476474D01*
X119614190Y-70594828D01*
X119849386Y-70675571D01*
X120094665Y-70716500D01*
X120343335Y-70716500D01*
X120588614Y-70675571D01*
X120823810Y-70594828D01*
X121042509Y-70476474D01*
X121238744Y-70323738D01*
X121407164Y-70140785D01*
X121543173Y-69932607D01*
X121643063Y-69704881D01*
X121704108Y-69463821D01*
X121704640Y-69457401D01*
X121724643Y-69216005D01*
X121724643Y-69215994D01*
X121704109Y-68968187D01*
X121704107Y-68968175D01*
X121643063Y-68727118D01*
X121543173Y-68499393D01*
X121407166Y-68291217D01*
X121385557Y-68267744D01*
X121238744Y-68108262D01*
X121042509Y-67955526D01*
X121042507Y-67955525D01*
X121042506Y-67955524D01*
X120823811Y-67837172D01*
X120823802Y-67837169D01*
X120588616Y-67756429D01*
X120343335Y-67715500D01*
X120094665Y-67715500D01*
X119849383Y-67756429D01*
X119614197Y-67837169D01*
X119614188Y-67837172D01*
X119395493Y-67955524D01*
X119199257Y-68108261D01*
X119030833Y-68291217D01*
X118894826Y-68499393D01*
X118794936Y-68727118D01*
X118733892Y-68968175D01*
X118733890Y-68968187D01*
X118713357Y-69215994D01*
X116719499Y-69215994D01*
X116719499Y-68168128D01*
X116713091Y-68108517D01*
X116662796Y-67973669D01*
X116662795Y-67973668D01*
X116662793Y-67973664D01*
X116576547Y-67858455D01*
X116576544Y-67858452D01*
X116461335Y-67772206D01*
X116461328Y-67772202D01*
X116326482Y-67721908D01*
X116326483Y-67721908D01*
X116266883Y-67715501D01*
X116266881Y-67715500D01*
X116266873Y-67715500D01*
X116266864Y-67715500D01*
X114171129Y-67715500D01*
X114171123Y-67715501D01*
X114111516Y-67721908D01*
X113976671Y-67772202D01*
X113976664Y-67772206D01*
X113861455Y-67858452D01*
X113861452Y-67858455D01*
X113775206Y-67973664D01*
X113775202Y-67973671D01*
X113724908Y-68108517D01*
X113723422Y-68122344D01*
X113718501Y-68168123D01*
X113718500Y-68168135D01*
X99695000Y-68168135D01*
X99695000Y-66045999D01*
X127548341Y-66045999D01*
X127548341Y-66046000D01*
X127568936Y-66281403D01*
X127568938Y-66281413D01*
X127630094Y-66509655D01*
X127630096Y-66509659D01*
X127630097Y-66509663D01*
X127729965Y-66723830D01*
X127729967Y-66723834D01*
X127865501Y-66917395D01*
X127865506Y-66917402D01*
X128032597Y-67084493D01*
X128032603Y-67084498D01*
X128218158Y-67214425D01*
X128261783Y-67269002D01*
X128268977Y-67338500D01*
X128237454Y-67400855D01*
X128218158Y-67417575D01*
X128032597Y-67547505D01*
X127865505Y-67714597D01*
X127729965Y-67908169D01*
X127729964Y-67908171D01*
X127630098Y-68122335D01*
X127630094Y-68122344D01*
X127568938Y-68350586D01*
X127568936Y-68350596D01*
X127548341Y-68585999D01*
X127548341Y-68586000D01*
X127568936Y-68821403D01*
X127568938Y-68821413D01*
X127630094Y-69049655D01*
X127630096Y-69049659D01*
X127630097Y-69049663D01*
X127707664Y-69216005D01*
X127729965Y-69263830D01*
X127729967Y-69263834D01*
X127865501Y-69457395D01*
X127865506Y-69457402D01*
X128032597Y-69624493D01*
X128032603Y-69624498D01*
X128218158Y-69754425D01*
X128261783Y-69809002D01*
X128268977Y-69878500D01*
X128237454Y-69940855D01*
X128218158Y-69957575D01*
X128032597Y-70087505D01*
X127865505Y-70254597D01*
X127729965Y-70448169D01*
X127729964Y-70448171D01*
X127630098Y-70662335D01*
X127630094Y-70662344D01*
X127568938Y-70890586D01*
X127568936Y-70890596D01*
X127548341Y-71125999D01*
X127548341Y-71126000D01*
X127568936Y-71361403D01*
X127568938Y-71361413D01*
X127630094Y-71589655D01*
X127630096Y-71589659D01*
X127630097Y-71589663D01*
X127729965Y-71803830D01*
X127729967Y-71803834D01*
X127865501Y-71997395D01*
X127865506Y-71997402D01*
X128032597Y-72164493D01*
X128032603Y-72164498D01*
X128218158Y-72294425D01*
X128261783Y-72349002D01*
X128268977Y-72418500D01*
X128237454Y-72480855D01*
X128218158Y-72497575D01*
X128032597Y-72627505D01*
X127865505Y-72794597D01*
X127729965Y-72988169D01*
X127729964Y-72988171D01*
X127630098Y-73202335D01*
X127630094Y-73202344D01*
X127568938Y-73430586D01*
X127568936Y-73430596D01*
X127548341Y-73665999D01*
X127548341Y-73666000D01*
X127568936Y-73901403D01*
X127568938Y-73901413D01*
X127630094Y-74129655D01*
X127630096Y-74129659D01*
X127630097Y-74129663D01*
X127729965Y-74343830D01*
X127729967Y-74343834D01*
X127838281Y-74498521D01*
X127865505Y-74537401D01*
X128032599Y-74704495D01*
X128129384Y-74772265D01*
X128226165Y-74840032D01*
X128226167Y-74840033D01*
X128226170Y-74840035D01*
X128440337Y-74939903D01*
X128668592Y-75001063D01*
X128856918Y-75017539D01*
X128903999Y-75021659D01*
X128904000Y-75021659D01*
X128904001Y-75021659D01*
X128943234Y-75018226D01*
X129139408Y-75001063D01*
X129367663Y-74939903D01*
X129581830Y-74840035D01*
X129775401Y-74704495D01*
X129942495Y-74537401D01*
X130078035Y-74343830D01*
X130177903Y-74129663D01*
X130239063Y-73901408D01*
X130259659Y-73666000D01*
X130239063Y-73430592D01*
X130177903Y-73202337D01*
X130078035Y-72988171D01*
X129942495Y-72794599D01*
X129942494Y-72794597D01*
X129775402Y-72627506D01*
X129775396Y-72627501D01*
X129589842Y-72497575D01*
X129546217Y-72442998D01*
X129539023Y-72373500D01*
X129570546Y-72311145D01*
X129589842Y-72294425D01*
X129612026Y-72278891D01*
X129775401Y-72164495D01*
X129942495Y-71997401D01*
X130078035Y-71803830D01*
X130177903Y-71589663D01*
X130239063Y-71361408D01*
X130259659Y-71126000D01*
X130239063Y-70890592D01*
X130192415Y-70716498D01*
X130177905Y-70662344D01*
X130177904Y-70662343D01*
X130177903Y-70662337D01*
X130078035Y-70448171D01*
X129990907Y-70323738D01*
X129942494Y-70254597D01*
X129775402Y-70087506D01*
X129775396Y-70087501D01*
X129589842Y-69957575D01*
X129546217Y-69902998D01*
X129539023Y-69833500D01*
X129570546Y-69771145D01*
X129589842Y-69754425D01*
X129660598Y-69704881D01*
X129775401Y-69624495D01*
X129942495Y-69457401D01*
X130078035Y-69263830D01*
X130177903Y-69049663D01*
X130239063Y-68821408D01*
X130259659Y-68586000D01*
X130239063Y-68350592D01*
X130177903Y-68122337D01*
X130078035Y-67908171D01*
X130028322Y-67837172D01*
X129942494Y-67714597D01*
X129775402Y-67547506D01*
X129775396Y-67547501D01*
X129589842Y-67417575D01*
X129546217Y-67362998D01*
X129539023Y-67293500D01*
X129570546Y-67231145D01*
X129589842Y-67214425D01*
X129612026Y-67198891D01*
X129775401Y-67084495D01*
X129942495Y-66917401D01*
X130078035Y-66723830D01*
X130177903Y-66509663D01*
X130239063Y-66281408D01*
X130259659Y-66046000D01*
X130259659Y-66045999D01*
X145328341Y-66045999D01*
X145328341Y-66046000D01*
X145348936Y-66281403D01*
X145348938Y-66281413D01*
X145410094Y-66509655D01*
X145410096Y-66509659D01*
X145410097Y-66509663D01*
X145509965Y-66723830D01*
X145509967Y-66723834D01*
X145645501Y-66917395D01*
X145645506Y-66917402D01*
X145812597Y-67084493D01*
X145812603Y-67084498D01*
X145998158Y-67214425D01*
X146041783Y-67269002D01*
X146048977Y-67338500D01*
X146017454Y-67400855D01*
X145998158Y-67417575D01*
X145812597Y-67547505D01*
X145645505Y-67714597D01*
X145509965Y-67908169D01*
X145509964Y-67908171D01*
X145410098Y-68122335D01*
X145410094Y-68122344D01*
X145348938Y-68350586D01*
X145348936Y-68350596D01*
X145328341Y-68585999D01*
X145328341Y-68586000D01*
X145348936Y-68821403D01*
X145348938Y-68821413D01*
X145410094Y-69049655D01*
X145410096Y-69049659D01*
X145410097Y-69049663D01*
X145487664Y-69216005D01*
X145509965Y-69263830D01*
X145509967Y-69263834D01*
X145645501Y-69457395D01*
X145645506Y-69457402D01*
X145812597Y-69624493D01*
X145812603Y-69624498D01*
X145998158Y-69754425D01*
X146041783Y-69809002D01*
X146048977Y-69878500D01*
X146017454Y-69940855D01*
X145998158Y-69957575D01*
X145812597Y-70087505D01*
X145645505Y-70254597D01*
X145509965Y-70448169D01*
X145509964Y-70448171D01*
X145410098Y-70662335D01*
X145410094Y-70662344D01*
X145348938Y-70890586D01*
X145348936Y-70890596D01*
X145328341Y-71125999D01*
X145328341Y-71126000D01*
X145348936Y-71361403D01*
X145348938Y-71361413D01*
X145410094Y-71589655D01*
X145410096Y-71589659D01*
X145410097Y-71589663D01*
X145509965Y-71803830D01*
X145509967Y-71803834D01*
X145645501Y-71997395D01*
X145645506Y-71997402D01*
X145812597Y-72164493D01*
X145812603Y-72164498D01*
X145998158Y-72294425D01*
X146041783Y-72349002D01*
X146048977Y-72418500D01*
X146017454Y-72480855D01*
X145998158Y-72497575D01*
X145812597Y-72627505D01*
X145645505Y-72794597D01*
X145509965Y-72988169D01*
X145509964Y-72988171D01*
X145410098Y-73202335D01*
X145410094Y-73202344D01*
X145348938Y-73430586D01*
X145348936Y-73430596D01*
X145328341Y-73665999D01*
X145328341Y-73666000D01*
X145348936Y-73901403D01*
X145348938Y-73901413D01*
X145410094Y-74129655D01*
X145410096Y-74129659D01*
X145410097Y-74129663D01*
X145509965Y-74343830D01*
X145509967Y-74343834D01*
X145618281Y-74498521D01*
X145645505Y-74537401D01*
X145812599Y-74704495D01*
X145909384Y-74772265D01*
X146006165Y-74840032D01*
X146006167Y-74840033D01*
X146006170Y-74840035D01*
X146220337Y-74939903D01*
X146448592Y-75001063D01*
X146636918Y-75017539D01*
X146683999Y-75021659D01*
X146684000Y-75021659D01*
X146684001Y-75021659D01*
X146723234Y-75018226D01*
X146919408Y-75001063D01*
X147147663Y-74939903D01*
X147361830Y-74840035D01*
X147555401Y-74704495D01*
X147722495Y-74537401D01*
X147858035Y-74343830D01*
X147957903Y-74129663D01*
X148019063Y-73901408D01*
X148039659Y-73666000D01*
X148019063Y-73430592D01*
X147957903Y-73202337D01*
X147858035Y-72988171D01*
X147722495Y-72794599D01*
X147722494Y-72794597D01*
X147555402Y-72627506D01*
X147555396Y-72627501D01*
X147369842Y-72497575D01*
X147326217Y-72442998D01*
X147319023Y-72373500D01*
X147350546Y-72311145D01*
X147369842Y-72294425D01*
X147392026Y-72278891D01*
X147555401Y-72164495D01*
X147722495Y-71997401D01*
X147858035Y-71803830D01*
X147957903Y-71589663D01*
X148019063Y-71361408D01*
X148039659Y-71126000D01*
X148019063Y-70890592D01*
X147972415Y-70716498D01*
X147957905Y-70662344D01*
X147957904Y-70662343D01*
X147957903Y-70662337D01*
X147858035Y-70448171D01*
X147770907Y-70323738D01*
X147722494Y-70254597D01*
X147555402Y-70087506D01*
X147555396Y-70087501D01*
X147369842Y-69957575D01*
X147326217Y-69902998D01*
X147319023Y-69833500D01*
X147350546Y-69771145D01*
X147369842Y-69754425D01*
X147440598Y-69704881D01*
X147555401Y-69624495D01*
X147722495Y-69457401D01*
X147858035Y-69263830D01*
X147957903Y-69049663D01*
X148019063Y-68821408D01*
X148039659Y-68586000D01*
X148019063Y-68350592D01*
X147970174Y-68168135D01*
X153868500Y-68168135D01*
X153868500Y-70263870D01*
X153868501Y-70263876D01*
X153874908Y-70323483D01*
X153925202Y-70458328D01*
X153925206Y-70458335D01*
X154011452Y-70573544D01*
X154011455Y-70573547D01*
X154126664Y-70659793D01*
X154126671Y-70659797D01*
X154261517Y-70710091D01*
X154261516Y-70710091D01*
X154268444Y-70710835D01*
X154321127Y-70716500D01*
X156416872Y-70716499D01*
X156476483Y-70710091D01*
X156611331Y-70659796D01*
X156726546Y-70573546D01*
X156812796Y-70458331D01*
X156863091Y-70323483D01*
X156869500Y-70263873D01*
X156869499Y-69215994D01*
X158863357Y-69215994D01*
X158863357Y-69216005D01*
X158883890Y-69463812D01*
X158883892Y-69463824D01*
X158944936Y-69704881D01*
X159044826Y-69932606D01*
X159180833Y-70140782D01*
X159180836Y-70140785D01*
X159349256Y-70323738D01*
X159545491Y-70476474D01*
X159764190Y-70594828D01*
X159999386Y-70675571D01*
X160244665Y-70716500D01*
X160493335Y-70716500D01*
X160738614Y-70675571D01*
X160973810Y-70594828D01*
X161192509Y-70476474D01*
X161388744Y-70323738D01*
X161557164Y-70140785D01*
X161693173Y-69932607D01*
X161793063Y-69704881D01*
X161854108Y-69463821D01*
X161854640Y-69457401D01*
X161874643Y-69216005D01*
X161874643Y-69215994D01*
X161854109Y-68968187D01*
X161854107Y-68968175D01*
X161793063Y-68727118D01*
X161693173Y-68499393D01*
X161557166Y-68291217D01*
X161535557Y-68267744D01*
X161388744Y-68108262D01*
X161192509Y-67955526D01*
X161192507Y-67955525D01*
X161192506Y-67955524D01*
X160973811Y-67837172D01*
X160973802Y-67837169D01*
X160738616Y-67756429D01*
X160493335Y-67715500D01*
X160244665Y-67715500D01*
X159999383Y-67756429D01*
X159764197Y-67837169D01*
X159764188Y-67837172D01*
X159545493Y-67955524D01*
X159349257Y-68108261D01*
X159180833Y-68291217D01*
X159044826Y-68499393D01*
X158944936Y-68727118D01*
X158883892Y-68968175D01*
X158883890Y-68968187D01*
X158863357Y-69215994D01*
X156869499Y-69215994D01*
X156869499Y-68168128D01*
X156863091Y-68108517D01*
X156812796Y-67973669D01*
X156812795Y-67973668D01*
X156812793Y-67973664D01*
X156726547Y-67858455D01*
X156726544Y-67858452D01*
X156611335Y-67772206D01*
X156611328Y-67772202D01*
X156476482Y-67721908D01*
X156476483Y-67721908D01*
X156416883Y-67715501D01*
X156416881Y-67715500D01*
X156416873Y-67715500D01*
X156416864Y-67715500D01*
X154321129Y-67715500D01*
X154321123Y-67715501D01*
X154261516Y-67721908D01*
X154126671Y-67772202D01*
X154126664Y-67772206D01*
X154011455Y-67858452D01*
X154011452Y-67858455D01*
X153925206Y-67973664D01*
X153925202Y-67973671D01*
X153874908Y-68108517D01*
X153873422Y-68122344D01*
X153868501Y-68168123D01*
X153868500Y-68168135D01*
X147970174Y-68168135D01*
X147957903Y-68122337D01*
X147858035Y-67908171D01*
X147808322Y-67837172D01*
X147722494Y-67714597D01*
X147555402Y-67547506D01*
X147555396Y-67547501D01*
X147369842Y-67417575D01*
X147326217Y-67362998D01*
X147319023Y-67293500D01*
X147350546Y-67231145D01*
X147369842Y-67214425D01*
X147392026Y-67198891D01*
X147555401Y-67084495D01*
X147722495Y-66917401D01*
X147858035Y-66723830D01*
X147957903Y-66509663D01*
X148019063Y-66281408D01*
X148039659Y-66046000D01*
X148019063Y-65810592D01*
X147957903Y-65582337D01*
X147858035Y-65368171D01*
X147722495Y-65174599D01*
X147722494Y-65174597D01*
X147555402Y-65007506D01*
X147555395Y-65007501D01*
X147361834Y-64871967D01*
X147361830Y-64871965D01*
X147361828Y-64871964D01*
X147147663Y-64772097D01*
X147147659Y-64772096D01*
X147147655Y-64772094D01*
X146919413Y-64710938D01*
X146919403Y-64710936D01*
X146684001Y-64690341D01*
X146683999Y-64690341D01*
X146448596Y-64710936D01*
X146448586Y-64710938D01*
X146220344Y-64772094D01*
X146220335Y-64772098D01*
X146006171Y-64871964D01*
X146006169Y-64871965D01*
X145812597Y-65007505D01*
X145645505Y-65174597D01*
X145509965Y-65368169D01*
X145509964Y-65368171D01*
X145410098Y-65582335D01*
X145410094Y-65582344D01*
X145348938Y-65810586D01*
X145348936Y-65810596D01*
X145328341Y-66045999D01*
X130259659Y-66045999D01*
X130239063Y-65810592D01*
X130177903Y-65582337D01*
X130078035Y-65368171D01*
X129942495Y-65174599D01*
X129942494Y-65174597D01*
X129775402Y-65007506D01*
X129775395Y-65007501D01*
X129581834Y-64871967D01*
X129581830Y-64871965D01*
X129581828Y-64871964D01*
X129367663Y-64772097D01*
X129367659Y-64772096D01*
X129367655Y-64772094D01*
X129139413Y-64710938D01*
X129139403Y-64710936D01*
X128904001Y-64690341D01*
X128903999Y-64690341D01*
X128668596Y-64710936D01*
X128668586Y-64710938D01*
X128440344Y-64772094D01*
X128440335Y-64772098D01*
X128226171Y-64871964D01*
X128226169Y-64871965D01*
X128032597Y-65007505D01*
X127865505Y-65174597D01*
X127729965Y-65368169D01*
X127729964Y-65368171D01*
X127630098Y-65582335D01*
X127630094Y-65582344D01*
X127568938Y-65810586D01*
X127568936Y-65810596D01*
X127548341Y-66045999D01*
X99695000Y-66045999D01*
X99695000Y-60168135D01*
X110368500Y-60168135D01*
X110368500Y-63263870D01*
X110368501Y-63263876D01*
X110374908Y-63323483D01*
X110425202Y-63458328D01*
X110425206Y-63458335D01*
X110511452Y-63573544D01*
X110511455Y-63573547D01*
X110626664Y-63659793D01*
X110626671Y-63659797D01*
X110761517Y-63710091D01*
X110761516Y-63710091D01*
X110768444Y-63710835D01*
X110821127Y-63716500D01*
X113416872Y-63716499D01*
X113476483Y-63710091D01*
X113611331Y-63659796D01*
X113726546Y-63573546D01*
X113812796Y-63458331D01*
X113863091Y-63323483D01*
X113869500Y-63263873D01*
X113869499Y-60168135D01*
X121568500Y-60168135D01*
X121568500Y-63263870D01*
X121568501Y-63263876D01*
X121574908Y-63323483D01*
X121625202Y-63458328D01*
X121625206Y-63458335D01*
X121711452Y-63573544D01*
X121711455Y-63573547D01*
X121826664Y-63659793D01*
X121826671Y-63659797D01*
X121961517Y-63710091D01*
X121961516Y-63710091D01*
X121968444Y-63710835D01*
X122021127Y-63716500D01*
X124616872Y-63716499D01*
X124676483Y-63710091D01*
X124811331Y-63659796D01*
X124926546Y-63573546D01*
X125012796Y-63458331D01*
X125063091Y-63323483D01*
X125069500Y-63263873D01*
X125069499Y-60168128D01*
X125063091Y-60108517D01*
X125057899Y-60094597D01*
X125012797Y-59973671D01*
X125012793Y-59973664D01*
X124926547Y-59858455D01*
X124926544Y-59858452D01*
X124811335Y-59772206D01*
X124811328Y-59772202D01*
X124676482Y-59721908D01*
X124676483Y-59721908D01*
X124616883Y-59715501D01*
X124616881Y-59715500D01*
X124616873Y-59715500D01*
X124616864Y-59715500D01*
X122021129Y-59715500D01*
X122021123Y-59715501D01*
X121961516Y-59721908D01*
X121826671Y-59772202D01*
X121826664Y-59772206D01*
X121711455Y-59858452D01*
X121711452Y-59858455D01*
X121625206Y-59973664D01*
X121625202Y-59973671D01*
X121574908Y-60108517D01*
X121568501Y-60168116D01*
X121568501Y-60168123D01*
X121568500Y-60168135D01*
X113869499Y-60168135D01*
X113869499Y-60168128D01*
X113863091Y-60108517D01*
X113857899Y-60094597D01*
X113812797Y-59973671D01*
X113812793Y-59973664D01*
X113726547Y-59858455D01*
X113726544Y-59858452D01*
X113611335Y-59772206D01*
X113611328Y-59772202D01*
X113476482Y-59721908D01*
X113476483Y-59721908D01*
X113416883Y-59715501D01*
X113416881Y-59715500D01*
X113416873Y-59715500D01*
X113416864Y-59715500D01*
X110821129Y-59715500D01*
X110821123Y-59715501D01*
X110761516Y-59721908D01*
X110626671Y-59772202D01*
X110626664Y-59772206D01*
X110511455Y-59858452D01*
X110511452Y-59858455D01*
X110425206Y-59973664D01*
X110425202Y-59973671D01*
X110374908Y-60108517D01*
X110368501Y-60168116D01*
X110368501Y-60168123D01*
X110368500Y-60168135D01*
X99695000Y-60168135D01*
X99695000Y-54715994D01*
X113713357Y-54715994D01*
X113713357Y-54716005D01*
X113733890Y-54963812D01*
X113733892Y-54963824D01*
X113794936Y-55204881D01*
X113894826Y-55432606D01*
X114030833Y-55640782D01*
X114063245Y-55675991D01*
X114199256Y-55823738D01*
X114395491Y-55976474D01*
X114614190Y-56094828D01*
X114849386Y-56175571D01*
X115094665Y-56216500D01*
X115343335Y-56216500D01*
X115588614Y-56175571D01*
X115823810Y-56094828D01*
X116042509Y-55976474D01*
X116238744Y-55823738D01*
X116407164Y-55640785D01*
X116543173Y-55432607D01*
X116643063Y-55204881D01*
X116704108Y-54963821D01*
X116713746Y-54847506D01*
X116724643Y-54716005D01*
X116724643Y-54715994D01*
X116704109Y-54468187D01*
X116704107Y-54468175D01*
X116643063Y-54227118D01*
X116543173Y-53999393D01*
X116407166Y-53791217D01*
X116385557Y-53767744D01*
X116238744Y-53608262D01*
X116042509Y-53455526D01*
X116042507Y-53455525D01*
X116042506Y-53455524D01*
X115840122Y-53345999D01*
X127548341Y-53345999D01*
X127548341Y-53346000D01*
X127568936Y-53581403D01*
X127568938Y-53581413D01*
X127630094Y-53809655D01*
X127630096Y-53809659D01*
X127630097Y-53809663D01*
X127718570Y-53999393D01*
X127729965Y-54023830D01*
X127729967Y-54023834D01*
X127865501Y-54217395D01*
X127865506Y-54217402D01*
X128032597Y-54384493D01*
X128032603Y-54384498D01*
X128218158Y-54514425D01*
X128261783Y-54569002D01*
X128268977Y-54638500D01*
X128237454Y-54700855D01*
X128218158Y-54717575D01*
X128032597Y-54847505D01*
X127865505Y-55014597D01*
X127729965Y-55208169D01*
X127729964Y-55208171D01*
X127630098Y-55422335D01*
X127630094Y-55422344D01*
X127568938Y-55650586D01*
X127568936Y-55650596D01*
X127548341Y-55885999D01*
X127548341Y-55886000D01*
X127568936Y-56121403D01*
X127568938Y-56121413D01*
X127630094Y-56349655D01*
X127630096Y-56349659D01*
X127630097Y-56349663D01*
X127729965Y-56563830D01*
X127729967Y-56563834D01*
X127865501Y-56757395D01*
X127865506Y-56757402D01*
X128032597Y-56924493D01*
X128032603Y-56924498D01*
X128218158Y-57054425D01*
X128261783Y-57109002D01*
X128268977Y-57178500D01*
X128237454Y-57240855D01*
X128218158Y-57257575D01*
X128032597Y-57387505D01*
X127865505Y-57554597D01*
X127729965Y-57748169D01*
X127729964Y-57748171D01*
X127630098Y-57962335D01*
X127630094Y-57962344D01*
X127568938Y-58190586D01*
X127568936Y-58190596D01*
X127548341Y-58425999D01*
X127548341Y-58426000D01*
X127568936Y-58661403D01*
X127568938Y-58661413D01*
X127630094Y-58889655D01*
X127630096Y-58889659D01*
X127630097Y-58889663D01*
X127729965Y-59103830D01*
X127729967Y-59103834D01*
X127865501Y-59297395D01*
X127865506Y-59297402D01*
X128032597Y-59464493D01*
X128032603Y-59464498D01*
X128218158Y-59594425D01*
X128261783Y-59649002D01*
X128268977Y-59718500D01*
X128237454Y-59780855D01*
X128218158Y-59797575D01*
X128032597Y-59927505D01*
X127865505Y-60094597D01*
X127729965Y-60288169D01*
X127729964Y-60288171D01*
X127630098Y-60502335D01*
X127630094Y-60502344D01*
X127568938Y-60730586D01*
X127568936Y-60730596D01*
X127548341Y-60965999D01*
X127548341Y-60966000D01*
X127568936Y-61201403D01*
X127568938Y-61201413D01*
X127630094Y-61429655D01*
X127630096Y-61429659D01*
X127630097Y-61429663D01*
X127729965Y-61643830D01*
X127729967Y-61643834D01*
X127838281Y-61798521D01*
X127865505Y-61837401D01*
X128032599Y-62004495D01*
X128129384Y-62072265D01*
X128226165Y-62140032D01*
X128226167Y-62140033D01*
X128226170Y-62140035D01*
X128440337Y-62239903D01*
X128668592Y-62301063D01*
X128856918Y-62317539D01*
X128903999Y-62321659D01*
X128904000Y-62321659D01*
X128904001Y-62321659D01*
X128943234Y-62318226D01*
X129139408Y-62301063D01*
X129367663Y-62239903D01*
X129581830Y-62140035D01*
X129775401Y-62004495D01*
X129942495Y-61837401D01*
X130078035Y-61643830D01*
X130177903Y-61429663D01*
X130239063Y-61201408D01*
X130259659Y-60966000D01*
X130239063Y-60730592D01*
X130177903Y-60502337D01*
X130078035Y-60288171D01*
X129993986Y-60168135D01*
X129942494Y-60094597D01*
X129775402Y-59927506D01*
X129775396Y-59927501D01*
X129589842Y-59797575D01*
X129546217Y-59742998D01*
X129539023Y-59673500D01*
X129570546Y-59611145D01*
X129589842Y-59594425D01*
X129612026Y-59578891D01*
X129775401Y-59464495D01*
X129942495Y-59297401D01*
X130078035Y-59103830D01*
X130177903Y-58889663D01*
X130239063Y-58661408D01*
X130259659Y-58426000D01*
X130239063Y-58190592D01*
X130177903Y-57962337D01*
X130078035Y-57748171D01*
X129942495Y-57554599D01*
X129942494Y-57554597D01*
X129775402Y-57387506D01*
X129775396Y-57387501D01*
X129589842Y-57257575D01*
X129546217Y-57202998D01*
X129539023Y-57133500D01*
X129570546Y-57071145D01*
X129589842Y-57054425D01*
X129612026Y-57038891D01*
X129775401Y-56924495D01*
X129942495Y-56757401D01*
X130078035Y-56563830D01*
X130177903Y-56349663D01*
X130239063Y-56121408D01*
X130259659Y-55886000D01*
X130239063Y-55650592D01*
X130177903Y-55422337D01*
X130078035Y-55208171D01*
X130075732Y-55204881D01*
X129942494Y-55014597D01*
X129775402Y-54847506D01*
X129775396Y-54847501D01*
X129589842Y-54717575D01*
X129546217Y-54662998D01*
X129539023Y-54593500D01*
X129570546Y-54531145D01*
X129589842Y-54514425D01*
X129612026Y-54498891D01*
X129775401Y-54384495D01*
X129942495Y-54217401D01*
X130078035Y-54023830D01*
X130177903Y-53809663D01*
X130239063Y-53581408D01*
X130259659Y-53346000D01*
X130259659Y-53345999D01*
X145328341Y-53345999D01*
X145328341Y-53346000D01*
X145348936Y-53581403D01*
X145348938Y-53581413D01*
X145410094Y-53809655D01*
X145410096Y-53809659D01*
X145410097Y-53809663D01*
X145498570Y-53999393D01*
X145509965Y-54023830D01*
X145509967Y-54023834D01*
X145645501Y-54217395D01*
X145645506Y-54217402D01*
X145812597Y-54384493D01*
X145812603Y-54384498D01*
X145998158Y-54514425D01*
X146041783Y-54569002D01*
X146048977Y-54638500D01*
X146017454Y-54700855D01*
X145998158Y-54717575D01*
X145812597Y-54847505D01*
X145645505Y-55014597D01*
X145509965Y-55208169D01*
X145509964Y-55208171D01*
X145410098Y-55422335D01*
X145410094Y-55422344D01*
X145348938Y-55650586D01*
X145348936Y-55650596D01*
X145328341Y-55885999D01*
X145328341Y-55886000D01*
X145348936Y-56121403D01*
X145348938Y-56121413D01*
X145410094Y-56349655D01*
X145410096Y-56349659D01*
X145410097Y-56349663D01*
X145509965Y-56563830D01*
X145509967Y-56563834D01*
X145645501Y-56757395D01*
X145645506Y-56757402D01*
X145812597Y-56924493D01*
X145812603Y-56924498D01*
X145998158Y-57054425D01*
X146041783Y-57109002D01*
X146048977Y-57178500D01*
X146017454Y-57240855D01*
X145998158Y-57257575D01*
X145812597Y-57387505D01*
X145645505Y-57554597D01*
X145509965Y-57748169D01*
X145509964Y-57748171D01*
X145410098Y-57962335D01*
X145410094Y-57962344D01*
X145348938Y-58190586D01*
X145348936Y-58190596D01*
X145328341Y-58425999D01*
X145328341Y-58426000D01*
X145348936Y-58661403D01*
X145348938Y-58661413D01*
X145410094Y-58889655D01*
X145410096Y-58889659D01*
X145410097Y-58889663D01*
X145509965Y-59103830D01*
X145509967Y-59103834D01*
X145645501Y-59297395D01*
X145645506Y-59297402D01*
X145812597Y-59464493D01*
X145812603Y-59464498D01*
X145998158Y-59594425D01*
X146041783Y-59649002D01*
X146048977Y-59718500D01*
X146017454Y-59780855D01*
X145998158Y-59797575D01*
X145812597Y-59927505D01*
X145645505Y-60094597D01*
X145509965Y-60288169D01*
X145509964Y-60288171D01*
X145410098Y-60502335D01*
X145410094Y-60502344D01*
X145348938Y-60730586D01*
X145348936Y-60730596D01*
X145328341Y-60965999D01*
X145328341Y-60966000D01*
X145348936Y-61201403D01*
X145348938Y-61201413D01*
X145410094Y-61429655D01*
X145410096Y-61429659D01*
X145410097Y-61429663D01*
X145509965Y-61643830D01*
X145509967Y-61643834D01*
X145618281Y-61798521D01*
X145645505Y-61837401D01*
X145812599Y-62004495D01*
X145909384Y-62072265D01*
X146006165Y-62140032D01*
X146006167Y-62140033D01*
X146006170Y-62140035D01*
X146220337Y-62239903D01*
X146448592Y-62301063D01*
X146636918Y-62317539D01*
X146683999Y-62321659D01*
X146684000Y-62321659D01*
X146684001Y-62321659D01*
X146723234Y-62318226D01*
X146919408Y-62301063D01*
X147147663Y-62239903D01*
X147361830Y-62140035D01*
X147555401Y-62004495D01*
X147722495Y-61837401D01*
X147858035Y-61643830D01*
X147957903Y-61429663D01*
X148019063Y-61201408D01*
X148039659Y-60966000D01*
X148019063Y-60730592D01*
X147957903Y-60502337D01*
X147858035Y-60288171D01*
X147773986Y-60168135D01*
X150518500Y-60168135D01*
X150518500Y-63263870D01*
X150518501Y-63263876D01*
X150524908Y-63323483D01*
X150575202Y-63458328D01*
X150575206Y-63458335D01*
X150661452Y-63573544D01*
X150661455Y-63573547D01*
X150776664Y-63659793D01*
X150776671Y-63659797D01*
X150911517Y-63710091D01*
X150911516Y-63710091D01*
X150918444Y-63710835D01*
X150971127Y-63716500D01*
X153566872Y-63716499D01*
X153626483Y-63710091D01*
X153761331Y-63659796D01*
X153876546Y-63573546D01*
X153962796Y-63458331D01*
X154013091Y-63323483D01*
X154019500Y-63263873D01*
X154019499Y-60168135D01*
X161718500Y-60168135D01*
X161718500Y-63263870D01*
X161718501Y-63263876D01*
X161724908Y-63323483D01*
X161775202Y-63458328D01*
X161775206Y-63458335D01*
X161861452Y-63573544D01*
X161861455Y-63573547D01*
X161976664Y-63659793D01*
X161976671Y-63659797D01*
X162111517Y-63710091D01*
X162111516Y-63710091D01*
X162118444Y-63710835D01*
X162171127Y-63716500D01*
X164766872Y-63716499D01*
X164826483Y-63710091D01*
X164961331Y-63659796D01*
X165076546Y-63573546D01*
X165162796Y-63458331D01*
X165213091Y-63323483D01*
X165219500Y-63263873D01*
X165219499Y-60168128D01*
X165213091Y-60108517D01*
X165207899Y-60094597D01*
X165162797Y-59973671D01*
X165162793Y-59973664D01*
X165076547Y-59858455D01*
X165076544Y-59858452D01*
X164961335Y-59772206D01*
X164961328Y-59772202D01*
X164826482Y-59721908D01*
X164826483Y-59721908D01*
X164766883Y-59715501D01*
X164766881Y-59715500D01*
X164766873Y-59715500D01*
X164766864Y-59715500D01*
X162171129Y-59715500D01*
X162171123Y-59715501D01*
X162111516Y-59721908D01*
X161976671Y-59772202D01*
X161976664Y-59772206D01*
X161861455Y-59858452D01*
X161861452Y-59858455D01*
X161775206Y-59973664D01*
X161775202Y-59973671D01*
X161724908Y-60108517D01*
X161718501Y-60168116D01*
X161718501Y-60168123D01*
X161718500Y-60168135D01*
X154019499Y-60168135D01*
X154019499Y-60168128D01*
X154013091Y-60108517D01*
X154007899Y-60094597D01*
X153962797Y-59973671D01*
X153962793Y-59973664D01*
X153876547Y-59858455D01*
X153876544Y-59858452D01*
X153761335Y-59772206D01*
X153761328Y-59772202D01*
X153626482Y-59721908D01*
X153626483Y-59721908D01*
X153566883Y-59715501D01*
X153566881Y-59715500D01*
X153566873Y-59715500D01*
X153566864Y-59715500D01*
X150971129Y-59715500D01*
X150971123Y-59715501D01*
X150911516Y-59721908D01*
X150776671Y-59772202D01*
X150776664Y-59772206D01*
X150661455Y-59858452D01*
X150661452Y-59858455D01*
X150575206Y-59973664D01*
X150575202Y-59973671D01*
X150524908Y-60108517D01*
X150518501Y-60168116D01*
X150518501Y-60168123D01*
X150518500Y-60168135D01*
X147773986Y-60168135D01*
X147722494Y-60094597D01*
X147555402Y-59927506D01*
X147555396Y-59927501D01*
X147369842Y-59797575D01*
X147326217Y-59742998D01*
X147319023Y-59673500D01*
X147350546Y-59611145D01*
X147369842Y-59594425D01*
X147392026Y-59578891D01*
X147555401Y-59464495D01*
X147722495Y-59297401D01*
X147858035Y-59103830D01*
X147957903Y-58889663D01*
X148019063Y-58661408D01*
X148039659Y-58426000D01*
X148019063Y-58190592D01*
X147957903Y-57962337D01*
X147858035Y-57748171D01*
X147722495Y-57554599D01*
X147722494Y-57554597D01*
X147555402Y-57387506D01*
X147555396Y-57387501D01*
X147369842Y-57257575D01*
X147326217Y-57202998D01*
X147319023Y-57133500D01*
X147350546Y-57071145D01*
X147369842Y-57054425D01*
X147392026Y-57038891D01*
X147555401Y-56924495D01*
X147722495Y-56757401D01*
X147858035Y-56563830D01*
X147957903Y-56349663D01*
X148019063Y-56121408D01*
X148039659Y-55886000D01*
X148019063Y-55650592D01*
X147957903Y-55422337D01*
X147858035Y-55208171D01*
X147855732Y-55204881D01*
X147722494Y-55014597D01*
X147555402Y-54847506D01*
X147555396Y-54847501D01*
X147369842Y-54717575D01*
X147368578Y-54715994D01*
X153863357Y-54715994D01*
X153863357Y-54716005D01*
X153883890Y-54963812D01*
X153883892Y-54963824D01*
X153944936Y-55204881D01*
X154044826Y-55432606D01*
X154180833Y-55640782D01*
X154213245Y-55675991D01*
X154349256Y-55823738D01*
X154545491Y-55976474D01*
X154764190Y-56094828D01*
X154999386Y-56175571D01*
X155244665Y-56216500D01*
X155493335Y-56216500D01*
X155738614Y-56175571D01*
X155973810Y-56094828D01*
X156192509Y-55976474D01*
X156388744Y-55823738D01*
X156557164Y-55640785D01*
X156693173Y-55432607D01*
X156793063Y-55204881D01*
X156854108Y-54963821D01*
X156863746Y-54847506D01*
X156874643Y-54716005D01*
X156874643Y-54715994D01*
X156854109Y-54468187D01*
X156854107Y-54468175D01*
X156793063Y-54227118D01*
X156693173Y-53999393D01*
X156557166Y-53791217D01*
X156535557Y-53767744D01*
X156388744Y-53608262D01*
X156192509Y-53455526D01*
X156192507Y-53455525D01*
X156192506Y-53455524D01*
X155973811Y-53337172D01*
X155973802Y-53337169D01*
X155738616Y-53256429D01*
X155493335Y-53215500D01*
X155244665Y-53215500D01*
X154999383Y-53256429D01*
X154764197Y-53337169D01*
X154764188Y-53337172D01*
X154545493Y-53455524D01*
X154349257Y-53608261D01*
X154180833Y-53791217D01*
X154044826Y-53999393D01*
X153944936Y-54227118D01*
X153883892Y-54468175D01*
X153883890Y-54468187D01*
X153863357Y-54715994D01*
X147368578Y-54715994D01*
X147326217Y-54662998D01*
X147319023Y-54593500D01*
X147350546Y-54531145D01*
X147369842Y-54514425D01*
X147392026Y-54498891D01*
X147555401Y-54384495D01*
X147722495Y-54217401D01*
X147858035Y-54023830D01*
X147957903Y-53809663D01*
X148019063Y-53581408D01*
X148039659Y-53346000D01*
X148019063Y-53110592D01*
X147957903Y-52882337D01*
X147858035Y-52668171D01*
X147722495Y-52474599D01*
X147722494Y-52474597D01*
X147555402Y-52307506D01*
X147555395Y-52307501D01*
X147361834Y-52171967D01*
X147361830Y-52171965D01*
X147361828Y-52171964D01*
X147147663Y-52072097D01*
X147147659Y-52072096D01*
X147147655Y-52072094D01*
X146919413Y-52010938D01*
X146919403Y-52010936D01*
X146684001Y-51990341D01*
X146683999Y-51990341D01*
X146448596Y-52010936D01*
X146448586Y-52010938D01*
X146220344Y-52072094D01*
X146220335Y-52072098D01*
X146006171Y-52171964D01*
X146006169Y-52171965D01*
X145812597Y-52307505D01*
X145645505Y-52474597D01*
X145509965Y-52668169D01*
X145509964Y-52668171D01*
X145410098Y-52882335D01*
X145410094Y-52882344D01*
X145348938Y-53110586D01*
X145348936Y-53110596D01*
X145328341Y-53345999D01*
X130259659Y-53345999D01*
X130239063Y-53110592D01*
X130177903Y-52882337D01*
X130078035Y-52668171D01*
X129942495Y-52474599D01*
X129942494Y-52474597D01*
X129775402Y-52307506D01*
X129775395Y-52307501D01*
X129581834Y-52171967D01*
X129581830Y-52171965D01*
X129581828Y-52171964D01*
X129367663Y-52072097D01*
X129367659Y-52072096D01*
X129367655Y-52072094D01*
X129139413Y-52010938D01*
X129139403Y-52010936D01*
X128904001Y-51990341D01*
X128903999Y-51990341D01*
X128668596Y-52010936D01*
X128668586Y-52010938D01*
X128440344Y-52072094D01*
X128440335Y-52072098D01*
X128226171Y-52171964D01*
X128226169Y-52171965D01*
X128032597Y-52307505D01*
X127865505Y-52474597D01*
X127729965Y-52668169D01*
X127729964Y-52668171D01*
X127630098Y-52882335D01*
X127630094Y-52882344D01*
X127568938Y-53110586D01*
X127568936Y-53110596D01*
X127548341Y-53345999D01*
X115840122Y-53345999D01*
X115823811Y-53337172D01*
X115823802Y-53337169D01*
X115588616Y-53256429D01*
X115343335Y-53215500D01*
X115094665Y-53215500D01*
X114849383Y-53256429D01*
X114614197Y-53337169D01*
X114614188Y-53337172D01*
X114395493Y-53455524D01*
X114199257Y-53608261D01*
X114030833Y-53791217D01*
X113894826Y-53999393D01*
X113794936Y-54227118D01*
X113733892Y-54468175D01*
X113733890Y-54468187D01*
X113713357Y-54715994D01*
X99695000Y-54715994D01*
X99695000Y-51439000D01*
X99714685Y-51371961D01*
X99767489Y-51326206D01*
X99819000Y-51315000D01*
X107195000Y-51315000D01*
X107195000Y-47579713D01*
X116369500Y-47579713D01*
X116369500Y-47792287D01*
X116402754Y-48002243D01*
X116427734Y-48079124D01*
X116468444Y-48204414D01*
X116564951Y-48393820D01*
X116689890Y-48565786D01*
X116840213Y-48716109D01*
X117012179Y-48841048D01*
X117012181Y-48841049D01*
X117012184Y-48841051D01*
X117201588Y-48937557D01*
X117403757Y-49003246D01*
X117613713Y-49036500D01*
X117613714Y-49036500D01*
X117826286Y-49036500D01*
X117826287Y-49036500D01*
X118036243Y-49003246D01*
X118238412Y-48937557D01*
X118427816Y-48841051D01*
X118449789Y-48825086D01*
X118599786Y-48716109D01*
X118599788Y-48716106D01*
X118599792Y-48716104D01*
X118750104Y-48565792D01*
X118750106Y-48565788D01*
X118750109Y-48565786D01*
X118875048Y-48393820D01*
X118875047Y-48393820D01*
X118875051Y-48393816D01*
X118971557Y-48204412D01*
X119037246Y-48002243D01*
X119070500Y-47792287D01*
X119070500Y-47579713D01*
X119037246Y-47369757D01*
X118971557Y-47167588D01*
X118875051Y-46978184D01*
X118875049Y-46978181D01*
X118875048Y-46978179D01*
X118750109Y-46806213D01*
X118599786Y-46655890D01*
X118427820Y-46530951D01*
X118238414Y-46434444D01*
X118238413Y-46434443D01*
X118238412Y-46434443D01*
X118036243Y-46368754D01*
X118036241Y-46368753D01*
X118036240Y-46368753D01*
X117874957Y-46343208D01*
X117826287Y-46335500D01*
X117613713Y-46335500D01*
X117565042Y-46343208D01*
X117403760Y-46368753D01*
X117201585Y-46434444D01*
X117012179Y-46530951D01*
X116840213Y-46655890D01*
X116689890Y-46806213D01*
X116564951Y-46978179D01*
X116468444Y-47167585D01*
X116402753Y-47369760D01*
X116398819Y-47394599D01*
X116369500Y-47579713D01*
X107195000Y-47579713D01*
X107195000Y-45725999D01*
X127548341Y-45725999D01*
X127548341Y-45726000D01*
X127568936Y-45961403D01*
X127568938Y-45961413D01*
X127630094Y-46189655D01*
X127630096Y-46189659D01*
X127630097Y-46189663D01*
X127687284Y-46312300D01*
X127729965Y-46403830D01*
X127729967Y-46403834D01*
X127865501Y-46597395D01*
X127865506Y-46597402D01*
X128032597Y-46764493D01*
X128032603Y-46764498D01*
X128218158Y-46894425D01*
X128261783Y-46949002D01*
X128268977Y-47018500D01*
X128237454Y-47080855D01*
X128218158Y-47097575D01*
X128032597Y-47227505D01*
X127865505Y-47394597D01*
X127729965Y-47588169D01*
X127729964Y-47588171D01*
X127630098Y-47802335D01*
X127630094Y-47802344D01*
X127568938Y-48030586D01*
X127568936Y-48030596D01*
X127548341Y-48265999D01*
X127548341Y-48266000D01*
X127568936Y-48501403D01*
X127568938Y-48501413D01*
X127630094Y-48729655D01*
X127630096Y-48729659D01*
X127630097Y-48729663D01*
X127682037Y-48841048D01*
X127729965Y-48943830D01*
X127729967Y-48943834D01*
X127794853Y-49036500D01*
X127865505Y-49137401D01*
X128032599Y-49304495D01*
X128129384Y-49372265D01*
X128226165Y-49440032D01*
X128226167Y-49440033D01*
X128226170Y-49440035D01*
X128440337Y-49539903D01*
X128668592Y-49601063D01*
X128856918Y-49617539D01*
X128903999Y-49621659D01*
X128904000Y-49621659D01*
X128904001Y-49621659D01*
X128943234Y-49618226D01*
X129139408Y-49601063D01*
X129367663Y-49539903D01*
X129581830Y-49440035D01*
X129775401Y-49304495D01*
X129942495Y-49137401D01*
X130078035Y-48943830D01*
X130105003Y-48885997D01*
X134113723Y-48885997D01*
X134113723Y-48886002D01*
X134132793Y-49103975D01*
X134132793Y-49103979D01*
X134189422Y-49315322D01*
X134189424Y-49315326D01*
X134189425Y-49315330D01*
X134235661Y-49414484D01*
X134281897Y-49513638D01*
X134281898Y-49513639D01*
X134407402Y-49692877D01*
X134562123Y-49847598D01*
X134741361Y-49973102D01*
X134939670Y-50065575D01*
X135151023Y-50122207D01*
X135333926Y-50138208D01*
X135368998Y-50141277D01*
X135369000Y-50141277D01*
X135369002Y-50141277D01*
X135397254Y-50138805D01*
X135586977Y-50122207D01*
X135798330Y-50065575D01*
X135996639Y-49973102D01*
X136175877Y-49847598D01*
X136330598Y-49692877D01*
X136456102Y-49513639D01*
X136548575Y-49315330D01*
X136605207Y-49103977D01*
X136624277Y-48886000D01*
X136624277Y-48885997D01*
X138963723Y-48885997D01*
X138963723Y-48886002D01*
X138982793Y-49103975D01*
X138982793Y-49103979D01*
X139039422Y-49315322D01*
X139039424Y-49315326D01*
X139039425Y-49315330D01*
X139085661Y-49414484D01*
X139131897Y-49513638D01*
X139131898Y-49513639D01*
X139257402Y-49692877D01*
X139412123Y-49847598D01*
X139591361Y-49973102D01*
X139789670Y-50065575D01*
X140001023Y-50122207D01*
X140183926Y-50138208D01*
X140218998Y-50141277D01*
X140219000Y-50141277D01*
X140219002Y-50141277D01*
X140247254Y-50138805D01*
X140436977Y-50122207D01*
X140648330Y-50065575D01*
X140846639Y-49973102D01*
X141025877Y-49847598D01*
X141180598Y-49692877D01*
X141306102Y-49513639D01*
X141398575Y-49315330D01*
X141455207Y-49103977D01*
X141474277Y-48886000D01*
X141455207Y-48668023D01*
X141398575Y-48456670D01*
X141306102Y-48258362D01*
X141306100Y-48258359D01*
X141306099Y-48258357D01*
X141180599Y-48079124D01*
X141103714Y-48002239D01*
X141025877Y-47924402D01*
X140887978Y-47827844D01*
X140846638Y-47798897D01*
X140747484Y-47752661D01*
X140648330Y-47706425D01*
X140648326Y-47706424D01*
X140648322Y-47706422D01*
X140436977Y-47649793D01*
X140219002Y-47630723D01*
X140218998Y-47630723D01*
X140073682Y-47643436D01*
X140001023Y-47649793D01*
X140001020Y-47649793D01*
X139789677Y-47706422D01*
X139789668Y-47706426D01*
X139591361Y-47798898D01*
X139591357Y-47798900D01*
X139412121Y-47924402D01*
X139257402Y-48079121D01*
X139131900Y-48258357D01*
X139131898Y-48258361D01*
X139039426Y-48456668D01*
X139039422Y-48456677D01*
X138982793Y-48668020D01*
X138982793Y-48668024D01*
X138963723Y-48885997D01*
X136624277Y-48885997D01*
X136605207Y-48668023D01*
X136548575Y-48456670D01*
X136456102Y-48258362D01*
X136456100Y-48258359D01*
X136456099Y-48258357D01*
X136330599Y-48079124D01*
X136253714Y-48002239D01*
X136175877Y-47924402D01*
X136037978Y-47827844D01*
X135996638Y-47798897D01*
X135897484Y-47752661D01*
X135798330Y-47706425D01*
X135798326Y-47706424D01*
X135798322Y-47706422D01*
X135586977Y-47649793D01*
X135369002Y-47630723D01*
X135368998Y-47630723D01*
X135223682Y-47643436D01*
X135151023Y-47649793D01*
X135151020Y-47649793D01*
X134939677Y-47706422D01*
X134939668Y-47706426D01*
X134741361Y-47798898D01*
X134741357Y-47798900D01*
X134562121Y-47924402D01*
X134407402Y-48079121D01*
X134281900Y-48258357D01*
X134281898Y-48258361D01*
X134189426Y-48456668D01*
X134189422Y-48456677D01*
X134132793Y-48668020D01*
X134132793Y-48668024D01*
X134113723Y-48885997D01*
X130105003Y-48885997D01*
X130177903Y-48729663D01*
X130239063Y-48501408D01*
X130259659Y-48266000D01*
X130239063Y-48030592D01*
X130177903Y-47802337D01*
X130078035Y-47588171D01*
X129942495Y-47394599D01*
X129942494Y-47394597D01*
X129775402Y-47227506D01*
X129775396Y-47227501D01*
X129589842Y-47097575D01*
X129546217Y-47042998D01*
X129539023Y-46973500D01*
X129570546Y-46911145D01*
X129589842Y-46894425D01*
X129612026Y-46878891D01*
X129775401Y-46764495D01*
X129942495Y-46597401D01*
X130078035Y-46403830D01*
X130177903Y-46189663D01*
X130239063Y-45961408D01*
X130248286Y-45855993D01*
X133663700Y-45855993D01*
X133663700Y-45856006D01*
X133682864Y-46087297D01*
X133682866Y-46087308D01*
X133739842Y-46312300D01*
X133833075Y-46524848D01*
X133960016Y-46719147D01*
X133960019Y-46719151D01*
X133960021Y-46719153D01*
X134117216Y-46889913D01*
X134117219Y-46889915D01*
X134117222Y-46889918D01*
X134300365Y-47032464D01*
X134300371Y-47032468D01*
X134300374Y-47032470D01*
X134504497Y-47142936D01*
X134576306Y-47167588D01*
X134724015Y-47218297D01*
X134724017Y-47218297D01*
X134724019Y-47218298D01*
X134952951Y-47256500D01*
X134952952Y-47256500D01*
X135185048Y-47256500D01*
X135185049Y-47256500D01*
X135413981Y-47218298D01*
X135633503Y-47142936D01*
X135837626Y-47032470D01*
X136020784Y-46889913D01*
X136177979Y-46719153D01*
X136304924Y-46524849D01*
X136398157Y-46312300D01*
X136455134Y-46087305D01*
X136455135Y-46087297D01*
X136474300Y-45856006D01*
X136474300Y-45855993D01*
X139113700Y-45855993D01*
X139113700Y-45856006D01*
X139132864Y-46087297D01*
X139132866Y-46087308D01*
X139189842Y-46312300D01*
X139283075Y-46524848D01*
X139410016Y-46719147D01*
X139410019Y-46719151D01*
X139410021Y-46719153D01*
X139567216Y-46889913D01*
X139567219Y-46889915D01*
X139567222Y-46889918D01*
X139750365Y-47032464D01*
X139750371Y-47032468D01*
X139750374Y-47032470D01*
X139954497Y-47142936D01*
X140026306Y-47167588D01*
X140174015Y-47218297D01*
X140174017Y-47218297D01*
X140174019Y-47218298D01*
X140402951Y-47256500D01*
X140402952Y-47256500D01*
X140635048Y-47256500D01*
X140635049Y-47256500D01*
X140863981Y-47218298D01*
X141083503Y-47142936D01*
X141287626Y-47032470D01*
X141470784Y-46889913D01*
X141627979Y-46719153D01*
X141754924Y-46524849D01*
X141848157Y-46312300D01*
X141905134Y-46087305D01*
X141905135Y-46087297D01*
X141924300Y-45856006D01*
X141924300Y-45855993D01*
X141913529Y-45725999D01*
X145328341Y-45725999D01*
X145328341Y-45726000D01*
X145348936Y-45961403D01*
X145348938Y-45961413D01*
X145410094Y-46189655D01*
X145410096Y-46189659D01*
X145410097Y-46189663D01*
X145467284Y-46312300D01*
X145509965Y-46403830D01*
X145509967Y-46403834D01*
X145645501Y-46597395D01*
X145645506Y-46597402D01*
X145812597Y-46764493D01*
X145812603Y-46764498D01*
X145998158Y-46894425D01*
X146041783Y-46949002D01*
X146048977Y-47018500D01*
X146017454Y-47080855D01*
X145998158Y-47097575D01*
X145812597Y-47227505D01*
X145645505Y-47394597D01*
X145509965Y-47588169D01*
X145509964Y-47588171D01*
X145410098Y-47802335D01*
X145410094Y-47802344D01*
X145348938Y-48030586D01*
X145348936Y-48030596D01*
X145328341Y-48265999D01*
X145328341Y-48266000D01*
X145348936Y-48501403D01*
X145348938Y-48501413D01*
X145410094Y-48729655D01*
X145410096Y-48729659D01*
X145410097Y-48729663D01*
X145462037Y-48841048D01*
X145509965Y-48943830D01*
X145509967Y-48943834D01*
X145574853Y-49036500D01*
X145645505Y-49137401D01*
X145812599Y-49304495D01*
X145909384Y-49372265D01*
X146006165Y-49440032D01*
X146006167Y-49440033D01*
X146006170Y-49440035D01*
X146220337Y-49539903D01*
X146448592Y-49601063D01*
X146636918Y-49617539D01*
X146683999Y-49621659D01*
X146684000Y-49621659D01*
X146684001Y-49621659D01*
X146723234Y-49618226D01*
X146919408Y-49601063D01*
X147147663Y-49539903D01*
X147361830Y-49440035D01*
X147555401Y-49304495D01*
X147722495Y-49137401D01*
X147858035Y-48943830D01*
X147957903Y-48729663D01*
X148019063Y-48501408D01*
X148039659Y-48266000D01*
X148019063Y-48030592D01*
X147957903Y-47802337D01*
X147858035Y-47588171D01*
X147852113Y-47579713D01*
X156521500Y-47579713D01*
X156521500Y-47792287D01*
X156554754Y-48002243D01*
X156579734Y-48079124D01*
X156620444Y-48204414D01*
X156716951Y-48393820D01*
X156841890Y-48565786D01*
X156992213Y-48716109D01*
X157164179Y-48841048D01*
X157164181Y-48841049D01*
X157164184Y-48841051D01*
X157353588Y-48937557D01*
X157555757Y-49003246D01*
X157765713Y-49036500D01*
X157765714Y-49036500D01*
X157978286Y-49036500D01*
X157978287Y-49036500D01*
X158188243Y-49003246D01*
X158390412Y-48937557D01*
X158579816Y-48841051D01*
X158601789Y-48825086D01*
X158751786Y-48716109D01*
X158751788Y-48716106D01*
X158751792Y-48716104D01*
X158902104Y-48565792D01*
X158902106Y-48565788D01*
X158902109Y-48565786D01*
X159027048Y-48393820D01*
X159027047Y-48393820D01*
X159027051Y-48393816D01*
X159123557Y-48204412D01*
X159189246Y-48002243D01*
X159222500Y-47792287D01*
X159222500Y-47579713D01*
X159189246Y-47369757D01*
X159123557Y-47167588D01*
X159027051Y-46978184D01*
X159027049Y-46978181D01*
X159027048Y-46978179D01*
X158902109Y-46806213D01*
X158751786Y-46655890D01*
X158579820Y-46530951D01*
X158390414Y-46434444D01*
X158390413Y-46434443D01*
X158390412Y-46434443D01*
X158188243Y-46368754D01*
X158188241Y-46368753D01*
X158188240Y-46368753D01*
X158026957Y-46343208D01*
X157978287Y-46335500D01*
X157765713Y-46335500D01*
X157717042Y-46343208D01*
X157555760Y-46368753D01*
X157353585Y-46434444D01*
X157164179Y-46530951D01*
X156992213Y-46655890D01*
X156841890Y-46806213D01*
X156716951Y-46978179D01*
X156620444Y-47167585D01*
X156554753Y-47369760D01*
X156550819Y-47394599D01*
X156521500Y-47579713D01*
X147852113Y-47579713D01*
X147722495Y-47394599D01*
X147722494Y-47394597D01*
X147555402Y-47227506D01*
X147555396Y-47227501D01*
X147369842Y-47097575D01*
X147326217Y-47042998D01*
X147319023Y-46973500D01*
X147350546Y-46911145D01*
X147369842Y-46894425D01*
X147392026Y-46878891D01*
X147555401Y-46764495D01*
X147722495Y-46597401D01*
X147858035Y-46403830D01*
X147957903Y-46189663D01*
X148019063Y-45961408D01*
X148039659Y-45726000D01*
X148019063Y-45490592D01*
X147957903Y-45262337D01*
X147858035Y-45048171D01*
X147819301Y-44992852D01*
X147722494Y-44854597D01*
X147555402Y-44687506D01*
X147555395Y-44687501D01*
X147544018Y-44679535D01*
X147516521Y-44660281D01*
X147361834Y-44551967D01*
X147361830Y-44551965D01*
X147361828Y-44551964D01*
X147147663Y-44452097D01*
X147147659Y-44452096D01*
X147147655Y-44452094D01*
X146919413Y-44390938D01*
X146919403Y-44390936D01*
X146684001Y-44370341D01*
X146683999Y-44370341D01*
X146448596Y-44390936D01*
X146448586Y-44390938D01*
X146220344Y-44452094D01*
X146220335Y-44452098D01*
X146006171Y-44551964D01*
X146006169Y-44551965D01*
X145812597Y-44687505D01*
X145645505Y-44854597D01*
X145509965Y-45048169D01*
X145509964Y-45048171D01*
X145410098Y-45262335D01*
X145410094Y-45262344D01*
X145348938Y-45490586D01*
X145348936Y-45490596D01*
X145328341Y-45725999D01*
X141913529Y-45725999D01*
X141905135Y-45624702D01*
X141905133Y-45624691D01*
X141848157Y-45399699D01*
X141754924Y-45187151D01*
X141627983Y-44992852D01*
X141627980Y-44992849D01*
X141627979Y-44992847D01*
X141470784Y-44822087D01*
X141470779Y-44822083D01*
X141470777Y-44822081D01*
X141287634Y-44679535D01*
X141287628Y-44679531D01*
X141083504Y-44569064D01*
X141083495Y-44569061D01*
X140863984Y-44493702D01*
X140692282Y-44465050D01*
X140635049Y-44455500D01*
X140402951Y-44455500D01*
X140357164Y-44463140D01*
X140174015Y-44493702D01*
X139954504Y-44569061D01*
X139954495Y-44569064D01*
X139750371Y-44679531D01*
X139750365Y-44679535D01*
X139567222Y-44822081D01*
X139567219Y-44822084D01*
X139410016Y-44992852D01*
X139283075Y-45187151D01*
X139189842Y-45399699D01*
X139132866Y-45624691D01*
X139132864Y-45624702D01*
X139113700Y-45855993D01*
X136474300Y-45855993D01*
X136455135Y-45624702D01*
X136455133Y-45624691D01*
X136398157Y-45399699D01*
X136304924Y-45187151D01*
X136177983Y-44992852D01*
X136177980Y-44992849D01*
X136177979Y-44992847D01*
X136020784Y-44822087D01*
X136020779Y-44822083D01*
X136020777Y-44822081D01*
X135837634Y-44679535D01*
X135837628Y-44679531D01*
X135633504Y-44569064D01*
X135633495Y-44569061D01*
X135413984Y-44493702D01*
X135242282Y-44465050D01*
X135185049Y-44455500D01*
X134952951Y-44455500D01*
X134907164Y-44463140D01*
X134724015Y-44493702D01*
X134504504Y-44569061D01*
X134504495Y-44569064D01*
X134300371Y-44679531D01*
X134300365Y-44679535D01*
X134117222Y-44822081D01*
X134117219Y-44822084D01*
X133960016Y-44992852D01*
X133833075Y-45187151D01*
X133739842Y-45399699D01*
X133682866Y-45624691D01*
X133682864Y-45624702D01*
X133663700Y-45855993D01*
X130248286Y-45855993D01*
X130259659Y-45726000D01*
X130239063Y-45490592D01*
X130177903Y-45262337D01*
X130078035Y-45048171D01*
X130039301Y-44992852D01*
X129942494Y-44854597D01*
X129775402Y-44687506D01*
X129775395Y-44687501D01*
X129764018Y-44679535D01*
X129736521Y-44660281D01*
X129581834Y-44551967D01*
X129581830Y-44551965D01*
X129581828Y-44551964D01*
X129367663Y-44452097D01*
X129367659Y-44452096D01*
X129367655Y-44452094D01*
X129139413Y-44390938D01*
X129139403Y-44390936D01*
X128904001Y-44370341D01*
X128903999Y-44370341D01*
X128668596Y-44390936D01*
X128668586Y-44390938D01*
X128440344Y-44452094D01*
X128440335Y-44452098D01*
X128226171Y-44551964D01*
X128226169Y-44551965D01*
X128032597Y-44687505D01*
X127865505Y-44854597D01*
X127729965Y-45048169D01*
X127729964Y-45048171D01*
X127630098Y-45262335D01*
X127630094Y-45262344D01*
X127568938Y-45490586D01*
X127568936Y-45490596D01*
X127548341Y-45725999D01*
X107195000Y-45725999D01*
X107195000Y-43939000D01*
X107214685Y-43871961D01*
X107267489Y-43826206D01*
X107319000Y-43815000D01*
X168271000Y-43815000D01*
X168338039Y-43834685D01*
G37*
%TD.AperFunction*%
%TD*%
M02*
