%TF.GenerationSoftware,KiCad,Pcbnew,8.0.4*%
%TF.CreationDate,2024-09-06T01:45:49+10:00*%
%TF.ProjectId,PCB,5043422e-6b69-4636-9164-5f7063625858,rev?*%
%TF.SameCoordinates,Original*%
%TF.FileFunction,Drillmap*%
%TF.FilePolarity,Positive*%
%FSLAX45Y45*%
G04 Gerber Fmt 4.5, Leading zero omitted, Abs format (unit mm)*
G04 Created by KiCad (PCBNEW 8.0.4) date 2024-09-06 01:45:49*
%MOMM*%
%LPD*%
G01*
G04 APERTURE LIST*
%ADD10C,0.100000*%
%ADD11C,0.200000*%
%ADD12C,0.150000*%
%ADD13C,0.175000*%
%ADD14C,0.180000*%
%ADD15C,0.220000*%
%ADD16C,0.305000*%
%ADD17C,0.400000*%
G04 APERTURE END LIST*
D10*
X16839500Y-5131500D02*
X17589500Y-5131500D01*
X15689500Y-13081500D02*
X17589500Y-13081500D01*
X16839500Y-5131500D02*
X16839500Y-4381500D01*
X9969500Y-5131500D02*
X9969500Y-13081500D01*
X11869500Y-13081500D02*
X11869500Y-14361500D01*
X9969500Y-5131500D02*
X10719500Y-5131500D01*
X9969500Y-13081500D02*
X11869500Y-13081500D01*
X10719500Y-5131500D02*
X10719500Y-4381500D01*
X17589500Y-5131500D02*
X17589500Y-13081500D01*
X10719500Y-4381500D02*
X16839500Y-4381500D01*
X15689500Y-13081500D02*
X15689500Y-14361500D01*
X11869500Y-14361500D02*
X15689500Y-14361500D01*
D11*
D12*
X13461900Y-4813600D02*
X13611900Y-4963600D01*
X13611900Y-4813600D02*
X13461900Y-4963600D01*
X13946900Y-4813600D02*
X14096900Y-4963600D01*
X14096900Y-4813600D02*
X13946900Y-4963600D01*
D13*
X10501400Y-10224100D02*
G75*
G02*
X10326400Y-10224100I-87500J0D01*
G01*
X10326400Y-10224100D02*
G75*
G02*
X10501400Y-10224100I87500J0D01*
G01*
X10501400Y-12129100D02*
G75*
G02*
X10326400Y-12129100I-87500J0D01*
G01*
X10326400Y-12129100D02*
G75*
G02*
X10501400Y-12129100I87500J0D01*
G01*
X11517400Y-10224100D02*
G75*
G02*
X11342400Y-10224100I-87500J0D01*
G01*
X11342400Y-10224100D02*
G75*
G02*
X11517400Y-10224100I87500J0D01*
G01*
X11517400Y-12129100D02*
G75*
G02*
X11342400Y-12129100I-87500J0D01*
G01*
X11342400Y-12129100D02*
G75*
G02*
X11517400Y-12129100I87500J0D01*
G01*
X12406400Y-10224100D02*
G75*
G02*
X12231400Y-10224100I-87500J0D01*
G01*
X12231400Y-10224100D02*
G75*
G02*
X12406400Y-10224100I87500J0D01*
G01*
X12406400Y-12129100D02*
G75*
G02*
X12231400Y-12129100I-87500J0D01*
G01*
X12231400Y-12129100D02*
G75*
G02*
X12406400Y-12129100I87500J0D01*
G01*
X12406400Y-14034100D02*
G75*
G02*
X12231400Y-14034100I-87500J0D01*
G01*
X12231400Y-14034100D02*
G75*
G02*
X12406400Y-14034100I87500J0D01*
G01*
X13422400Y-10224100D02*
G75*
G02*
X13247400Y-10224100I-87500J0D01*
G01*
X13247400Y-10224100D02*
G75*
G02*
X13422400Y-10224100I87500J0D01*
G01*
X13422400Y-12129100D02*
G75*
G02*
X13247400Y-12129100I-87500J0D01*
G01*
X13247400Y-12129100D02*
G75*
G02*
X13422400Y-12129100I87500J0D01*
G01*
X13422400Y-14034100D02*
G75*
G02*
X13247400Y-14034100I-87500J0D01*
G01*
X13247400Y-14034100D02*
G75*
G02*
X13422400Y-14034100I87500J0D01*
G01*
X14311400Y-10224100D02*
G75*
G02*
X14136400Y-10224100I-87500J0D01*
G01*
X14136400Y-10224100D02*
G75*
G02*
X14311400Y-10224100I87500J0D01*
G01*
X14311400Y-12129100D02*
G75*
G02*
X14136400Y-12129100I-87500J0D01*
G01*
X14136400Y-12129100D02*
G75*
G02*
X14311400Y-12129100I87500J0D01*
G01*
X14311400Y-14034100D02*
G75*
G02*
X14136400Y-14034100I-87500J0D01*
G01*
X14136400Y-14034100D02*
G75*
G02*
X14311400Y-14034100I87500J0D01*
G01*
X15327400Y-10224100D02*
G75*
G02*
X15152400Y-10224100I-87500J0D01*
G01*
X15152400Y-10224100D02*
G75*
G02*
X15327400Y-10224100I87500J0D01*
G01*
X15327400Y-12129100D02*
G75*
G02*
X15152400Y-12129100I-87500J0D01*
G01*
X15152400Y-12129100D02*
G75*
G02*
X15327400Y-12129100I87500J0D01*
G01*
X15327400Y-14034100D02*
G75*
G02*
X15152400Y-14034100I-87500J0D01*
G01*
X15152400Y-14034100D02*
G75*
G02*
X15327400Y-14034100I87500J0D01*
G01*
X16216400Y-10224100D02*
G75*
G02*
X16041400Y-10224100I-87500J0D01*
G01*
X16041400Y-10224100D02*
G75*
G02*
X16216400Y-10224100I87500J0D01*
G01*
X16216400Y-12129100D02*
G75*
G02*
X16041400Y-12129100I-87500J0D01*
G01*
X16041400Y-12129100D02*
G75*
G02*
X16216400Y-12129100I87500J0D01*
G01*
X17232400Y-10224100D02*
G75*
G02*
X17057400Y-10224100I-87500J0D01*
G01*
X17057400Y-10224100D02*
G75*
G02*
X17232400Y-10224100I87500J0D01*
G01*
X17232400Y-12129100D02*
G75*
G02*
X17057400Y-12129100I-87500J0D01*
G01*
X17057400Y-12129100D02*
G75*
G02*
X17232400Y-12129100I87500J0D01*
G01*
D14*
X13506900Y-4495600D02*
X13506900Y-4675600D01*
X13416900Y-4585600D02*
X13596900Y-4585600D01*
X14051900Y-4495600D02*
X14051900Y-4675600D01*
X13961900Y-4585600D02*
X14141900Y-4585600D01*
D15*
X10447283Y-7949282D02*
X10447283Y-7793717D01*
X10291718Y-7793717D01*
X10291718Y-7949282D01*
X10447283Y-7949282D01*
X11849782Y-4846383D02*
X11849782Y-4690818D01*
X11694217Y-4690818D01*
X11694217Y-4846383D01*
X11849782Y-4846383D01*
X11952282Y-11254282D02*
X11952282Y-11098718D01*
X11796717Y-11098718D01*
X11796717Y-11254282D01*
X11952282Y-11254282D01*
X13857282Y-11254282D02*
X13857282Y-11098718D01*
X13701717Y-11098718D01*
X13701717Y-11254282D01*
X13857282Y-11254282D01*
X13857282Y-13159282D02*
X13857282Y-13003717D01*
X13701717Y-13003717D01*
X13701717Y-13159282D01*
X13857282Y-13159282D01*
X15762282Y-11254282D02*
X15762282Y-11098718D01*
X15606717Y-11098718D01*
X15606717Y-11254282D01*
X15762282Y-11254282D01*
X15864982Y-4846383D02*
X15864982Y-4690818D01*
X15709417Y-4690818D01*
X15709417Y-4846383D01*
X15864982Y-4846383D01*
X17267283Y-7949282D02*
X17267283Y-7793717D01*
X17111718Y-7793717D01*
X17111718Y-7949282D01*
X17267283Y-7949282D01*
D16*
X10667900Y-10884600D02*
X10820400Y-10732100D01*
X10667900Y-10579600D01*
X10515400Y-10732100D01*
X10667900Y-10884600D01*
X10667900Y-12789600D02*
X10820400Y-12637100D01*
X10667900Y-12484600D01*
X10515400Y-12637100D01*
X10667900Y-12789600D01*
X11302900Y-10630600D02*
X11455400Y-10478100D01*
X11302900Y-10325600D01*
X11150400Y-10478100D01*
X11302900Y-10630600D01*
X11302900Y-12535600D02*
X11455400Y-12383100D01*
X11302900Y-12230600D01*
X11150400Y-12383100D01*
X11302900Y-12535600D01*
X12445900Y-13932600D02*
X12598400Y-13780100D01*
X12445900Y-13627600D01*
X12293400Y-13780100D01*
X12445900Y-13932600D01*
X12572900Y-10884600D02*
X12725400Y-10732100D01*
X12572900Y-10579600D01*
X12420400Y-10732100D01*
X12572900Y-10884600D01*
X12572900Y-12789600D02*
X12725400Y-12637100D01*
X12572900Y-12484600D01*
X12420400Y-12637100D01*
X12572900Y-12789600D01*
X13080900Y-13678600D02*
X13233400Y-13526100D01*
X13080900Y-13373600D01*
X12928400Y-13526100D01*
X13080900Y-13678600D01*
X13207900Y-10630600D02*
X13360400Y-10478100D01*
X13207900Y-10325600D01*
X13055400Y-10478100D01*
X13207900Y-10630600D01*
X13207900Y-12535600D02*
X13360400Y-12383100D01*
X13207900Y-12230600D01*
X13055400Y-12383100D01*
X13207900Y-12535600D01*
X14350900Y-13932600D02*
X14503400Y-13780100D01*
X14350900Y-13627600D01*
X14198400Y-13780100D01*
X14350900Y-13932600D01*
X14477900Y-10884600D02*
X14630400Y-10732100D01*
X14477900Y-10579600D01*
X14325400Y-10732100D01*
X14477900Y-10884600D01*
X14477900Y-12789600D02*
X14630400Y-12637100D01*
X14477900Y-12484600D01*
X14325400Y-12637100D01*
X14477900Y-12789600D01*
X14985900Y-13678600D02*
X15138400Y-13526100D01*
X14985900Y-13373600D01*
X14833400Y-13526100D01*
X14985900Y-13678600D01*
X15112900Y-10630600D02*
X15265400Y-10478100D01*
X15112900Y-10325600D01*
X14960400Y-10478100D01*
X15112900Y-10630600D01*
X15112900Y-12535600D02*
X15265400Y-12383100D01*
X15112900Y-12230600D01*
X14960400Y-12383100D01*
X15112900Y-12535600D01*
X16382900Y-10884600D02*
X16535400Y-10732100D01*
X16382900Y-10579600D01*
X16230400Y-10732100D01*
X16382900Y-10884600D01*
X16382900Y-12789600D02*
X16535400Y-12637100D01*
X16382900Y-12484600D01*
X16230400Y-12637100D01*
X16382900Y-12789600D01*
X17017900Y-10630600D02*
X17170400Y-10478100D01*
X17017900Y-10325600D01*
X16865400Y-10478100D01*
X17017900Y-10630600D01*
X17017900Y-12535600D02*
X17170400Y-12383100D01*
X17017900Y-12230600D01*
X16865400Y-12383100D01*
X17017900Y-12535600D01*
D17*
X10721900Y-10024100D02*
X11121900Y-10424100D01*
X11121900Y-10024100D02*
X10721900Y-10424100D01*
X11121900Y-10224100D02*
G75*
G02*
X10721900Y-10224100I-200000J0D01*
G01*
X10721900Y-10224100D02*
G75*
G02*
X11121900Y-10224100I200000J0D01*
G01*
X10721900Y-11929100D02*
X11121900Y-12329100D01*
X11121900Y-11929100D02*
X10721900Y-12329100D01*
X11121900Y-12129100D02*
G75*
G02*
X10721900Y-12129100I-200000J0D01*
G01*
X10721900Y-12129100D02*
G75*
G02*
X11121900Y-12129100I200000J0D01*
G01*
X12626900Y-10024100D02*
X13026900Y-10424100D01*
X13026900Y-10024100D02*
X12626900Y-10424100D01*
X13026900Y-10224100D02*
G75*
G02*
X12626900Y-10224100I-200000J0D01*
G01*
X12626900Y-10224100D02*
G75*
G02*
X13026900Y-10224100I200000J0D01*
G01*
X12626900Y-11929100D02*
X13026900Y-12329100D01*
X13026900Y-11929100D02*
X12626900Y-12329100D01*
X13026900Y-12129100D02*
G75*
G02*
X12626900Y-12129100I-200000J0D01*
G01*
X12626900Y-12129100D02*
G75*
G02*
X13026900Y-12129100I200000J0D01*
G01*
X12626900Y-13834100D02*
X13026900Y-14234100D01*
X13026900Y-13834100D02*
X12626900Y-14234100D01*
X13026900Y-14034100D02*
G75*
G02*
X12626900Y-14034100I-200000J0D01*
G01*
X12626900Y-14034100D02*
G75*
G02*
X13026900Y-14034100I200000J0D01*
G01*
X14531900Y-10024100D02*
X14931900Y-10424100D01*
X14931900Y-10024100D02*
X14531900Y-10424100D01*
X14931900Y-10224100D02*
G75*
G02*
X14531900Y-10224100I-200000J0D01*
G01*
X14531900Y-10224100D02*
G75*
G02*
X14931900Y-10224100I200000J0D01*
G01*
X14531900Y-11929100D02*
X14931900Y-12329100D01*
X14931900Y-11929100D02*
X14531900Y-12329100D01*
X14931900Y-12129100D02*
G75*
G02*
X14531900Y-12129100I-200000J0D01*
G01*
X14531900Y-12129100D02*
G75*
G02*
X14931900Y-12129100I200000J0D01*
G01*
X14531900Y-13834100D02*
X14931900Y-14234100D01*
X14931900Y-13834100D02*
X14531900Y-14234100D01*
X14931900Y-14034100D02*
G75*
G02*
X14531900Y-14034100I-200000J0D01*
G01*
X14531900Y-14034100D02*
G75*
G02*
X14931900Y-14034100I200000J0D01*
G01*
X16436900Y-10024100D02*
X16836900Y-10424100D01*
X16836900Y-10024100D02*
X16436900Y-10424100D01*
X16836900Y-10224100D02*
G75*
G02*
X16436900Y-10224100I-200000J0D01*
G01*
X16436900Y-10224100D02*
G75*
G02*
X16836900Y-10224100I200000J0D01*
G01*
X16436900Y-11929100D02*
X16836900Y-12329100D01*
X16836900Y-11929100D02*
X16436900Y-12329100D01*
X16836900Y-12129100D02*
G75*
G02*
X16436900Y-12129100I-200000J0D01*
G01*
X16436900Y-12129100D02*
G75*
G02*
X16836900Y-12129100I200000J0D01*
G01*
D11*
X10225277Y-14677984D02*
X10225277Y-14477984D01*
X10225277Y-14477984D02*
X10272896Y-14477984D01*
X10272896Y-14477984D02*
X10301467Y-14487508D01*
X10301467Y-14487508D02*
X10320515Y-14506555D01*
X10320515Y-14506555D02*
X10330039Y-14525603D01*
X10330039Y-14525603D02*
X10339563Y-14563698D01*
X10339563Y-14563698D02*
X10339563Y-14592269D01*
X10339563Y-14592269D02*
X10330039Y-14630365D01*
X10330039Y-14630365D02*
X10320515Y-14649412D01*
X10320515Y-14649412D02*
X10301467Y-14668460D01*
X10301467Y-14668460D02*
X10272896Y-14677984D01*
X10272896Y-14677984D02*
X10225277Y-14677984D01*
X10425277Y-14677984D02*
X10425277Y-14544650D01*
X10425277Y-14582746D02*
X10434801Y-14563698D01*
X10434801Y-14563698D02*
X10444324Y-14554174D01*
X10444324Y-14554174D02*
X10463372Y-14544650D01*
X10463372Y-14544650D02*
X10482420Y-14544650D01*
X10549086Y-14677984D02*
X10549086Y-14544650D01*
X10549086Y-14477984D02*
X10539563Y-14487508D01*
X10539563Y-14487508D02*
X10549086Y-14497031D01*
X10549086Y-14497031D02*
X10558610Y-14487508D01*
X10558610Y-14487508D02*
X10549086Y-14477984D01*
X10549086Y-14477984D02*
X10549086Y-14497031D01*
X10672896Y-14677984D02*
X10653848Y-14668460D01*
X10653848Y-14668460D02*
X10644324Y-14649412D01*
X10644324Y-14649412D02*
X10644324Y-14477984D01*
X10777658Y-14677984D02*
X10758610Y-14668460D01*
X10758610Y-14668460D02*
X10749086Y-14649412D01*
X10749086Y-14649412D02*
X10749086Y-14477984D01*
X11006229Y-14677984D02*
X11006229Y-14477984D01*
X11006229Y-14477984D02*
X11072896Y-14620841D01*
X11072896Y-14620841D02*
X11139563Y-14477984D01*
X11139563Y-14477984D02*
X11139563Y-14677984D01*
X11320515Y-14677984D02*
X11320515Y-14573222D01*
X11320515Y-14573222D02*
X11310991Y-14554174D01*
X11310991Y-14554174D02*
X11291943Y-14544650D01*
X11291943Y-14544650D02*
X11253848Y-14544650D01*
X11253848Y-14544650D02*
X11234801Y-14554174D01*
X11320515Y-14668460D02*
X11301467Y-14677984D01*
X11301467Y-14677984D02*
X11253848Y-14677984D01*
X11253848Y-14677984D02*
X11234801Y-14668460D01*
X11234801Y-14668460D02*
X11225277Y-14649412D01*
X11225277Y-14649412D02*
X11225277Y-14630365D01*
X11225277Y-14630365D02*
X11234801Y-14611317D01*
X11234801Y-14611317D02*
X11253848Y-14601793D01*
X11253848Y-14601793D02*
X11301467Y-14601793D01*
X11301467Y-14601793D02*
X11320515Y-14592269D01*
X11415753Y-14544650D02*
X11415753Y-14744650D01*
X11415753Y-14554174D02*
X11434801Y-14544650D01*
X11434801Y-14544650D02*
X11472896Y-14544650D01*
X11472896Y-14544650D02*
X11491943Y-14554174D01*
X11491943Y-14554174D02*
X11501467Y-14563698D01*
X11501467Y-14563698D02*
X11510991Y-14582746D01*
X11510991Y-14582746D02*
X11510991Y-14639888D01*
X11510991Y-14639888D02*
X11501467Y-14658936D01*
X11501467Y-14658936D02*
X11491943Y-14668460D01*
X11491943Y-14668460D02*
X11472896Y-14677984D01*
X11472896Y-14677984D02*
X11434801Y-14677984D01*
X11434801Y-14677984D02*
X11415753Y-14668460D01*
X11596705Y-14658936D02*
X11606229Y-14668460D01*
X11606229Y-14668460D02*
X11596705Y-14677984D01*
X11596705Y-14677984D02*
X11587182Y-14668460D01*
X11587182Y-14668460D02*
X11596705Y-14658936D01*
X11596705Y-14658936D02*
X11596705Y-14677984D01*
X11596705Y-14554174D02*
X11606229Y-14563698D01*
X11606229Y-14563698D02*
X11596705Y-14573222D01*
X11596705Y-14573222D02*
X11587182Y-14563698D01*
X11587182Y-14563698D02*
X11596705Y-14554174D01*
X11596705Y-14554174D02*
X11596705Y-14573222D01*
D12*
X9814500Y-14931500D02*
X9964500Y-15081500D01*
X9964500Y-14931500D02*
X9814500Y-15081500D01*
D11*
X10330039Y-15097984D02*
X10215753Y-15097984D01*
X10272896Y-15097984D02*
X10272896Y-14897984D01*
X10272896Y-14897984D02*
X10253848Y-14926555D01*
X10253848Y-14926555D02*
X10234801Y-14945603D01*
X10234801Y-14945603D02*
X10215753Y-14955127D01*
X10415753Y-15078936D02*
X10425277Y-15088460D01*
X10425277Y-15088460D02*
X10415753Y-15097984D01*
X10415753Y-15097984D02*
X10406229Y-15088460D01*
X10406229Y-15088460D02*
X10415753Y-15078936D01*
X10415753Y-15078936D02*
X10415753Y-15097984D01*
X10606229Y-14897984D02*
X10510991Y-14897984D01*
X10510991Y-14897984D02*
X10501467Y-14993222D01*
X10501467Y-14993222D02*
X10510991Y-14983698D01*
X10510991Y-14983698D02*
X10530039Y-14974174D01*
X10530039Y-14974174D02*
X10577658Y-14974174D01*
X10577658Y-14974174D02*
X10596705Y-14983698D01*
X10596705Y-14983698D02*
X10606229Y-14993222D01*
X10606229Y-14993222D02*
X10615753Y-15012269D01*
X10615753Y-15012269D02*
X10615753Y-15059888D01*
X10615753Y-15059888D02*
X10606229Y-15078936D01*
X10606229Y-15078936D02*
X10596705Y-15088460D01*
X10596705Y-15088460D02*
X10577658Y-15097984D01*
X10577658Y-15097984D02*
X10530039Y-15097984D01*
X10530039Y-15097984D02*
X10510991Y-15088460D01*
X10510991Y-15088460D02*
X10501467Y-15078936D01*
X10739563Y-14897984D02*
X10758610Y-14897984D01*
X10758610Y-14897984D02*
X10777658Y-14907508D01*
X10777658Y-14907508D02*
X10787182Y-14917031D01*
X10787182Y-14917031D02*
X10796705Y-14936079D01*
X10796705Y-14936079D02*
X10806229Y-14974174D01*
X10806229Y-14974174D02*
X10806229Y-15021793D01*
X10806229Y-15021793D02*
X10796705Y-15059888D01*
X10796705Y-15059888D02*
X10787182Y-15078936D01*
X10787182Y-15078936D02*
X10777658Y-15088460D01*
X10777658Y-15088460D02*
X10758610Y-15097984D01*
X10758610Y-15097984D02*
X10739563Y-15097984D01*
X10739563Y-15097984D02*
X10720515Y-15088460D01*
X10720515Y-15088460D02*
X10710991Y-15078936D01*
X10710991Y-15078936D02*
X10701467Y-15059888D01*
X10701467Y-15059888D02*
X10691944Y-15021793D01*
X10691944Y-15021793D02*
X10691944Y-14974174D01*
X10691944Y-14974174D02*
X10701467Y-14936079D01*
X10701467Y-14936079D02*
X10710991Y-14917031D01*
X10710991Y-14917031D02*
X10720515Y-14907508D01*
X10720515Y-14907508D02*
X10739563Y-14897984D01*
X10930039Y-14897984D02*
X10949086Y-14897984D01*
X10949086Y-14897984D02*
X10968134Y-14907508D01*
X10968134Y-14907508D02*
X10977658Y-14917031D01*
X10977658Y-14917031D02*
X10987182Y-14936079D01*
X10987182Y-14936079D02*
X10996705Y-14974174D01*
X10996705Y-14974174D02*
X10996705Y-15021793D01*
X10996705Y-15021793D02*
X10987182Y-15059888D01*
X10987182Y-15059888D02*
X10977658Y-15078936D01*
X10977658Y-15078936D02*
X10968134Y-15088460D01*
X10968134Y-15088460D02*
X10949086Y-15097984D01*
X10949086Y-15097984D02*
X10930039Y-15097984D01*
X10930039Y-15097984D02*
X10910991Y-15088460D01*
X10910991Y-15088460D02*
X10901467Y-15078936D01*
X10901467Y-15078936D02*
X10891944Y-15059888D01*
X10891944Y-15059888D02*
X10882420Y-15021793D01*
X10882420Y-15021793D02*
X10882420Y-14974174D01*
X10882420Y-14974174D02*
X10891944Y-14936079D01*
X10891944Y-14936079D02*
X10901467Y-14917031D01*
X10901467Y-14917031D02*
X10910991Y-14907508D01*
X10910991Y-14907508D02*
X10930039Y-14897984D01*
X11082420Y-15097984D02*
X11082420Y-14964650D01*
X11082420Y-14983698D02*
X11091944Y-14974174D01*
X11091944Y-14974174D02*
X11110991Y-14964650D01*
X11110991Y-14964650D02*
X11139563Y-14964650D01*
X11139563Y-14964650D02*
X11158610Y-14974174D01*
X11158610Y-14974174D02*
X11168134Y-14993222D01*
X11168134Y-14993222D02*
X11168134Y-15097984D01*
X11168134Y-14993222D02*
X11177658Y-14974174D01*
X11177658Y-14974174D02*
X11196705Y-14964650D01*
X11196705Y-14964650D02*
X11225277Y-14964650D01*
X11225277Y-14964650D02*
X11244324Y-14974174D01*
X11244324Y-14974174D02*
X11253848Y-14993222D01*
X11253848Y-14993222D02*
X11253848Y-15097984D01*
X11349086Y-15097984D02*
X11349086Y-14964650D01*
X11349086Y-14983698D02*
X11358610Y-14974174D01*
X11358610Y-14974174D02*
X11377658Y-14964650D01*
X11377658Y-14964650D02*
X11406229Y-14964650D01*
X11406229Y-14964650D02*
X11425277Y-14974174D01*
X11425277Y-14974174D02*
X11434801Y-14993222D01*
X11434801Y-14993222D02*
X11434801Y-15097984D01*
X11434801Y-14993222D02*
X11444324Y-14974174D01*
X11444324Y-14974174D02*
X11463372Y-14964650D01*
X11463372Y-14964650D02*
X11491943Y-14964650D01*
X11491943Y-14964650D02*
X11510991Y-14974174D01*
X11510991Y-14974174D02*
X11520515Y-14993222D01*
X11520515Y-14993222D02*
X11520515Y-15097984D01*
X11910991Y-14888460D02*
X11739563Y-15145603D01*
X12168134Y-14897984D02*
X12187182Y-14897984D01*
X12187182Y-14897984D02*
X12206229Y-14907508D01*
X12206229Y-14907508D02*
X12215753Y-14917031D01*
X12215753Y-14917031D02*
X12225277Y-14936079D01*
X12225277Y-14936079D02*
X12234801Y-14974174D01*
X12234801Y-14974174D02*
X12234801Y-15021793D01*
X12234801Y-15021793D02*
X12225277Y-15059888D01*
X12225277Y-15059888D02*
X12215753Y-15078936D01*
X12215753Y-15078936D02*
X12206229Y-15088460D01*
X12206229Y-15088460D02*
X12187182Y-15097984D01*
X12187182Y-15097984D02*
X12168134Y-15097984D01*
X12168134Y-15097984D02*
X12149086Y-15088460D01*
X12149086Y-15088460D02*
X12139563Y-15078936D01*
X12139563Y-15078936D02*
X12130039Y-15059888D01*
X12130039Y-15059888D02*
X12120515Y-15021793D01*
X12120515Y-15021793D02*
X12120515Y-14974174D01*
X12120515Y-14974174D02*
X12130039Y-14936079D01*
X12130039Y-14936079D02*
X12139563Y-14917031D01*
X12139563Y-14917031D02*
X12149086Y-14907508D01*
X12149086Y-14907508D02*
X12168134Y-14897984D01*
X12320515Y-15078936D02*
X12330039Y-15088460D01*
X12330039Y-15088460D02*
X12320515Y-15097984D01*
X12320515Y-15097984D02*
X12310991Y-15088460D01*
X12310991Y-15088460D02*
X12320515Y-15078936D01*
X12320515Y-15078936D02*
X12320515Y-15097984D01*
X12453848Y-14897984D02*
X12472896Y-14897984D01*
X12472896Y-14897984D02*
X12491944Y-14907508D01*
X12491944Y-14907508D02*
X12501467Y-14917031D01*
X12501467Y-14917031D02*
X12510991Y-14936079D01*
X12510991Y-14936079D02*
X12520515Y-14974174D01*
X12520515Y-14974174D02*
X12520515Y-15021793D01*
X12520515Y-15021793D02*
X12510991Y-15059888D01*
X12510991Y-15059888D02*
X12501467Y-15078936D01*
X12501467Y-15078936D02*
X12491944Y-15088460D01*
X12491944Y-15088460D02*
X12472896Y-15097984D01*
X12472896Y-15097984D02*
X12453848Y-15097984D01*
X12453848Y-15097984D02*
X12434801Y-15088460D01*
X12434801Y-15088460D02*
X12425277Y-15078936D01*
X12425277Y-15078936D02*
X12415753Y-15059888D01*
X12415753Y-15059888D02*
X12406229Y-15021793D01*
X12406229Y-15021793D02*
X12406229Y-14974174D01*
X12406229Y-14974174D02*
X12415753Y-14936079D01*
X12415753Y-14936079D02*
X12425277Y-14917031D01*
X12425277Y-14917031D02*
X12434801Y-14907508D01*
X12434801Y-14907508D02*
X12453848Y-14897984D01*
X12701467Y-14897984D02*
X12606229Y-14897984D01*
X12606229Y-14897984D02*
X12596706Y-14993222D01*
X12596706Y-14993222D02*
X12606229Y-14983698D01*
X12606229Y-14983698D02*
X12625277Y-14974174D01*
X12625277Y-14974174D02*
X12672896Y-14974174D01*
X12672896Y-14974174D02*
X12691944Y-14983698D01*
X12691944Y-14983698D02*
X12701467Y-14993222D01*
X12701467Y-14993222D02*
X12710991Y-15012269D01*
X12710991Y-15012269D02*
X12710991Y-15059888D01*
X12710991Y-15059888D02*
X12701467Y-15078936D01*
X12701467Y-15078936D02*
X12691944Y-15088460D01*
X12691944Y-15088460D02*
X12672896Y-15097984D01*
X12672896Y-15097984D02*
X12625277Y-15097984D01*
X12625277Y-15097984D02*
X12606229Y-15088460D01*
X12606229Y-15088460D02*
X12596706Y-15078936D01*
X12806229Y-15097984D02*
X12844325Y-15097984D01*
X12844325Y-15097984D02*
X12863372Y-15088460D01*
X12863372Y-15088460D02*
X12872896Y-15078936D01*
X12872896Y-15078936D02*
X12891944Y-15050365D01*
X12891944Y-15050365D02*
X12901467Y-15012269D01*
X12901467Y-15012269D02*
X12901467Y-14936079D01*
X12901467Y-14936079D02*
X12891944Y-14917031D01*
X12891944Y-14917031D02*
X12882420Y-14907508D01*
X12882420Y-14907508D02*
X12863372Y-14897984D01*
X12863372Y-14897984D02*
X12825277Y-14897984D01*
X12825277Y-14897984D02*
X12806229Y-14907508D01*
X12806229Y-14907508D02*
X12796706Y-14917031D01*
X12796706Y-14917031D02*
X12787182Y-14936079D01*
X12787182Y-14936079D02*
X12787182Y-14983698D01*
X12787182Y-14983698D02*
X12796706Y-15002746D01*
X12796706Y-15002746D02*
X12806229Y-15012269D01*
X12806229Y-15012269D02*
X12825277Y-15021793D01*
X12825277Y-15021793D02*
X12863372Y-15021793D01*
X12863372Y-15021793D02*
X12882420Y-15012269D01*
X12882420Y-15012269D02*
X12891944Y-15002746D01*
X12891944Y-15002746D02*
X12901467Y-14983698D01*
X13091944Y-15097984D02*
X12977658Y-15097984D01*
X13034801Y-15097984D02*
X13034801Y-14897984D01*
X13034801Y-14897984D02*
X13015753Y-14926555D01*
X13015753Y-14926555D02*
X12996706Y-14945603D01*
X12996706Y-14945603D02*
X12977658Y-14955127D01*
X13168134Y-14897984D02*
X13168134Y-14936079D01*
X13244325Y-14897984D02*
X13244325Y-14936079D01*
X13539563Y-15174174D02*
X13530039Y-15164650D01*
X13530039Y-15164650D02*
X13510991Y-15136079D01*
X13510991Y-15136079D02*
X13501468Y-15117031D01*
X13501468Y-15117031D02*
X13491944Y-15088460D01*
X13491944Y-15088460D02*
X13482420Y-15040841D01*
X13482420Y-15040841D02*
X13482420Y-15002746D01*
X13482420Y-15002746D02*
X13491944Y-14955127D01*
X13491944Y-14955127D02*
X13501468Y-14926555D01*
X13501468Y-14926555D02*
X13510991Y-14907508D01*
X13510991Y-14907508D02*
X13530039Y-14878936D01*
X13530039Y-14878936D02*
X13539563Y-14869412D01*
X13606229Y-14917031D02*
X13615753Y-14907508D01*
X13615753Y-14907508D02*
X13634801Y-14897984D01*
X13634801Y-14897984D02*
X13682420Y-14897984D01*
X13682420Y-14897984D02*
X13701468Y-14907508D01*
X13701468Y-14907508D02*
X13710991Y-14917031D01*
X13710991Y-14917031D02*
X13720515Y-14936079D01*
X13720515Y-14936079D02*
X13720515Y-14955127D01*
X13720515Y-14955127D02*
X13710991Y-14983698D01*
X13710991Y-14983698D02*
X13596706Y-15097984D01*
X13596706Y-15097984D02*
X13720515Y-15097984D01*
X13958610Y-15097984D02*
X13958610Y-14897984D01*
X14044325Y-15097984D02*
X14044325Y-14993222D01*
X14044325Y-14993222D02*
X14034801Y-14974174D01*
X14034801Y-14974174D02*
X14015753Y-14964650D01*
X14015753Y-14964650D02*
X13987182Y-14964650D01*
X13987182Y-14964650D02*
X13968134Y-14974174D01*
X13968134Y-14974174D02*
X13958610Y-14983698D01*
X14168134Y-15097984D02*
X14149087Y-15088460D01*
X14149087Y-15088460D02*
X14139563Y-15078936D01*
X14139563Y-15078936D02*
X14130039Y-15059888D01*
X14130039Y-15059888D02*
X14130039Y-15002746D01*
X14130039Y-15002746D02*
X14139563Y-14983698D01*
X14139563Y-14983698D02*
X14149087Y-14974174D01*
X14149087Y-14974174D02*
X14168134Y-14964650D01*
X14168134Y-14964650D02*
X14196706Y-14964650D01*
X14196706Y-14964650D02*
X14215753Y-14974174D01*
X14215753Y-14974174D02*
X14225277Y-14983698D01*
X14225277Y-14983698D02*
X14234801Y-15002746D01*
X14234801Y-15002746D02*
X14234801Y-15059888D01*
X14234801Y-15059888D02*
X14225277Y-15078936D01*
X14225277Y-15078936D02*
X14215753Y-15088460D01*
X14215753Y-15088460D02*
X14196706Y-15097984D01*
X14196706Y-15097984D02*
X14168134Y-15097984D01*
X14349087Y-15097984D02*
X14330039Y-15088460D01*
X14330039Y-15088460D02*
X14320515Y-15069412D01*
X14320515Y-15069412D02*
X14320515Y-14897984D01*
X14501468Y-15088460D02*
X14482420Y-15097984D01*
X14482420Y-15097984D02*
X14444325Y-15097984D01*
X14444325Y-15097984D02*
X14425277Y-15088460D01*
X14425277Y-15088460D02*
X14415753Y-15069412D01*
X14415753Y-15069412D02*
X14415753Y-14993222D01*
X14415753Y-14993222D02*
X14425277Y-14974174D01*
X14425277Y-14974174D02*
X14444325Y-14964650D01*
X14444325Y-14964650D02*
X14482420Y-14964650D01*
X14482420Y-14964650D02*
X14501468Y-14974174D01*
X14501468Y-14974174D02*
X14510991Y-14993222D01*
X14510991Y-14993222D02*
X14510991Y-15012269D01*
X14510991Y-15012269D02*
X14415753Y-15031317D01*
X14587182Y-15088460D02*
X14606230Y-15097984D01*
X14606230Y-15097984D02*
X14644325Y-15097984D01*
X14644325Y-15097984D02*
X14663372Y-15088460D01*
X14663372Y-15088460D02*
X14672896Y-15069412D01*
X14672896Y-15069412D02*
X14672896Y-15059888D01*
X14672896Y-15059888D02*
X14663372Y-15040841D01*
X14663372Y-15040841D02*
X14644325Y-15031317D01*
X14644325Y-15031317D02*
X14615753Y-15031317D01*
X14615753Y-15031317D02*
X14596706Y-15021793D01*
X14596706Y-15021793D02*
X14587182Y-15002746D01*
X14587182Y-15002746D02*
X14587182Y-14993222D01*
X14587182Y-14993222D02*
X14596706Y-14974174D01*
X14596706Y-14974174D02*
X14615753Y-14964650D01*
X14615753Y-14964650D02*
X14644325Y-14964650D01*
X14644325Y-14964650D02*
X14663372Y-14974174D01*
X14739563Y-15174174D02*
X14749087Y-15164650D01*
X14749087Y-15164650D02*
X14768134Y-15136079D01*
X14768134Y-15136079D02*
X14777658Y-15117031D01*
X14777658Y-15117031D02*
X14787182Y-15088460D01*
X14787182Y-15088460D02*
X14796706Y-15040841D01*
X14796706Y-15040841D02*
X14796706Y-15002746D01*
X14796706Y-15002746D02*
X14787182Y-14955127D01*
X14787182Y-14955127D02*
X14777658Y-14926555D01*
X14777658Y-14926555D02*
X14768134Y-14907508D01*
X14768134Y-14907508D02*
X14749087Y-14878936D01*
X14749087Y-14878936D02*
X14739563Y-14869412D01*
X15101468Y-15174174D02*
X15091944Y-15164650D01*
X15091944Y-15164650D02*
X15072896Y-15136079D01*
X15072896Y-15136079D02*
X15063372Y-15117031D01*
X15063372Y-15117031D02*
X15053849Y-15088460D01*
X15053849Y-15088460D02*
X15044325Y-15040841D01*
X15044325Y-15040841D02*
X15044325Y-15002746D01*
X15044325Y-15002746D02*
X15053849Y-14955127D01*
X15053849Y-14955127D02*
X15063372Y-14926555D01*
X15063372Y-14926555D02*
X15072896Y-14907508D01*
X15072896Y-14907508D02*
X15091944Y-14878936D01*
X15091944Y-14878936D02*
X15101468Y-14869412D01*
X15177658Y-14964650D02*
X15177658Y-15097984D01*
X15177658Y-14983698D02*
X15187182Y-14974174D01*
X15187182Y-14974174D02*
X15206230Y-14964650D01*
X15206230Y-14964650D02*
X15234801Y-14964650D01*
X15234801Y-14964650D02*
X15253849Y-14974174D01*
X15253849Y-14974174D02*
X15263372Y-14993222D01*
X15263372Y-14993222D02*
X15263372Y-15097984D01*
X15387182Y-15097984D02*
X15368134Y-15088460D01*
X15368134Y-15088460D02*
X15358611Y-15078936D01*
X15358611Y-15078936D02*
X15349087Y-15059888D01*
X15349087Y-15059888D02*
X15349087Y-15002746D01*
X15349087Y-15002746D02*
X15358611Y-14983698D01*
X15358611Y-14983698D02*
X15368134Y-14974174D01*
X15368134Y-14974174D02*
X15387182Y-14964650D01*
X15387182Y-14964650D02*
X15415753Y-14964650D01*
X15415753Y-14964650D02*
X15434801Y-14974174D01*
X15434801Y-14974174D02*
X15444325Y-14983698D01*
X15444325Y-14983698D02*
X15453849Y-15002746D01*
X15453849Y-15002746D02*
X15453849Y-15059888D01*
X15453849Y-15059888D02*
X15444325Y-15078936D01*
X15444325Y-15078936D02*
X15434801Y-15088460D01*
X15434801Y-15088460D02*
X15415753Y-15097984D01*
X15415753Y-15097984D02*
X15387182Y-15097984D01*
X15510992Y-14964650D02*
X15587182Y-14964650D01*
X15539563Y-14897984D02*
X15539563Y-15069412D01*
X15539563Y-15069412D02*
X15549087Y-15088460D01*
X15549087Y-15088460D02*
X15568134Y-15097984D01*
X15568134Y-15097984D02*
X15587182Y-15097984D01*
X15806230Y-14964650D02*
X15806230Y-15164650D01*
X15806230Y-14974174D02*
X15825277Y-14964650D01*
X15825277Y-14964650D02*
X15863373Y-14964650D01*
X15863373Y-14964650D02*
X15882420Y-14974174D01*
X15882420Y-14974174D02*
X15891944Y-14983698D01*
X15891944Y-14983698D02*
X15901468Y-15002746D01*
X15901468Y-15002746D02*
X15901468Y-15059888D01*
X15901468Y-15059888D02*
X15891944Y-15078936D01*
X15891944Y-15078936D02*
X15882420Y-15088460D01*
X15882420Y-15088460D02*
X15863373Y-15097984D01*
X15863373Y-15097984D02*
X15825277Y-15097984D01*
X15825277Y-15097984D02*
X15806230Y-15088460D01*
X16015753Y-15097984D02*
X15996706Y-15088460D01*
X15996706Y-15088460D02*
X15987182Y-15069412D01*
X15987182Y-15069412D02*
X15987182Y-14897984D01*
X16177658Y-15097984D02*
X16177658Y-14993222D01*
X16177658Y-14993222D02*
X16168134Y-14974174D01*
X16168134Y-14974174D02*
X16149087Y-14964650D01*
X16149087Y-14964650D02*
X16110992Y-14964650D01*
X16110992Y-14964650D02*
X16091944Y-14974174D01*
X16177658Y-15088460D02*
X16158611Y-15097984D01*
X16158611Y-15097984D02*
X16110992Y-15097984D01*
X16110992Y-15097984D02*
X16091944Y-15088460D01*
X16091944Y-15088460D02*
X16082420Y-15069412D01*
X16082420Y-15069412D02*
X16082420Y-15050365D01*
X16082420Y-15050365D02*
X16091944Y-15031317D01*
X16091944Y-15031317D02*
X16110992Y-15021793D01*
X16110992Y-15021793D02*
X16158611Y-15021793D01*
X16158611Y-15021793D02*
X16177658Y-15012269D01*
X16244325Y-14964650D02*
X16320515Y-14964650D01*
X16272896Y-14897984D02*
X16272896Y-15069412D01*
X16272896Y-15069412D02*
X16282420Y-15088460D01*
X16282420Y-15088460D02*
X16301468Y-15097984D01*
X16301468Y-15097984D02*
X16320515Y-15097984D01*
X16463373Y-15088460D02*
X16444325Y-15097984D01*
X16444325Y-15097984D02*
X16406230Y-15097984D01*
X16406230Y-15097984D02*
X16387182Y-15088460D01*
X16387182Y-15088460D02*
X16377658Y-15069412D01*
X16377658Y-15069412D02*
X16377658Y-14993222D01*
X16377658Y-14993222D02*
X16387182Y-14974174D01*
X16387182Y-14974174D02*
X16406230Y-14964650D01*
X16406230Y-14964650D02*
X16444325Y-14964650D01*
X16444325Y-14964650D02*
X16463373Y-14974174D01*
X16463373Y-14974174D02*
X16472896Y-14993222D01*
X16472896Y-14993222D02*
X16472896Y-15012269D01*
X16472896Y-15012269D02*
X16377658Y-15031317D01*
X16644325Y-15097984D02*
X16644325Y-14897984D01*
X16644325Y-15088460D02*
X16625277Y-15097984D01*
X16625277Y-15097984D02*
X16587182Y-15097984D01*
X16587182Y-15097984D02*
X16568134Y-15088460D01*
X16568134Y-15088460D02*
X16558611Y-15078936D01*
X16558611Y-15078936D02*
X16549087Y-15059888D01*
X16549087Y-15059888D02*
X16549087Y-15002746D01*
X16549087Y-15002746D02*
X16558611Y-14983698D01*
X16558611Y-14983698D02*
X16568134Y-14974174D01*
X16568134Y-14974174D02*
X16587182Y-14964650D01*
X16587182Y-14964650D02*
X16625277Y-14964650D01*
X16625277Y-14964650D02*
X16644325Y-14974174D01*
X16720515Y-15174174D02*
X16730039Y-15164650D01*
X16730039Y-15164650D02*
X16749087Y-15136079D01*
X16749087Y-15136079D02*
X16758611Y-15117031D01*
X16758611Y-15117031D02*
X16768134Y-15088460D01*
X16768134Y-15088460D02*
X16777658Y-15040841D01*
X16777658Y-15040841D02*
X16777658Y-15002746D01*
X16777658Y-15002746D02*
X16768134Y-14955127D01*
X16768134Y-14955127D02*
X16758611Y-14926555D01*
X16758611Y-14926555D02*
X16749087Y-14907508D01*
X16749087Y-14907508D02*
X16730039Y-14878936D01*
X16730039Y-14878936D02*
X16720515Y-14869412D01*
D13*
X9964500Y-15276500D02*
G75*
G02*
X9789500Y-15276500I-87500J0D01*
G01*
X9789500Y-15276500D02*
G75*
G02*
X9964500Y-15276500I87500J0D01*
G01*
D11*
X10330039Y-15367984D02*
X10215753Y-15367984D01*
X10272896Y-15367984D02*
X10272896Y-15167984D01*
X10272896Y-15167984D02*
X10253848Y-15196555D01*
X10253848Y-15196555D02*
X10234801Y-15215603D01*
X10234801Y-15215603D02*
X10215753Y-15225127D01*
X10415753Y-15348936D02*
X10425277Y-15358460D01*
X10425277Y-15358460D02*
X10415753Y-15367984D01*
X10415753Y-15367984D02*
X10406229Y-15358460D01*
X10406229Y-15358460D02*
X10415753Y-15348936D01*
X10415753Y-15348936D02*
X10415753Y-15367984D01*
X10491944Y-15167984D02*
X10625277Y-15167984D01*
X10625277Y-15167984D02*
X10539563Y-15367984D01*
X10796705Y-15167984D02*
X10701467Y-15167984D01*
X10701467Y-15167984D02*
X10691944Y-15263222D01*
X10691944Y-15263222D02*
X10701467Y-15253698D01*
X10701467Y-15253698D02*
X10720515Y-15244174D01*
X10720515Y-15244174D02*
X10768134Y-15244174D01*
X10768134Y-15244174D02*
X10787182Y-15253698D01*
X10787182Y-15253698D02*
X10796705Y-15263222D01*
X10796705Y-15263222D02*
X10806229Y-15282269D01*
X10806229Y-15282269D02*
X10806229Y-15329888D01*
X10806229Y-15329888D02*
X10796705Y-15348936D01*
X10796705Y-15348936D02*
X10787182Y-15358460D01*
X10787182Y-15358460D02*
X10768134Y-15367984D01*
X10768134Y-15367984D02*
X10720515Y-15367984D01*
X10720515Y-15367984D02*
X10701467Y-15358460D01*
X10701467Y-15358460D02*
X10691944Y-15348936D01*
X10930039Y-15167984D02*
X10949086Y-15167984D01*
X10949086Y-15167984D02*
X10968134Y-15177508D01*
X10968134Y-15177508D02*
X10977658Y-15187031D01*
X10977658Y-15187031D02*
X10987182Y-15206079D01*
X10987182Y-15206079D02*
X10996705Y-15244174D01*
X10996705Y-15244174D02*
X10996705Y-15291793D01*
X10996705Y-15291793D02*
X10987182Y-15329888D01*
X10987182Y-15329888D02*
X10977658Y-15348936D01*
X10977658Y-15348936D02*
X10968134Y-15358460D01*
X10968134Y-15358460D02*
X10949086Y-15367984D01*
X10949086Y-15367984D02*
X10930039Y-15367984D01*
X10930039Y-15367984D02*
X10910991Y-15358460D01*
X10910991Y-15358460D02*
X10901467Y-15348936D01*
X10901467Y-15348936D02*
X10891944Y-15329888D01*
X10891944Y-15329888D02*
X10882420Y-15291793D01*
X10882420Y-15291793D02*
X10882420Y-15244174D01*
X10882420Y-15244174D02*
X10891944Y-15206079D01*
X10891944Y-15206079D02*
X10901467Y-15187031D01*
X10901467Y-15187031D02*
X10910991Y-15177508D01*
X10910991Y-15177508D02*
X10930039Y-15167984D01*
X11082420Y-15367984D02*
X11082420Y-15234650D01*
X11082420Y-15253698D02*
X11091944Y-15244174D01*
X11091944Y-15244174D02*
X11110991Y-15234650D01*
X11110991Y-15234650D02*
X11139563Y-15234650D01*
X11139563Y-15234650D02*
X11158610Y-15244174D01*
X11158610Y-15244174D02*
X11168134Y-15263222D01*
X11168134Y-15263222D02*
X11168134Y-15367984D01*
X11168134Y-15263222D02*
X11177658Y-15244174D01*
X11177658Y-15244174D02*
X11196705Y-15234650D01*
X11196705Y-15234650D02*
X11225277Y-15234650D01*
X11225277Y-15234650D02*
X11244324Y-15244174D01*
X11244324Y-15244174D02*
X11253848Y-15263222D01*
X11253848Y-15263222D02*
X11253848Y-15367984D01*
X11349086Y-15367984D02*
X11349086Y-15234650D01*
X11349086Y-15253698D02*
X11358610Y-15244174D01*
X11358610Y-15244174D02*
X11377658Y-15234650D01*
X11377658Y-15234650D02*
X11406229Y-15234650D01*
X11406229Y-15234650D02*
X11425277Y-15244174D01*
X11425277Y-15244174D02*
X11434801Y-15263222D01*
X11434801Y-15263222D02*
X11434801Y-15367984D01*
X11434801Y-15263222D02*
X11444324Y-15244174D01*
X11444324Y-15244174D02*
X11463372Y-15234650D01*
X11463372Y-15234650D02*
X11491943Y-15234650D01*
X11491943Y-15234650D02*
X11510991Y-15244174D01*
X11510991Y-15244174D02*
X11520515Y-15263222D01*
X11520515Y-15263222D02*
X11520515Y-15367984D01*
X11910991Y-15158460D02*
X11739563Y-15415603D01*
X12168134Y-15167984D02*
X12187182Y-15167984D01*
X12187182Y-15167984D02*
X12206229Y-15177508D01*
X12206229Y-15177508D02*
X12215753Y-15187031D01*
X12215753Y-15187031D02*
X12225277Y-15206079D01*
X12225277Y-15206079D02*
X12234801Y-15244174D01*
X12234801Y-15244174D02*
X12234801Y-15291793D01*
X12234801Y-15291793D02*
X12225277Y-15329888D01*
X12225277Y-15329888D02*
X12215753Y-15348936D01*
X12215753Y-15348936D02*
X12206229Y-15358460D01*
X12206229Y-15358460D02*
X12187182Y-15367984D01*
X12187182Y-15367984D02*
X12168134Y-15367984D01*
X12168134Y-15367984D02*
X12149086Y-15358460D01*
X12149086Y-15358460D02*
X12139563Y-15348936D01*
X12139563Y-15348936D02*
X12130039Y-15329888D01*
X12130039Y-15329888D02*
X12120515Y-15291793D01*
X12120515Y-15291793D02*
X12120515Y-15244174D01*
X12120515Y-15244174D02*
X12130039Y-15206079D01*
X12130039Y-15206079D02*
X12139563Y-15187031D01*
X12139563Y-15187031D02*
X12149086Y-15177508D01*
X12149086Y-15177508D02*
X12168134Y-15167984D01*
X12320515Y-15348936D02*
X12330039Y-15358460D01*
X12330039Y-15358460D02*
X12320515Y-15367984D01*
X12320515Y-15367984D02*
X12310991Y-15358460D01*
X12310991Y-15358460D02*
X12320515Y-15348936D01*
X12320515Y-15348936D02*
X12320515Y-15367984D01*
X12453848Y-15167984D02*
X12472896Y-15167984D01*
X12472896Y-15167984D02*
X12491944Y-15177508D01*
X12491944Y-15177508D02*
X12501467Y-15187031D01*
X12501467Y-15187031D02*
X12510991Y-15206079D01*
X12510991Y-15206079D02*
X12520515Y-15244174D01*
X12520515Y-15244174D02*
X12520515Y-15291793D01*
X12520515Y-15291793D02*
X12510991Y-15329888D01*
X12510991Y-15329888D02*
X12501467Y-15348936D01*
X12501467Y-15348936D02*
X12491944Y-15358460D01*
X12491944Y-15358460D02*
X12472896Y-15367984D01*
X12472896Y-15367984D02*
X12453848Y-15367984D01*
X12453848Y-15367984D02*
X12434801Y-15358460D01*
X12434801Y-15358460D02*
X12425277Y-15348936D01*
X12425277Y-15348936D02*
X12415753Y-15329888D01*
X12415753Y-15329888D02*
X12406229Y-15291793D01*
X12406229Y-15291793D02*
X12406229Y-15244174D01*
X12406229Y-15244174D02*
X12415753Y-15206079D01*
X12415753Y-15206079D02*
X12425277Y-15187031D01*
X12425277Y-15187031D02*
X12434801Y-15177508D01*
X12434801Y-15177508D02*
X12453848Y-15167984D01*
X12691944Y-15167984D02*
X12653848Y-15167984D01*
X12653848Y-15167984D02*
X12634801Y-15177508D01*
X12634801Y-15177508D02*
X12625277Y-15187031D01*
X12625277Y-15187031D02*
X12606229Y-15215603D01*
X12606229Y-15215603D02*
X12596706Y-15253698D01*
X12596706Y-15253698D02*
X12596706Y-15329888D01*
X12596706Y-15329888D02*
X12606229Y-15348936D01*
X12606229Y-15348936D02*
X12615753Y-15358460D01*
X12615753Y-15358460D02*
X12634801Y-15367984D01*
X12634801Y-15367984D02*
X12672896Y-15367984D01*
X12672896Y-15367984D02*
X12691944Y-15358460D01*
X12691944Y-15358460D02*
X12701467Y-15348936D01*
X12701467Y-15348936D02*
X12710991Y-15329888D01*
X12710991Y-15329888D02*
X12710991Y-15282269D01*
X12710991Y-15282269D02*
X12701467Y-15263222D01*
X12701467Y-15263222D02*
X12691944Y-15253698D01*
X12691944Y-15253698D02*
X12672896Y-15244174D01*
X12672896Y-15244174D02*
X12634801Y-15244174D01*
X12634801Y-15244174D02*
X12615753Y-15253698D01*
X12615753Y-15253698D02*
X12606229Y-15263222D01*
X12606229Y-15263222D02*
X12596706Y-15282269D01*
X12825277Y-15253698D02*
X12806229Y-15244174D01*
X12806229Y-15244174D02*
X12796706Y-15234650D01*
X12796706Y-15234650D02*
X12787182Y-15215603D01*
X12787182Y-15215603D02*
X12787182Y-15206079D01*
X12787182Y-15206079D02*
X12796706Y-15187031D01*
X12796706Y-15187031D02*
X12806229Y-15177508D01*
X12806229Y-15177508D02*
X12825277Y-15167984D01*
X12825277Y-15167984D02*
X12863372Y-15167984D01*
X12863372Y-15167984D02*
X12882420Y-15177508D01*
X12882420Y-15177508D02*
X12891944Y-15187031D01*
X12891944Y-15187031D02*
X12901467Y-15206079D01*
X12901467Y-15206079D02*
X12901467Y-15215603D01*
X12901467Y-15215603D02*
X12891944Y-15234650D01*
X12891944Y-15234650D02*
X12882420Y-15244174D01*
X12882420Y-15244174D02*
X12863372Y-15253698D01*
X12863372Y-15253698D02*
X12825277Y-15253698D01*
X12825277Y-15253698D02*
X12806229Y-15263222D01*
X12806229Y-15263222D02*
X12796706Y-15272746D01*
X12796706Y-15272746D02*
X12787182Y-15291793D01*
X12787182Y-15291793D02*
X12787182Y-15329888D01*
X12787182Y-15329888D02*
X12796706Y-15348936D01*
X12796706Y-15348936D02*
X12806229Y-15358460D01*
X12806229Y-15358460D02*
X12825277Y-15367984D01*
X12825277Y-15367984D02*
X12863372Y-15367984D01*
X12863372Y-15367984D02*
X12882420Y-15358460D01*
X12882420Y-15358460D02*
X12891944Y-15348936D01*
X12891944Y-15348936D02*
X12901467Y-15329888D01*
X12901467Y-15329888D02*
X12901467Y-15291793D01*
X12901467Y-15291793D02*
X12891944Y-15272746D01*
X12891944Y-15272746D02*
X12882420Y-15263222D01*
X12882420Y-15263222D02*
X12863372Y-15253698D01*
X12996706Y-15367984D02*
X13034801Y-15367984D01*
X13034801Y-15367984D02*
X13053848Y-15358460D01*
X13053848Y-15358460D02*
X13063372Y-15348936D01*
X13063372Y-15348936D02*
X13082420Y-15320365D01*
X13082420Y-15320365D02*
X13091944Y-15282269D01*
X13091944Y-15282269D02*
X13091944Y-15206079D01*
X13091944Y-15206079D02*
X13082420Y-15187031D01*
X13082420Y-15187031D02*
X13072896Y-15177508D01*
X13072896Y-15177508D02*
X13053848Y-15167984D01*
X13053848Y-15167984D02*
X13015753Y-15167984D01*
X13015753Y-15167984D02*
X12996706Y-15177508D01*
X12996706Y-15177508D02*
X12987182Y-15187031D01*
X12987182Y-15187031D02*
X12977658Y-15206079D01*
X12977658Y-15206079D02*
X12977658Y-15253698D01*
X12977658Y-15253698D02*
X12987182Y-15272746D01*
X12987182Y-15272746D02*
X12996706Y-15282269D01*
X12996706Y-15282269D02*
X13015753Y-15291793D01*
X13015753Y-15291793D02*
X13053848Y-15291793D01*
X13053848Y-15291793D02*
X13072896Y-15282269D01*
X13072896Y-15282269D02*
X13082420Y-15272746D01*
X13082420Y-15272746D02*
X13091944Y-15253698D01*
X13168134Y-15167984D02*
X13168134Y-15206079D01*
X13244325Y-15167984D02*
X13244325Y-15206079D01*
X13539563Y-15444174D02*
X13530039Y-15434650D01*
X13530039Y-15434650D02*
X13510991Y-15406079D01*
X13510991Y-15406079D02*
X13501468Y-15387031D01*
X13501468Y-15387031D02*
X13491944Y-15358460D01*
X13491944Y-15358460D02*
X13482420Y-15310841D01*
X13482420Y-15310841D02*
X13482420Y-15272746D01*
X13482420Y-15272746D02*
X13491944Y-15225127D01*
X13491944Y-15225127D02*
X13501468Y-15196555D01*
X13501468Y-15196555D02*
X13510991Y-15177508D01*
X13510991Y-15177508D02*
X13530039Y-15148936D01*
X13530039Y-15148936D02*
X13539563Y-15139412D01*
X13606229Y-15187031D02*
X13615753Y-15177508D01*
X13615753Y-15177508D02*
X13634801Y-15167984D01*
X13634801Y-15167984D02*
X13682420Y-15167984D01*
X13682420Y-15167984D02*
X13701468Y-15177508D01*
X13701468Y-15177508D02*
X13710991Y-15187031D01*
X13710991Y-15187031D02*
X13720515Y-15206079D01*
X13720515Y-15206079D02*
X13720515Y-15225127D01*
X13720515Y-15225127D02*
X13710991Y-15253698D01*
X13710991Y-15253698D02*
X13596706Y-15367984D01*
X13596706Y-15367984D02*
X13720515Y-15367984D01*
X13844325Y-15167984D02*
X13863372Y-15167984D01*
X13863372Y-15167984D02*
X13882420Y-15177508D01*
X13882420Y-15177508D02*
X13891944Y-15187031D01*
X13891944Y-15187031D02*
X13901468Y-15206079D01*
X13901468Y-15206079D02*
X13910991Y-15244174D01*
X13910991Y-15244174D02*
X13910991Y-15291793D01*
X13910991Y-15291793D02*
X13901468Y-15329888D01*
X13901468Y-15329888D02*
X13891944Y-15348936D01*
X13891944Y-15348936D02*
X13882420Y-15358460D01*
X13882420Y-15358460D02*
X13863372Y-15367984D01*
X13863372Y-15367984D02*
X13844325Y-15367984D01*
X13844325Y-15367984D02*
X13825277Y-15358460D01*
X13825277Y-15358460D02*
X13815753Y-15348936D01*
X13815753Y-15348936D02*
X13806229Y-15329888D01*
X13806229Y-15329888D02*
X13796706Y-15291793D01*
X13796706Y-15291793D02*
X13796706Y-15244174D01*
X13796706Y-15244174D02*
X13806229Y-15206079D01*
X13806229Y-15206079D02*
X13815753Y-15187031D01*
X13815753Y-15187031D02*
X13825277Y-15177508D01*
X13825277Y-15177508D02*
X13844325Y-15167984D01*
X14149087Y-15367984D02*
X14149087Y-15167984D01*
X14234801Y-15367984D02*
X14234801Y-15263222D01*
X14234801Y-15263222D02*
X14225277Y-15244174D01*
X14225277Y-15244174D02*
X14206230Y-15234650D01*
X14206230Y-15234650D02*
X14177658Y-15234650D01*
X14177658Y-15234650D02*
X14158610Y-15244174D01*
X14158610Y-15244174D02*
X14149087Y-15253698D01*
X14358610Y-15367984D02*
X14339563Y-15358460D01*
X14339563Y-15358460D02*
X14330039Y-15348936D01*
X14330039Y-15348936D02*
X14320515Y-15329888D01*
X14320515Y-15329888D02*
X14320515Y-15272746D01*
X14320515Y-15272746D02*
X14330039Y-15253698D01*
X14330039Y-15253698D02*
X14339563Y-15244174D01*
X14339563Y-15244174D02*
X14358610Y-15234650D01*
X14358610Y-15234650D02*
X14387182Y-15234650D01*
X14387182Y-15234650D02*
X14406230Y-15244174D01*
X14406230Y-15244174D02*
X14415753Y-15253698D01*
X14415753Y-15253698D02*
X14425277Y-15272746D01*
X14425277Y-15272746D02*
X14425277Y-15329888D01*
X14425277Y-15329888D02*
X14415753Y-15348936D01*
X14415753Y-15348936D02*
X14406230Y-15358460D01*
X14406230Y-15358460D02*
X14387182Y-15367984D01*
X14387182Y-15367984D02*
X14358610Y-15367984D01*
X14539563Y-15367984D02*
X14520515Y-15358460D01*
X14520515Y-15358460D02*
X14510991Y-15339412D01*
X14510991Y-15339412D02*
X14510991Y-15167984D01*
X14691944Y-15358460D02*
X14672896Y-15367984D01*
X14672896Y-15367984D02*
X14634801Y-15367984D01*
X14634801Y-15367984D02*
X14615753Y-15358460D01*
X14615753Y-15358460D02*
X14606230Y-15339412D01*
X14606230Y-15339412D02*
X14606230Y-15263222D01*
X14606230Y-15263222D02*
X14615753Y-15244174D01*
X14615753Y-15244174D02*
X14634801Y-15234650D01*
X14634801Y-15234650D02*
X14672896Y-15234650D01*
X14672896Y-15234650D02*
X14691944Y-15244174D01*
X14691944Y-15244174D02*
X14701468Y-15263222D01*
X14701468Y-15263222D02*
X14701468Y-15282269D01*
X14701468Y-15282269D02*
X14606230Y-15301317D01*
X14777658Y-15358460D02*
X14796706Y-15367984D01*
X14796706Y-15367984D02*
X14834801Y-15367984D01*
X14834801Y-15367984D02*
X14853849Y-15358460D01*
X14853849Y-15358460D02*
X14863372Y-15339412D01*
X14863372Y-15339412D02*
X14863372Y-15329888D01*
X14863372Y-15329888D02*
X14853849Y-15310841D01*
X14853849Y-15310841D02*
X14834801Y-15301317D01*
X14834801Y-15301317D02*
X14806230Y-15301317D01*
X14806230Y-15301317D02*
X14787182Y-15291793D01*
X14787182Y-15291793D02*
X14777658Y-15272746D01*
X14777658Y-15272746D02*
X14777658Y-15263222D01*
X14777658Y-15263222D02*
X14787182Y-15244174D01*
X14787182Y-15244174D02*
X14806230Y-15234650D01*
X14806230Y-15234650D02*
X14834801Y-15234650D01*
X14834801Y-15234650D02*
X14853849Y-15244174D01*
X14930039Y-15444174D02*
X14939563Y-15434650D01*
X14939563Y-15434650D02*
X14958611Y-15406079D01*
X14958611Y-15406079D02*
X14968134Y-15387031D01*
X14968134Y-15387031D02*
X14977658Y-15358460D01*
X14977658Y-15358460D02*
X14987182Y-15310841D01*
X14987182Y-15310841D02*
X14987182Y-15272746D01*
X14987182Y-15272746D02*
X14977658Y-15225127D01*
X14977658Y-15225127D02*
X14968134Y-15196555D01*
X14968134Y-15196555D02*
X14958611Y-15177508D01*
X14958611Y-15177508D02*
X14939563Y-15148936D01*
X14939563Y-15148936D02*
X14930039Y-15139412D01*
X15291944Y-15444174D02*
X15282420Y-15434650D01*
X15282420Y-15434650D02*
X15263372Y-15406079D01*
X15263372Y-15406079D02*
X15253849Y-15387031D01*
X15253849Y-15387031D02*
X15244325Y-15358460D01*
X15244325Y-15358460D02*
X15234801Y-15310841D01*
X15234801Y-15310841D02*
X15234801Y-15272746D01*
X15234801Y-15272746D02*
X15244325Y-15225127D01*
X15244325Y-15225127D02*
X15253849Y-15196555D01*
X15253849Y-15196555D02*
X15263372Y-15177508D01*
X15263372Y-15177508D02*
X15282420Y-15148936D01*
X15282420Y-15148936D02*
X15291944Y-15139412D01*
X15368134Y-15234650D02*
X15368134Y-15367984D01*
X15368134Y-15253698D02*
X15377658Y-15244174D01*
X15377658Y-15244174D02*
X15396706Y-15234650D01*
X15396706Y-15234650D02*
X15425277Y-15234650D01*
X15425277Y-15234650D02*
X15444325Y-15244174D01*
X15444325Y-15244174D02*
X15453849Y-15263222D01*
X15453849Y-15263222D02*
X15453849Y-15367984D01*
X15577658Y-15367984D02*
X15558611Y-15358460D01*
X15558611Y-15358460D02*
X15549087Y-15348936D01*
X15549087Y-15348936D02*
X15539563Y-15329888D01*
X15539563Y-15329888D02*
X15539563Y-15272746D01*
X15539563Y-15272746D02*
X15549087Y-15253698D01*
X15549087Y-15253698D02*
X15558611Y-15244174D01*
X15558611Y-15244174D02*
X15577658Y-15234650D01*
X15577658Y-15234650D02*
X15606230Y-15234650D01*
X15606230Y-15234650D02*
X15625277Y-15244174D01*
X15625277Y-15244174D02*
X15634801Y-15253698D01*
X15634801Y-15253698D02*
X15644325Y-15272746D01*
X15644325Y-15272746D02*
X15644325Y-15329888D01*
X15644325Y-15329888D02*
X15634801Y-15348936D01*
X15634801Y-15348936D02*
X15625277Y-15358460D01*
X15625277Y-15358460D02*
X15606230Y-15367984D01*
X15606230Y-15367984D02*
X15577658Y-15367984D01*
X15701468Y-15234650D02*
X15777658Y-15234650D01*
X15730039Y-15167984D02*
X15730039Y-15339412D01*
X15730039Y-15339412D02*
X15739563Y-15358460D01*
X15739563Y-15358460D02*
X15758611Y-15367984D01*
X15758611Y-15367984D02*
X15777658Y-15367984D01*
X15996706Y-15234650D02*
X15996706Y-15434650D01*
X15996706Y-15244174D02*
X16015753Y-15234650D01*
X16015753Y-15234650D02*
X16053849Y-15234650D01*
X16053849Y-15234650D02*
X16072896Y-15244174D01*
X16072896Y-15244174D02*
X16082420Y-15253698D01*
X16082420Y-15253698D02*
X16091944Y-15272746D01*
X16091944Y-15272746D02*
X16091944Y-15329888D01*
X16091944Y-15329888D02*
X16082420Y-15348936D01*
X16082420Y-15348936D02*
X16072896Y-15358460D01*
X16072896Y-15358460D02*
X16053849Y-15367984D01*
X16053849Y-15367984D02*
X16015753Y-15367984D01*
X16015753Y-15367984D02*
X15996706Y-15358460D01*
X16206230Y-15367984D02*
X16187182Y-15358460D01*
X16187182Y-15358460D02*
X16177658Y-15339412D01*
X16177658Y-15339412D02*
X16177658Y-15167984D01*
X16368134Y-15367984D02*
X16368134Y-15263222D01*
X16368134Y-15263222D02*
X16358611Y-15244174D01*
X16358611Y-15244174D02*
X16339563Y-15234650D01*
X16339563Y-15234650D02*
X16301468Y-15234650D01*
X16301468Y-15234650D02*
X16282420Y-15244174D01*
X16368134Y-15358460D02*
X16349087Y-15367984D01*
X16349087Y-15367984D02*
X16301468Y-15367984D01*
X16301468Y-15367984D02*
X16282420Y-15358460D01*
X16282420Y-15358460D02*
X16272896Y-15339412D01*
X16272896Y-15339412D02*
X16272896Y-15320365D01*
X16272896Y-15320365D02*
X16282420Y-15301317D01*
X16282420Y-15301317D02*
X16301468Y-15291793D01*
X16301468Y-15291793D02*
X16349087Y-15291793D01*
X16349087Y-15291793D02*
X16368134Y-15282269D01*
X16434801Y-15234650D02*
X16510992Y-15234650D01*
X16463373Y-15167984D02*
X16463373Y-15339412D01*
X16463373Y-15339412D02*
X16472896Y-15358460D01*
X16472896Y-15358460D02*
X16491944Y-15367984D01*
X16491944Y-15367984D02*
X16510992Y-15367984D01*
X16653849Y-15358460D02*
X16634801Y-15367984D01*
X16634801Y-15367984D02*
X16596706Y-15367984D01*
X16596706Y-15367984D02*
X16577658Y-15358460D01*
X16577658Y-15358460D02*
X16568134Y-15339412D01*
X16568134Y-15339412D02*
X16568134Y-15263222D01*
X16568134Y-15263222D02*
X16577658Y-15244174D01*
X16577658Y-15244174D02*
X16596706Y-15234650D01*
X16596706Y-15234650D02*
X16634801Y-15234650D01*
X16634801Y-15234650D02*
X16653849Y-15244174D01*
X16653849Y-15244174D02*
X16663373Y-15263222D01*
X16663373Y-15263222D02*
X16663373Y-15282269D01*
X16663373Y-15282269D02*
X16568134Y-15301317D01*
X16834801Y-15367984D02*
X16834801Y-15167984D01*
X16834801Y-15358460D02*
X16815754Y-15367984D01*
X16815754Y-15367984D02*
X16777658Y-15367984D01*
X16777658Y-15367984D02*
X16758611Y-15358460D01*
X16758611Y-15358460D02*
X16749087Y-15348936D01*
X16749087Y-15348936D02*
X16739563Y-15329888D01*
X16739563Y-15329888D02*
X16739563Y-15272746D01*
X16739563Y-15272746D02*
X16749087Y-15253698D01*
X16749087Y-15253698D02*
X16758611Y-15244174D01*
X16758611Y-15244174D02*
X16777658Y-15234650D01*
X16777658Y-15234650D02*
X16815754Y-15234650D01*
X16815754Y-15234650D02*
X16834801Y-15244174D01*
X16910992Y-15444174D02*
X16920516Y-15434650D01*
X16920516Y-15434650D02*
X16939563Y-15406079D01*
X16939563Y-15406079D02*
X16949087Y-15387031D01*
X16949087Y-15387031D02*
X16958611Y-15358460D01*
X16958611Y-15358460D02*
X16968135Y-15310841D01*
X16968135Y-15310841D02*
X16968135Y-15272746D01*
X16968135Y-15272746D02*
X16958611Y-15225127D01*
X16958611Y-15225127D02*
X16949087Y-15196555D01*
X16949087Y-15196555D02*
X16939563Y-15177508D01*
X16939563Y-15177508D02*
X16920516Y-15148936D01*
X16920516Y-15148936D02*
X16910992Y-15139412D01*
D14*
X9874500Y-15481500D02*
X9874500Y-15661500D01*
X9784500Y-15571500D02*
X9964500Y-15571500D01*
D11*
X10330039Y-15662984D02*
X10215753Y-15662984D01*
X10272896Y-15662984D02*
X10272896Y-15462984D01*
X10272896Y-15462984D02*
X10253848Y-15491555D01*
X10253848Y-15491555D02*
X10234801Y-15510603D01*
X10234801Y-15510603D02*
X10215753Y-15520127D01*
X10415753Y-15643936D02*
X10425277Y-15653460D01*
X10425277Y-15653460D02*
X10415753Y-15662984D01*
X10415753Y-15662984D02*
X10406229Y-15653460D01*
X10406229Y-15653460D02*
X10415753Y-15643936D01*
X10415753Y-15643936D02*
X10415753Y-15662984D01*
X10539563Y-15548698D02*
X10520515Y-15539174D01*
X10520515Y-15539174D02*
X10510991Y-15529650D01*
X10510991Y-15529650D02*
X10501467Y-15510603D01*
X10501467Y-15510603D02*
X10501467Y-15501079D01*
X10501467Y-15501079D02*
X10510991Y-15482031D01*
X10510991Y-15482031D02*
X10520515Y-15472508D01*
X10520515Y-15472508D02*
X10539563Y-15462984D01*
X10539563Y-15462984D02*
X10577658Y-15462984D01*
X10577658Y-15462984D02*
X10596705Y-15472508D01*
X10596705Y-15472508D02*
X10606229Y-15482031D01*
X10606229Y-15482031D02*
X10615753Y-15501079D01*
X10615753Y-15501079D02*
X10615753Y-15510603D01*
X10615753Y-15510603D02*
X10606229Y-15529650D01*
X10606229Y-15529650D02*
X10596705Y-15539174D01*
X10596705Y-15539174D02*
X10577658Y-15548698D01*
X10577658Y-15548698D02*
X10539563Y-15548698D01*
X10539563Y-15548698D02*
X10520515Y-15558222D01*
X10520515Y-15558222D02*
X10510991Y-15567746D01*
X10510991Y-15567746D02*
X10501467Y-15586793D01*
X10501467Y-15586793D02*
X10501467Y-15624888D01*
X10501467Y-15624888D02*
X10510991Y-15643936D01*
X10510991Y-15643936D02*
X10520515Y-15653460D01*
X10520515Y-15653460D02*
X10539563Y-15662984D01*
X10539563Y-15662984D02*
X10577658Y-15662984D01*
X10577658Y-15662984D02*
X10596705Y-15653460D01*
X10596705Y-15653460D02*
X10606229Y-15643936D01*
X10606229Y-15643936D02*
X10615753Y-15624888D01*
X10615753Y-15624888D02*
X10615753Y-15586793D01*
X10615753Y-15586793D02*
X10606229Y-15567746D01*
X10606229Y-15567746D02*
X10596705Y-15558222D01*
X10596705Y-15558222D02*
X10577658Y-15548698D01*
X10739563Y-15462984D02*
X10758610Y-15462984D01*
X10758610Y-15462984D02*
X10777658Y-15472508D01*
X10777658Y-15472508D02*
X10787182Y-15482031D01*
X10787182Y-15482031D02*
X10796705Y-15501079D01*
X10796705Y-15501079D02*
X10806229Y-15539174D01*
X10806229Y-15539174D02*
X10806229Y-15586793D01*
X10806229Y-15586793D02*
X10796705Y-15624888D01*
X10796705Y-15624888D02*
X10787182Y-15643936D01*
X10787182Y-15643936D02*
X10777658Y-15653460D01*
X10777658Y-15653460D02*
X10758610Y-15662984D01*
X10758610Y-15662984D02*
X10739563Y-15662984D01*
X10739563Y-15662984D02*
X10720515Y-15653460D01*
X10720515Y-15653460D02*
X10710991Y-15643936D01*
X10710991Y-15643936D02*
X10701467Y-15624888D01*
X10701467Y-15624888D02*
X10691944Y-15586793D01*
X10691944Y-15586793D02*
X10691944Y-15539174D01*
X10691944Y-15539174D02*
X10701467Y-15501079D01*
X10701467Y-15501079D02*
X10710991Y-15482031D01*
X10710991Y-15482031D02*
X10720515Y-15472508D01*
X10720515Y-15472508D02*
X10739563Y-15462984D01*
X10930039Y-15462984D02*
X10949086Y-15462984D01*
X10949086Y-15462984D02*
X10968134Y-15472508D01*
X10968134Y-15472508D02*
X10977658Y-15482031D01*
X10977658Y-15482031D02*
X10987182Y-15501079D01*
X10987182Y-15501079D02*
X10996705Y-15539174D01*
X10996705Y-15539174D02*
X10996705Y-15586793D01*
X10996705Y-15586793D02*
X10987182Y-15624888D01*
X10987182Y-15624888D02*
X10977658Y-15643936D01*
X10977658Y-15643936D02*
X10968134Y-15653460D01*
X10968134Y-15653460D02*
X10949086Y-15662984D01*
X10949086Y-15662984D02*
X10930039Y-15662984D01*
X10930039Y-15662984D02*
X10910991Y-15653460D01*
X10910991Y-15653460D02*
X10901467Y-15643936D01*
X10901467Y-15643936D02*
X10891944Y-15624888D01*
X10891944Y-15624888D02*
X10882420Y-15586793D01*
X10882420Y-15586793D02*
X10882420Y-15539174D01*
X10882420Y-15539174D02*
X10891944Y-15501079D01*
X10891944Y-15501079D02*
X10901467Y-15482031D01*
X10901467Y-15482031D02*
X10910991Y-15472508D01*
X10910991Y-15472508D02*
X10930039Y-15462984D01*
X11082420Y-15662984D02*
X11082420Y-15529650D01*
X11082420Y-15548698D02*
X11091944Y-15539174D01*
X11091944Y-15539174D02*
X11110991Y-15529650D01*
X11110991Y-15529650D02*
X11139563Y-15529650D01*
X11139563Y-15529650D02*
X11158610Y-15539174D01*
X11158610Y-15539174D02*
X11168134Y-15558222D01*
X11168134Y-15558222D02*
X11168134Y-15662984D01*
X11168134Y-15558222D02*
X11177658Y-15539174D01*
X11177658Y-15539174D02*
X11196705Y-15529650D01*
X11196705Y-15529650D02*
X11225277Y-15529650D01*
X11225277Y-15529650D02*
X11244324Y-15539174D01*
X11244324Y-15539174D02*
X11253848Y-15558222D01*
X11253848Y-15558222D02*
X11253848Y-15662984D01*
X11349086Y-15662984D02*
X11349086Y-15529650D01*
X11349086Y-15548698D02*
X11358610Y-15539174D01*
X11358610Y-15539174D02*
X11377658Y-15529650D01*
X11377658Y-15529650D02*
X11406229Y-15529650D01*
X11406229Y-15529650D02*
X11425277Y-15539174D01*
X11425277Y-15539174D02*
X11434801Y-15558222D01*
X11434801Y-15558222D02*
X11434801Y-15662984D01*
X11434801Y-15558222D02*
X11444324Y-15539174D01*
X11444324Y-15539174D02*
X11463372Y-15529650D01*
X11463372Y-15529650D02*
X11491943Y-15529650D01*
X11491943Y-15529650D02*
X11510991Y-15539174D01*
X11510991Y-15539174D02*
X11520515Y-15558222D01*
X11520515Y-15558222D02*
X11520515Y-15662984D01*
X11910991Y-15453460D02*
X11739563Y-15710603D01*
X12168134Y-15462984D02*
X12187182Y-15462984D01*
X12187182Y-15462984D02*
X12206229Y-15472508D01*
X12206229Y-15472508D02*
X12215753Y-15482031D01*
X12215753Y-15482031D02*
X12225277Y-15501079D01*
X12225277Y-15501079D02*
X12234801Y-15539174D01*
X12234801Y-15539174D02*
X12234801Y-15586793D01*
X12234801Y-15586793D02*
X12225277Y-15624888D01*
X12225277Y-15624888D02*
X12215753Y-15643936D01*
X12215753Y-15643936D02*
X12206229Y-15653460D01*
X12206229Y-15653460D02*
X12187182Y-15662984D01*
X12187182Y-15662984D02*
X12168134Y-15662984D01*
X12168134Y-15662984D02*
X12149086Y-15653460D01*
X12149086Y-15653460D02*
X12139563Y-15643936D01*
X12139563Y-15643936D02*
X12130039Y-15624888D01*
X12130039Y-15624888D02*
X12120515Y-15586793D01*
X12120515Y-15586793D02*
X12120515Y-15539174D01*
X12120515Y-15539174D02*
X12130039Y-15501079D01*
X12130039Y-15501079D02*
X12139563Y-15482031D01*
X12139563Y-15482031D02*
X12149086Y-15472508D01*
X12149086Y-15472508D02*
X12168134Y-15462984D01*
X12320515Y-15643936D02*
X12330039Y-15653460D01*
X12330039Y-15653460D02*
X12320515Y-15662984D01*
X12320515Y-15662984D02*
X12310991Y-15653460D01*
X12310991Y-15653460D02*
X12320515Y-15643936D01*
X12320515Y-15643936D02*
X12320515Y-15662984D01*
X12453848Y-15462984D02*
X12472896Y-15462984D01*
X12472896Y-15462984D02*
X12491944Y-15472508D01*
X12491944Y-15472508D02*
X12501467Y-15482031D01*
X12501467Y-15482031D02*
X12510991Y-15501079D01*
X12510991Y-15501079D02*
X12520515Y-15539174D01*
X12520515Y-15539174D02*
X12520515Y-15586793D01*
X12520515Y-15586793D02*
X12510991Y-15624888D01*
X12510991Y-15624888D02*
X12501467Y-15643936D01*
X12501467Y-15643936D02*
X12491944Y-15653460D01*
X12491944Y-15653460D02*
X12472896Y-15662984D01*
X12472896Y-15662984D02*
X12453848Y-15662984D01*
X12453848Y-15662984D02*
X12434801Y-15653460D01*
X12434801Y-15653460D02*
X12425277Y-15643936D01*
X12425277Y-15643936D02*
X12415753Y-15624888D01*
X12415753Y-15624888D02*
X12406229Y-15586793D01*
X12406229Y-15586793D02*
X12406229Y-15539174D01*
X12406229Y-15539174D02*
X12415753Y-15501079D01*
X12415753Y-15501079D02*
X12425277Y-15482031D01*
X12425277Y-15482031D02*
X12434801Y-15472508D01*
X12434801Y-15472508D02*
X12453848Y-15462984D01*
X12587182Y-15462984D02*
X12720515Y-15462984D01*
X12720515Y-15462984D02*
X12634801Y-15662984D01*
X12834801Y-15462984D02*
X12853848Y-15462984D01*
X12853848Y-15462984D02*
X12872896Y-15472508D01*
X12872896Y-15472508D02*
X12882420Y-15482031D01*
X12882420Y-15482031D02*
X12891944Y-15501079D01*
X12891944Y-15501079D02*
X12901467Y-15539174D01*
X12901467Y-15539174D02*
X12901467Y-15586793D01*
X12901467Y-15586793D02*
X12891944Y-15624888D01*
X12891944Y-15624888D02*
X12882420Y-15643936D01*
X12882420Y-15643936D02*
X12872896Y-15653460D01*
X12872896Y-15653460D02*
X12853848Y-15662984D01*
X12853848Y-15662984D02*
X12834801Y-15662984D01*
X12834801Y-15662984D02*
X12815753Y-15653460D01*
X12815753Y-15653460D02*
X12806229Y-15643936D01*
X12806229Y-15643936D02*
X12796706Y-15624888D01*
X12796706Y-15624888D02*
X12787182Y-15586793D01*
X12787182Y-15586793D02*
X12787182Y-15539174D01*
X12787182Y-15539174D02*
X12796706Y-15501079D01*
X12796706Y-15501079D02*
X12806229Y-15482031D01*
X12806229Y-15482031D02*
X12815753Y-15472508D01*
X12815753Y-15472508D02*
X12834801Y-15462984D01*
X12996706Y-15662984D02*
X13034801Y-15662984D01*
X13034801Y-15662984D02*
X13053848Y-15653460D01*
X13053848Y-15653460D02*
X13063372Y-15643936D01*
X13063372Y-15643936D02*
X13082420Y-15615365D01*
X13082420Y-15615365D02*
X13091944Y-15577269D01*
X13091944Y-15577269D02*
X13091944Y-15501079D01*
X13091944Y-15501079D02*
X13082420Y-15482031D01*
X13082420Y-15482031D02*
X13072896Y-15472508D01*
X13072896Y-15472508D02*
X13053848Y-15462984D01*
X13053848Y-15462984D02*
X13015753Y-15462984D01*
X13015753Y-15462984D02*
X12996706Y-15472508D01*
X12996706Y-15472508D02*
X12987182Y-15482031D01*
X12987182Y-15482031D02*
X12977658Y-15501079D01*
X12977658Y-15501079D02*
X12977658Y-15548698D01*
X12977658Y-15548698D02*
X12987182Y-15567746D01*
X12987182Y-15567746D02*
X12996706Y-15577269D01*
X12996706Y-15577269D02*
X13015753Y-15586793D01*
X13015753Y-15586793D02*
X13053848Y-15586793D01*
X13053848Y-15586793D02*
X13072896Y-15577269D01*
X13072896Y-15577269D02*
X13082420Y-15567746D01*
X13082420Y-15567746D02*
X13091944Y-15548698D01*
X13168134Y-15462984D02*
X13168134Y-15501079D01*
X13244325Y-15462984D02*
X13244325Y-15501079D01*
X13539563Y-15739174D02*
X13530039Y-15729650D01*
X13530039Y-15729650D02*
X13510991Y-15701079D01*
X13510991Y-15701079D02*
X13501468Y-15682031D01*
X13501468Y-15682031D02*
X13491944Y-15653460D01*
X13491944Y-15653460D02*
X13482420Y-15605841D01*
X13482420Y-15605841D02*
X13482420Y-15567746D01*
X13482420Y-15567746D02*
X13491944Y-15520127D01*
X13491944Y-15520127D02*
X13501468Y-15491555D01*
X13501468Y-15491555D02*
X13510991Y-15472508D01*
X13510991Y-15472508D02*
X13530039Y-15443936D01*
X13530039Y-15443936D02*
X13539563Y-15434412D01*
X13606229Y-15482031D02*
X13615753Y-15472508D01*
X13615753Y-15472508D02*
X13634801Y-15462984D01*
X13634801Y-15462984D02*
X13682420Y-15462984D01*
X13682420Y-15462984D02*
X13701468Y-15472508D01*
X13701468Y-15472508D02*
X13710991Y-15482031D01*
X13710991Y-15482031D02*
X13720515Y-15501079D01*
X13720515Y-15501079D02*
X13720515Y-15520127D01*
X13720515Y-15520127D02*
X13710991Y-15548698D01*
X13710991Y-15548698D02*
X13596706Y-15662984D01*
X13596706Y-15662984D02*
X13720515Y-15662984D01*
X13958610Y-15662984D02*
X13958610Y-15462984D01*
X14044325Y-15662984D02*
X14044325Y-15558222D01*
X14044325Y-15558222D02*
X14034801Y-15539174D01*
X14034801Y-15539174D02*
X14015753Y-15529650D01*
X14015753Y-15529650D02*
X13987182Y-15529650D01*
X13987182Y-15529650D02*
X13968134Y-15539174D01*
X13968134Y-15539174D02*
X13958610Y-15548698D01*
X14168134Y-15662984D02*
X14149087Y-15653460D01*
X14149087Y-15653460D02*
X14139563Y-15643936D01*
X14139563Y-15643936D02*
X14130039Y-15624888D01*
X14130039Y-15624888D02*
X14130039Y-15567746D01*
X14130039Y-15567746D02*
X14139563Y-15548698D01*
X14139563Y-15548698D02*
X14149087Y-15539174D01*
X14149087Y-15539174D02*
X14168134Y-15529650D01*
X14168134Y-15529650D02*
X14196706Y-15529650D01*
X14196706Y-15529650D02*
X14215753Y-15539174D01*
X14215753Y-15539174D02*
X14225277Y-15548698D01*
X14225277Y-15548698D02*
X14234801Y-15567746D01*
X14234801Y-15567746D02*
X14234801Y-15624888D01*
X14234801Y-15624888D02*
X14225277Y-15643936D01*
X14225277Y-15643936D02*
X14215753Y-15653460D01*
X14215753Y-15653460D02*
X14196706Y-15662984D01*
X14196706Y-15662984D02*
X14168134Y-15662984D01*
X14349087Y-15662984D02*
X14330039Y-15653460D01*
X14330039Y-15653460D02*
X14320515Y-15634412D01*
X14320515Y-15634412D02*
X14320515Y-15462984D01*
X14501468Y-15653460D02*
X14482420Y-15662984D01*
X14482420Y-15662984D02*
X14444325Y-15662984D01*
X14444325Y-15662984D02*
X14425277Y-15653460D01*
X14425277Y-15653460D02*
X14415753Y-15634412D01*
X14415753Y-15634412D02*
X14415753Y-15558222D01*
X14415753Y-15558222D02*
X14425277Y-15539174D01*
X14425277Y-15539174D02*
X14444325Y-15529650D01*
X14444325Y-15529650D02*
X14482420Y-15529650D01*
X14482420Y-15529650D02*
X14501468Y-15539174D01*
X14501468Y-15539174D02*
X14510991Y-15558222D01*
X14510991Y-15558222D02*
X14510991Y-15577269D01*
X14510991Y-15577269D02*
X14415753Y-15596317D01*
X14587182Y-15653460D02*
X14606230Y-15662984D01*
X14606230Y-15662984D02*
X14644325Y-15662984D01*
X14644325Y-15662984D02*
X14663372Y-15653460D01*
X14663372Y-15653460D02*
X14672896Y-15634412D01*
X14672896Y-15634412D02*
X14672896Y-15624888D01*
X14672896Y-15624888D02*
X14663372Y-15605841D01*
X14663372Y-15605841D02*
X14644325Y-15596317D01*
X14644325Y-15596317D02*
X14615753Y-15596317D01*
X14615753Y-15596317D02*
X14596706Y-15586793D01*
X14596706Y-15586793D02*
X14587182Y-15567746D01*
X14587182Y-15567746D02*
X14587182Y-15558222D01*
X14587182Y-15558222D02*
X14596706Y-15539174D01*
X14596706Y-15539174D02*
X14615753Y-15529650D01*
X14615753Y-15529650D02*
X14644325Y-15529650D01*
X14644325Y-15529650D02*
X14663372Y-15539174D01*
X14739563Y-15739174D02*
X14749087Y-15729650D01*
X14749087Y-15729650D02*
X14768134Y-15701079D01*
X14768134Y-15701079D02*
X14777658Y-15682031D01*
X14777658Y-15682031D02*
X14787182Y-15653460D01*
X14787182Y-15653460D02*
X14796706Y-15605841D01*
X14796706Y-15605841D02*
X14796706Y-15567746D01*
X14796706Y-15567746D02*
X14787182Y-15520127D01*
X14787182Y-15520127D02*
X14777658Y-15491555D01*
X14777658Y-15491555D02*
X14768134Y-15472508D01*
X14768134Y-15472508D02*
X14749087Y-15443936D01*
X14749087Y-15443936D02*
X14739563Y-15434412D01*
X15101468Y-15739174D02*
X15091944Y-15729650D01*
X15091944Y-15729650D02*
X15072896Y-15701079D01*
X15072896Y-15701079D02*
X15063372Y-15682031D01*
X15063372Y-15682031D02*
X15053849Y-15653460D01*
X15053849Y-15653460D02*
X15044325Y-15605841D01*
X15044325Y-15605841D02*
X15044325Y-15567746D01*
X15044325Y-15567746D02*
X15053849Y-15520127D01*
X15053849Y-15520127D02*
X15063372Y-15491555D01*
X15063372Y-15491555D02*
X15072896Y-15472508D01*
X15072896Y-15472508D02*
X15091944Y-15443936D01*
X15091944Y-15443936D02*
X15101468Y-15434412D01*
X15177658Y-15529650D02*
X15177658Y-15662984D01*
X15177658Y-15548698D02*
X15187182Y-15539174D01*
X15187182Y-15539174D02*
X15206230Y-15529650D01*
X15206230Y-15529650D02*
X15234801Y-15529650D01*
X15234801Y-15529650D02*
X15253849Y-15539174D01*
X15253849Y-15539174D02*
X15263372Y-15558222D01*
X15263372Y-15558222D02*
X15263372Y-15662984D01*
X15387182Y-15662984D02*
X15368134Y-15653460D01*
X15368134Y-15653460D02*
X15358611Y-15643936D01*
X15358611Y-15643936D02*
X15349087Y-15624888D01*
X15349087Y-15624888D02*
X15349087Y-15567746D01*
X15349087Y-15567746D02*
X15358611Y-15548698D01*
X15358611Y-15548698D02*
X15368134Y-15539174D01*
X15368134Y-15539174D02*
X15387182Y-15529650D01*
X15387182Y-15529650D02*
X15415753Y-15529650D01*
X15415753Y-15529650D02*
X15434801Y-15539174D01*
X15434801Y-15539174D02*
X15444325Y-15548698D01*
X15444325Y-15548698D02*
X15453849Y-15567746D01*
X15453849Y-15567746D02*
X15453849Y-15624888D01*
X15453849Y-15624888D02*
X15444325Y-15643936D01*
X15444325Y-15643936D02*
X15434801Y-15653460D01*
X15434801Y-15653460D02*
X15415753Y-15662984D01*
X15415753Y-15662984D02*
X15387182Y-15662984D01*
X15510992Y-15529650D02*
X15587182Y-15529650D01*
X15539563Y-15462984D02*
X15539563Y-15634412D01*
X15539563Y-15634412D02*
X15549087Y-15653460D01*
X15549087Y-15653460D02*
X15568134Y-15662984D01*
X15568134Y-15662984D02*
X15587182Y-15662984D01*
X15806230Y-15529650D02*
X15806230Y-15729650D01*
X15806230Y-15539174D02*
X15825277Y-15529650D01*
X15825277Y-15529650D02*
X15863373Y-15529650D01*
X15863373Y-15529650D02*
X15882420Y-15539174D01*
X15882420Y-15539174D02*
X15891944Y-15548698D01*
X15891944Y-15548698D02*
X15901468Y-15567746D01*
X15901468Y-15567746D02*
X15901468Y-15624888D01*
X15901468Y-15624888D02*
X15891944Y-15643936D01*
X15891944Y-15643936D02*
X15882420Y-15653460D01*
X15882420Y-15653460D02*
X15863373Y-15662984D01*
X15863373Y-15662984D02*
X15825277Y-15662984D01*
X15825277Y-15662984D02*
X15806230Y-15653460D01*
X16015753Y-15662984D02*
X15996706Y-15653460D01*
X15996706Y-15653460D02*
X15987182Y-15634412D01*
X15987182Y-15634412D02*
X15987182Y-15462984D01*
X16177658Y-15662984D02*
X16177658Y-15558222D01*
X16177658Y-15558222D02*
X16168134Y-15539174D01*
X16168134Y-15539174D02*
X16149087Y-15529650D01*
X16149087Y-15529650D02*
X16110992Y-15529650D01*
X16110992Y-15529650D02*
X16091944Y-15539174D01*
X16177658Y-15653460D02*
X16158611Y-15662984D01*
X16158611Y-15662984D02*
X16110992Y-15662984D01*
X16110992Y-15662984D02*
X16091944Y-15653460D01*
X16091944Y-15653460D02*
X16082420Y-15634412D01*
X16082420Y-15634412D02*
X16082420Y-15615365D01*
X16082420Y-15615365D02*
X16091944Y-15596317D01*
X16091944Y-15596317D02*
X16110992Y-15586793D01*
X16110992Y-15586793D02*
X16158611Y-15586793D01*
X16158611Y-15586793D02*
X16177658Y-15577269D01*
X16244325Y-15529650D02*
X16320515Y-15529650D01*
X16272896Y-15462984D02*
X16272896Y-15634412D01*
X16272896Y-15634412D02*
X16282420Y-15653460D01*
X16282420Y-15653460D02*
X16301468Y-15662984D01*
X16301468Y-15662984D02*
X16320515Y-15662984D01*
X16463373Y-15653460D02*
X16444325Y-15662984D01*
X16444325Y-15662984D02*
X16406230Y-15662984D01*
X16406230Y-15662984D02*
X16387182Y-15653460D01*
X16387182Y-15653460D02*
X16377658Y-15634412D01*
X16377658Y-15634412D02*
X16377658Y-15558222D01*
X16377658Y-15558222D02*
X16387182Y-15539174D01*
X16387182Y-15539174D02*
X16406230Y-15529650D01*
X16406230Y-15529650D02*
X16444325Y-15529650D01*
X16444325Y-15529650D02*
X16463373Y-15539174D01*
X16463373Y-15539174D02*
X16472896Y-15558222D01*
X16472896Y-15558222D02*
X16472896Y-15577269D01*
X16472896Y-15577269D02*
X16377658Y-15596317D01*
X16644325Y-15662984D02*
X16644325Y-15462984D01*
X16644325Y-15653460D02*
X16625277Y-15662984D01*
X16625277Y-15662984D02*
X16587182Y-15662984D01*
X16587182Y-15662984D02*
X16568134Y-15653460D01*
X16568134Y-15653460D02*
X16558611Y-15643936D01*
X16558611Y-15643936D02*
X16549087Y-15624888D01*
X16549087Y-15624888D02*
X16549087Y-15567746D01*
X16549087Y-15567746D02*
X16558611Y-15548698D01*
X16558611Y-15548698D02*
X16568134Y-15539174D01*
X16568134Y-15539174D02*
X16587182Y-15529650D01*
X16587182Y-15529650D02*
X16625277Y-15529650D01*
X16625277Y-15529650D02*
X16644325Y-15539174D01*
X16720515Y-15739174D02*
X16730039Y-15729650D01*
X16730039Y-15729650D02*
X16749087Y-15701079D01*
X16749087Y-15701079D02*
X16758611Y-15682031D01*
X16758611Y-15682031D02*
X16768134Y-15653460D01*
X16768134Y-15653460D02*
X16777658Y-15605841D01*
X16777658Y-15605841D02*
X16777658Y-15567746D01*
X16777658Y-15567746D02*
X16768134Y-15520127D01*
X16768134Y-15520127D02*
X16758611Y-15491555D01*
X16758611Y-15491555D02*
X16749087Y-15472508D01*
X16749087Y-15472508D02*
X16730039Y-15443936D01*
X16730039Y-15443936D02*
X16720515Y-15434412D01*
X9935211Y-15942211D02*
X9935211Y-15800789D01*
X9793789Y-15800789D01*
X9793789Y-15942211D01*
X9935211Y-15942211D01*
X10215753Y-15782031D02*
X10225277Y-15772508D01*
X10225277Y-15772508D02*
X10244324Y-15762984D01*
X10244324Y-15762984D02*
X10291944Y-15762984D01*
X10291944Y-15762984D02*
X10310991Y-15772508D01*
X10310991Y-15772508D02*
X10320515Y-15782031D01*
X10320515Y-15782031D02*
X10330039Y-15801079D01*
X10330039Y-15801079D02*
X10330039Y-15820127D01*
X10330039Y-15820127D02*
X10320515Y-15848698D01*
X10320515Y-15848698D02*
X10206229Y-15962984D01*
X10206229Y-15962984D02*
X10330039Y-15962984D01*
X10415753Y-15943936D02*
X10425277Y-15953460D01*
X10425277Y-15953460D02*
X10415753Y-15962984D01*
X10415753Y-15962984D02*
X10406229Y-15953460D01*
X10406229Y-15953460D02*
X10415753Y-15943936D01*
X10415753Y-15943936D02*
X10415753Y-15962984D01*
X10501467Y-15782031D02*
X10510991Y-15772508D01*
X10510991Y-15772508D02*
X10530039Y-15762984D01*
X10530039Y-15762984D02*
X10577658Y-15762984D01*
X10577658Y-15762984D02*
X10596705Y-15772508D01*
X10596705Y-15772508D02*
X10606229Y-15782031D01*
X10606229Y-15782031D02*
X10615753Y-15801079D01*
X10615753Y-15801079D02*
X10615753Y-15820127D01*
X10615753Y-15820127D02*
X10606229Y-15848698D01*
X10606229Y-15848698D02*
X10491944Y-15962984D01*
X10491944Y-15962984D02*
X10615753Y-15962984D01*
X10739563Y-15762984D02*
X10758610Y-15762984D01*
X10758610Y-15762984D02*
X10777658Y-15772508D01*
X10777658Y-15772508D02*
X10787182Y-15782031D01*
X10787182Y-15782031D02*
X10796705Y-15801079D01*
X10796705Y-15801079D02*
X10806229Y-15839174D01*
X10806229Y-15839174D02*
X10806229Y-15886793D01*
X10806229Y-15886793D02*
X10796705Y-15924888D01*
X10796705Y-15924888D02*
X10787182Y-15943936D01*
X10787182Y-15943936D02*
X10777658Y-15953460D01*
X10777658Y-15953460D02*
X10758610Y-15962984D01*
X10758610Y-15962984D02*
X10739563Y-15962984D01*
X10739563Y-15962984D02*
X10720515Y-15953460D01*
X10720515Y-15953460D02*
X10710991Y-15943936D01*
X10710991Y-15943936D02*
X10701467Y-15924888D01*
X10701467Y-15924888D02*
X10691944Y-15886793D01*
X10691944Y-15886793D02*
X10691944Y-15839174D01*
X10691944Y-15839174D02*
X10701467Y-15801079D01*
X10701467Y-15801079D02*
X10710991Y-15782031D01*
X10710991Y-15782031D02*
X10720515Y-15772508D01*
X10720515Y-15772508D02*
X10739563Y-15762984D01*
X10930039Y-15762984D02*
X10949086Y-15762984D01*
X10949086Y-15762984D02*
X10968134Y-15772508D01*
X10968134Y-15772508D02*
X10977658Y-15782031D01*
X10977658Y-15782031D02*
X10987182Y-15801079D01*
X10987182Y-15801079D02*
X10996705Y-15839174D01*
X10996705Y-15839174D02*
X10996705Y-15886793D01*
X10996705Y-15886793D02*
X10987182Y-15924888D01*
X10987182Y-15924888D02*
X10977658Y-15943936D01*
X10977658Y-15943936D02*
X10968134Y-15953460D01*
X10968134Y-15953460D02*
X10949086Y-15962984D01*
X10949086Y-15962984D02*
X10930039Y-15962984D01*
X10930039Y-15962984D02*
X10910991Y-15953460D01*
X10910991Y-15953460D02*
X10901467Y-15943936D01*
X10901467Y-15943936D02*
X10891944Y-15924888D01*
X10891944Y-15924888D02*
X10882420Y-15886793D01*
X10882420Y-15886793D02*
X10882420Y-15839174D01*
X10882420Y-15839174D02*
X10891944Y-15801079D01*
X10891944Y-15801079D02*
X10901467Y-15782031D01*
X10901467Y-15782031D02*
X10910991Y-15772508D01*
X10910991Y-15772508D02*
X10930039Y-15762984D01*
X11082420Y-15962984D02*
X11082420Y-15829650D01*
X11082420Y-15848698D02*
X11091944Y-15839174D01*
X11091944Y-15839174D02*
X11110991Y-15829650D01*
X11110991Y-15829650D02*
X11139563Y-15829650D01*
X11139563Y-15829650D02*
X11158610Y-15839174D01*
X11158610Y-15839174D02*
X11168134Y-15858222D01*
X11168134Y-15858222D02*
X11168134Y-15962984D01*
X11168134Y-15858222D02*
X11177658Y-15839174D01*
X11177658Y-15839174D02*
X11196705Y-15829650D01*
X11196705Y-15829650D02*
X11225277Y-15829650D01*
X11225277Y-15829650D02*
X11244324Y-15839174D01*
X11244324Y-15839174D02*
X11253848Y-15858222D01*
X11253848Y-15858222D02*
X11253848Y-15962984D01*
X11349086Y-15962984D02*
X11349086Y-15829650D01*
X11349086Y-15848698D02*
X11358610Y-15839174D01*
X11358610Y-15839174D02*
X11377658Y-15829650D01*
X11377658Y-15829650D02*
X11406229Y-15829650D01*
X11406229Y-15829650D02*
X11425277Y-15839174D01*
X11425277Y-15839174D02*
X11434801Y-15858222D01*
X11434801Y-15858222D02*
X11434801Y-15962984D01*
X11434801Y-15858222D02*
X11444324Y-15839174D01*
X11444324Y-15839174D02*
X11463372Y-15829650D01*
X11463372Y-15829650D02*
X11491943Y-15829650D01*
X11491943Y-15829650D02*
X11510991Y-15839174D01*
X11510991Y-15839174D02*
X11520515Y-15858222D01*
X11520515Y-15858222D02*
X11520515Y-15962984D01*
X11910991Y-15753460D02*
X11739563Y-16010603D01*
X12168134Y-15762984D02*
X12187182Y-15762984D01*
X12187182Y-15762984D02*
X12206229Y-15772508D01*
X12206229Y-15772508D02*
X12215753Y-15782031D01*
X12215753Y-15782031D02*
X12225277Y-15801079D01*
X12225277Y-15801079D02*
X12234801Y-15839174D01*
X12234801Y-15839174D02*
X12234801Y-15886793D01*
X12234801Y-15886793D02*
X12225277Y-15924888D01*
X12225277Y-15924888D02*
X12215753Y-15943936D01*
X12215753Y-15943936D02*
X12206229Y-15953460D01*
X12206229Y-15953460D02*
X12187182Y-15962984D01*
X12187182Y-15962984D02*
X12168134Y-15962984D01*
X12168134Y-15962984D02*
X12149086Y-15953460D01*
X12149086Y-15953460D02*
X12139563Y-15943936D01*
X12139563Y-15943936D02*
X12130039Y-15924888D01*
X12130039Y-15924888D02*
X12120515Y-15886793D01*
X12120515Y-15886793D02*
X12120515Y-15839174D01*
X12120515Y-15839174D02*
X12130039Y-15801079D01*
X12130039Y-15801079D02*
X12139563Y-15782031D01*
X12139563Y-15782031D02*
X12149086Y-15772508D01*
X12149086Y-15772508D02*
X12168134Y-15762984D01*
X12320515Y-15943936D02*
X12330039Y-15953460D01*
X12330039Y-15953460D02*
X12320515Y-15962984D01*
X12320515Y-15962984D02*
X12310991Y-15953460D01*
X12310991Y-15953460D02*
X12320515Y-15943936D01*
X12320515Y-15943936D02*
X12320515Y-15962984D01*
X12453848Y-15762984D02*
X12472896Y-15762984D01*
X12472896Y-15762984D02*
X12491944Y-15772508D01*
X12491944Y-15772508D02*
X12501467Y-15782031D01*
X12501467Y-15782031D02*
X12510991Y-15801079D01*
X12510991Y-15801079D02*
X12520515Y-15839174D01*
X12520515Y-15839174D02*
X12520515Y-15886793D01*
X12520515Y-15886793D02*
X12510991Y-15924888D01*
X12510991Y-15924888D02*
X12501467Y-15943936D01*
X12501467Y-15943936D02*
X12491944Y-15953460D01*
X12491944Y-15953460D02*
X12472896Y-15962984D01*
X12472896Y-15962984D02*
X12453848Y-15962984D01*
X12453848Y-15962984D02*
X12434801Y-15953460D01*
X12434801Y-15953460D02*
X12425277Y-15943936D01*
X12425277Y-15943936D02*
X12415753Y-15924888D01*
X12415753Y-15924888D02*
X12406229Y-15886793D01*
X12406229Y-15886793D02*
X12406229Y-15839174D01*
X12406229Y-15839174D02*
X12415753Y-15801079D01*
X12415753Y-15801079D02*
X12425277Y-15782031D01*
X12425277Y-15782031D02*
X12434801Y-15772508D01*
X12434801Y-15772508D02*
X12453848Y-15762984D01*
X12634801Y-15848698D02*
X12615753Y-15839174D01*
X12615753Y-15839174D02*
X12606229Y-15829650D01*
X12606229Y-15829650D02*
X12596706Y-15810603D01*
X12596706Y-15810603D02*
X12596706Y-15801079D01*
X12596706Y-15801079D02*
X12606229Y-15782031D01*
X12606229Y-15782031D02*
X12615753Y-15772508D01*
X12615753Y-15772508D02*
X12634801Y-15762984D01*
X12634801Y-15762984D02*
X12672896Y-15762984D01*
X12672896Y-15762984D02*
X12691944Y-15772508D01*
X12691944Y-15772508D02*
X12701467Y-15782031D01*
X12701467Y-15782031D02*
X12710991Y-15801079D01*
X12710991Y-15801079D02*
X12710991Y-15810603D01*
X12710991Y-15810603D02*
X12701467Y-15829650D01*
X12701467Y-15829650D02*
X12691944Y-15839174D01*
X12691944Y-15839174D02*
X12672896Y-15848698D01*
X12672896Y-15848698D02*
X12634801Y-15848698D01*
X12634801Y-15848698D02*
X12615753Y-15858222D01*
X12615753Y-15858222D02*
X12606229Y-15867746D01*
X12606229Y-15867746D02*
X12596706Y-15886793D01*
X12596706Y-15886793D02*
X12596706Y-15924888D01*
X12596706Y-15924888D02*
X12606229Y-15943936D01*
X12606229Y-15943936D02*
X12615753Y-15953460D01*
X12615753Y-15953460D02*
X12634801Y-15962984D01*
X12634801Y-15962984D02*
X12672896Y-15962984D01*
X12672896Y-15962984D02*
X12691944Y-15953460D01*
X12691944Y-15953460D02*
X12701467Y-15943936D01*
X12701467Y-15943936D02*
X12710991Y-15924888D01*
X12710991Y-15924888D02*
X12710991Y-15886793D01*
X12710991Y-15886793D02*
X12701467Y-15867746D01*
X12701467Y-15867746D02*
X12691944Y-15858222D01*
X12691944Y-15858222D02*
X12672896Y-15848698D01*
X12882420Y-15762984D02*
X12844325Y-15762984D01*
X12844325Y-15762984D02*
X12825277Y-15772508D01*
X12825277Y-15772508D02*
X12815753Y-15782031D01*
X12815753Y-15782031D02*
X12796706Y-15810603D01*
X12796706Y-15810603D02*
X12787182Y-15848698D01*
X12787182Y-15848698D02*
X12787182Y-15924888D01*
X12787182Y-15924888D02*
X12796706Y-15943936D01*
X12796706Y-15943936D02*
X12806229Y-15953460D01*
X12806229Y-15953460D02*
X12825277Y-15962984D01*
X12825277Y-15962984D02*
X12863372Y-15962984D01*
X12863372Y-15962984D02*
X12882420Y-15953460D01*
X12882420Y-15953460D02*
X12891944Y-15943936D01*
X12891944Y-15943936D02*
X12901467Y-15924888D01*
X12901467Y-15924888D02*
X12901467Y-15877269D01*
X12901467Y-15877269D02*
X12891944Y-15858222D01*
X12891944Y-15858222D02*
X12882420Y-15848698D01*
X12882420Y-15848698D02*
X12863372Y-15839174D01*
X12863372Y-15839174D02*
X12825277Y-15839174D01*
X12825277Y-15839174D02*
X12806229Y-15848698D01*
X12806229Y-15848698D02*
X12796706Y-15858222D01*
X12796706Y-15858222D02*
X12787182Y-15877269D01*
X13072896Y-15762984D02*
X13034801Y-15762984D01*
X13034801Y-15762984D02*
X13015753Y-15772508D01*
X13015753Y-15772508D02*
X13006229Y-15782031D01*
X13006229Y-15782031D02*
X12987182Y-15810603D01*
X12987182Y-15810603D02*
X12977658Y-15848698D01*
X12977658Y-15848698D02*
X12977658Y-15924888D01*
X12977658Y-15924888D02*
X12987182Y-15943936D01*
X12987182Y-15943936D02*
X12996706Y-15953460D01*
X12996706Y-15953460D02*
X13015753Y-15962984D01*
X13015753Y-15962984D02*
X13053848Y-15962984D01*
X13053848Y-15962984D02*
X13072896Y-15953460D01*
X13072896Y-15953460D02*
X13082420Y-15943936D01*
X13082420Y-15943936D02*
X13091944Y-15924888D01*
X13091944Y-15924888D02*
X13091944Y-15877269D01*
X13091944Y-15877269D02*
X13082420Y-15858222D01*
X13082420Y-15858222D02*
X13072896Y-15848698D01*
X13072896Y-15848698D02*
X13053848Y-15839174D01*
X13053848Y-15839174D02*
X13015753Y-15839174D01*
X13015753Y-15839174D02*
X12996706Y-15848698D01*
X12996706Y-15848698D02*
X12987182Y-15858222D01*
X12987182Y-15858222D02*
X12977658Y-15877269D01*
X13168134Y-15762984D02*
X13168134Y-15801079D01*
X13244325Y-15762984D02*
X13244325Y-15801079D01*
X13539563Y-16039174D02*
X13530039Y-16029650D01*
X13530039Y-16029650D02*
X13510991Y-16001079D01*
X13510991Y-16001079D02*
X13501468Y-15982031D01*
X13501468Y-15982031D02*
X13491944Y-15953460D01*
X13491944Y-15953460D02*
X13482420Y-15905841D01*
X13482420Y-15905841D02*
X13482420Y-15867746D01*
X13482420Y-15867746D02*
X13491944Y-15820127D01*
X13491944Y-15820127D02*
X13501468Y-15791555D01*
X13501468Y-15791555D02*
X13510991Y-15772508D01*
X13510991Y-15772508D02*
X13530039Y-15743936D01*
X13530039Y-15743936D02*
X13539563Y-15734412D01*
X13644325Y-15848698D02*
X13625277Y-15839174D01*
X13625277Y-15839174D02*
X13615753Y-15829650D01*
X13615753Y-15829650D02*
X13606229Y-15810603D01*
X13606229Y-15810603D02*
X13606229Y-15801079D01*
X13606229Y-15801079D02*
X13615753Y-15782031D01*
X13615753Y-15782031D02*
X13625277Y-15772508D01*
X13625277Y-15772508D02*
X13644325Y-15762984D01*
X13644325Y-15762984D02*
X13682420Y-15762984D01*
X13682420Y-15762984D02*
X13701468Y-15772508D01*
X13701468Y-15772508D02*
X13710991Y-15782031D01*
X13710991Y-15782031D02*
X13720515Y-15801079D01*
X13720515Y-15801079D02*
X13720515Y-15810603D01*
X13720515Y-15810603D02*
X13710991Y-15829650D01*
X13710991Y-15829650D02*
X13701468Y-15839174D01*
X13701468Y-15839174D02*
X13682420Y-15848698D01*
X13682420Y-15848698D02*
X13644325Y-15848698D01*
X13644325Y-15848698D02*
X13625277Y-15858222D01*
X13625277Y-15858222D02*
X13615753Y-15867746D01*
X13615753Y-15867746D02*
X13606229Y-15886793D01*
X13606229Y-15886793D02*
X13606229Y-15924888D01*
X13606229Y-15924888D02*
X13615753Y-15943936D01*
X13615753Y-15943936D02*
X13625277Y-15953460D01*
X13625277Y-15953460D02*
X13644325Y-15962984D01*
X13644325Y-15962984D02*
X13682420Y-15962984D01*
X13682420Y-15962984D02*
X13701468Y-15953460D01*
X13701468Y-15953460D02*
X13710991Y-15943936D01*
X13710991Y-15943936D02*
X13720515Y-15924888D01*
X13720515Y-15924888D02*
X13720515Y-15886793D01*
X13720515Y-15886793D02*
X13710991Y-15867746D01*
X13710991Y-15867746D02*
X13701468Y-15858222D01*
X13701468Y-15858222D02*
X13682420Y-15848698D01*
X13958610Y-15962984D02*
X13958610Y-15762984D01*
X14044325Y-15962984D02*
X14044325Y-15858222D01*
X14044325Y-15858222D02*
X14034801Y-15839174D01*
X14034801Y-15839174D02*
X14015753Y-15829650D01*
X14015753Y-15829650D02*
X13987182Y-15829650D01*
X13987182Y-15829650D02*
X13968134Y-15839174D01*
X13968134Y-15839174D02*
X13958610Y-15848698D01*
X14168134Y-15962984D02*
X14149087Y-15953460D01*
X14149087Y-15953460D02*
X14139563Y-15943936D01*
X14139563Y-15943936D02*
X14130039Y-15924888D01*
X14130039Y-15924888D02*
X14130039Y-15867746D01*
X14130039Y-15867746D02*
X14139563Y-15848698D01*
X14139563Y-15848698D02*
X14149087Y-15839174D01*
X14149087Y-15839174D02*
X14168134Y-15829650D01*
X14168134Y-15829650D02*
X14196706Y-15829650D01*
X14196706Y-15829650D02*
X14215753Y-15839174D01*
X14215753Y-15839174D02*
X14225277Y-15848698D01*
X14225277Y-15848698D02*
X14234801Y-15867746D01*
X14234801Y-15867746D02*
X14234801Y-15924888D01*
X14234801Y-15924888D02*
X14225277Y-15943936D01*
X14225277Y-15943936D02*
X14215753Y-15953460D01*
X14215753Y-15953460D02*
X14196706Y-15962984D01*
X14196706Y-15962984D02*
X14168134Y-15962984D01*
X14349087Y-15962984D02*
X14330039Y-15953460D01*
X14330039Y-15953460D02*
X14320515Y-15934412D01*
X14320515Y-15934412D02*
X14320515Y-15762984D01*
X14501468Y-15953460D02*
X14482420Y-15962984D01*
X14482420Y-15962984D02*
X14444325Y-15962984D01*
X14444325Y-15962984D02*
X14425277Y-15953460D01*
X14425277Y-15953460D02*
X14415753Y-15934412D01*
X14415753Y-15934412D02*
X14415753Y-15858222D01*
X14415753Y-15858222D02*
X14425277Y-15839174D01*
X14425277Y-15839174D02*
X14444325Y-15829650D01*
X14444325Y-15829650D02*
X14482420Y-15829650D01*
X14482420Y-15829650D02*
X14501468Y-15839174D01*
X14501468Y-15839174D02*
X14510991Y-15858222D01*
X14510991Y-15858222D02*
X14510991Y-15877269D01*
X14510991Y-15877269D02*
X14415753Y-15896317D01*
X14587182Y-15953460D02*
X14606230Y-15962984D01*
X14606230Y-15962984D02*
X14644325Y-15962984D01*
X14644325Y-15962984D02*
X14663372Y-15953460D01*
X14663372Y-15953460D02*
X14672896Y-15934412D01*
X14672896Y-15934412D02*
X14672896Y-15924888D01*
X14672896Y-15924888D02*
X14663372Y-15905841D01*
X14663372Y-15905841D02*
X14644325Y-15896317D01*
X14644325Y-15896317D02*
X14615753Y-15896317D01*
X14615753Y-15896317D02*
X14596706Y-15886793D01*
X14596706Y-15886793D02*
X14587182Y-15867746D01*
X14587182Y-15867746D02*
X14587182Y-15858222D01*
X14587182Y-15858222D02*
X14596706Y-15839174D01*
X14596706Y-15839174D02*
X14615753Y-15829650D01*
X14615753Y-15829650D02*
X14644325Y-15829650D01*
X14644325Y-15829650D02*
X14663372Y-15839174D01*
X14739563Y-16039174D02*
X14749087Y-16029650D01*
X14749087Y-16029650D02*
X14768134Y-16001079D01*
X14768134Y-16001079D02*
X14777658Y-15982031D01*
X14777658Y-15982031D02*
X14787182Y-15953460D01*
X14787182Y-15953460D02*
X14796706Y-15905841D01*
X14796706Y-15905841D02*
X14796706Y-15867746D01*
X14796706Y-15867746D02*
X14787182Y-15820127D01*
X14787182Y-15820127D02*
X14777658Y-15791555D01*
X14777658Y-15791555D02*
X14768134Y-15772508D01*
X14768134Y-15772508D02*
X14749087Y-15743936D01*
X14749087Y-15743936D02*
X14739563Y-15734412D01*
X15101468Y-16039174D02*
X15091944Y-16029650D01*
X15091944Y-16029650D02*
X15072896Y-16001079D01*
X15072896Y-16001079D02*
X15063372Y-15982031D01*
X15063372Y-15982031D02*
X15053849Y-15953460D01*
X15053849Y-15953460D02*
X15044325Y-15905841D01*
X15044325Y-15905841D02*
X15044325Y-15867746D01*
X15044325Y-15867746D02*
X15053849Y-15820127D01*
X15053849Y-15820127D02*
X15063372Y-15791555D01*
X15063372Y-15791555D02*
X15072896Y-15772508D01*
X15072896Y-15772508D02*
X15091944Y-15743936D01*
X15091944Y-15743936D02*
X15101468Y-15734412D01*
X15177658Y-15829650D02*
X15177658Y-15962984D01*
X15177658Y-15848698D02*
X15187182Y-15839174D01*
X15187182Y-15839174D02*
X15206230Y-15829650D01*
X15206230Y-15829650D02*
X15234801Y-15829650D01*
X15234801Y-15829650D02*
X15253849Y-15839174D01*
X15253849Y-15839174D02*
X15263372Y-15858222D01*
X15263372Y-15858222D02*
X15263372Y-15962984D01*
X15387182Y-15962984D02*
X15368134Y-15953460D01*
X15368134Y-15953460D02*
X15358611Y-15943936D01*
X15358611Y-15943936D02*
X15349087Y-15924888D01*
X15349087Y-15924888D02*
X15349087Y-15867746D01*
X15349087Y-15867746D02*
X15358611Y-15848698D01*
X15358611Y-15848698D02*
X15368134Y-15839174D01*
X15368134Y-15839174D02*
X15387182Y-15829650D01*
X15387182Y-15829650D02*
X15415753Y-15829650D01*
X15415753Y-15829650D02*
X15434801Y-15839174D01*
X15434801Y-15839174D02*
X15444325Y-15848698D01*
X15444325Y-15848698D02*
X15453849Y-15867746D01*
X15453849Y-15867746D02*
X15453849Y-15924888D01*
X15453849Y-15924888D02*
X15444325Y-15943936D01*
X15444325Y-15943936D02*
X15434801Y-15953460D01*
X15434801Y-15953460D02*
X15415753Y-15962984D01*
X15415753Y-15962984D02*
X15387182Y-15962984D01*
X15510992Y-15829650D02*
X15587182Y-15829650D01*
X15539563Y-15762984D02*
X15539563Y-15934412D01*
X15539563Y-15934412D02*
X15549087Y-15953460D01*
X15549087Y-15953460D02*
X15568134Y-15962984D01*
X15568134Y-15962984D02*
X15587182Y-15962984D01*
X15806230Y-15829650D02*
X15806230Y-16029650D01*
X15806230Y-15839174D02*
X15825277Y-15829650D01*
X15825277Y-15829650D02*
X15863373Y-15829650D01*
X15863373Y-15829650D02*
X15882420Y-15839174D01*
X15882420Y-15839174D02*
X15891944Y-15848698D01*
X15891944Y-15848698D02*
X15901468Y-15867746D01*
X15901468Y-15867746D02*
X15901468Y-15924888D01*
X15901468Y-15924888D02*
X15891944Y-15943936D01*
X15891944Y-15943936D02*
X15882420Y-15953460D01*
X15882420Y-15953460D02*
X15863373Y-15962984D01*
X15863373Y-15962984D02*
X15825277Y-15962984D01*
X15825277Y-15962984D02*
X15806230Y-15953460D01*
X16015753Y-15962984D02*
X15996706Y-15953460D01*
X15996706Y-15953460D02*
X15987182Y-15934412D01*
X15987182Y-15934412D02*
X15987182Y-15762984D01*
X16177658Y-15962984D02*
X16177658Y-15858222D01*
X16177658Y-15858222D02*
X16168134Y-15839174D01*
X16168134Y-15839174D02*
X16149087Y-15829650D01*
X16149087Y-15829650D02*
X16110992Y-15829650D01*
X16110992Y-15829650D02*
X16091944Y-15839174D01*
X16177658Y-15953460D02*
X16158611Y-15962984D01*
X16158611Y-15962984D02*
X16110992Y-15962984D01*
X16110992Y-15962984D02*
X16091944Y-15953460D01*
X16091944Y-15953460D02*
X16082420Y-15934412D01*
X16082420Y-15934412D02*
X16082420Y-15915365D01*
X16082420Y-15915365D02*
X16091944Y-15896317D01*
X16091944Y-15896317D02*
X16110992Y-15886793D01*
X16110992Y-15886793D02*
X16158611Y-15886793D01*
X16158611Y-15886793D02*
X16177658Y-15877269D01*
X16244325Y-15829650D02*
X16320515Y-15829650D01*
X16272896Y-15762984D02*
X16272896Y-15934412D01*
X16272896Y-15934412D02*
X16282420Y-15953460D01*
X16282420Y-15953460D02*
X16301468Y-15962984D01*
X16301468Y-15962984D02*
X16320515Y-15962984D01*
X16463373Y-15953460D02*
X16444325Y-15962984D01*
X16444325Y-15962984D02*
X16406230Y-15962984D01*
X16406230Y-15962984D02*
X16387182Y-15953460D01*
X16387182Y-15953460D02*
X16377658Y-15934412D01*
X16377658Y-15934412D02*
X16377658Y-15858222D01*
X16377658Y-15858222D02*
X16387182Y-15839174D01*
X16387182Y-15839174D02*
X16406230Y-15829650D01*
X16406230Y-15829650D02*
X16444325Y-15829650D01*
X16444325Y-15829650D02*
X16463373Y-15839174D01*
X16463373Y-15839174D02*
X16472896Y-15858222D01*
X16472896Y-15858222D02*
X16472896Y-15877269D01*
X16472896Y-15877269D02*
X16377658Y-15896317D01*
X16644325Y-15962984D02*
X16644325Y-15762984D01*
X16644325Y-15953460D02*
X16625277Y-15962984D01*
X16625277Y-15962984D02*
X16587182Y-15962984D01*
X16587182Y-15962984D02*
X16568134Y-15953460D01*
X16568134Y-15953460D02*
X16558611Y-15943936D01*
X16558611Y-15943936D02*
X16549087Y-15924888D01*
X16549087Y-15924888D02*
X16549087Y-15867746D01*
X16549087Y-15867746D02*
X16558611Y-15848698D01*
X16558611Y-15848698D02*
X16568134Y-15839174D01*
X16568134Y-15839174D02*
X16587182Y-15829650D01*
X16587182Y-15829650D02*
X16625277Y-15829650D01*
X16625277Y-15829650D02*
X16644325Y-15839174D01*
X16720515Y-16039174D02*
X16730039Y-16029650D01*
X16730039Y-16029650D02*
X16749087Y-16001079D01*
X16749087Y-16001079D02*
X16758611Y-15982031D01*
X16758611Y-15982031D02*
X16768134Y-15953460D01*
X16768134Y-15953460D02*
X16777658Y-15905841D01*
X16777658Y-15905841D02*
X16777658Y-15867746D01*
X16777658Y-15867746D02*
X16768134Y-15820127D01*
X16768134Y-15820127D02*
X16758611Y-15791555D01*
X16758611Y-15791555D02*
X16749087Y-15772508D01*
X16749087Y-15772508D02*
X16730039Y-15743936D01*
X16730039Y-15743936D02*
X16720515Y-15734412D01*
X9864500Y-16291500D02*
X9964500Y-16191500D01*
X9864500Y-16091500D01*
X9764500Y-16191500D01*
X9864500Y-16291500D01*
X10206229Y-16082984D02*
X10330039Y-16082984D01*
X10330039Y-16082984D02*
X10263372Y-16159174D01*
X10263372Y-16159174D02*
X10291944Y-16159174D01*
X10291944Y-16159174D02*
X10310991Y-16168698D01*
X10310991Y-16168698D02*
X10320515Y-16178222D01*
X10320515Y-16178222D02*
X10330039Y-16197269D01*
X10330039Y-16197269D02*
X10330039Y-16244888D01*
X10330039Y-16244888D02*
X10320515Y-16263936D01*
X10320515Y-16263936D02*
X10310991Y-16273460D01*
X10310991Y-16273460D02*
X10291944Y-16282984D01*
X10291944Y-16282984D02*
X10234801Y-16282984D01*
X10234801Y-16282984D02*
X10215753Y-16273460D01*
X10215753Y-16273460D02*
X10206229Y-16263936D01*
X10415753Y-16263936D02*
X10425277Y-16273460D01*
X10425277Y-16273460D02*
X10415753Y-16282984D01*
X10415753Y-16282984D02*
X10406229Y-16273460D01*
X10406229Y-16273460D02*
X10415753Y-16263936D01*
X10415753Y-16263936D02*
X10415753Y-16282984D01*
X10549086Y-16082984D02*
X10568134Y-16082984D01*
X10568134Y-16082984D02*
X10587182Y-16092508D01*
X10587182Y-16092508D02*
X10596705Y-16102031D01*
X10596705Y-16102031D02*
X10606229Y-16121079D01*
X10606229Y-16121079D02*
X10615753Y-16159174D01*
X10615753Y-16159174D02*
X10615753Y-16206793D01*
X10615753Y-16206793D02*
X10606229Y-16244888D01*
X10606229Y-16244888D02*
X10596705Y-16263936D01*
X10596705Y-16263936D02*
X10587182Y-16273460D01*
X10587182Y-16273460D02*
X10568134Y-16282984D01*
X10568134Y-16282984D02*
X10549086Y-16282984D01*
X10549086Y-16282984D02*
X10530039Y-16273460D01*
X10530039Y-16273460D02*
X10520515Y-16263936D01*
X10520515Y-16263936D02*
X10510991Y-16244888D01*
X10510991Y-16244888D02*
X10501467Y-16206793D01*
X10501467Y-16206793D02*
X10501467Y-16159174D01*
X10501467Y-16159174D02*
X10510991Y-16121079D01*
X10510991Y-16121079D02*
X10520515Y-16102031D01*
X10520515Y-16102031D02*
X10530039Y-16092508D01*
X10530039Y-16092508D02*
X10549086Y-16082984D01*
X10796705Y-16082984D02*
X10701467Y-16082984D01*
X10701467Y-16082984D02*
X10691944Y-16178222D01*
X10691944Y-16178222D02*
X10701467Y-16168698D01*
X10701467Y-16168698D02*
X10720515Y-16159174D01*
X10720515Y-16159174D02*
X10768134Y-16159174D01*
X10768134Y-16159174D02*
X10787182Y-16168698D01*
X10787182Y-16168698D02*
X10796705Y-16178222D01*
X10796705Y-16178222D02*
X10806229Y-16197269D01*
X10806229Y-16197269D02*
X10806229Y-16244888D01*
X10806229Y-16244888D02*
X10796705Y-16263936D01*
X10796705Y-16263936D02*
X10787182Y-16273460D01*
X10787182Y-16273460D02*
X10768134Y-16282984D01*
X10768134Y-16282984D02*
X10720515Y-16282984D01*
X10720515Y-16282984D02*
X10701467Y-16273460D01*
X10701467Y-16273460D02*
X10691944Y-16263936D01*
X10930039Y-16082984D02*
X10949086Y-16082984D01*
X10949086Y-16082984D02*
X10968134Y-16092508D01*
X10968134Y-16092508D02*
X10977658Y-16102031D01*
X10977658Y-16102031D02*
X10987182Y-16121079D01*
X10987182Y-16121079D02*
X10996705Y-16159174D01*
X10996705Y-16159174D02*
X10996705Y-16206793D01*
X10996705Y-16206793D02*
X10987182Y-16244888D01*
X10987182Y-16244888D02*
X10977658Y-16263936D01*
X10977658Y-16263936D02*
X10968134Y-16273460D01*
X10968134Y-16273460D02*
X10949086Y-16282984D01*
X10949086Y-16282984D02*
X10930039Y-16282984D01*
X10930039Y-16282984D02*
X10910991Y-16273460D01*
X10910991Y-16273460D02*
X10901467Y-16263936D01*
X10901467Y-16263936D02*
X10891944Y-16244888D01*
X10891944Y-16244888D02*
X10882420Y-16206793D01*
X10882420Y-16206793D02*
X10882420Y-16159174D01*
X10882420Y-16159174D02*
X10891944Y-16121079D01*
X10891944Y-16121079D02*
X10901467Y-16102031D01*
X10901467Y-16102031D02*
X10910991Y-16092508D01*
X10910991Y-16092508D02*
X10930039Y-16082984D01*
X11082420Y-16282984D02*
X11082420Y-16149650D01*
X11082420Y-16168698D02*
X11091944Y-16159174D01*
X11091944Y-16159174D02*
X11110991Y-16149650D01*
X11110991Y-16149650D02*
X11139563Y-16149650D01*
X11139563Y-16149650D02*
X11158610Y-16159174D01*
X11158610Y-16159174D02*
X11168134Y-16178222D01*
X11168134Y-16178222D02*
X11168134Y-16282984D01*
X11168134Y-16178222D02*
X11177658Y-16159174D01*
X11177658Y-16159174D02*
X11196705Y-16149650D01*
X11196705Y-16149650D02*
X11225277Y-16149650D01*
X11225277Y-16149650D02*
X11244324Y-16159174D01*
X11244324Y-16159174D02*
X11253848Y-16178222D01*
X11253848Y-16178222D02*
X11253848Y-16282984D01*
X11349086Y-16282984D02*
X11349086Y-16149650D01*
X11349086Y-16168698D02*
X11358610Y-16159174D01*
X11358610Y-16159174D02*
X11377658Y-16149650D01*
X11377658Y-16149650D02*
X11406229Y-16149650D01*
X11406229Y-16149650D02*
X11425277Y-16159174D01*
X11425277Y-16159174D02*
X11434801Y-16178222D01*
X11434801Y-16178222D02*
X11434801Y-16282984D01*
X11434801Y-16178222D02*
X11444324Y-16159174D01*
X11444324Y-16159174D02*
X11463372Y-16149650D01*
X11463372Y-16149650D02*
X11491943Y-16149650D01*
X11491943Y-16149650D02*
X11510991Y-16159174D01*
X11510991Y-16159174D02*
X11520515Y-16178222D01*
X11520515Y-16178222D02*
X11520515Y-16282984D01*
X11910991Y-16073460D02*
X11739563Y-16330603D01*
X12168134Y-16082984D02*
X12187182Y-16082984D01*
X12187182Y-16082984D02*
X12206229Y-16092508D01*
X12206229Y-16092508D02*
X12215753Y-16102031D01*
X12215753Y-16102031D02*
X12225277Y-16121079D01*
X12225277Y-16121079D02*
X12234801Y-16159174D01*
X12234801Y-16159174D02*
X12234801Y-16206793D01*
X12234801Y-16206793D02*
X12225277Y-16244888D01*
X12225277Y-16244888D02*
X12215753Y-16263936D01*
X12215753Y-16263936D02*
X12206229Y-16273460D01*
X12206229Y-16273460D02*
X12187182Y-16282984D01*
X12187182Y-16282984D02*
X12168134Y-16282984D01*
X12168134Y-16282984D02*
X12149086Y-16273460D01*
X12149086Y-16273460D02*
X12139563Y-16263936D01*
X12139563Y-16263936D02*
X12130039Y-16244888D01*
X12130039Y-16244888D02*
X12120515Y-16206793D01*
X12120515Y-16206793D02*
X12120515Y-16159174D01*
X12120515Y-16159174D02*
X12130039Y-16121079D01*
X12130039Y-16121079D02*
X12139563Y-16102031D01*
X12139563Y-16102031D02*
X12149086Y-16092508D01*
X12149086Y-16092508D02*
X12168134Y-16082984D01*
X12320515Y-16263936D02*
X12330039Y-16273460D01*
X12330039Y-16273460D02*
X12320515Y-16282984D01*
X12320515Y-16282984D02*
X12310991Y-16273460D01*
X12310991Y-16273460D02*
X12320515Y-16263936D01*
X12320515Y-16263936D02*
X12320515Y-16282984D01*
X12520515Y-16282984D02*
X12406229Y-16282984D01*
X12463372Y-16282984D02*
X12463372Y-16082984D01*
X12463372Y-16082984D02*
X12444325Y-16111555D01*
X12444325Y-16111555D02*
X12425277Y-16130603D01*
X12425277Y-16130603D02*
X12406229Y-16140127D01*
X12596706Y-16102031D02*
X12606229Y-16092508D01*
X12606229Y-16092508D02*
X12625277Y-16082984D01*
X12625277Y-16082984D02*
X12672896Y-16082984D01*
X12672896Y-16082984D02*
X12691944Y-16092508D01*
X12691944Y-16092508D02*
X12701467Y-16102031D01*
X12701467Y-16102031D02*
X12710991Y-16121079D01*
X12710991Y-16121079D02*
X12710991Y-16140127D01*
X12710991Y-16140127D02*
X12701467Y-16168698D01*
X12701467Y-16168698D02*
X12587182Y-16282984D01*
X12587182Y-16282984D02*
X12710991Y-16282984D01*
X12834801Y-16082984D02*
X12853848Y-16082984D01*
X12853848Y-16082984D02*
X12872896Y-16092508D01*
X12872896Y-16092508D02*
X12882420Y-16102031D01*
X12882420Y-16102031D02*
X12891944Y-16121079D01*
X12891944Y-16121079D02*
X12901467Y-16159174D01*
X12901467Y-16159174D02*
X12901467Y-16206793D01*
X12901467Y-16206793D02*
X12891944Y-16244888D01*
X12891944Y-16244888D02*
X12882420Y-16263936D01*
X12882420Y-16263936D02*
X12872896Y-16273460D01*
X12872896Y-16273460D02*
X12853848Y-16282984D01*
X12853848Y-16282984D02*
X12834801Y-16282984D01*
X12834801Y-16282984D02*
X12815753Y-16273460D01*
X12815753Y-16273460D02*
X12806229Y-16263936D01*
X12806229Y-16263936D02*
X12796706Y-16244888D01*
X12796706Y-16244888D02*
X12787182Y-16206793D01*
X12787182Y-16206793D02*
X12787182Y-16159174D01*
X12787182Y-16159174D02*
X12796706Y-16121079D01*
X12796706Y-16121079D02*
X12806229Y-16102031D01*
X12806229Y-16102031D02*
X12815753Y-16092508D01*
X12815753Y-16092508D02*
X12834801Y-16082984D01*
X13091944Y-16282984D02*
X12977658Y-16282984D01*
X13034801Y-16282984D02*
X13034801Y-16082984D01*
X13034801Y-16082984D02*
X13015753Y-16111555D01*
X13015753Y-16111555D02*
X12996706Y-16130603D01*
X12996706Y-16130603D02*
X12977658Y-16140127D01*
X13168134Y-16082984D02*
X13168134Y-16121079D01*
X13244325Y-16082984D02*
X13244325Y-16121079D01*
X13539563Y-16359174D02*
X13530039Y-16349650D01*
X13530039Y-16349650D02*
X13510991Y-16321079D01*
X13510991Y-16321079D02*
X13501468Y-16302031D01*
X13501468Y-16302031D02*
X13491944Y-16273460D01*
X13491944Y-16273460D02*
X13482420Y-16225841D01*
X13482420Y-16225841D02*
X13482420Y-16187746D01*
X13482420Y-16187746D02*
X13491944Y-16140127D01*
X13491944Y-16140127D02*
X13501468Y-16111555D01*
X13501468Y-16111555D02*
X13510991Y-16092508D01*
X13510991Y-16092508D02*
X13530039Y-16063936D01*
X13530039Y-16063936D02*
X13539563Y-16054412D01*
X13606229Y-16102031D02*
X13615753Y-16092508D01*
X13615753Y-16092508D02*
X13634801Y-16082984D01*
X13634801Y-16082984D02*
X13682420Y-16082984D01*
X13682420Y-16082984D02*
X13701468Y-16092508D01*
X13701468Y-16092508D02*
X13710991Y-16102031D01*
X13710991Y-16102031D02*
X13720515Y-16121079D01*
X13720515Y-16121079D02*
X13720515Y-16140127D01*
X13720515Y-16140127D02*
X13710991Y-16168698D01*
X13710991Y-16168698D02*
X13596706Y-16282984D01*
X13596706Y-16282984D02*
X13720515Y-16282984D01*
X13844325Y-16082984D02*
X13863372Y-16082984D01*
X13863372Y-16082984D02*
X13882420Y-16092508D01*
X13882420Y-16092508D02*
X13891944Y-16102031D01*
X13891944Y-16102031D02*
X13901468Y-16121079D01*
X13901468Y-16121079D02*
X13910991Y-16159174D01*
X13910991Y-16159174D02*
X13910991Y-16206793D01*
X13910991Y-16206793D02*
X13901468Y-16244888D01*
X13901468Y-16244888D02*
X13891944Y-16263936D01*
X13891944Y-16263936D02*
X13882420Y-16273460D01*
X13882420Y-16273460D02*
X13863372Y-16282984D01*
X13863372Y-16282984D02*
X13844325Y-16282984D01*
X13844325Y-16282984D02*
X13825277Y-16273460D01*
X13825277Y-16273460D02*
X13815753Y-16263936D01*
X13815753Y-16263936D02*
X13806229Y-16244888D01*
X13806229Y-16244888D02*
X13796706Y-16206793D01*
X13796706Y-16206793D02*
X13796706Y-16159174D01*
X13796706Y-16159174D02*
X13806229Y-16121079D01*
X13806229Y-16121079D02*
X13815753Y-16102031D01*
X13815753Y-16102031D02*
X13825277Y-16092508D01*
X13825277Y-16092508D02*
X13844325Y-16082984D01*
X14149087Y-16282984D02*
X14149087Y-16082984D01*
X14234801Y-16282984D02*
X14234801Y-16178222D01*
X14234801Y-16178222D02*
X14225277Y-16159174D01*
X14225277Y-16159174D02*
X14206230Y-16149650D01*
X14206230Y-16149650D02*
X14177658Y-16149650D01*
X14177658Y-16149650D02*
X14158610Y-16159174D01*
X14158610Y-16159174D02*
X14149087Y-16168698D01*
X14358610Y-16282984D02*
X14339563Y-16273460D01*
X14339563Y-16273460D02*
X14330039Y-16263936D01*
X14330039Y-16263936D02*
X14320515Y-16244888D01*
X14320515Y-16244888D02*
X14320515Y-16187746D01*
X14320515Y-16187746D02*
X14330039Y-16168698D01*
X14330039Y-16168698D02*
X14339563Y-16159174D01*
X14339563Y-16159174D02*
X14358610Y-16149650D01*
X14358610Y-16149650D02*
X14387182Y-16149650D01*
X14387182Y-16149650D02*
X14406230Y-16159174D01*
X14406230Y-16159174D02*
X14415753Y-16168698D01*
X14415753Y-16168698D02*
X14425277Y-16187746D01*
X14425277Y-16187746D02*
X14425277Y-16244888D01*
X14425277Y-16244888D02*
X14415753Y-16263936D01*
X14415753Y-16263936D02*
X14406230Y-16273460D01*
X14406230Y-16273460D02*
X14387182Y-16282984D01*
X14387182Y-16282984D02*
X14358610Y-16282984D01*
X14539563Y-16282984D02*
X14520515Y-16273460D01*
X14520515Y-16273460D02*
X14510991Y-16254412D01*
X14510991Y-16254412D02*
X14510991Y-16082984D01*
X14691944Y-16273460D02*
X14672896Y-16282984D01*
X14672896Y-16282984D02*
X14634801Y-16282984D01*
X14634801Y-16282984D02*
X14615753Y-16273460D01*
X14615753Y-16273460D02*
X14606230Y-16254412D01*
X14606230Y-16254412D02*
X14606230Y-16178222D01*
X14606230Y-16178222D02*
X14615753Y-16159174D01*
X14615753Y-16159174D02*
X14634801Y-16149650D01*
X14634801Y-16149650D02*
X14672896Y-16149650D01*
X14672896Y-16149650D02*
X14691944Y-16159174D01*
X14691944Y-16159174D02*
X14701468Y-16178222D01*
X14701468Y-16178222D02*
X14701468Y-16197269D01*
X14701468Y-16197269D02*
X14606230Y-16216317D01*
X14777658Y-16273460D02*
X14796706Y-16282984D01*
X14796706Y-16282984D02*
X14834801Y-16282984D01*
X14834801Y-16282984D02*
X14853849Y-16273460D01*
X14853849Y-16273460D02*
X14863372Y-16254412D01*
X14863372Y-16254412D02*
X14863372Y-16244888D01*
X14863372Y-16244888D02*
X14853849Y-16225841D01*
X14853849Y-16225841D02*
X14834801Y-16216317D01*
X14834801Y-16216317D02*
X14806230Y-16216317D01*
X14806230Y-16216317D02*
X14787182Y-16206793D01*
X14787182Y-16206793D02*
X14777658Y-16187746D01*
X14777658Y-16187746D02*
X14777658Y-16178222D01*
X14777658Y-16178222D02*
X14787182Y-16159174D01*
X14787182Y-16159174D02*
X14806230Y-16149650D01*
X14806230Y-16149650D02*
X14834801Y-16149650D01*
X14834801Y-16149650D02*
X14853849Y-16159174D01*
X14930039Y-16359174D02*
X14939563Y-16349650D01*
X14939563Y-16349650D02*
X14958611Y-16321079D01*
X14958611Y-16321079D02*
X14968134Y-16302031D01*
X14968134Y-16302031D02*
X14977658Y-16273460D01*
X14977658Y-16273460D02*
X14987182Y-16225841D01*
X14987182Y-16225841D02*
X14987182Y-16187746D01*
X14987182Y-16187746D02*
X14977658Y-16140127D01*
X14977658Y-16140127D02*
X14968134Y-16111555D01*
X14968134Y-16111555D02*
X14958611Y-16092508D01*
X14958611Y-16092508D02*
X14939563Y-16063936D01*
X14939563Y-16063936D02*
X14930039Y-16054412D01*
X15291944Y-16359174D02*
X15282420Y-16349650D01*
X15282420Y-16349650D02*
X15263372Y-16321079D01*
X15263372Y-16321079D02*
X15253849Y-16302031D01*
X15253849Y-16302031D02*
X15244325Y-16273460D01*
X15244325Y-16273460D02*
X15234801Y-16225841D01*
X15234801Y-16225841D02*
X15234801Y-16187746D01*
X15234801Y-16187746D02*
X15244325Y-16140127D01*
X15244325Y-16140127D02*
X15253849Y-16111555D01*
X15253849Y-16111555D02*
X15263372Y-16092508D01*
X15263372Y-16092508D02*
X15282420Y-16063936D01*
X15282420Y-16063936D02*
X15291944Y-16054412D01*
X15368134Y-16149650D02*
X15368134Y-16282984D01*
X15368134Y-16168698D02*
X15377658Y-16159174D01*
X15377658Y-16159174D02*
X15396706Y-16149650D01*
X15396706Y-16149650D02*
X15425277Y-16149650D01*
X15425277Y-16149650D02*
X15444325Y-16159174D01*
X15444325Y-16159174D02*
X15453849Y-16178222D01*
X15453849Y-16178222D02*
X15453849Y-16282984D01*
X15577658Y-16282984D02*
X15558611Y-16273460D01*
X15558611Y-16273460D02*
X15549087Y-16263936D01*
X15549087Y-16263936D02*
X15539563Y-16244888D01*
X15539563Y-16244888D02*
X15539563Y-16187746D01*
X15539563Y-16187746D02*
X15549087Y-16168698D01*
X15549087Y-16168698D02*
X15558611Y-16159174D01*
X15558611Y-16159174D02*
X15577658Y-16149650D01*
X15577658Y-16149650D02*
X15606230Y-16149650D01*
X15606230Y-16149650D02*
X15625277Y-16159174D01*
X15625277Y-16159174D02*
X15634801Y-16168698D01*
X15634801Y-16168698D02*
X15644325Y-16187746D01*
X15644325Y-16187746D02*
X15644325Y-16244888D01*
X15644325Y-16244888D02*
X15634801Y-16263936D01*
X15634801Y-16263936D02*
X15625277Y-16273460D01*
X15625277Y-16273460D02*
X15606230Y-16282984D01*
X15606230Y-16282984D02*
X15577658Y-16282984D01*
X15701468Y-16149650D02*
X15777658Y-16149650D01*
X15730039Y-16082984D02*
X15730039Y-16254412D01*
X15730039Y-16254412D02*
X15739563Y-16273460D01*
X15739563Y-16273460D02*
X15758611Y-16282984D01*
X15758611Y-16282984D02*
X15777658Y-16282984D01*
X15996706Y-16149650D02*
X15996706Y-16349650D01*
X15996706Y-16159174D02*
X16015753Y-16149650D01*
X16015753Y-16149650D02*
X16053849Y-16149650D01*
X16053849Y-16149650D02*
X16072896Y-16159174D01*
X16072896Y-16159174D02*
X16082420Y-16168698D01*
X16082420Y-16168698D02*
X16091944Y-16187746D01*
X16091944Y-16187746D02*
X16091944Y-16244888D01*
X16091944Y-16244888D02*
X16082420Y-16263936D01*
X16082420Y-16263936D02*
X16072896Y-16273460D01*
X16072896Y-16273460D02*
X16053849Y-16282984D01*
X16053849Y-16282984D02*
X16015753Y-16282984D01*
X16015753Y-16282984D02*
X15996706Y-16273460D01*
X16206230Y-16282984D02*
X16187182Y-16273460D01*
X16187182Y-16273460D02*
X16177658Y-16254412D01*
X16177658Y-16254412D02*
X16177658Y-16082984D01*
X16368134Y-16282984D02*
X16368134Y-16178222D01*
X16368134Y-16178222D02*
X16358611Y-16159174D01*
X16358611Y-16159174D02*
X16339563Y-16149650D01*
X16339563Y-16149650D02*
X16301468Y-16149650D01*
X16301468Y-16149650D02*
X16282420Y-16159174D01*
X16368134Y-16273460D02*
X16349087Y-16282984D01*
X16349087Y-16282984D02*
X16301468Y-16282984D01*
X16301468Y-16282984D02*
X16282420Y-16273460D01*
X16282420Y-16273460D02*
X16272896Y-16254412D01*
X16272896Y-16254412D02*
X16272896Y-16235365D01*
X16272896Y-16235365D02*
X16282420Y-16216317D01*
X16282420Y-16216317D02*
X16301468Y-16206793D01*
X16301468Y-16206793D02*
X16349087Y-16206793D01*
X16349087Y-16206793D02*
X16368134Y-16197269D01*
X16434801Y-16149650D02*
X16510992Y-16149650D01*
X16463373Y-16082984D02*
X16463373Y-16254412D01*
X16463373Y-16254412D02*
X16472896Y-16273460D01*
X16472896Y-16273460D02*
X16491944Y-16282984D01*
X16491944Y-16282984D02*
X16510992Y-16282984D01*
X16653849Y-16273460D02*
X16634801Y-16282984D01*
X16634801Y-16282984D02*
X16596706Y-16282984D01*
X16596706Y-16282984D02*
X16577658Y-16273460D01*
X16577658Y-16273460D02*
X16568134Y-16254412D01*
X16568134Y-16254412D02*
X16568134Y-16178222D01*
X16568134Y-16178222D02*
X16577658Y-16159174D01*
X16577658Y-16159174D02*
X16596706Y-16149650D01*
X16596706Y-16149650D02*
X16634801Y-16149650D01*
X16634801Y-16149650D02*
X16653849Y-16159174D01*
X16653849Y-16159174D02*
X16663373Y-16178222D01*
X16663373Y-16178222D02*
X16663373Y-16197269D01*
X16663373Y-16197269D02*
X16568134Y-16216317D01*
X16834801Y-16282984D02*
X16834801Y-16082984D01*
X16834801Y-16273460D02*
X16815754Y-16282984D01*
X16815754Y-16282984D02*
X16777658Y-16282984D01*
X16777658Y-16282984D02*
X16758611Y-16273460D01*
X16758611Y-16273460D02*
X16749087Y-16263936D01*
X16749087Y-16263936D02*
X16739563Y-16244888D01*
X16739563Y-16244888D02*
X16739563Y-16187746D01*
X16739563Y-16187746D02*
X16749087Y-16168698D01*
X16749087Y-16168698D02*
X16758611Y-16159174D01*
X16758611Y-16159174D02*
X16777658Y-16149650D01*
X16777658Y-16149650D02*
X16815754Y-16149650D01*
X16815754Y-16149650D02*
X16834801Y-16159174D01*
X16910992Y-16359174D02*
X16920516Y-16349650D01*
X16920516Y-16349650D02*
X16939563Y-16321079D01*
X16939563Y-16321079D02*
X16949087Y-16302031D01*
X16949087Y-16302031D02*
X16958611Y-16273460D01*
X16958611Y-16273460D02*
X16968135Y-16225841D01*
X16968135Y-16225841D02*
X16968135Y-16187746D01*
X16968135Y-16187746D02*
X16958611Y-16140127D01*
X16958611Y-16140127D02*
X16949087Y-16111555D01*
X16949087Y-16111555D02*
X16939563Y-16092508D01*
X16939563Y-16092508D02*
X16920516Y-16063936D01*
X16920516Y-16063936D02*
X16910992Y-16054412D01*
X9764500Y-16411500D02*
X9964500Y-16611500D01*
X9964500Y-16411500D02*
X9764500Y-16611500D01*
X9964500Y-16511500D02*
G75*
G02*
X9764500Y-16511500I-100000J0D01*
G01*
X9764500Y-16511500D02*
G75*
G02*
X9964500Y-16511500I100000J0D01*
G01*
X10310991Y-16469650D02*
X10310991Y-16602984D01*
X10263372Y-16393460D02*
X10215753Y-16536317D01*
X10215753Y-16536317D02*
X10339563Y-16536317D01*
X10415753Y-16583936D02*
X10425277Y-16593460D01*
X10425277Y-16593460D02*
X10415753Y-16602984D01*
X10415753Y-16602984D02*
X10406229Y-16593460D01*
X10406229Y-16593460D02*
X10415753Y-16583936D01*
X10415753Y-16583936D02*
X10415753Y-16602984D01*
X10549086Y-16402984D02*
X10568134Y-16402984D01*
X10568134Y-16402984D02*
X10587182Y-16412508D01*
X10587182Y-16412508D02*
X10596705Y-16422031D01*
X10596705Y-16422031D02*
X10606229Y-16441079D01*
X10606229Y-16441079D02*
X10615753Y-16479174D01*
X10615753Y-16479174D02*
X10615753Y-16526793D01*
X10615753Y-16526793D02*
X10606229Y-16564888D01*
X10606229Y-16564888D02*
X10596705Y-16583936D01*
X10596705Y-16583936D02*
X10587182Y-16593460D01*
X10587182Y-16593460D02*
X10568134Y-16602984D01*
X10568134Y-16602984D02*
X10549086Y-16602984D01*
X10549086Y-16602984D02*
X10530039Y-16593460D01*
X10530039Y-16593460D02*
X10520515Y-16583936D01*
X10520515Y-16583936D02*
X10510991Y-16564888D01*
X10510991Y-16564888D02*
X10501467Y-16526793D01*
X10501467Y-16526793D02*
X10501467Y-16479174D01*
X10501467Y-16479174D02*
X10510991Y-16441079D01*
X10510991Y-16441079D02*
X10520515Y-16422031D01*
X10520515Y-16422031D02*
X10530039Y-16412508D01*
X10530039Y-16412508D02*
X10549086Y-16402984D01*
X10739563Y-16402984D02*
X10758610Y-16402984D01*
X10758610Y-16402984D02*
X10777658Y-16412508D01*
X10777658Y-16412508D02*
X10787182Y-16422031D01*
X10787182Y-16422031D02*
X10796705Y-16441079D01*
X10796705Y-16441079D02*
X10806229Y-16479174D01*
X10806229Y-16479174D02*
X10806229Y-16526793D01*
X10806229Y-16526793D02*
X10796705Y-16564888D01*
X10796705Y-16564888D02*
X10787182Y-16583936D01*
X10787182Y-16583936D02*
X10777658Y-16593460D01*
X10777658Y-16593460D02*
X10758610Y-16602984D01*
X10758610Y-16602984D02*
X10739563Y-16602984D01*
X10739563Y-16602984D02*
X10720515Y-16593460D01*
X10720515Y-16593460D02*
X10710991Y-16583936D01*
X10710991Y-16583936D02*
X10701467Y-16564888D01*
X10701467Y-16564888D02*
X10691944Y-16526793D01*
X10691944Y-16526793D02*
X10691944Y-16479174D01*
X10691944Y-16479174D02*
X10701467Y-16441079D01*
X10701467Y-16441079D02*
X10710991Y-16422031D01*
X10710991Y-16422031D02*
X10720515Y-16412508D01*
X10720515Y-16412508D02*
X10739563Y-16402984D01*
X10930039Y-16402984D02*
X10949086Y-16402984D01*
X10949086Y-16402984D02*
X10968134Y-16412508D01*
X10968134Y-16412508D02*
X10977658Y-16422031D01*
X10977658Y-16422031D02*
X10987182Y-16441079D01*
X10987182Y-16441079D02*
X10996705Y-16479174D01*
X10996705Y-16479174D02*
X10996705Y-16526793D01*
X10996705Y-16526793D02*
X10987182Y-16564888D01*
X10987182Y-16564888D02*
X10977658Y-16583936D01*
X10977658Y-16583936D02*
X10968134Y-16593460D01*
X10968134Y-16593460D02*
X10949086Y-16602984D01*
X10949086Y-16602984D02*
X10930039Y-16602984D01*
X10930039Y-16602984D02*
X10910991Y-16593460D01*
X10910991Y-16593460D02*
X10901467Y-16583936D01*
X10901467Y-16583936D02*
X10891944Y-16564888D01*
X10891944Y-16564888D02*
X10882420Y-16526793D01*
X10882420Y-16526793D02*
X10882420Y-16479174D01*
X10882420Y-16479174D02*
X10891944Y-16441079D01*
X10891944Y-16441079D02*
X10901467Y-16422031D01*
X10901467Y-16422031D02*
X10910991Y-16412508D01*
X10910991Y-16412508D02*
X10930039Y-16402984D01*
X11082420Y-16602984D02*
X11082420Y-16469650D01*
X11082420Y-16488698D02*
X11091944Y-16479174D01*
X11091944Y-16479174D02*
X11110991Y-16469650D01*
X11110991Y-16469650D02*
X11139563Y-16469650D01*
X11139563Y-16469650D02*
X11158610Y-16479174D01*
X11158610Y-16479174D02*
X11168134Y-16498222D01*
X11168134Y-16498222D02*
X11168134Y-16602984D01*
X11168134Y-16498222D02*
X11177658Y-16479174D01*
X11177658Y-16479174D02*
X11196705Y-16469650D01*
X11196705Y-16469650D02*
X11225277Y-16469650D01*
X11225277Y-16469650D02*
X11244324Y-16479174D01*
X11244324Y-16479174D02*
X11253848Y-16498222D01*
X11253848Y-16498222D02*
X11253848Y-16602984D01*
X11349086Y-16602984D02*
X11349086Y-16469650D01*
X11349086Y-16488698D02*
X11358610Y-16479174D01*
X11358610Y-16479174D02*
X11377658Y-16469650D01*
X11377658Y-16469650D02*
X11406229Y-16469650D01*
X11406229Y-16469650D02*
X11425277Y-16479174D01*
X11425277Y-16479174D02*
X11434801Y-16498222D01*
X11434801Y-16498222D02*
X11434801Y-16602984D01*
X11434801Y-16498222D02*
X11444324Y-16479174D01*
X11444324Y-16479174D02*
X11463372Y-16469650D01*
X11463372Y-16469650D02*
X11491943Y-16469650D01*
X11491943Y-16469650D02*
X11510991Y-16479174D01*
X11510991Y-16479174D02*
X11520515Y-16498222D01*
X11520515Y-16498222D02*
X11520515Y-16602984D01*
X11910991Y-16393460D02*
X11739563Y-16650603D01*
X12168134Y-16402984D02*
X12187182Y-16402984D01*
X12187182Y-16402984D02*
X12206229Y-16412508D01*
X12206229Y-16412508D02*
X12215753Y-16422031D01*
X12215753Y-16422031D02*
X12225277Y-16441079D01*
X12225277Y-16441079D02*
X12234801Y-16479174D01*
X12234801Y-16479174D02*
X12234801Y-16526793D01*
X12234801Y-16526793D02*
X12225277Y-16564888D01*
X12225277Y-16564888D02*
X12215753Y-16583936D01*
X12215753Y-16583936D02*
X12206229Y-16593460D01*
X12206229Y-16593460D02*
X12187182Y-16602984D01*
X12187182Y-16602984D02*
X12168134Y-16602984D01*
X12168134Y-16602984D02*
X12149086Y-16593460D01*
X12149086Y-16593460D02*
X12139563Y-16583936D01*
X12139563Y-16583936D02*
X12130039Y-16564888D01*
X12130039Y-16564888D02*
X12120515Y-16526793D01*
X12120515Y-16526793D02*
X12120515Y-16479174D01*
X12120515Y-16479174D02*
X12130039Y-16441079D01*
X12130039Y-16441079D02*
X12139563Y-16422031D01*
X12139563Y-16422031D02*
X12149086Y-16412508D01*
X12149086Y-16412508D02*
X12168134Y-16402984D01*
X12320515Y-16583936D02*
X12330039Y-16593460D01*
X12330039Y-16593460D02*
X12320515Y-16602984D01*
X12320515Y-16602984D02*
X12310991Y-16593460D01*
X12310991Y-16593460D02*
X12320515Y-16583936D01*
X12320515Y-16583936D02*
X12320515Y-16602984D01*
X12520515Y-16602984D02*
X12406229Y-16602984D01*
X12463372Y-16602984D02*
X12463372Y-16402984D01*
X12463372Y-16402984D02*
X12444325Y-16431555D01*
X12444325Y-16431555D02*
X12425277Y-16450603D01*
X12425277Y-16450603D02*
X12406229Y-16460127D01*
X12701467Y-16402984D02*
X12606229Y-16402984D01*
X12606229Y-16402984D02*
X12596706Y-16498222D01*
X12596706Y-16498222D02*
X12606229Y-16488698D01*
X12606229Y-16488698D02*
X12625277Y-16479174D01*
X12625277Y-16479174D02*
X12672896Y-16479174D01*
X12672896Y-16479174D02*
X12691944Y-16488698D01*
X12691944Y-16488698D02*
X12701467Y-16498222D01*
X12701467Y-16498222D02*
X12710991Y-16517269D01*
X12710991Y-16517269D02*
X12710991Y-16564888D01*
X12710991Y-16564888D02*
X12701467Y-16583936D01*
X12701467Y-16583936D02*
X12691944Y-16593460D01*
X12691944Y-16593460D02*
X12672896Y-16602984D01*
X12672896Y-16602984D02*
X12625277Y-16602984D01*
X12625277Y-16602984D02*
X12606229Y-16593460D01*
X12606229Y-16593460D02*
X12596706Y-16583936D01*
X12777658Y-16402984D02*
X12910991Y-16402984D01*
X12910991Y-16402984D02*
X12825277Y-16602984D01*
X13082420Y-16402984D02*
X12987182Y-16402984D01*
X12987182Y-16402984D02*
X12977658Y-16498222D01*
X12977658Y-16498222D02*
X12987182Y-16488698D01*
X12987182Y-16488698D02*
X13006229Y-16479174D01*
X13006229Y-16479174D02*
X13053848Y-16479174D01*
X13053848Y-16479174D02*
X13072896Y-16488698D01*
X13072896Y-16488698D02*
X13082420Y-16498222D01*
X13082420Y-16498222D02*
X13091944Y-16517269D01*
X13091944Y-16517269D02*
X13091944Y-16564888D01*
X13091944Y-16564888D02*
X13082420Y-16583936D01*
X13082420Y-16583936D02*
X13072896Y-16593460D01*
X13072896Y-16593460D02*
X13053848Y-16602984D01*
X13053848Y-16602984D02*
X13006229Y-16602984D01*
X13006229Y-16602984D02*
X12987182Y-16593460D01*
X12987182Y-16593460D02*
X12977658Y-16583936D01*
X13168134Y-16402984D02*
X13168134Y-16441079D01*
X13244325Y-16402984D02*
X13244325Y-16441079D01*
X13539563Y-16679174D02*
X13530039Y-16669650D01*
X13530039Y-16669650D02*
X13510991Y-16641079D01*
X13510991Y-16641079D02*
X13501468Y-16622031D01*
X13501468Y-16622031D02*
X13491944Y-16593460D01*
X13491944Y-16593460D02*
X13482420Y-16545841D01*
X13482420Y-16545841D02*
X13482420Y-16507746D01*
X13482420Y-16507746D02*
X13491944Y-16460127D01*
X13491944Y-16460127D02*
X13501468Y-16431555D01*
X13501468Y-16431555D02*
X13510991Y-16412508D01*
X13510991Y-16412508D02*
X13530039Y-16383936D01*
X13530039Y-16383936D02*
X13539563Y-16374412D01*
X13720515Y-16602984D02*
X13606229Y-16602984D01*
X13663372Y-16602984D02*
X13663372Y-16402984D01*
X13663372Y-16402984D02*
X13644325Y-16431555D01*
X13644325Y-16431555D02*
X13625277Y-16450603D01*
X13625277Y-16450603D02*
X13606229Y-16460127D01*
X13844325Y-16402984D02*
X13863372Y-16402984D01*
X13863372Y-16402984D02*
X13882420Y-16412508D01*
X13882420Y-16412508D02*
X13891944Y-16422031D01*
X13891944Y-16422031D02*
X13901468Y-16441079D01*
X13901468Y-16441079D02*
X13910991Y-16479174D01*
X13910991Y-16479174D02*
X13910991Y-16526793D01*
X13910991Y-16526793D02*
X13901468Y-16564888D01*
X13901468Y-16564888D02*
X13891944Y-16583936D01*
X13891944Y-16583936D02*
X13882420Y-16593460D01*
X13882420Y-16593460D02*
X13863372Y-16602984D01*
X13863372Y-16602984D02*
X13844325Y-16602984D01*
X13844325Y-16602984D02*
X13825277Y-16593460D01*
X13825277Y-16593460D02*
X13815753Y-16583936D01*
X13815753Y-16583936D02*
X13806229Y-16564888D01*
X13806229Y-16564888D02*
X13796706Y-16526793D01*
X13796706Y-16526793D02*
X13796706Y-16479174D01*
X13796706Y-16479174D02*
X13806229Y-16441079D01*
X13806229Y-16441079D02*
X13815753Y-16422031D01*
X13815753Y-16422031D02*
X13825277Y-16412508D01*
X13825277Y-16412508D02*
X13844325Y-16402984D01*
X14149087Y-16602984D02*
X14149087Y-16402984D01*
X14234801Y-16602984D02*
X14234801Y-16498222D01*
X14234801Y-16498222D02*
X14225277Y-16479174D01*
X14225277Y-16479174D02*
X14206230Y-16469650D01*
X14206230Y-16469650D02*
X14177658Y-16469650D01*
X14177658Y-16469650D02*
X14158610Y-16479174D01*
X14158610Y-16479174D02*
X14149087Y-16488698D01*
X14358610Y-16602984D02*
X14339563Y-16593460D01*
X14339563Y-16593460D02*
X14330039Y-16583936D01*
X14330039Y-16583936D02*
X14320515Y-16564888D01*
X14320515Y-16564888D02*
X14320515Y-16507746D01*
X14320515Y-16507746D02*
X14330039Y-16488698D01*
X14330039Y-16488698D02*
X14339563Y-16479174D01*
X14339563Y-16479174D02*
X14358610Y-16469650D01*
X14358610Y-16469650D02*
X14387182Y-16469650D01*
X14387182Y-16469650D02*
X14406230Y-16479174D01*
X14406230Y-16479174D02*
X14415753Y-16488698D01*
X14415753Y-16488698D02*
X14425277Y-16507746D01*
X14425277Y-16507746D02*
X14425277Y-16564888D01*
X14425277Y-16564888D02*
X14415753Y-16583936D01*
X14415753Y-16583936D02*
X14406230Y-16593460D01*
X14406230Y-16593460D02*
X14387182Y-16602984D01*
X14387182Y-16602984D02*
X14358610Y-16602984D01*
X14539563Y-16602984D02*
X14520515Y-16593460D01*
X14520515Y-16593460D02*
X14510991Y-16574412D01*
X14510991Y-16574412D02*
X14510991Y-16402984D01*
X14691944Y-16593460D02*
X14672896Y-16602984D01*
X14672896Y-16602984D02*
X14634801Y-16602984D01*
X14634801Y-16602984D02*
X14615753Y-16593460D01*
X14615753Y-16593460D02*
X14606230Y-16574412D01*
X14606230Y-16574412D02*
X14606230Y-16498222D01*
X14606230Y-16498222D02*
X14615753Y-16479174D01*
X14615753Y-16479174D02*
X14634801Y-16469650D01*
X14634801Y-16469650D02*
X14672896Y-16469650D01*
X14672896Y-16469650D02*
X14691944Y-16479174D01*
X14691944Y-16479174D02*
X14701468Y-16498222D01*
X14701468Y-16498222D02*
X14701468Y-16517269D01*
X14701468Y-16517269D02*
X14606230Y-16536317D01*
X14777658Y-16593460D02*
X14796706Y-16602984D01*
X14796706Y-16602984D02*
X14834801Y-16602984D01*
X14834801Y-16602984D02*
X14853849Y-16593460D01*
X14853849Y-16593460D02*
X14863372Y-16574412D01*
X14863372Y-16574412D02*
X14863372Y-16564888D01*
X14863372Y-16564888D02*
X14853849Y-16545841D01*
X14853849Y-16545841D02*
X14834801Y-16536317D01*
X14834801Y-16536317D02*
X14806230Y-16536317D01*
X14806230Y-16536317D02*
X14787182Y-16526793D01*
X14787182Y-16526793D02*
X14777658Y-16507746D01*
X14777658Y-16507746D02*
X14777658Y-16498222D01*
X14777658Y-16498222D02*
X14787182Y-16479174D01*
X14787182Y-16479174D02*
X14806230Y-16469650D01*
X14806230Y-16469650D02*
X14834801Y-16469650D01*
X14834801Y-16469650D02*
X14853849Y-16479174D01*
X14930039Y-16679174D02*
X14939563Y-16669650D01*
X14939563Y-16669650D02*
X14958611Y-16641079D01*
X14958611Y-16641079D02*
X14968134Y-16622031D01*
X14968134Y-16622031D02*
X14977658Y-16593460D01*
X14977658Y-16593460D02*
X14987182Y-16545841D01*
X14987182Y-16545841D02*
X14987182Y-16507746D01*
X14987182Y-16507746D02*
X14977658Y-16460127D01*
X14977658Y-16460127D02*
X14968134Y-16431555D01*
X14968134Y-16431555D02*
X14958611Y-16412508D01*
X14958611Y-16412508D02*
X14939563Y-16383936D01*
X14939563Y-16383936D02*
X14930039Y-16374412D01*
X15291944Y-16679174D02*
X15282420Y-16669650D01*
X15282420Y-16669650D02*
X15263372Y-16641079D01*
X15263372Y-16641079D02*
X15253849Y-16622031D01*
X15253849Y-16622031D02*
X15244325Y-16593460D01*
X15244325Y-16593460D02*
X15234801Y-16545841D01*
X15234801Y-16545841D02*
X15234801Y-16507746D01*
X15234801Y-16507746D02*
X15244325Y-16460127D01*
X15244325Y-16460127D02*
X15253849Y-16431555D01*
X15253849Y-16431555D02*
X15263372Y-16412508D01*
X15263372Y-16412508D02*
X15282420Y-16383936D01*
X15282420Y-16383936D02*
X15291944Y-16374412D01*
X15368134Y-16469650D02*
X15368134Y-16602984D01*
X15368134Y-16488698D02*
X15377658Y-16479174D01*
X15377658Y-16479174D02*
X15396706Y-16469650D01*
X15396706Y-16469650D02*
X15425277Y-16469650D01*
X15425277Y-16469650D02*
X15444325Y-16479174D01*
X15444325Y-16479174D02*
X15453849Y-16498222D01*
X15453849Y-16498222D02*
X15453849Y-16602984D01*
X15577658Y-16602984D02*
X15558611Y-16593460D01*
X15558611Y-16593460D02*
X15549087Y-16583936D01*
X15549087Y-16583936D02*
X15539563Y-16564888D01*
X15539563Y-16564888D02*
X15539563Y-16507746D01*
X15539563Y-16507746D02*
X15549087Y-16488698D01*
X15549087Y-16488698D02*
X15558611Y-16479174D01*
X15558611Y-16479174D02*
X15577658Y-16469650D01*
X15577658Y-16469650D02*
X15606230Y-16469650D01*
X15606230Y-16469650D02*
X15625277Y-16479174D01*
X15625277Y-16479174D02*
X15634801Y-16488698D01*
X15634801Y-16488698D02*
X15644325Y-16507746D01*
X15644325Y-16507746D02*
X15644325Y-16564888D01*
X15644325Y-16564888D02*
X15634801Y-16583936D01*
X15634801Y-16583936D02*
X15625277Y-16593460D01*
X15625277Y-16593460D02*
X15606230Y-16602984D01*
X15606230Y-16602984D02*
X15577658Y-16602984D01*
X15701468Y-16469650D02*
X15777658Y-16469650D01*
X15730039Y-16402984D02*
X15730039Y-16574412D01*
X15730039Y-16574412D02*
X15739563Y-16593460D01*
X15739563Y-16593460D02*
X15758611Y-16602984D01*
X15758611Y-16602984D02*
X15777658Y-16602984D01*
X15996706Y-16469650D02*
X15996706Y-16669650D01*
X15996706Y-16479174D02*
X16015753Y-16469650D01*
X16015753Y-16469650D02*
X16053849Y-16469650D01*
X16053849Y-16469650D02*
X16072896Y-16479174D01*
X16072896Y-16479174D02*
X16082420Y-16488698D01*
X16082420Y-16488698D02*
X16091944Y-16507746D01*
X16091944Y-16507746D02*
X16091944Y-16564888D01*
X16091944Y-16564888D02*
X16082420Y-16583936D01*
X16082420Y-16583936D02*
X16072896Y-16593460D01*
X16072896Y-16593460D02*
X16053849Y-16602984D01*
X16053849Y-16602984D02*
X16015753Y-16602984D01*
X16015753Y-16602984D02*
X15996706Y-16593460D01*
X16206230Y-16602984D02*
X16187182Y-16593460D01*
X16187182Y-16593460D02*
X16177658Y-16574412D01*
X16177658Y-16574412D02*
X16177658Y-16402984D01*
X16368134Y-16602984D02*
X16368134Y-16498222D01*
X16368134Y-16498222D02*
X16358611Y-16479174D01*
X16358611Y-16479174D02*
X16339563Y-16469650D01*
X16339563Y-16469650D02*
X16301468Y-16469650D01*
X16301468Y-16469650D02*
X16282420Y-16479174D01*
X16368134Y-16593460D02*
X16349087Y-16602984D01*
X16349087Y-16602984D02*
X16301468Y-16602984D01*
X16301468Y-16602984D02*
X16282420Y-16593460D01*
X16282420Y-16593460D02*
X16272896Y-16574412D01*
X16272896Y-16574412D02*
X16272896Y-16555365D01*
X16272896Y-16555365D02*
X16282420Y-16536317D01*
X16282420Y-16536317D02*
X16301468Y-16526793D01*
X16301468Y-16526793D02*
X16349087Y-16526793D01*
X16349087Y-16526793D02*
X16368134Y-16517269D01*
X16434801Y-16469650D02*
X16510992Y-16469650D01*
X16463373Y-16402984D02*
X16463373Y-16574412D01*
X16463373Y-16574412D02*
X16472896Y-16593460D01*
X16472896Y-16593460D02*
X16491944Y-16602984D01*
X16491944Y-16602984D02*
X16510992Y-16602984D01*
X16653849Y-16593460D02*
X16634801Y-16602984D01*
X16634801Y-16602984D02*
X16596706Y-16602984D01*
X16596706Y-16602984D02*
X16577658Y-16593460D01*
X16577658Y-16593460D02*
X16568134Y-16574412D01*
X16568134Y-16574412D02*
X16568134Y-16498222D01*
X16568134Y-16498222D02*
X16577658Y-16479174D01*
X16577658Y-16479174D02*
X16596706Y-16469650D01*
X16596706Y-16469650D02*
X16634801Y-16469650D01*
X16634801Y-16469650D02*
X16653849Y-16479174D01*
X16653849Y-16479174D02*
X16663373Y-16498222D01*
X16663373Y-16498222D02*
X16663373Y-16517269D01*
X16663373Y-16517269D02*
X16568134Y-16536317D01*
X16834801Y-16602984D02*
X16834801Y-16402984D01*
X16834801Y-16593460D02*
X16815754Y-16602984D01*
X16815754Y-16602984D02*
X16777658Y-16602984D01*
X16777658Y-16602984D02*
X16758611Y-16593460D01*
X16758611Y-16593460D02*
X16749087Y-16583936D01*
X16749087Y-16583936D02*
X16739563Y-16564888D01*
X16739563Y-16564888D02*
X16739563Y-16507746D01*
X16739563Y-16507746D02*
X16749087Y-16488698D01*
X16749087Y-16488698D02*
X16758611Y-16479174D01*
X16758611Y-16479174D02*
X16777658Y-16469650D01*
X16777658Y-16469650D02*
X16815754Y-16469650D01*
X16815754Y-16469650D02*
X16834801Y-16479174D01*
X16910992Y-16679174D02*
X16920516Y-16669650D01*
X16920516Y-16669650D02*
X16939563Y-16641079D01*
X16939563Y-16641079D02*
X16949087Y-16622031D01*
X16949087Y-16622031D02*
X16958611Y-16593460D01*
X16958611Y-16593460D02*
X16968135Y-16545841D01*
X16968135Y-16545841D02*
X16968135Y-16507746D01*
X16968135Y-16507746D02*
X16958611Y-16460127D01*
X16958611Y-16460127D02*
X16949087Y-16431555D01*
X16949087Y-16431555D02*
X16939563Y-16412508D01*
X16939563Y-16412508D02*
X16920516Y-16383936D01*
X16920516Y-16383936D02*
X16910992Y-16374412D01*
M02*
